G04 #@! TF.GenerationSoftware,KiCad,Pcbnew,(6.0.9)*
G04 #@! TF.CreationDate,2022-11-27T19:02:43-05:00*
G04 #@! TF.ProjectId,usbcounter,75736263-6f75-46e7-9465-722e6b696361,rev?*
G04 #@! TF.SameCoordinates,Original*
G04 #@! TF.FileFunction,Legend,Top*
G04 #@! TF.FilePolarity,Positive*
%FSLAX46Y46*%
G04 Gerber Fmt 4.6, Leading zero omitted, Abs format (unit mm)*
G04 Created by KiCad (PCBNEW (6.0.9)) date 2022-11-27 19:02:43*
%MOMM*%
%LPD*%
G01*
G04 APERTURE LIST*
G04 Aperture macros list*
%AMRoundRect*
0 Rectangle with rounded corners*
0 $1 Rounding radius*
0 $2 $3 $4 $5 $6 $7 $8 $9 X,Y pos of 4 corners*
0 Add a 4 corners polygon primitive as box body*
4,1,4,$2,$3,$4,$5,$6,$7,$8,$9,$2,$3,0*
0 Add four circle primitives for the rounded corners*
1,1,$1+$1,$2,$3*
1,1,$1+$1,$4,$5*
1,1,$1+$1,$6,$7*
1,1,$1+$1,$8,$9*
0 Add four rect primitives between the rounded corners*
20,1,$1+$1,$2,$3,$4,$5,0*
20,1,$1+$1,$4,$5,$6,$7,0*
20,1,$1+$1,$6,$7,$8,$9,0*
20,1,$1+$1,$8,$9,$2,$3,0*%
G04 Aperture macros list end*
%ADD10C,0.200000*%
%ADD11C,0.300000*%
%ADD12C,0.500000*%
%ADD13C,0.250000*%
%ADD14C,0.100000*%
%ADD15C,0.150000*%
%ADD16C,0.254000*%
%ADD17C,0.120000*%
%ADD18RoundRect,0.250000X0.337500X0.475000X-0.337500X0.475000X-0.337500X-0.475000X0.337500X-0.475000X0*%
%ADD19RoundRect,0.250000X0.325000X0.450000X-0.325000X0.450000X-0.325000X-0.450000X0.325000X-0.450000X0*%
%ADD20RoundRect,0.250000X-0.350000X-0.450000X0.350000X-0.450000X0.350000X0.450000X-0.350000X0.450000X0*%
%ADD21R,1.700000X1.700000*%
%ADD22O,1.700000X1.700000*%
%ADD23RoundRect,0.250000X-0.450000X0.350000X-0.450000X-0.350000X0.450000X-0.350000X0.450000X0.350000X0*%
%ADD24C,2.050000*%
%ADD25C,2.250000*%
%ADD26RoundRect,0.250000X0.450000X-0.350000X0.450000X0.350000X-0.450000X0.350000X-0.450000X-0.350000X0*%
%ADD27RoundRect,0.150000X-0.512500X-0.150000X0.512500X-0.150000X0.512500X0.150000X-0.512500X0.150000X0*%
%ADD28R,1.500000X2.000000*%
%ADD29R,3.800000X2.000000*%
%ADD30R,1.000000X1.000000*%
%ADD31RoundRect,0.250000X-0.475000X0.337500X-0.475000X-0.337500X0.475000X-0.337500X0.475000X0.337500X0*%
%ADD32R,1.800000X0.450000*%
%ADD33RoundRect,0.250000X0.450000X-0.325000X0.450000X0.325000X-0.450000X0.325000X-0.450000X-0.325000X0*%
%ADD34RoundRect,0.250000X0.350000X0.450000X-0.350000X0.450000X-0.350000X-0.450000X0.350000X-0.450000X0*%
%ADD35C,1.600000*%
%ADD36O,1.600000X1.600000*%
%ADD37RoundRect,0.250000X0.475000X-0.337500X0.475000X0.337500X-0.475000X0.337500X-0.475000X-0.337500X0*%
%ADD38RoundRect,0.150000X-0.875000X-0.150000X0.875000X-0.150000X0.875000X0.150000X-0.875000X0.150000X0*%
%ADD39RoundRect,0.150000X-0.587500X-0.150000X0.587500X-0.150000X0.587500X0.150000X-0.587500X0.150000X0*%
%ADD40C,3.800000*%
%ADD41RoundRect,0.250000X-0.337500X-0.475000X0.337500X-0.475000X0.337500X0.475000X-0.337500X0.475000X0*%
%ADD42C,0.001000*%
%ADD43R,1.350000X0.400000*%
%ADD44R,1.900000X1.900000*%
%ADD45R,1.200000X0.400000*%
%ADD46RoundRect,0.250000X0.275000X-0.400000X0.275000X0.400000X-0.275000X0.400000X-0.275000X-0.400000X0*%
%ADD47R,1.300000X1.100000*%
%ADD48RoundRect,0.100000X-0.637500X-0.100000X0.637500X-0.100000X0.637500X0.100000X-0.637500X0.100000X0*%
G04 APERTURE END LIST*
D10*
X71120000Y-98044000D02*
X70612000Y-98044000D01*
X70612000Y-97536000D02*
X71120000Y-97536000D01*
X71120000Y-93980000D02*
X70612000Y-93980000D01*
X70612000Y-93980000D02*
X70612000Y-97536000D01*
X70612000Y-98044000D02*
X70612000Y-101600000D01*
X70612000Y-101600000D02*
X71120000Y-101600000D01*
D11*
X134536571Y-73020571D02*
X133036571Y-73020571D01*
X133036571Y-72663428D01*
X133108000Y-72449142D01*
X133250857Y-72306285D01*
X133393714Y-72234857D01*
X133679428Y-72163428D01*
X133893714Y-72163428D01*
X134179428Y-72234857D01*
X134322285Y-72306285D01*
X134465142Y-72449142D01*
X134536571Y-72663428D01*
X134536571Y-73020571D01*
X134536571Y-71520571D02*
X133536571Y-71520571D01*
X133036571Y-71520571D02*
X133108000Y-71592000D01*
X133179428Y-71520571D01*
X133108000Y-71449142D01*
X133036571Y-71520571D01*
X133179428Y-71520571D01*
X134465142Y-70877714D02*
X134536571Y-70734857D01*
X134536571Y-70449142D01*
X134465142Y-70306285D01*
X134322285Y-70234857D01*
X134250857Y-70234857D01*
X134108000Y-70306285D01*
X134036571Y-70449142D01*
X134036571Y-70663428D01*
X133965142Y-70806285D01*
X133822285Y-70877714D01*
X133750857Y-70877714D01*
X133608000Y-70806285D01*
X133536571Y-70663428D01*
X133536571Y-70449142D01*
X133608000Y-70306285D01*
X133536571Y-69592000D02*
X135036571Y-69592000D01*
X133608000Y-69592000D02*
X133536571Y-69449142D01*
X133536571Y-69163428D01*
X133608000Y-69020571D01*
X133679428Y-68949142D01*
X133822285Y-68877714D01*
X134250857Y-68877714D01*
X134393714Y-68949142D01*
X134465142Y-69020571D01*
X134536571Y-69163428D01*
X134536571Y-69449142D01*
X134465142Y-69592000D01*
X134536571Y-68020571D02*
X134465142Y-68163428D01*
X134322285Y-68234857D01*
X133036571Y-68234857D01*
X134536571Y-66806285D02*
X133750857Y-66806285D01*
X133608000Y-66877714D01*
X133536571Y-67020571D01*
X133536571Y-67306285D01*
X133608000Y-67449142D01*
X134465142Y-66806285D02*
X134536571Y-66949142D01*
X134536571Y-67306285D01*
X134465142Y-67449142D01*
X134322285Y-67520571D01*
X134179428Y-67520571D01*
X134036571Y-67449142D01*
X133965142Y-67306285D01*
X133965142Y-66949142D01*
X133893714Y-66806285D01*
X133536571Y-66234857D02*
X134536571Y-65877714D01*
X133536571Y-65520571D02*
X134536571Y-65877714D01*
X134893714Y-66020571D01*
X134965142Y-66092000D01*
X135036571Y-66234857D01*
D12*
X54548761Y-81883523D02*
X54548761Y-85121619D01*
X54739238Y-85502571D01*
X54929714Y-85693047D01*
X55310666Y-85883523D01*
X56072571Y-85883523D01*
X56453523Y-85693047D01*
X56644000Y-85502571D01*
X56834476Y-85121619D01*
X56834476Y-81883523D01*
X58548761Y-85693047D02*
X59120190Y-85883523D01*
X60072571Y-85883523D01*
X60453523Y-85693047D01*
X60644000Y-85502571D01*
X60834476Y-85121619D01*
X60834476Y-84740666D01*
X60644000Y-84359714D01*
X60453523Y-84169238D01*
X60072571Y-83978761D01*
X59310666Y-83788285D01*
X58929714Y-83597809D01*
X58739238Y-83407333D01*
X58548761Y-83026380D01*
X58548761Y-82645428D01*
X58739238Y-82264476D01*
X58929714Y-82074000D01*
X59310666Y-81883523D01*
X60263047Y-81883523D01*
X60834476Y-82074000D01*
X63882095Y-83788285D02*
X64453523Y-83978761D01*
X64644000Y-84169238D01*
X64834476Y-84550190D01*
X64834476Y-85121619D01*
X64644000Y-85502571D01*
X64453523Y-85693047D01*
X64072571Y-85883523D01*
X62548761Y-85883523D01*
X62548761Y-81883523D01*
X63882095Y-81883523D01*
X64263047Y-82074000D01*
X64453523Y-82264476D01*
X64644000Y-82645428D01*
X64644000Y-83026380D01*
X64453523Y-83407333D01*
X64263047Y-83597809D01*
X63882095Y-83788285D01*
X62548761Y-83788285D01*
X71882095Y-85502571D02*
X71691619Y-85693047D01*
X71120190Y-85883523D01*
X70739238Y-85883523D01*
X70167809Y-85693047D01*
X69786857Y-85312095D01*
X69596380Y-84931142D01*
X69405904Y-84169238D01*
X69405904Y-83597809D01*
X69596380Y-82835904D01*
X69786857Y-82454952D01*
X70167809Y-82074000D01*
X70739238Y-81883523D01*
X71120190Y-81883523D01*
X71691619Y-82074000D01*
X71882095Y-82264476D01*
X74167809Y-85883523D02*
X73786857Y-85693047D01*
X73596380Y-85502571D01*
X73405904Y-85121619D01*
X73405904Y-83978761D01*
X73596380Y-83597809D01*
X73786857Y-83407333D01*
X74167809Y-83216857D01*
X74739238Y-83216857D01*
X75120190Y-83407333D01*
X75310666Y-83597809D01*
X75501142Y-83978761D01*
X75501142Y-85121619D01*
X75310666Y-85502571D01*
X75120190Y-85693047D01*
X74739238Y-85883523D01*
X74167809Y-85883523D01*
X78929714Y-83216857D02*
X78929714Y-85883523D01*
X77215428Y-83216857D02*
X77215428Y-85312095D01*
X77405904Y-85693047D01*
X77786857Y-85883523D01*
X78358285Y-85883523D01*
X78739238Y-85693047D01*
X78929714Y-85502571D01*
X80834476Y-83216857D02*
X80834476Y-85883523D01*
X80834476Y-83597809D02*
X81024952Y-83407333D01*
X81405904Y-83216857D01*
X81977333Y-83216857D01*
X82358285Y-83407333D01*
X82548761Y-83788285D01*
X82548761Y-85883523D01*
X83882095Y-83216857D02*
X85405904Y-83216857D01*
X84453523Y-81883523D02*
X84453523Y-85312095D01*
X84644000Y-85693047D01*
X85024952Y-85883523D01*
X85405904Y-85883523D01*
X88263047Y-85693047D02*
X87882095Y-85883523D01*
X87120190Y-85883523D01*
X86739238Y-85693047D01*
X86548761Y-85312095D01*
X86548761Y-83788285D01*
X86739238Y-83407333D01*
X87120190Y-83216857D01*
X87882095Y-83216857D01*
X88263047Y-83407333D01*
X88453523Y-83788285D01*
X88453523Y-84169238D01*
X86548761Y-84550190D01*
X90167809Y-85883523D02*
X90167809Y-83216857D01*
X90167809Y-83978761D02*
X90358285Y-83597809D01*
X90548761Y-83407333D01*
X90929714Y-83216857D01*
X91310666Y-83216857D01*
D11*
X60242857Y-108652571D02*
X61100000Y-108652571D01*
X60671428Y-110152571D02*
X60671428Y-108652571D01*
X62171428Y-110081142D02*
X62028571Y-110152571D01*
X61742857Y-110152571D01*
X61600000Y-110081142D01*
X61528571Y-109938285D01*
X61528571Y-109366857D01*
X61600000Y-109224000D01*
X61742857Y-109152571D01*
X62028571Y-109152571D01*
X62171428Y-109224000D01*
X62242857Y-109366857D01*
X62242857Y-109509714D01*
X61528571Y-109652571D01*
X62885714Y-110152571D02*
X62885714Y-109152571D01*
X62885714Y-109438285D02*
X62957142Y-109295428D01*
X63028571Y-109224000D01*
X63171428Y-109152571D01*
X63314285Y-109152571D01*
X63814285Y-110152571D02*
X63814285Y-109152571D01*
X63814285Y-109295428D02*
X63885714Y-109224000D01*
X64028571Y-109152571D01*
X64242857Y-109152571D01*
X64385714Y-109224000D01*
X64457142Y-109366857D01*
X64457142Y-110152571D01*
X64457142Y-109366857D02*
X64528571Y-109224000D01*
X64671428Y-109152571D01*
X64885714Y-109152571D01*
X65028571Y-109224000D01*
X65100000Y-109366857D01*
X65100000Y-110152571D01*
X65814285Y-110152571D02*
X65814285Y-109152571D01*
X65814285Y-108652571D02*
X65742857Y-108724000D01*
X65814285Y-108795428D01*
X65885714Y-108724000D01*
X65814285Y-108652571D01*
X65814285Y-108795428D01*
X66528571Y-109152571D02*
X66528571Y-110152571D01*
X66528571Y-109295428D02*
X66600000Y-109224000D01*
X66742857Y-109152571D01*
X66957142Y-109152571D01*
X67100000Y-109224000D01*
X67171428Y-109366857D01*
X67171428Y-110152571D01*
X68528571Y-110152571D02*
X68528571Y-109366857D01*
X68457142Y-109224000D01*
X68314285Y-109152571D01*
X68028571Y-109152571D01*
X67885714Y-109224000D01*
X68528571Y-110081142D02*
X68385714Y-110152571D01*
X68028571Y-110152571D01*
X67885714Y-110081142D01*
X67814285Y-109938285D01*
X67814285Y-109795428D01*
X67885714Y-109652571D01*
X68028571Y-109581142D01*
X68385714Y-109581142D01*
X68528571Y-109509714D01*
X69028571Y-109152571D02*
X69600000Y-109152571D01*
X69242857Y-108652571D02*
X69242857Y-109938285D01*
X69314285Y-110081142D01*
X69457142Y-110152571D01*
X69600000Y-110152571D01*
X70100000Y-110152571D02*
X70100000Y-109152571D01*
X70100000Y-108652571D02*
X70028571Y-108724000D01*
X70100000Y-108795428D01*
X70171428Y-108724000D01*
X70100000Y-108652571D01*
X70100000Y-108795428D01*
X71028571Y-110152571D02*
X70885714Y-110081142D01*
X70814285Y-110009714D01*
X70742857Y-109866857D01*
X70742857Y-109438285D01*
X70814285Y-109295428D01*
X70885714Y-109224000D01*
X71028571Y-109152571D01*
X71242857Y-109152571D01*
X71385714Y-109224000D01*
X71457142Y-109295428D01*
X71528571Y-109438285D01*
X71528571Y-109866857D01*
X71457142Y-110009714D01*
X71385714Y-110081142D01*
X71242857Y-110152571D01*
X71028571Y-110152571D01*
X72171428Y-109152571D02*
X72171428Y-110152571D01*
X72171428Y-109295428D02*
X72242857Y-109224000D01*
X72385714Y-109152571D01*
X72600000Y-109152571D01*
X72742857Y-109224000D01*
X72814285Y-109366857D01*
X72814285Y-110152571D01*
X75385714Y-110152571D02*
X74671428Y-110152571D01*
X74671428Y-108652571D01*
X76100000Y-110152571D02*
X75957142Y-110081142D01*
X75885714Y-110009714D01*
X75814285Y-109866857D01*
X75814285Y-109438285D01*
X75885714Y-109295428D01*
X75957142Y-109224000D01*
X76100000Y-109152571D01*
X76314285Y-109152571D01*
X76457142Y-109224000D01*
X76528571Y-109295428D01*
X76600000Y-109438285D01*
X76600000Y-109866857D01*
X76528571Y-110009714D01*
X76457142Y-110081142D01*
X76314285Y-110152571D01*
X76100000Y-110152571D01*
X77885714Y-110152571D02*
X77885714Y-109366857D01*
X77814285Y-109224000D01*
X77671428Y-109152571D01*
X77385714Y-109152571D01*
X77242857Y-109224000D01*
X77885714Y-110081142D02*
X77742857Y-110152571D01*
X77385714Y-110152571D01*
X77242857Y-110081142D01*
X77171428Y-109938285D01*
X77171428Y-109795428D01*
X77242857Y-109652571D01*
X77385714Y-109581142D01*
X77742857Y-109581142D01*
X77885714Y-109509714D01*
X79242857Y-110152571D02*
X79242857Y-108652571D01*
X79242857Y-110081142D02*
X79100000Y-110152571D01*
X78814285Y-110152571D01*
X78671428Y-110081142D01*
X78600000Y-110009714D01*
X78528571Y-109866857D01*
X78528571Y-109438285D01*
X78600000Y-109295428D01*
X78671428Y-109224000D01*
X78814285Y-109152571D01*
X79100000Y-109152571D01*
X79242857Y-109224000D01*
X99366000Y-53185142D02*
X99580285Y-53256571D01*
X99937428Y-53256571D01*
X100080285Y-53185142D01*
X100151714Y-53113714D01*
X100223142Y-52970857D01*
X100223142Y-52828000D01*
X100151714Y-52685142D01*
X100080285Y-52613714D01*
X99937428Y-52542285D01*
X99651714Y-52470857D01*
X99508857Y-52399428D01*
X99437428Y-52328000D01*
X99366000Y-52185142D01*
X99366000Y-52042285D01*
X99437428Y-51899428D01*
X99508857Y-51828000D01*
X99651714Y-51756571D01*
X100008857Y-51756571D01*
X100223142Y-51828000D01*
X100651714Y-52256571D02*
X101223142Y-52256571D01*
X100866000Y-51756571D02*
X100866000Y-53042285D01*
X100937428Y-53185142D01*
X101080285Y-53256571D01*
X101223142Y-53256571D01*
X102366000Y-53256571D02*
X102366000Y-52470857D01*
X102294571Y-52328000D01*
X102151714Y-52256571D01*
X101866000Y-52256571D01*
X101723142Y-52328000D01*
X102366000Y-53185142D02*
X102223142Y-53256571D01*
X101866000Y-53256571D01*
X101723142Y-53185142D01*
X101651714Y-53042285D01*
X101651714Y-52899428D01*
X101723142Y-52756571D01*
X101866000Y-52685142D01*
X102223142Y-52685142D01*
X102366000Y-52613714D01*
X102866000Y-52256571D02*
X103437428Y-52256571D01*
X103080285Y-51756571D02*
X103080285Y-53042285D01*
X103151714Y-53185142D01*
X103294571Y-53256571D01*
X103437428Y-53256571D01*
X104580285Y-52256571D02*
X104580285Y-53256571D01*
X103937428Y-52256571D02*
X103937428Y-53042285D01*
X104008857Y-53185142D01*
X104151714Y-53256571D01*
X104366000Y-53256571D01*
X104508857Y-53185142D01*
X104580285Y-53113714D01*
X105223142Y-53185142D02*
X105366000Y-53256571D01*
X105651714Y-53256571D01*
X105794571Y-53185142D01*
X105866000Y-53042285D01*
X105866000Y-52970857D01*
X105794571Y-52828000D01*
X105651714Y-52756571D01*
X105437428Y-52756571D01*
X105294571Y-52685142D01*
X105223142Y-52542285D01*
X105223142Y-52470857D01*
X105294571Y-52328000D01*
X105437428Y-52256571D01*
X105651714Y-52256571D01*
X105794571Y-52328000D01*
D13*
X125944380Y-100123047D02*
X126658666Y-100123047D01*
X126801523Y-100170666D01*
X126896761Y-100265904D01*
X126944380Y-100408761D01*
X126944380Y-100504000D01*
X126944380Y-99170666D02*
X126944380Y-99646857D01*
X125944380Y-99646857D01*
X126849142Y-98265904D02*
X126896761Y-98313523D01*
X126944380Y-98456380D01*
X126944380Y-98551619D01*
X126896761Y-98694476D01*
X126801523Y-98789714D01*
X126706285Y-98837333D01*
X126515809Y-98884952D01*
X126372952Y-98884952D01*
X126182476Y-98837333D01*
X126087238Y-98789714D01*
X125992000Y-98694476D01*
X125944380Y-98551619D01*
X125944380Y-98456380D01*
X125992000Y-98313523D01*
X126039619Y-98265904D01*
X125944380Y-97551619D02*
X126658666Y-97551619D01*
X126801523Y-97599238D01*
X126896761Y-97694476D01*
X126944380Y-97837333D01*
X126944380Y-97932571D01*
X126944380Y-96599238D02*
X126944380Y-97075428D01*
X125944380Y-97075428D01*
X126849142Y-95694476D02*
X126896761Y-95742095D01*
X126944380Y-95884952D01*
X126944380Y-95980190D01*
X126896761Y-96123047D01*
X126801523Y-96218285D01*
X126706285Y-96265904D01*
X126515809Y-96313523D01*
X126372952Y-96313523D01*
X126182476Y-96265904D01*
X126087238Y-96218285D01*
X125992000Y-96123047D01*
X125944380Y-95980190D01*
X125944380Y-95884952D01*
X125992000Y-95742095D01*
X126039619Y-95694476D01*
X125944380Y-94980190D02*
X126658666Y-94980190D01*
X126801523Y-95027809D01*
X126896761Y-95123047D01*
X126944380Y-95265904D01*
X126944380Y-95361142D01*
X126944380Y-94027809D02*
X126944380Y-94504000D01*
X125944380Y-94504000D01*
X126849142Y-93123047D02*
X126896761Y-93170666D01*
X126944380Y-93313523D01*
X126944380Y-93408761D01*
X126896761Y-93551619D01*
X126801523Y-93646857D01*
X126706285Y-93694476D01*
X126515809Y-93742095D01*
X126372952Y-93742095D01*
X126182476Y-93694476D01*
X126087238Y-93646857D01*
X125992000Y-93551619D01*
X125944380Y-93408761D01*
X125944380Y-93313523D01*
X125992000Y-93170666D01*
X126039619Y-93123047D01*
X125944380Y-92408761D02*
X126658666Y-92408761D01*
X126801523Y-92456380D01*
X126896761Y-92551619D01*
X126944380Y-92694476D01*
X126944380Y-92789714D01*
X126944380Y-91456380D02*
X126944380Y-91932571D01*
X125944380Y-91932571D01*
X126849142Y-90551619D02*
X126896761Y-90599238D01*
X126944380Y-90742095D01*
X126944380Y-90837333D01*
X126896761Y-90980190D01*
X126801523Y-91075428D01*
X126706285Y-91123047D01*
X126515809Y-91170666D01*
X126372952Y-91170666D01*
X126182476Y-91123047D01*
X126087238Y-91075428D01*
X125992000Y-90980190D01*
X125944380Y-90837333D01*
X125944380Y-90742095D01*
X125992000Y-90599238D01*
X126039619Y-90551619D01*
D11*
X68266571Y-101683142D02*
X68266571Y-100826000D01*
X69766571Y-101254571D02*
X68266571Y-101254571D01*
X68266571Y-100540285D02*
X68266571Y-99683142D01*
X69766571Y-100111714D02*
X68266571Y-100111714D01*
X69766571Y-98468857D02*
X69766571Y-99183142D01*
X68266571Y-99183142D01*
X69766571Y-96190571D02*
X69052285Y-96690571D01*
X69766571Y-97047714D02*
X68266571Y-97047714D01*
X68266571Y-96476285D01*
X68338000Y-96333428D01*
X68409428Y-96262000D01*
X68552285Y-96190571D01*
X68766571Y-96190571D01*
X68909428Y-96262000D01*
X68980857Y-96333428D01*
X69052285Y-96476285D01*
X69052285Y-97047714D01*
X68980857Y-95047714D02*
X68980857Y-95547714D01*
X69766571Y-95547714D02*
X68266571Y-95547714D01*
X68266571Y-94833428D01*
X113931714Y-58336571D02*
X113931714Y-56836571D01*
X114503142Y-56836571D01*
X114646000Y-56908000D01*
X114717428Y-56979428D01*
X114788857Y-57122285D01*
X114788857Y-57336571D01*
X114717428Y-57479428D01*
X114646000Y-57550857D01*
X114503142Y-57622285D01*
X113931714Y-57622285D01*
X115431714Y-58336571D02*
X115431714Y-57336571D01*
X115431714Y-57622285D02*
X115503142Y-57479428D01*
X115574571Y-57408000D01*
X115717428Y-57336571D01*
X115860285Y-57336571D01*
X116574571Y-58336571D02*
X116431714Y-58265142D01*
X116360285Y-58193714D01*
X116288857Y-58050857D01*
X116288857Y-57622285D01*
X116360285Y-57479428D01*
X116431714Y-57408000D01*
X116574571Y-57336571D01*
X116788857Y-57336571D01*
X116931714Y-57408000D01*
X117003142Y-57479428D01*
X117074571Y-57622285D01*
X117074571Y-58050857D01*
X117003142Y-58193714D01*
X116931714Y-58265142D01*
X116788857Y-58336571D01*
X116574571Y-58336571D01*
X118360285Y-57336571D02*
X118360285Y-58550857D01*
X118288857Y-58693714D01*
X118217428Y-58765142D01*
X118074571Y-58836571D01*
X117860285Y-58836571D01*
X117717428Y-58765142D01*
X118360285Y-58265142D02*
X118217428Y-58336571D01*
X117931714Y-58336571D01*
X117788857Y-58265142D01*
X117717428Y-58193714D01*
X117646000Y-58050857D01*
X117646000Y-57622285D01*
X117717428Y-57479428D01*
X117788857Y-57408000D01*
X117931714Y-57336571D01*
X118217428Y-57336571D01*
X118360285Y-57408000D01*
X119074571Y-58336571D02*
X119074571Y-57336571D01*
X119074571Y-57622285D02*
X119146000Y-57479428D01*
X119217428Y-57408000D01*
X119360285Y-57336571D01*
X119503142Y-57336571D01*
X120646000Y-58336571D02*
X120646000Y-57550857D01*
X120574571Y-57408000D01*
X120431714Y-57336571D01*
X120146000Y-57336571D01*
X120003142Y-57408000D01*
X120646000Y-58265142D02*
X120503142Y-58336571D01*
X120146000Y-58336571D01*
X120003142Y-58265142D01*
X119931714Y-58122285D01*
X119931714Y-57979428D01*
X120003142Y-57836571D01*
X120146000Y-57765142D01*
X120503142Y-57765142D01*
X120646000Y-57693714D01*
X121360285Y-58336571D02*
X121360285Y-57336571D01*
X121360285Y-57479428D02*
X121431714Y-57408000D01*
X121574571Y-57336571D01*
X121788857Y-57336571D01*
X121931714Y-57408000D01*
X122003142Y-57550857D01*
X122003142Y-58336571D01*
X122003142Y-57550857D02*
X122074571Y-57408000D01*
X122217428Y-57336571D01*
X122431714Y-57336571D01*
X122574571Y-57408000D01*
X122646000Y-57550857D01*
X122646000Y-58336571D01*
X123360285Y-58336571D02*
X123360285Y-57336571D01*
X123360285Y-57479428D02*
X123431714Y-57408000D01*
X123574571Y-57336571D01*
X123788857Y-57336571D01*
X123931714Y-57408000D01*
X124003142Y-57550857D01*
X124003142Y-58336571D01*
X124003142Y-57550857D02*
X124074571Y-57408000D01*
X124217428Y-57336571D01*
X124431714Y-57336571D01*
X124574571Y-57408000D01*
X124646000Y-57550857D01*
X124646000Y-58336571D01*
X125931714Y-58265142D02*
X125788857Y-58336571D01*
X125503142Y-58336571D01*
X125360285Y-58265142D01*
X125288857Y-58122285D01*
X125288857Y-57550857D01*
X125360285Y-57408000D01*
X125503142Y-57336571D01*
X125788857Y-57336571D01*
X125931714Y-57408000D01*
X126003142Y-57550857D01*
X126003142Y-57693714D01*
X125288857Y-57836571D01*
X126646000Y-58336571D02*
X126646000Y-57336571D01*
X126646000Y-57622285D02*
X126717428Y-57479428D01*
X126788857Y-57408000D01*
X126931714Y-57336571D01*
X127074571Y-57336571D01*
D14*
X54353142Y-87816571D02*
X54710285Y-88816571D01*
X55067428Y-87816571D01*
X55567428Y-87459428D02*
X55638857Y-87388000D01*
X55781714Y-87316571D01*
X56138857Y-87316571D01*
X56281714Y-87388000D01*
X56353142Y-87459428D01*
X56424571Y-87602285D01*
X56424571Y-87745142D01*
X56353142Y-87959428D01*
X55496000Y-88816571D01*
X56424571Y-88816571D01*
X57067428Y-88673714D02*
X57138857Y-88745142D01*
X57067428Y-88816571D01*
X56996000Y-88745142D01*
X57067428Y-88673714D01*
X57067428Y-88816571D01*
X58567428Y-88816571D02*
X57710285Y-88816571D01*
X58138857Y-88816571D02*
X58138857Y-87316571D01*
X57996000Y-87530857D01*
X57853142Y-87673714D01*
X57710285Y-87745142D01*
X61281714Y-88102285D02*
X61210285Y-88030857D01*
X61067428Y-87959428D01*
X60924571Y-87959428D01*
X60781714Y-88030857D01*
X60710285Y-88102285D01*
X60638857Y-88245142D01*
X60638857Y-88388000D01*
X60710285Y-88530857D01*
X60781714Y-88602285D01*
X60924571Y-88673714D01*
X61067428Y-88673714D01*
X61210285Y-88602285D01*
X61281714Y-88530857D01*
X61281714Y-87959428D02*
X61281714Y-88530857D01*
X61353142Y-88602285D01*
X61424571Y-88602285D01*
X61567428Y-88530857D01*
X61638857Y-88388000D01*
X61638857Y-88030857D01*
X61496000Y-87816571D01*
X61281714Y-87673714D01*
X60996000Y-87602285D01*
X60710285Y-87673714D01*
X60496000Y-87816571D01*
X60353142Y-88030857D01*
X60281714Y-88316571D01*
X60353142Y-88602285D01*
X60496000Y-88816571D01*
X60710285Y-88959428D01*
X60996000Y-89030857D01*
X61281714Y-88959428D01*
X61496000Y-88816571D01*
X62210285Y-88745142D02*
X62353142Y-88816571D01*
X62638857Y-88816571D01*
X62781714Y-88745142D01*
X62853142Y-88602285D01*
X62853142Y-88530857D01*
X62781714Y-88388000D01*
X62638857Y-88316571D01*
X62424571Y-88316571D01*
X62281714Y-88245142D01*
X62210285Y-88102285D01*
X62210285Y-88030857D01*
X62281714Y-87888000D01*
X62424571Y-87816571D01*
X62638857Y-87816571D01*
X62781714Y-87888000D01*
X63353142Y-87816571D02*
X63638857Y-88816571D01*
X63924571Y-88102285D01*
X64210285Y-88816571D01*
X64496000Y-87816571D01*
X65067428Y-88816571D02*
X65067428Y-87316571D01*
X65710285Y-88816571D02*
X65710285Y-88030857D01*
X65638857Y-87888000D01*
X65496000Y-87816571D01*
X65281714Y-87816571D01*
X65138857Y-87888000D01*
X65067428Y-87959428D01*
X67067428Y-88816571D02*
X67067428Y-88030857D01*
X66996000Y-87888000D01*
X66853142Y-87816571D01*
X66567428Y-87816571D01*
X66424571Y-87888000D01*
X67067428Y-88745142D02*
X66924571Y-88816571D01*
X66567428Y-88816571D01*
X66424571Y-88745142D01*
X66353142Y-88602285D01*
X66353142Y-88459428D01*
X66424571Y-88316571D01*
X66567428Y-88245142D01*
X66924571Y-88245142D01*
X67067428Y-88173714D01*
X67781714Y-88816571D02*
X67781714Y-87816571D01*
X67781714Y-88102285D02*
X67853142Y-87959428D01*
X67924571Y-87888000D01*
X68067428Y-87816571D01*
X68210285Y-87816571D01*
X69353142Y-88816571D02*
X69353142Y-87316571D01*
X69353142Y-88745142D02*
X69210285Y-88816571D01*
X68924571Y-88816571D01*
X68781714Y-88745142D01*
X68710285Y-88673714D01*
X68638857Y-88530857D01*
X68638857Y-88102285D01*
X68710285Y-87959428D01*
X68781714Y-87888000D01*
X68924571Y-87816571D01*
X69210285Y-87816571D01*
X69353142Y-87888000D01*
X70638857Y-88745142D02*
X70496000Y-88816571D01*
X70210285Y-88816571D01*
X70067428Y-88745142D01*
X69996000Y-88602285D01*
X69996000Y-88030857D01*
X70067428Y-87888000D01*
X70210285Y-87816571D01*
X70496000Y-87816571D01*
X70638857Y-87888000D01*
X70710285Y-88030857D01*
X70710285Y-88173714D01*
X69996000Y-88316571D01*
X71353142Y-87816571D02*
X71353142Y-88816571D01*
X71353142Y-87959428D02*
X71424571Y-87888000D01*
X71567428Y-87816571D01*
X71781714Y-87816571D01*
X71924571Y-87888000D01*
X71996000Y-88030857D01*
X71996000Y-88816571D01*
D11*
X86189714Y-53256571D02*
X86189714Y-51756571D01*
X86761142Y-51756571D01*
X86904000Y-51828000D01*
X86975428Y-51899428D01*
X87046857Y-52042285D01*
X87046857Y-52256571D01*
X86975428Y-52399428D01*
X86904000Y-52470857D01*
X86761142Y-52542285D01*
X86189714Y-52542285D01*
X87904000Y-53256571D02*
X87761142Y-53185142D01*
X87689714Y-53113714D01*
X87618285Y-52970857D01*
X87618285Y-52542285D01*
X87689714Y-52399428D01*
X87761142Y-52328000D01*
X87904000Y-52256571D01*
X88118285Y-52256571D01*
X88261142Y-52328000D01*
X88332571Y-52399428D01*
X88404000Y-52542285D01*
X88404000Y-52970857D01*
X88332571Y-53113714D01*
X88261142Y-53185142D01*
X88118285Y-53256571D01*
X87904000Y-53256571D01*
X88904000Y-52256571D02*
X89189714Y-53256571D01*
X89475428Y-52542285D01*
X89761142Y-53256571D01*
X90046857Y-52256571D01*
X91189714Y-53185142D02*
X91046857Y-53256571D01*
X90761142Y-53256571D01*
X90618285Y-53185142D01*
X90546857Y-53042285D01*
X90546857Y-52470857D01*
X90618285Y-52328000D01*
X90761142Y-52256571D01*
X91046857Y-52256571D01*
X91189714Y-52328000D01*
X91261142Y-52470857D01*
X91261142Y-52613714D01*
X90546857Y-52756571D01*
X91904000Y-53256571D02*
X91904000Y-52256571D01*
X91904000Y-52542285D02*
X91975428Y-52399428D01*
X92046857Y-52328000D01*
X92189714Y-52256571D01*
X92332571Y-52256571D01*
D15*
X77811333Y-99163142D02*
X77763714Y-99210761D01*
X77620857Y-99258380D01*
X77525619Y-99258380D01*
X77382761Y-99210761D01*
X77287523Y-99115523D01*
X77239904Y-99020285D01*
X77192285Y-98829809D01*
X77192285Y-98686952D01*
X77239904Y-98496476D01*
X77287523Y-98401238D01*
X77382761Y-98306000D01*
X77525619Y-98258380D01*
X77620857Y-98258380D01*
X77763714Y-98306000D01*
X77811333Y-98353619D01*
X78668476Y-98591714D02*
X78668476Y-99258380D01*
X78430380Y-98210761D02*
X78192285Y-98925047D01*
X78811333Y-98925047D01*
X99337904Y-57094380D02*
X99337904Y-56094380D01*
X99576000Y-56094380D01*
X99718857Y-56142000D01*
X99814095Y-56237238D01*
X99861714Y-56332476D01*
X99909333Y-56522952D01*
X99909333Y-56665809D01*
X99861714Y-56856285D01*
X99814095Y-56951523D01*
X99718857Y-57046761D01*
X99576000Y-57094380D01*
X99337904Y-57094380D01*
X100861714Y-57094380D02*
X100290285Y-57094380D01*
X100576000Y-57094380D02*
X100576000Y-56094380D01*
X100480761Y-56237238D01*
X100385523Y-56332476D01*
X100290285Y-56380095D01*
X65492333Y-69032380D02*
X65159000Y-68556190D01*
X64920904Y-69032380D02*
X64920904Y-68032380D01*
X65301857Y-68032380D01*
X65397095Y-68080000D01*
X65444714Y-68127619D01*
X65492333Y-68222857D01*
X65492333Y-68365714D01*
X65444714Y-68460952D01*
X65397095Y-68508571D01*
X65301857Y-68556190D01*
X64920904Y-68556190D01*
X66397095Y-68032380D02*
X65920904Y-68032380D01*
X65873285Y-68508571D01*
X65920904Y-68460952D01*
X66016142Y-68413333D01*
X66254238Y-68413333D01*
X66349476Y-68460952D01*
X66397095Y-68508571D01*
X66444714Y-68603809D01*
X66444714Y-68841904D01*
X66397095Y-68937142D01*
X66349476Y-68984761D01*
X66254238Y-69032380D01*
X66016142Y-69032380D01*
X65920904Y-68984761D01*
X65873285Y-68937142D01*
X72572666Y-92162380D02*
X72572666Y-92876666D01*
X72525047Y-93019523D01*
X72429809Y-93114761D01*
X72286952Y-93162380D01*
X72191714Y-93162380D01*
X73048857Y-93162380D02*
X73048857Y-92162380D01*
X73429809Y-92162380D01*
X73525047Y-92210000D01*
X73572666Y-92257619D01*
X73620285Y-92352857D01*
X73620285Y-92495714D01*
X73572666Y-92590952D01*
X73525047Y-92638571D01*
X73429809Y-92686190D01*
X73048857Y-92686190D01*
X74572666Y-93162380D02*
X74001238Y-93162380D01*
X74286952Y-93162380D02*
X74286952Y-92162380D01*
X74191714Y-92305238D01*
X74096476Y-92400476D01*
X74001238Y-92448095D01*
X65492333Y-76049142D02*
X65444714Y-76096761D01*
X65301857Y-76144380D01*
X65206619Y-76144380D01*
X65063761Y-76096761D01*
X64968523Y-76001523D01*
X64920904Y-75906285D01*
X64873285Y-75715809D01*
X64873285Y-75572952D01*
X64920904Y-75382476D01*
X64968523Y-75287238D01*
X65063761Y-75192000D01*
X65206619Y-75144380D01*
X65301857Y-75144380D01*
X65444714Y-75192000D01*
X65492333Y-75239619D01*
X65825666Y-75144380D02*
X66444714Y-75144380D01*
X66111380Y-75525333D01*
X66254238Y-75525333D01*
X66349476Y-75572952D01*
X66397095Y-75620571D01*
X66444714Y-75715809D01*
X66444714Y-75953904D01*
X66397095Y-76049142D01*
X66349476Y-76096761D01*
X66254238Y-76144380D01*
X65968523Y-76144380D01*
X65873285Y-76096761D01*
X65825666Y-76049142D01*
X77049333Y-93670380D02*
X76716000Y-93194190D01*
X76477904Y-93670380D02*
X76477904Y-92670380D01*
X76858857Y-92670380D01*
X76954095Y-92718000D01*
X77001714Y-92765619D01*
X77049333Y-92860857D01*
X77049333Y-93003714D01*
X77001714Y-93098952D01*
X76954095Y-93146571D01*
X76858857Y-93194190D01*
X76477904Y-93194190D01*
X77382666Y-92670380D02*
X78001714Y-92670380D01*
X77668380Y-93051333D01*
X77811238Y-93051333D01*
X77906476Y-93098952D01*
X77954095Y-93146571D01*
X78001714Y-93241809D01*
X78001714Y-93479904D01*
X77954095Y-93575142D01*
X77906476Y-93622761D01*
X77811238Y-93670380D01*
X77525523Y-93670380D01*
X77430285Y-93622761D01*
X77382666Y-93575142D01*
X65492333Y-71223142D02*
X65444714Y-71270761D01*
X65301857Y-71318380D01*
X65206619Y-71318380D01*
X65063761Y-71270761D01*
X64968523Y-71175523D01*
X64920904Y-71080285D01*
X64873285Y-70889809D01*
X64873285Y-70746952D01*
X64920904Y-70556476D01*
X64968523Y-70461238D01*
X65063761Y-70366000D01*
X65206619Y-70318380D01*
X65301857Y-70318380D01*
X65444714Y-70366000D01*
X65492333Y-70413619D01*
X65873285Y-70413619D02*
X65920904Y-70366000D01*
X66016142Y-70318380D01*
X66254238Y-70318380D01*
X66349476Y-70366000D01*
X66397095Y-70413619D01*
X66444714Y-70508857D01*
X66444714Y-70604095D01*
X66397095Y-70746952D01*
X65825666Y-71318380D01*
X66444714Y-71318380D01*
X85177333Y-92654380D02*
X84844000Y-92178190D01*
X84605904Y-92654380D02*
X84605904Y-91654380D01*
X84986857Y-91654380D01*
X85082095Y-91702000D01*
X85129714Y-91749619D01*
X85177333Y-91844857D01*
X85177333Y-91987714D01*
X85129714Y-92082952D01*
X85082095Y-92130571D01*
X84986857Y-92178190D01*
X84605904Y-92178190D01*
X85748761Y-92082952D02*
X85653523Y-92035333D01*
X85605904Y-91987714D01*
X85558285Y-91892476D01*
X85558285Y-91844857D01*
X85605904Y-91749619D01*
X85653523Y-91702000D01*
X85748761Y-91654380D01*
X85939238Y-91654380D01*
X86034476Y-91702000D01*
X86082095Y-91749619D01*
X86129714Y-91844857D01*
X86129714Y-91892476D01*
X86082095Y-91987714D01*
X86034476Y-92035333D01*
X85939238Y-92082952D01*
X85748761Y-92082952D01*
X85653523Y-92130571D01*
X85605904Y-92178190D01*
X85558285Y-92273428D01*
X85558285Y-92463904D01*
X85605904Y-92559142D01*
X85653523Y-92606761D01*
X85748761Y-92654380D01*
X85939238Y-92654380D01*
X86034476Y-92606761D01*
X86082095Y-92559142D01*
X86129714Y-92463904D01*
X86129714Y-92273428D01*
X86082095Y-92178190D01*
X86034476Y-92130571D01*
X85939238Y-92082952D01*
X101465142Y-93416380D02*
X101131809Y-92940190D01*
X100893714Y-93416380D02*
X100893714Y-92416380D01*
X101274666Y-92416380D01*
X101369904Y-92464000D01*
X101417523Y-92511619D01*
X101465142Y-92606857D01*
X101465142Y-92749714D01*
X101417523Y-92844952D01*
X101369904Y-92892571D01*
X101274666Y-92940190D01*
X100893714Y-92940190D01*
X102417523Y-93416380D02*
X101846095Y-93416380D01*
X102131809Y-93416380D02*
X102131809Y-92416380D01*
X102036571Y-92559238D01*
X101941333Y-92654476D01*
X101846095Y-92702095D01*
X102798476Y-92511619D02*
X102846095Y-92464000D01*
X102941333Y-92416380D01*
X103179428Y-92416380D01*
X103274666Y-92464000D01*
X103322285Y-92511619D01*
X103369904Y-92606857D01*
X103369904Y-92702095D01*
X103322285Y-92844952D01*
X102750857Y-93416380D01*
X103369904Y-93416380D01*
X90932095Y-92924380D02*
X90932095Y-93733904D01*
X90979714Y-93829142D01*
X91027333Y-93876761D01*
X91122571Y-93924380D01*
X91313047Y-93924380D01*
X91408285Y-93876761D01*
X91455904Y-93829142D01*
X91503523Y-93733904D01*
X91503523Y-92924380D01*
X91932095Y-93019619D02*
X91979714Y-92972000D01*
X92074952Y-92924380D01*
X92313047Y-92924380D01*
X92408285Y-92972000D01*
X92455904Y-93019619D01*
X92503523Y-93114857D01*
X92503523Y-93210095D01*
X92455904Y-93352952D01*
X91884476Y-93924380D01*
X92503523Y-93924380D01*
X106005333Y-81351380D02*
X105672000Y-80875190D01*
X105433904Y-81351380D02*
X105433904Y-80351380D01*
X105814857Y-80351380D01*
X105910095Y-80399000D01*
X105957714Y-80446619D01*
X106005333Y-80541857D01*
X106005333Y-80684714D01*
X105957714Y-80779952D01*
X105910095Y-80827571D01*
X105814857Y-80875190D01*
X105433904Y-80875190D01*
X106338666Y-80351380D02*
X107005333Y-80351380D01*
X106576761Y-81351380D01*
X70866095Y-63460380D02*
X70866095Y-64269904D01*
X70913714Y-64365142D01*
X70961333Y-64412761D01*
X71056571Y-64460380D01*
X71247047Y-64460380D01*
X71342285Y-64412761D01*
X71389904Y-64365142D01*
X71437523Y-64269904D01*
X71437523Y-63460380D01*
X72389904Y-63460380D02*
X71913714Y-63460380D01*
X71866095Y-63936571D01*
X71913714Y-63888952D01*
X72008952Y-63841333D01*
X72247047Y-63841333D01*
X72342285Y-63888952D01*
X72389904Y-63936571D01*
X72437523Y-64031809D01*
X72437523Y-64269904D01*
X72389904Y-64365142D01*
X72342285Y-64412761D01*
X72247047Y-64460380D01*
X72008952Y-64460380D01*
X71913714Y-64412761D01*
X71866095Y-64365142D01*
X84272380Y-96750095D02*
X83272380Y-96750095D01*
X83272380Y-96512000D01*
X83320000Y-96369142D01*
X83415238Y-96273904D01*
X83510476Y-96226285D01*
X83700952Y-96178666D01*
X83843809Y-96178666D01*
X84034285Y-96226285D01*
X84129523Y-96273904D01*
X84224761Y-96369142D01*
X84272380Y-96512000D01*
X84272380Y-96750095D01*
X83367619Y-95797714D02*
X83320000Y-95750095D01*
X83272380Y-95654857D01*
X83272380Y-95416761D01*
X83320000Y-95321523D01*
X83367619Y-95273904D01*
X83462857Y-95226285D01*
X83558095Y-95226285D01*
X83700952Y-95273904D01*
X84272380Y-95845333D01*
X84272380Y-95226285D01*
X65905142Y-56618142D02*
X65857523Y-56665761D01*
X65714666Y-56713380D01*
X65619428Y-56713380D01*
X65476571Y-56665761D01*
X65381333Y-56570523D01*
X65333714Y-56475285D01*
X65286095Y-56284809D01*
X65286095Y-56141952D01*
X65333714Y-55951476D01*
X65381333Y-55856238D01*
X65476571Y-55761000D01*
X65619428Y-55713380D01*
X65714666Y-55713380D01*
X65857523Y-55761000D01*
X65905142Y-55808619D01*
X66857523Y-56713380D02*
X66286095Y-56713380D01*
X66571809Y-56713380D02*
X66571809Y-55713380D01*
X66476571Y-55856238D01*
X66381333Y-55951476D01*
X66286095Y-55999095D01*
X67476571Y-55713380D02*
X67571809Y-55713380D01*
X67667047Y-55761000D01*
X67714666Y-55808619D01*
X67762285Y-55903857D01*
X67809904Y-56094333D01*
X67809904Y-56332428D01*
X67762285Y-56522904D01*
X67714666Y-56618142D01*
X67667047Y-56665761D01*
X67571809Y-56713380D01*
X67476571Y-56713380D01*
X67381333Y-56665761D01*
X67333714Y-56618142D01*
X67286095Y-56522904D01*
X67238476Y-56332428D01*
X67238476Y-56094333D01*
X67286095Y-55903857D01*
X67333714Y-55808619D01*
X67381333Y-55761000D01*
X67476571Y-55713380D01*
D16*
X99852238Y-66106523D02*
X99852238Y-64836523D01*
X101182714Y-65985571D02*
X101122238Y-66046047D01*
X100940809Y-66106523D01*
X100819857Y-66106523D01*
X100638428Y-66046047D01*
X100517476Y-65925095D01*
X100457000Y-65804142D01*
X100396523Y-65562238D01*
X100396523Y-65380809D01*
X100457000Y-65138904D01*
X100517476Y-65017952D01*
X100638428Y-64897000D01*
X100819857Y-64836523D01*
X100940809Y-64836523D01*
X101122238Y-64897000D01*
X101182714Y-64957476D01*
X102392238Y-66106523D02*
X101666523Y-66106523D01*
X102029380Y-66106523D02*
X102029380Y-64836523D01*
X101908428Y-65017952D01*
X101787476Y-65138904D01*
X101666523Y-65199380D01*
D15*
X96077833Y-63857142D02*
X96030214Y-63904761D01*
X95887357Y-63952380D01*
X95792119Y-63952380D01*
X95649261Y-63904761D01*
X95554023Y-63809523D01*
X95506404Y-63714285D01*
X95458785Y-63523809D01*
X95458785Y-63380952D01*
X95506404Y-63190476D01*
X95554023Y-63095238D01*
X95649261Y-63000000D01*
X95792119Y-62952380D01*
X95887357Y-62952380D01*
X96030214Y-63000000D01*
X96077833Y-63047619D01*
X96934976Y-62952380D02*
X96744500Y-62952380D01*
X96649261Y-63000000D01*
X96601642Y-63047619D01*
X96506404Y-63190476D01*
X96458785Y-63380952D01*
X96458785Y-63761904D01*
X96506404Y-63857142D01*
X96554023Y-63904761D01*
X96649261Y-63952380D01*
X96839738Y-63952380D01*
X96934976Y-63904761D01*
X96982595Y-63857142D01*
X97030214Y-63761904D01*
X97030214Y-63523809D01*
X96982595Y-63428571D01*
X96934976Y-63380952D01*
X96839738Y-63333333D01*
X96649261Y-63333333D01*
X96554023Y-63380952D01*
X96506404Y-63428571D01*
X96458785Y-63523809D01*
X59237666Y-63936571D02*
X58904333Y-63936571D01*
X58904333Y-64460380D02*
X58904333Y-63460380D01*
X59380523Y-63460380D01*
X60094809Y-63936571D02*
X60237666Y-63984190D01*
X60285285Y-64031809D01*
X60332904Y-64127047D01*
X60332904Y-64269904D01*
X60285285Y-64365142D01*
X60237666Y-64412761D01*
X60142428Y-64460380D01*
X59761476Y-64460380D01*
X59761476Y-63460380D01*
X60094809Y-63460380D01*
X60190047Y-63508000D01*
X60237666Y-63555619D01*
X60285285Y-63650857D01*
X60285285Y-63746095D01*
X60237666Y-63841333D01*
X60190047Y-63888952D01*
X60094809Y-63936571D01*
X59761476Y-63936571D01*
X61285285Y-64460380D02*
X60713857Y-64460380D01*
X60999571Y-64460380D02*
X60999571Y-63460380D01*
X60904333Y-63603238D01*
X60809095Y-63698476D01*
X60713857Y-63746095D01*
X65492333Y-74112380D02*
X65159000Y-73636190D01*
X64920904Y-74112380D02*
X64920904Y-73112380D01*
X65301857Y-73112380D01*
X65397095Y-73160000D01*
X65444714Y-73207619D01*
X65492333Y-73302857D01*
X65492333Y-73445714D01*
X65444714Y-73540952D01*
X65397095Y-73588571D01*
X65301857Y-73636190D01*
X64920904Y-73636190D01*
X66349476Y-73112380D02*
X66159000Y-73112380D01*
X66063761Y-73160000D01*
X66016142Y-73207619D01*
X65920904Y-73350476D01*
X65873285Y-73540952D01*
X65873285Y-73921904D01*
X65920904Y-74017142D01*
X65968523Y-74064761D01*
X66063761Y-74112380D01*
X66254238Y-74112380D01*
X66349476Y-74064761D01*
X66397095Y-74017142D01*
X66444714Y-73921904D01*
X66444714Y-73683809D01*
X66397095Y-73588571D01*
X66349476Y-73540952D01*
X66254238Y-73493333D01*
X66063761Y-73493333D01*
X65968523Y-73540952D01*
X65920904Y-73588571D01*
X65873285Y-73683809D01*
X113879333Y-61063142D02*
X113831714Y-61110761D01*
X113688857Y-61158380D01*
X113593619Y-61158380D01*
X113450761Y-61110761D01*
X113355523Y-61015523D01*
X113307904Y-60920285D01*
X113260285Y-60729809D01*
X113260285Y-60586952D01*
X113307904Y-60396476D01*
X113355523Y-60301238D01*
X113450761Y-60206000D01*
X113593619Y-60158380D01*
X113688857Y-60158380D01*
X113831714Y-60206000D01*
X113879333Y-60253619D01*
X114831714Y-61158380D02*
X114260285Y-61158380D01*
X114546000Y-61158380D02*
X114546000Y-60158380D01*
X114450761Y-60301238D01*
X114355523Y-60396476D01*
X114260285Y-60444095D01*
X96099333Y-77827142D02*
X96051714Y-77874761D01*
X95908857Y-77922380D01*
X95813619Y-77922380D01*
X95670761Y-77874761D01*
X95575523Y-77779523D01*
X95527904Y-77684285D01*
X95480285Y-77493809D01*
X95480285Y-77350952D01*
X95527904Y-77160476D01*
X95575523Y-77065238D01*
X95670761Y-76970000D01*
X95813619Y-76922380D01*
X95908857Y-76922380D01*
X96051714Y-76970000D01*
X96099333Y-77017619D01*
X96670761Y-77350952D02*
X96575523Y-77303333D01*
X96527904Y-77255714D01*
X96480285Y-77160476D01*
X96480285Y-77112857D01*
X96527904Y-77017619D01*
X96575523Y-76970000D01*
X96670761Y-76922380D01*
X96861238Y-76922380D01*
X96956476Y-76970000D01*
X97004095Y-77017619D01*
X97051714Y-77112857D01*
X97051714Y-77160476D01*
X97004095Y-77255714D01*
X96956476Y-77303333D01*
X96861238Y-77350952D01*
X96670761Y-77350952D01*
X96575523Y-77398571D01*
X96527904Y-77446190D01*
X96480285Y-77541428D01*
X96480285Y-77731904D01*
X96527904Y-77827142D01*
X96575523Y-77874761D01*
X96670761Y-77922380D01*
X96861238Y-77922380D01*
X96956476Y-77874761D01*
X97004095Y-77827142D01*
X97051714Y-77731904D01*
X97051714Y-77541428D01*
X97004095Y-77446190D01*
X96956476Y-77398571D01*
X96861238Y-77350952D01*
X101687333Y-81351380D02*
X101354000Y-80875190D01*
X101115904Y-81351380D02*
X101115904Y-80351380D01*
X101496857Y-80351380D01*
X101592095Y-80399000D01*
X101639714Y-80446619D01*
X101687333Y-80541857D01*
X101687333Y-80684714D01*
X101639714Y-80779952D01*
X101592095Y-80827571D01*
X101496857Y-80875190D01*
X101115904Y-80875190D01*
X102163523Y-81351380D02*
X102354000Y-81351380D01*
X102449238Y-81303761D01*
X102496857Y-81256142D01*
X102592095Y-81113285D01*
X102639714Y-80922809D01*
X102639714Y-80541857D01*
X102592095Y-80446619D01*
X102544476Y-80399000D01*
X102449238Y-80351380D01*
X102258761Y-80351380D01*
X102163523Y-80399000D01*
X102115904Y-80446619D01*
X102068285Y-80541857D01*
X102068285Y-80779952D01*
X102115904Y-80875190D01*
X102163523Y-80922809D01*
X102258761Y-80970428D01*
X102449238Y-80970428D01*
X102544476Y-80922809D01*
X102592095Y-80875190D01*
X102639714Y-80779952D01*
X69175333Y-106624380D02*
X68842000Y-106148190D01*
X68603904Y-106624380D02*
X68603904Y-105624380D01*
X68984857Y-105624380D01*
X69080095Y-105672000D01*
X69127714Y-105719619D01*
X69175333Y-105814857D01*
X69175333Y-105957714D01*
X69127714Y-106052952D01*
X69080095Y-106100571D01*
X68984857Y-106148190D01*
X68603904Y-106148190D01*
X70127714Y-106624380D02*
X69556285Y-106624380D01*
X69842000Y-106624380D02*
X69842000Y-105624380D01*
X69746761Y-105767238D01*
X69651523Y-105862476D01*
X69556285Y-105910095D01*
X103973333Y-57094380D02*
X103640000Y-56618190D01*
X103401904Y-57094380D02*
X103401904Y-56094380D01*
X103782857Y-56094380D01*
X103878095Y-56142000D01*
X103925714Y-56189619D01*
X103973333Y-56284857D01*
X103973333Y-56427714D01*
X103925714Y-56522952D01*
X103878095Y-56570571D01*
X103782857Y-56618190D01*
X103401904Y-56618190D01*
X104830476Y-56427714D02*
X104830476Y-57094380D01*
X104592380Y-56046761D02*
X104354285Y-56761047D01*
X104973333Y-56761047D01*
X87399904Y-57094380D02*
X87399904Y-56094380D01*
X87638000Y-56094380D01*
X87780857Y-56142000D01*
X87876095Y-56237238D01*
X87923714Y-56332476D01*
X87971333Y-56522952D01*
X87971333Y-56665809D01*
X87923714Y-56856285D01*
X87876095Y-56951523D01*
X87780857Y-57046761D01*
X87638000Y-57094380D01*
X87399904Y-57094380D01*
X88828476Y-56427714D02*
X88828476Y-57094380D01*
X88590380Y-56046761D02*
X88352285Y-56761047D01*
X88971333Y-56761047D01*
X116787142Y-91606666D02*
X116834761Y-91654285D01*
X116882380Y-91797142D01*
X116882380Y-91892380D01*
X116834761Y-92035238D01*
X116739523Y-92130476D01*
X116644285Y-92178095D01*
X116453809Y-92225714D01*
X116310952Y-92225714D01*
X116120476Y-92178095D01*
X116025238Y-92130476D01*
X115930000Y-92035238D01*
X115882380Y-91892380D01*
X115882380Y-91797142D01*
X115930000Y-91654285D01*
X115977619Y-91606666D01*
X115882380Y-91273333D02*
X115882380Y-90606666D01*
X116882380Y-91035238D01*
X99147333Y-97639142D02*
X99099714Y-97686761D01*
X98956857Y-97734380D01*
X98861619Y-97734380D01*
X98718761Y-97686761D01*
X98623523Y-97591523D01*
X98575904Y-97496285D01*
X98528285Y-97305809D01*
X98528285Y-97162952D01*
X98575904Y-96972476D01*
X98623523Y-96877238D01*
X98718761Y-96782000D01*
X98861619Y-96734380D01*
X98956857Y-96734380D01*
X99099714Y-96782000D01*
X99147333Y-96829619D01*
X99623523Y-97734380D02*
X99814000Y-97734380D01*
X99909238Y-97686761D01*
X99956857Y-97639142D01*
X100052095Y-97496285D01*
X100099714Y-97305809D01*
X100099714Y-96924857D01*
X100052095Y-96829619D01*
X100004476Y-96782000D01*
X99909238Y-96734380D01*
X99718761Y-96734380D01*
X99623523Y-96782000D01*
X99575904Y-96829619D01*
X99528285Y-96924857D01*
X99528285Y-97162952D01*
X99575904Y-97258190D01*
X99623523Y-97305809D01*
X99718761Y-97353428D01*
X99909238Y-97353428D01*
X100004476Y-97305809D01*
X100052095Y-97258190D01*
X100099714Y-97162952D01*
X92543333Y-99925142D02*
X92495714Y-99972761D01*
X92352857Y-100020380D01*
X92257619Y-100020380D01*
X92114761Y-99972761D01*
X92019523Y-99877523D01*
X91971904Y-99782285D01*
X91924285Y-99591809D01*
X91924285Y-99448952D01*
X91971904Y-99258476D01*
X92019523Y-99163238D01*
X92114761Y-99068000D01*
X92257619Y-99020380D01*
X92352857Y-99020380D01*
X92495714Y-99068000D01*
X92543333Y-99115619D01*
X93448095Y-99020380D02*
X92971904Y-99020380D01*
X92924285Y-99496571D01*
X92971904Y-99448952D01*
X93067142Y-99401333D01*
X93305238Y-99401333D01*
X93400476Y-99448952D01*
X93448095Y-99496571D01*
X93495714Y-99591809D01*
X93495714Y-99829904D01*
X93448095Y-99925142D01*
X93400476Y-99972761D01*
X93305238Y-100020380D01*
X93067142Y-100020380D01*
X92971904Y-99972761D01*
X92924285Y-99925142D01*
X125476095Y-88236380D02*
X125476095Y-89045904D01*
X125523714Y-89141142D01*
X125571333Y-89188761D01*
X125666571Y-89236380D01*
X125857047Y-89236380D01*
X125952285Y-89188761D01*
X125999904Y-89141142D01*
X126047523Y-89045904D01*
X126047523Y-88236380D01*
X126952285Y-88236380D02*
X126761809Y-88236380D01*
X126666571Y-88284000D01*
X126618952Y-88331619D01*
X126523714Y-88474476D01*
X126476095Y-88664952D01*
X126476095Y-89045904D01*
X126523714Y-89141142D01*
X126571333Y-89188761D01*
X126666571Y-89236380D01*
X126857047Y-89236380D01*
X126952285Y-89188761D01*
X126999904Y-89141142D01*
X127047523Y-89045904D01*
X127047523Y-88807809D01*
X126999904Y-88712571D01*
X126952285Y-88664952D01*
X126857047Y-88617333D01*
X126666571Y-88617333D01*
X126571333Y-88664952D01*
X126523714Y-88712571D01*
X126476095Y-88807809D01*
X87026761Y-102909619D02*
X86931523Y-102862000D01*
X86836285Y-102766761D01*
X86693428Y-102623904D01*
X86598190Y-102576285D01*
X86502952Y-102576285D01*
X86550571Y-102814380D02*
X86455333Y-102766761D01*
X86360095Y-102671523D01*
X86312476Y-102481047D01*
X86312476Y-102147714D01*
X86360095Y-101957238D01*
X86455333Y-101862000D01*
X86550571Y-101814380D01*
X86741047Y-101814380D01*
X86836285Y-101862000D01*
X86931523Y-101957238D01*
X86979142Y-102147714D01*
X86979142Y-102481047D01*
X86931523Y-102671523D01*
X86836285Y-102766761D01*
X86741047Y-102814380D01*
X86550571Y-102814380D01*
X87931523Y-102814380D02*
X87360095Y-102814380D01*
X87645809Y-102814380D02*
X87645809Y-101814380D01*
X87550571Y-101957238D01*
X87455333Y-102052476D01*
X87360095Y-102100095D01*
X83939142Y-57094380D02*
X83605809Y-56618190D01*
X83367714Y-57094380D02*
X83367714Y-56094380D01*
X83748666Y-56094380D01*
X83843904Y-56142000D01*
X83891523Y-56189619D01*
X83939142Y-56284857D01*
X83939142Y-56427714D01*
X83891523Y-56522952D01*
X83843904Y-56570571D01*
X83748666Y-56618190D01*
X83367714Y-56618190D01*
X84891523Y-57094380D02*
X84320095Y-57094380D01*
X84605809Y-57094380D02*
X84605809Y-56094380D01*
X84510571Y-56237238D01*
X84415333Y-56332476D01*
X84320095Y-56380095D01*
X85748666Y-56427714D02*
X85748666Y-57094380D01*
X85510571Y-56046761D02*
X85272476Y-56761047D01*
X85891523Y-56761047D01*
X109220095Y-88236380D02*
X109220095Y-89045904D01*
X109267714Y-89141142D01*
X109315333Y-89188761D01*
X109410571Y-89236380D01*
X109601047Y-89236380D01*
X109696285Y-89188761D01*
X109743904Y-89141142D01*
X109791523Y-89045904D01*
X109791523Y-88236380D01*
X110172476Y-88236380D02*
X110791523Y-88236380D01*
X110458190Y-88617333D01*
X110601047Y-88617333D01*
X110696285Y-88664952D01*
X110743904Y-88712571D01*
X110791523Y-88807809D01*
X110791523Y-89045904D01*
X110743904Y-89141142D01*
X110696285Y-89188761D01*
X110601047Y-89236380D01*
X110315333Y-89236380D01*
X110220095Y-89188761D01*
X110172476Y-89141142D01*
X116912380Y-96654857D02*
X116436190Y-96988190D01*
X116912380Y-97226285D02*
X115912380Y-97226285D01*
X115912380Y-96845333D01*
X115960000Y-96750095D01*
X116007619Y-96702476D01*
X116102857Y-96654857D01*
X116245714Y-96654857D01*
X116340952Y-96702476D01*
X116388571Y-96750095D01*
X116436190Y-96845333D01*
X116436190Y-97226285D01*
X116912380Y-95702476D02*
X116912380Y-96273904D01*
X116912380Y-95988190D02*
X115912380Y-95988190D01*
X116055238Y-96083428D01*
X116150476Y-96178666D01*
X116198095Y-96273904D01*
X115912380Y-95369142D02*
X115912380Y-94750095D01*
X116293333Y-95083428D01*
X116293333Y-94940571D01*
X116340952Y-94845333D01*
X116388571Y-94797714D01*
X116483809Y-94750095D01*
X116721904Y-94750095D01*
X116817142Y-94797714D01*
X116864761Y-94845333D01*
X116912380Y-94940571D01*
X116912380Y-95226285D01*
X116864761Y-95321523D01*
X116817142Y-95369142D01*
X80383142Y-92147380D02*
X80049809Y-91671190D01*
X79811714Y-92147380D02*
X79811714Y-91147380D01*
X80192666Y-91147380D01*
X80287904Y-91195000D01*
X80335523Y-91242619D01*
X80383142Y-91337857D01*
X80383142Y-91480714D01*
X80335523Y-91575952D01*
X80287904Y-91623571D01*
X80192666Y-91671190D01*
X79811714Y-91671190D01*
X81335523Y-92147380D02*
X80764095Y-92147380D01*
X81049809Y-92147380D02*
X81049809Y-91147380D01*
X80954571Y-91290238D01*
X80859333Y-91385476D01*
X80764095Y-91433095D01*
X81954571Y-91147380D02*
X82049809Y-91147380D01*
X82145047Y-91195000D01*
X82192666Y-91242619D01*
X82240285Y-91337857D01*
X82287904Y-91528333D01*
X82287904Y-91766428D01*
X82240285Y-91956904D01*
X82192666Y-92052142D01*
X82145047Y-92099761D01*
X82049809Y-92147380D01*
X81954571Y-92147380D01*
X81859333Y-92099761D01*
X81811714Y-92052142D01*
X81764095Y-91956904D01*
X81716476Y-91766428D01*
X81716476Y-91528333D01*
X81764095Y-91337857D01*
X81811714Y-91242619D01*
X81859333Y-91195000D01*
X81954571Y-91147380D01*
X87749142Y-92654380D02*
X87415809Y-92178190D01*
X87177714Y-92654380D02*
X87177714Y-91654380D01*
X87558666Y-91654380D01*
X87653904Y-91702000D01*
X87701523Y-91749619D01*
X87749142Y-91844857D01*
X87749142Y-91987714D01*
X87701523Y-92082952D01*
X87653904Y-92130571D01*
X87558666Y-92178190D01*
X87177714Y-92178190D01*
X88701523Y-92654380D02*
X88130095Y-92654380D01*
X88415809Y-92654380D02*
X88415809Y-91654380D01*
X88320571Y-91797238D01*
X88225333Y-91892476D01*
X88130095Y-91940095D01*
X89653904Y-92654380D02*
X89082476Y-92654380D01*
X89368190Y-92654380D02*
X89368190Y-91654380D01*
X89272952Y-91797238D01*
X89177714Y-91892476D01*
X89082476Y-91940095D01*
X129680642Y-86561142D02*
X129633023Y-86608761D01*
X129490166Y-86656380D01*
X129394928Y-86656380D01*
X129252071Y-86608761D01*
X129156833Y-86513523D01*
X129109214Y-86418285D01*
X129061595Y-86227809D01*
X129061595Y-86084952D01*
X129109214Y-85894476D01*
X129156833Y-85799238D01*
X129252071Y-85704000D01*
X129394928Y-85656380D01*
X129490166Y-85656380D01*
X129633023Y-85704000D01*
X129680642Y-85751619D01*
X130633023Y-86656380D02*
X130061595Y-86656380D01*
X130347309Y-86656380D02*
X130347309Y-85656380D01*
X130252071Y-85799238D01*
X130156833Y-85894476D01*
X130061595Y-85942095D01*
X131013976Y-85751619D02*
X131061595Y-85704000D01*
X131156833Y-85656380D01*
X131394928Y-85656380D01*
X131490166Y-85704000D01*
X131537785Y-85751619D01*
X131585404Y-85846857D01*
X131585404Y-85942095D01*
X131537785Y-86084952D01*
X130966357Y-86656380D01*
X131585404Y-86656380D01*
X113879333Y-63698380D02*
X113546000Y-63222190D01*
X113307904Y-63698380D02*
X113307904Y-62698380D01*
X113688857Y-62698380D01*
X113784095Y-62746000D01*
X113831714Y-62793619D01*
X113879333Y-62888857D01*
X113879333Y-63031714D01*
X113831714Y-63126952D01*
X113784095Y-63174571D01*
X113688857Y-63222190D01*
X113307904Y-63222190D01*
X114260285Y-62793619D02*
X114307904Y-62746000D01*
X114403142Y-62698380D01*
X114641238Y-62698380D01*
X114736476Y-62746000D01*
X114784095Y-62793619D01*
X114831714Y-62888857D01*
X114831714Y-62984095D01*
X114784095Y-63126952D01*
X114212666Y-63698380D01*
X114831714Y-63698380D01*
X77597095Y-71842380D02*
X77597095Y-72651904D01*
X77644714Y-72747142D01*
X77692333Y-72794761D01*
X77787571Y-72842380D01*
X77978047Y-72842380D01*
X78073285Y-72794761D01*
X78120904Y-72747142D01*
X78168523Y-72651904D01*
X78168523Y-71842380D01*
X79168523Y-72842380D02*
X78597095Y-72842380D01*
X78882809Y-72842380D02*
X78882809Y-71842380D01*
X78787571Y-71985238D01*
X78692333Y-72080476D01*
X78597095Y-72128095D01*
X78605142Y-64492142D02*
X78557523Y-64539761D01*
X78414666Y-64587380D01*
X78319428Y-64587380D01*
X78176571Y-64539761D01*
X78081333Y-64444523D01*
X78033714Y-64349285D01*
X77986095Y-64158809D01*
X77986095Y-64015952D01*
X78033714Y-63825476D01*
X78081333Y-63730238D01*
X78176571Y-63635000D01*
X78319428Y-63587380D01*
X78414666Y-63587380D01*
X78557523Y-63635000D01*
X78605142Y-63682619D01*
X79557523Y-64587380D02*
X78986095Y-64587380D01*
X79271809Y-64587380D02*
X79271809Y-63587380D01*
X79176571Y-63730238D01*
X79081333Y-63825476D01*
X78986095Y-63873095D01*
X80509904Y-64587380D02*
X79938476Y-64587380D01*
X80224190Y-64587380D02*
X80224190Y-63587380D01*
X80128952Y-63730238D01*
X80033714Y-63825476D01*
X79938476Y-63873095D01*
D16*
X88549238Y-71597761D02*
X88549238Y-72202523D01*
X88125904Y-70932523D02*
X88549238Y-71597761D01*
X88972571Y-70932523D01*
X90061142Y-72202523D02*
X89335428Y-72202523D01*
X89698285Y-72202523D02*
X89698285Y-70932523D01*
X89577333Y-71113952D01*
X89456380Y-71234904D01*
X89335428Y-71295380D01*
D15*
X77239904Y-101798380D02*
X77239904Y-100798380D01*
X77478000Y-100798380D01*
X77620857Y-100846000D01*
X77716095Y-100941238D01*
X77763714Y-101036476D01*
X77811333Y-101226952D01*
X77811333Y-101369809D01*
X77763714Y-101560285D01*
X77716095Y-101655523D01*
X77620857Y-101750761D01*
X77478000Y-101798380D01*
X77239904Y-101798380D01*
X78144666Y-100798380D02*
X78763714Y-100798380D01*
X78430380Y-101179333D01*
X78573238Y-101179333D01*
X78668476Y-101226952D01*
X78716095Y-101274571D01*
X78763714Y-101369809D01*
X78763714Y-101607904D01*
X78716095Y-101703142D01*
X78668476Y-101750761D01*
X78573238Y-101798380D01*
X78287523Y-101798380D01*
X78192285Y-101750761D01*
X78144666Y-101703142D01*
X95250095Y-99274380D02*
X95250095Y-100083904D01*
X95297714Y-100179142D01*
X95345333Y-100226761D01*
X95440571Y-100274380D01*
X95631047Y-100274380D01*
X95726285Y-100226761D01*
X95773904Y-100179142D01*
X95821523Y-100083904D01*
X95821523Y-99274380D01*
X96726285Y-99607714D02*
X96726285Y-100274380D01*
X96488190Y-99226761D02*
X96250095Y-99941047D01*
X96869142Y-99941047D01*
D17*
X81287252Y-97563000D02*
X80764748Y-97563000D01*
X81287252Y-99033000D02*
X80764748Y-99033000D01*
X100092000Y-55824000D02*
X102952000Y-55824000D01*
X102952000Y-55824000D02*
X102952000Y-53904000D01*
X102952000Y-53904000D02*
X100092000Y-53904000D01*
X62494936Y-70131000D02*
X62949064Y-70131000D01*
X62494936Y-71601000D02*
X62949064Y-71601000D01*
X72076000Y-95250000D02*
X72076000Y-93920000D01*
X74736000Y-96520000D02*
X74736000Y-101660000D01*
X72076000Y-96520000D02*
X74736000Y-96520000D01*
X72076000Y-101660000D02*
X74736000Y-101660000D01*
X72076000Y-93920000D02*
X73406000Y-93920000D01*
X72076000Y-96520000D02*
X72076000Y-101660000D01*
X62999252Y-74957000D02*
X62476748Y-74957000D01*
X62999252Y-76427000D02*
X62476748Y-76427000D01*
X76481000Y-95657936D02*
X76481000Y-96112064D01*
X77951000Y-95657936D02*
X77951000Y-96112064D01*
X113986000Y-52772000D02*
X113986000Y-55432000D01*
X125476000Y-52772000D02*
X126806000Y-52772000D01*
X124206000Y-52772000D02*
X113986000Y-52772000D01*
X124206000Y-55432000D02*
X113986000Y-55432000D01*
X124206000Y-52772000D02*
X124206000Y-55432000D01*
X126806000Y-52772000D02*
X126806000Y-54102000D01*
X137100000Y-76011000D02*
X139760000Y-76011000D01*
X137100000Y-64521000D02*
X137100000Y-63191000D01*
X137100000Y-65791000D02*
X139760000Y-65791000D01*
X139760000Y-65791000D02*
X139760000Y-76011000D01*
X137100000Y-65791000D02*
X137100000Y-76011000D01*
X137100000Y-63191000D02*
X138430000Y-63191000D01*
X62999252Y-67845000D02*
X62476748Y-67845000D01*
X62999252Y-69315000D02*
X62476748Y-69315000D01*
X56462000Y-94181000D02*
X59362000Y-94181000D01*
X61267000Y-96086000D02*
X61267000Y-98986000D01*
X54557000Y-96086000D02*
X54557000Y-98986000D01*
X56462000Y-100891000D02*
X59362000Y-100891000D01*
X84736000Y-95112064D02*
X84736000Y-94657936D01*
X86206000Y-95112064D02*
X86206000Y-94657936D01*
X103097000Y-95747064D02*
X103097000Y-95292936D01*
X101627000Y-95747064D02*
X101627000Y-95292936D01*
X92710000Y-97572000D02*
X91910000Y-97572000D01*
X92710000Y-97572000D02*
X93510000Y-97572000D01*
X92710000Y-94452000D02*
X93510000Y-94452000D01*
X92710000Y-94452000D02*
X90910000Y-94452000D01*
X105437000Y-78004936D02*
X105437000Y-78459064D01*
X106907000Y-78004936D02*
X106907000Y-78459064D01*
X71012000Y-56824000D02*
X71012000Y-60584000D01*
X71012000Y-60584000D02*
X72272000Y-60584000D01*
X77832000Y-54574000D02*
X77832000Y-60584000D01*
X77832000Y-60584000D02*
X76572000Y-60584000D01*
X79126000Y-95035000D02*
X79126000Y-96735000D01*
X79126000Y-95035000D02*
X82276000Y-95035000D01*
X79126000Y-96735000D02*
X82276000Y-96735000D01*
X68353000Y-55872748D02*
X68353000Y-56395252D01*
X69823000Y-55872748D02*
X69823000Y-56395252D01*
D10*
X96642000Y-66858000D02*
X98442000Y-66858000D01*
X103392000Y-73958000D02*
X98792000Y-73958000D01*
X98792000Y-66758000D02*
X103392000Y-66758000D01*
X103392000Y-66758000D02*
X103392000Y-73958000D01*
X98792000Y-73958000D02*
X98792000Y-66758000D01*
D17*
X96505752Y-64543000D02*
X95983248Y-64543000D01*
X96505752Y-66013000D02*
X95983248Y-66013000D01*
X56806499Y-64370388D02*
X56806499Y-63847884D01*
X58226499Y-64370388D02*
X58226499Y-63847884D01*
X62965064Y-74141000D02*
X62510936Y-74141000D01*
X62965064Y-72671000D02*
X62510936Y-72671000D01*
X111513252Y-61187000D02*
X110990748Y-61187000D01*
X111513252Y-59717000D02*
X110990748Y-59717000D01*
X93457752Y-77697000D02*
X92935248Y-77697000D01*
X93457752Y-76227000D02*
X92935248Y-76227000D01*
X101119000Y-78004936D02*
X101119000Y-78459064D01*
X102589000Y-78004936D02*
X102589000Y-78459064D01*
X72612000Y-104802000D02*
X66072000Y-104802000D01*
X72612000Y-107542000D02*
X72612000Y-104802000D01*
X66072000Y-107542000D02*
X72612000Y-107542000D01*
X73382000Y-106172000D02*
X72612000Y-106172000D01*
X66072000Y-104802000D02*
X66072000Y-107542000D01*
X65302000Y-106172000D02*
X66072000Y-106172000D01*
X104928936Y-54129000D02*
X105383064Y-54129000D01*
X104928936Y-55599000D02*
X105383064Y-55599000D01*
X91014000Y-53904000D02*
X88154000Y-53904000D01*
X91014000Y-55824000D02*
X91014000Y-53904000D01*
X88154000Y-55824000D02*
X91014000Y-55824000D01*
X117375000Y-91701252D02*
X117375000Y-91178748D01*
X118845000Y-91701252D02*
X118845000Y-91178748D01*
X99596752Y-99795000D02*
X99074248Y-99795000D01*
X99596752Y-98325000D02*
X99074248Y-98325000D01*
X89943000Y-100337252D02*
X89943000Y-99814748D01*
X91413000Y-100337252D02*
X91413000Y-99814748D01*
X126238000Y-89619000D02*
X122378000Y-89619000D01*
X130098000Y-101389000D02*
X130098000Y-101144000D01*
X122378000Y-101389000D02*
X122378000Y-101144000D01*
X126238000Y-101389000D02*
X122378000Y-101389000D01*
X130098000Y-89619000D02*
X130098000Y-89864000D01*
X122378000Y-89864000D02*
X120563000Y-89864000D01*
X126238000Y-89619000D02*
X130098000Y-89619000D01*
X122378000Y-89619000D02*
X122378000Y-89864000D01*
X126238000Y-101389000D02*
X130098000Y-101389000D01*
X86741000Y-98135000D02*
X85066000Y-98135000D01*
X86741000Y-101255000D02*
X87391000Y-101255000D01*
X86741000Y-98135000D02*
X87391000Y-98135000D01*
X86741000Y-101255000D02*
X86091000Y-101255000D01*
X85301064Y-54129000D02*
X84846936Y-54129000D01*
X85301064Y-55599000D02*
X84846936Y-55599000D01*
X109982000Y-89619000D02*
X106122000Y-89619000D01*
X113842000Y-101389000D02*
X113842000Y-101144000D01*
X106122000Y-89864000D02*
X104307000Y-89864000D01*
X109982000Y-101389000D02*
X113842000Y-101389000D01*
X106122000Y-89619000D02*
X106122000Y-89864000D01*
X113842000Y-89619000D02*
X113842000Y-89864000D01*
X106122000Y-101389000D02*
X106122000Y-101144000D01*
X109982000Y-101389000D02*
X106122000Y-101389000D01*
X109982000Y-89619000D02*
X113842000Y-89619000D01*
X118845000Y-96239064D02*
X118845000Y-95784936D01*
X117375000Y-96239064D02*
X117375000Y-95784936D01*
X80798936Y-92610000D02*
X81253064Y-92610000D01*
X80798936Y-94080000D02*
X81253064Y-94080000D01*
X89381000Y-94784936D02*
X89381000Y-95239064D01*
X87911000Y-94784936D02*
X87911000Y-95239064D01*
X130062248Y-88619000D02*
X130584752Y-88619000D01*
X130062248Y-87149000D02*
X130584752Y-87149000D01*
D10*
X51822999Y-76391136D02*
X53137999Y-76391136D01*
X53137999Y-68591136D02*
X51822999Y-68591136D01*
X56137999Y-68591136D02*
X57452999Y-68591136D01*
D14*
X58537999Y-71191136D02*
X58537999Y-71191136D01*
D10*
X57452999Y-68591136D02*
X57452999Y-70491136D01*
X51822999Y-68591136D02*
X51822999Y-76391136D01*
X57452999Y-76391136D02*
X56137999Y-76391136D01*
X57452999Y-74491136D02*
X57452999Y-76391136D01*
D14*
X58637999Y-71191136D02*
X58637999Y-71191136D01*
X58637999Y-71191136D02*
G75*
G03*
X58537999Y-71191136I-50000J0D01*
G01*
X58537999Y-71191136D02*
G75*
G03*
X58637999Y-71191136I50000J0D01*
G01*
D17*
X111479064Y-63473000D02*
X111024936Y-63473000D01*
X111479064Y-62003000D02*
X111024936Y-62003000D01*
D15*
X73692000Y-78621000D02*
X77692000Y-78621000D01*
X72417000Y-73221000D02*
X77692000Y-73221000D01*
D17*
X78463000Y-63099000D02*
X80033000Y-63099000D01*
X80033000Y-63099000D02*
X80033000Y-60214000D01*
X78463000Y-60214000D02*
X78463000Y-63099000D01*
D14*
X92068000Y-75152000D02*
X92068000Y-75152000D01*
X92068000Y-75252000D02*
X92068000Y-75252000D01*
X92068000Y-75252000D02*
G75*
G03*
X92068000Y-75152000I0J50000D01*
G01*
X92068000Y-75152000D02*
G75*
G03*
X92068000Y-75252000I0J-50000D01*
G01*
D17*
X82926000Y-101815000D02*
X82926000Y-100115000D01*
X82926000Y-100115000D02*
X79776000Y-100115000D01*
X82926000Y-101815000D02*
X79776000Y-101815000D01*
X96774000Y-100755000D02*
X98974000Y-100755000D01*
X96774000Y-100755000D02*
X93174000Y-100755000D01*
X96774000Y-107525000D02*
X94574000Y-107525000D01*
X96774000Y-107525000D02*
X98974000Y-107525000D01*
%LPC*%
D18*
X82063500Y-98298000D03*
X79988500Y-98298000D03*
D19*
X102117000Y-54864000D03*
X100067000Y-54864000D03*
D20*
X61722000Y-70866000D03*
X63722000Y-70866000D03*
D21*
X73406000Y-95250000D03*
D22*
X73406000Y-97790000D03*
X73406000Y-100330000D03*
D18*
X63775500Y-75692000D03*
X61700500Y-75692000D03*
D23*
X77216000Y-94885000D03*
X77216000Y-96885000D03*
D21*
X125476000Y-54102000D03*
D22*
X122936000Y-54102000D03*
X120396000Y-54102000D03*
X117856000Y-54102000D03*
X115316000Y-54102000D03*
D21*
X138430000Y-64521000D03*
D22*
X138430000Y-67061000D03*
X138430000Y-69601000D03*
X138430000Y-72141000D03*
X138430000Y-74681000D03*
D18*
X63775500Y-68580000D03*
X61700500Y-68580000D03*
D24*
X57912000Y-97536000D03*
D25*
X55372000Y-100076000D03*
X55372000Y-94996000D03*
X60452000Y-100076000D03*
X60452000Y-94996000D03*
D26*
X85471000Y-95885000D03*
X85471000Y-93885000D03*
X102362000Y-96520000D03*
X102362000Y-94520000D03*
D27*
X91572500Y-95062000D03*
X91572500Y-96012000D03*
X91572500Y-96962000D03*
X93847500Y-96962000D03*
X93847500Y-95062000D03*
D23*
X106172000Y-77232000D03*
X106172000Y-79232000D03*
D28*
X76722000Y-55524000D03*
X74422000Y-55524000D03*
D29*
X74422000Y-61824000D03*
D28*
X72122000Y-55524000D03*
D30*
X79776000Y-95885000D03*
X82276000Y-95885000D03*
D31*
X69088000Y-55096500D03*
X69088000Y-57171500D03*
D32*
X97542000Y-67433000D03*
X97542000Y-68083000D03*
X97542000Y-68733000D03*
X97542000Y-69383000D03*
X97542000Y-70033000D03*
X97542000Y-70683000D03*
X97542000Y-71333000D03*
X97542000Y-71983000D03*
X97542000Y-72633000D03*
X97542000Y-73283000D03*
X104642000Y-73283000D03*
X104642000Y-72633000D03*
X104642000Y-71983000D03*
X104642000Y-71333000D03*
X104642000Y-70683000D03*
X104642000Y-70033000D03*
X104642000Y-69383000D03*
X104642000Y-68733000D03*
X104642000Y-68083000D03*
X104642000Y-67433000D03*
D18*
X97282000Y-65278000D03*
X95207000Y-65278000D03*
D33*
X57516499Y-65134136D03*
X57516499Y-63084136D03*
D34*
X63738000Y-73406000D03*
X61738000Y-73406000D03*
D18*
X112289500Y-60452000D03*
X110214500Y-60452000D03*
X94234000Y-76962000D03*
X92159000Y-76962000D03*
D23*
X101854000Y-77232000D03*
X101854000Y-79232000D03*
D35*
X64262000Y-106172000D03*
D36*
X74422000Y-106172000D03*
D20*
X104156000Y-54864000D03*
X106156000Y-54864000D03*
D19*
X90179000Y-54864000D03*
X88129000Y-54864000D03*
D37*
X118110000Y-92477500D03*
X118110000Y-90402500D03*
D18*
X100373000Y-99060000D03*
X98298000Y-99060000D03*
D37*
X90678000Y-101113500D03*
X90678000Y-99038500D03*
D38*
X121588000Y-90424000D03*
X121588000Y-91694000D03*
X121588000Y-92964000D03*
X121588000Y-94234000D03*
X121588000Y-95504000D03*
X121588000Y-96774000D03*
X121588000Y-98044000D03*
X121588000Y-99314000D03*
X121588000Y-100584000D03*
X130888000Y-100584000D03*
X130888000Y-99314000D03*
X130888000Y-98044000D03*
X130888000Y-96774000D03*
X130888000Y-95504000D03*
X130888000Y-94234000D03*
X130888000Y-92964000D03*
X130888000Y-91694000D03*
X130888000Y-90424000D03*
D39*
X85803500Y-98745000D03*
X85803500Y-100645000D03*
X87678500Y-99695000D03*
D40*
X138430000Y-107950000D03*
X138430000Y-54610000D03*
D34*
X86074000Y-54864000D03*
X84074000Y-54864000D03*
D40*
X54610000Y-54610000D03*
D38*
X105332000Y-90424000D03*
X105332000Y-91694000D03*
X105332000Y-92964000D03*
X105332000Y-94234000D03*
X105332000Y-95504000D03*
X105332000Y-96774000D03*
X105332000Y-98044000D03*
X105332000Y-99314000D03*
X105332000Y-100584000D03*
X114632000Y-100584000D03*
X114632000Y-99314000D03*
X114632000Y-98044000D03*
X114632000Y-96774000D03*
X114632000Y-95504000D03*
X114632000Y-94234000D03*
X114632000Y-92964000D03*
X114632000Y-91694000D03*
X114632000Y-90424000D03*
D26*
X118110000Y-97012000D03*
X118110000Y-95012000D03*
D40*
X54610000Y-107950000D03*
D20*
X80026000Y-93345000D03*
X82026000Y-93345000D03*
D23*
X88646000Y-94012000D03*
X88646000Y-96012000D03*
D41*
X129286000Y-87884000D03*
X131361000Y-87884000D03*
D42*
X56752999Y-74491136D03*
X56752999Y-70491136D03*
D43*
X57277999Y-71191136D03*
X57277999Y-73791136D03*
X57277999Y-71841136D03*
X57277999Y-72491136D03*
X57277999Y-73141136D03*
D44*
X54602999Y-68541136D03*
X54602999Y-71291136D03*
X54602999Y-73691136D03*
X54602999Y-76441136D03*
D34*
X112252000Y-62738000D03*
X110252000Y-62738000D03*
D45*
X73092000Y-73723500D03*
X73092000Y-74358500D03*
X73092000Y-74993500D03*
X73092000Y-75628500D03*
X73092000Y-76263500D03*
X73092000Y-76898500D03*
X73092000Y-77533500D03*
X73092000Y-78168500D03*
X78292000Y-78168500D03*
X78292000Y-77533500D03*
X78292000Y-76898500D03*
X78292000Y-76263500D03*
X78292000Y-75628500D03*
X78292000Y-74993500D03*
X78292000Y-74358500D03*
X78292000Y-73723500D03*
D46*
X79248000Y-62189000D03*
X79248000Y-60239000D03*
D47*
X92068000Y-74102000D03*
X94368000Y-74102000D03*
X94368000Y-72202000D03*
X92068000Y-72202000D03*
D30*
X82276000Y-100965000D03*
X79776000Y-100965000D03*
D48*
X93911500Y-101215000D03*
X93911500Y-101865000D03*
X93911500Y-102515000D03*
X93911500Y-103165000D03*
X93911500Y-103815000D03*
X93911500Y-104465000D03*
X93911500Y-105115000D03*
X93911500Y-105765000D03*
X93911500Y-106415000D03*
X93911500Y-107065000D03*
X99636500Y-107065000D03*
X99636500Y-106415000D03*
X99636500Y-105765000D03*
X99636500Y-105115000D03*
X99636500Y-104465000D03*
X99636500Y-103815000D03*
X99636500Y-103165000D03*
X99636500Y-102515000D03*
X99636500Y-101865000D03*
X99636500Y-101215000D03*
M02*
