M48
; DRILL file {KiCad (6.0.9)} date Sun Nov 27 19:03:55 2022
; FORMAT={-:-/ absolute / metric / decimal}
; #@! TF.CreationDate,2022-11-27T19:03:55-05:00
; #@! TF.GenerationSoftware,Kicad,Pcbnew,(6.0.9)
; #@! TF.FileFunction,Plated,1,2,PTH
FMAT,2
METRIC
; #@! TA.AperFunction,Plated,PTH,ViaDrill
T1C0.300
; #@! TA.AperFunction,Plated,PTH,ComponentDrill
T2C0.800
; #@! TA.AperFunction,Plated,PTH,ComponentDrill
T3C1.000
; #@! TA.AperFunction,Plated,PTH,ComponentDrill
T4C1.500
; #@! TA.AperFunction,Plated,PTH,ComponentDrill
T5C1.700
; #@! TA.AperFunction,Plated,PTH,ComponentDrill
T6C2.200
%
G90
G05
T1
X57.404Y-77.216
X58.674Y-73.914
X58.674Y-75.438
X58.674Y-77.216
X63.754Y-67.056
X63.754Y-77.216
X69.088Y-58.674
X70.104Y-75.438
X71.183Y-73.724
X71.183Y-76.454
X74.434Y-76.454
X76.2Y-106.172
X76.454Y-58.42
X78.486Y-55.372
X78.74Y-91.948
X78.994Y-100.076
X79.502Y-75.184
X80.01Y-78.74
X80.772Y-60.198
X82.55Y-54.864
X85.344Y-101.854
X88.392Y-103.886
X88.946Y-104.718
X89.154Y-102.108
X89.665Y-105.413
X90.424Y-106.172
X91.694Y-54.864
X92.71Y-98.044
X93.726Y-65.278
X93.98Y-93.726
X94.234Y-79.502
X95.25Y-107.696
X96.012Y-75.438
X97.282Y-60.96
X98.552Y-55.118
X98.552Y-74.676
X99.822Y-95.758
X100.076Y-70.866
X100.584Y-67.818
X100.584Y-78.232
X101.346Y-73.152
X101.854Y-99.06
X102.362Y-68.834
X102.616Y-70.866
X102.87Y-75.184
X103.378Y-100.076
X104.648Y-66.294
X107.442Y-92.964
X107.442Y-94.488
X107.95Y-78.486
X108.712Y-60.452
X109.982Y-100.584
X110.744Y-99.314
X111.506Y-64.262
X111.518Y-98.044
X112.268Y-96.774
X115.316Y-88.9
X116.586Y-93.472
X119.634Y-100.584
X123.19Y-92.964
X123.19Y-94.488
X123.19Y-96.012
X127.762Y-86.868
X132.482Y-86.763
T2
X64.262Y-106.172
X74.422Y-106.172
T3
X73.406Y-95.25
X73.406Y-97.79
X73.406Y-100.33
X115.316Y-54.102
X117.856Y-54.102
X120.396Y-54.102
X122.936Y-54.102
X125.476Y-54.102
X138.43Y-64.521
X138.43Y-67.061
X138.43Y-69.601
X138.43Y-72.141
X138.43Y-74.681
T4
X57.912Y-97.536
T5
X55.372Y-94.996
X55.372Y-100.076
X60.452Y-94.996
X60.452Y-100.076
T6
X54.61Y-54.61
X54.61Y-107.95
X138.43Y-54.61
X138.43Y-107.95
T0
M30
