%TF.GenerationSoftware,KiCad,Pcbnew,(6.0.9)*%
%TF.CreationDate,2022-11-27T19:04:10-05:00*%
%TF.ProjectId,usbcounter,75736263-6f75-46e7-9465-722e6b696361,rev?*%
%TF.SameCoordinates,Original*%
%TF.FileFunction,Drillmap*%
%TF.FilePolarity,Positive*%
%FSLAX45Y45*%
G04 Gerber Fmt 4.5, Leading zero omitted, Abs format (unit mm)*
G04 Created by KiCad (PCBNEW (6.0.9)) date 2022-11-27 19:04:10*
%MOMM*%
%LPD*%
G01*
G04 APERTURE LIST*
%ADD10C,0.100000*%
%ADD11C,0.200000*%
%ADD12C,0.030000*%
%ADD13C,0.080000*%
%ADD14C,0.150000*%
%ADD15C,0.170000*%
%ADD16C,0.220000*%
G04 APERTURE END LIST*
D10*
X13970000Y-11176000D02*
G75*
G03*
X14224000Y-10922000I0J254000D01*
G01*
X14222195Y-5335805D02*
X14224000Y-10922000D01*
X5335805Y-5081805D02*
X13968195Y-5081805D01*
X5081805Y-10920195D02*
X5081805Y-5335805D01*
X13970000Y-11176000D02*
X5335805Y-11174195D01*
X14222195Y-5335805D02*
G75*
G03*
X13968195Y-5081805I-253995J5D01*
G01*
X5335805Y-5081805D02*
G75*
G03*
X5081805Y-5335805I0J-254000D01*
G01*
X5081805Y-10920195D02*
G75*
G03*
X5335805Y-11174195I254005J5D01*
G01*
D11*
D12*
X5725400Y-7706600D02*
X5755400Y-7736600D01*
X5755400Y-7706600D02*
X5725400Y-7736600D01*
X5852400Y-7376400D02*
X5882400Y-7406400D01*
X5882400Y-7376400D02*
X5852400Y-7406400D01*
X5852400Y-7528800D02*
X5882400Y-7558800D01*
X5882400Y-7528800D02*
X5852400Y-7558800D01*
X5852400Y-7706600D02*
X5882400Y-7736600D01*
X5882400Y-7706600D02*
X5852400Y-7736600D01*
X6360400Y-6690600D02*
X6390400Y-6720600D01*
X6390400Y-6690600D02*
X6360400Y-6720600D01*
X6360400Y-7706600D02*
X6390400Y-7736600D01*
X6390400Y-7706600D02*
X6360400Y-7736600D01*
X6893800Y-5852400D02*
X6923800Y-5882400D01*
X6923800Y-5852400D02*
X6893800Y-5882400D01*
X6995400Y-7528800D02*
X7025400Y-7558800D01*
X7025400Y-7528800D02*
X6995400Y-7558800D01*
X7103350Y-7357350D02*
X7133350Y-7387350D01*
X7133350Y-7357350D02*
X7103350Y-7387350D01*
X7103350Y-7630400D02*
X7133350Y-7660400D01*
X7133350Y-7630400D02*
X7103350Y-7660400D01*
X7428450Y-7630400D02*
X7458450Y-7660400D01*
X7458450Y-7630400D02*
X7428450Y-7660400D01*
X7605000Y-10602200D02*
X7635000Y-10632200D01*
X7635000Y-10602200D02*
X7605000Y-10632200D01*
X7630400Y-5827000D02*
X7660400Y-5857000D01*
X7660400Y-5827000D02*
X7630400Y-5857000D01*
X7833600Y-5522200D02*
X7863600Y-5552200D01*
X7863600Y-5522200D02*
X7833600Y-5552200D01*
X7859000Y-9179800D02*
X7889000Y-9209800D01*
X7889000Y-9179800D02*
X7859000Y-9209800D01*
X7884400Y-9992600D02*
X7914400Y-10022600D01*
X7914400Y-9992600D02*
X7884400Y-10022600D01*
X7935200Y-7503400D02*
X7965200Y-7533400D01*
X7965200Y-7503400D02*
X7935200Y-7533400D01*
X7986000Y-7859000D02*
X8016000Y-7889000D01*
X8016000Y-7859000D02*
X7986000Y-7889000D01*
X8062200Y-6004800D02*
X8092200Y-6034800D01*
X8092200Y-6004800D02*
X8062200Y-6034800D01*
X8240000Y-5471400D02*
X8270000Y-5501400D01*
X8270000Y-5471400D02*
X8240000Y-5501400D01*
X8519400Y-10170400D02*
X8549400Y-10200400D01*
X8549400Y-10170400D02*
X8519400Y-10200400D01*
X8824200Y-10373600D02*
X8854200Y-10403600D01*
X8854200Y-10373600D02*
X8824200Y-10403600D01*
X8879642Y-10456764D02*
X8909642Y-10486764D01*
X8909642Y-10456764D02*
X8879642Y-10486764D01*
X8900400Y-10195800D02*
X8930400Y-10225800D01*
X8930400Y-10195800D02*
X8900400Y-10225800D01*
X8951473Y-10526264D02*
X8981473Y-10556264D01*
X8981473Y-10526264D02*
X8951473Y-10556264D01*
X9027400Y-10602200D02*
X9057400Y-10632200D01*
X9057400Y-10602200D02*
X9027400Y-10632200D01*
X9154400Y-5471400D02*
X9184400Y-5501400D01*
X9184400Y-5471400D02*
X9154400Y-5501400D01*
X9256000Y-9789400D02*
X9286000Y-9819400D01*
X9286000Y-9789400D02*
X9256000Y-9819400D01*
X9357600Y-6512800D02*
X9387600Y-6542800D01*
X9387600Y-6512800D02*
X9357600Y-6542800D01*
X9383000Y-9357600D02*
X9413000Y-9387600D01*
X9413000Y-9357600D02*
X9383000Y-9387600D01*
X9408400Y-7935200D02*
X9438400Y-7965200D01*
X9438400Y-7935200D02*
X9408400Y-7965200D01*
X9510000Y-10754600D02*
X9540000Y-10784600D01*
X9540000Y-10754600D02*
X9510000Y-10784600D01*
X9586200Y-7528800D02*
X9616200Y-7558800D01*
X9616200Y-7528800D02*
X9586200Y-7558800D01*
X9713200Y-6081000D02*
X9743200Y-6111000D01*
X9743200Y-6081000D02*
X9713200Y-6111000D01*
X9840200Y-5496800D02*
X9870200Y-5526800D01*
X9870200Y-5496800D02*
X9840200Y-5526800D01*
X9840200Y-7452600D02*
X9870200Y-7482600D01*
X9870200Y-7452600D02*
X9840200Y-7482600D01*
X9967200Y-9560800D02*
X9997200Y-9590800D01*
X9997200Y-9560800D02*
X9967200Y-9590800D01*
X9992600Y-7071600D02*
X10022600Y-7101600D01*
X10022600Y-7071600D02*
X9992600Y-7101600D01*
X10043400Y-6766800D02*
X10073400Y-6796800D01*
X10073400Y-6766800D02*
X10043400Y-6796800D01*
X10043400Y-7808200D02*
X10073400Y-7838200D01*
X10073400Y-7808200D02*
X10043400Y-7838200D01*
X10119600Y-7300200D02*
X10149600Y-7330200D01*
X10149600Y-7300200D02*
X10119600Y-7330200D01*
X10170400Y-9891000D02*
X10200400Y-9921000D01*
X10200400Y-9891000D02*
X10170400Y-9921000D01*
X10221200Y-6868400D02*
X10251200Y-6898400D01*
X10251200Y-6868400D02*
X10221200Y-6898400D01*
X10246600Y-7071600D02*
X10276600Y-7101600D01*
X10276600Y-7071600D02*
X10246600Y-7101600D01*
X10272000Y-7503400D02*
X10302000Y-7533400D01*
X10302000Y-7503400D02*
X10272000Y-7533400D01*
X10322800Y-9992600D02*
X10352800Y-10022600D01*
X10352800Y-9992600D02*
X10322800Y-10022600D01*
X10449800Y-6614400D02*
X10479800Y-6644400D01*
X10479800Y-6614400D02*
X10449800Y-6644400D01*
X10729200Y-9281400D02*
X10759200Y-9311400D01*
X10759200Y-9281400D02*
X10729200Y-9311400D01*
X10729200Y-9433800D02*
X10759200Y-9463800D01*
X10759200Y-9433800D02*
X10729200Y-9463800D01*
X10780000Y-7833600D02*
X10810000Y-7863600D01*
X10810000Y-7833600D02*
X10780000Y-7863600D01*
X10856200Y-6030200D02*
X10886200Y-6060200D01*
X10886200Y-6030200D02*
X10856200Y-6060200D01*
X10983200Y-10043400D02*
X11013200Y-10073400D01*
X11013200Y-10043400D02*
X10983200Y-10073400D01*
X11059400Y-9916400D02*
X11089400Y-9946400D01*
X11089400Y-9916400D02*
X11059400Y-9946400D01*
X11135600Y-6411200D02*
X11165600Y-6441200D01*
X11165600Y-6411200D02*
X11135600Y-6441200D01*
X11136850Y-9789400D02*
X11166850Y-9819400D01*
X11166850Y-9789400D02*
X11136850Y-9819400D01*
X11211800Y-9662400D02*
X11241800Y-9692400D01*
X11241800Y-9662400D02*
X11211800Y-9692400D01*
X11516600Y-8875000D02*
X11546600Y-8905000D01*
X11546600Y-8875000D02*
X11516600Y-8905000D01*
X11643600Y-9332200D02*
X11673600Y-9362200D01*
X11673600Y-9332200D02*
X11643600Y-9362200D01*
X11948400Y-10043400D02*
X11978400Y-10073400D01*
X11978400Y-10043400D02*
X11948400Y-10073400D01*
X12304000Y-9281400D02*
X12334000Y-9311400D01*
X12334000Y-9281400D02*
X12304000Y-9311400D01*
X12304000Y-9433800D02*
X12334000Y-9463800D01*
X12334000Y-9433800D02*
X12304000Y-9463800D01*
X12304000Y-9586200D02*
X12334000Y-9616200D01*
X12334000Y-9586200D02*
X12304000Y-9616200D01*
X12761200Y-8671800D02*
X12791200Y-8701800D01*
X12791200Y-8671800D02*
X12761200Y-8701800D01*
X13233250Y-8661250D02*
X13263250Y-8691250D01*
X13263250Y-8661250D02*
X13233250Y-8691250D01*
D13*
X6466200Y-10617200D02*
G75*
G03*
X6466200Y-10617200I-40000J0D01*
G01*
X7482200Y-10617200D02*
G75*
G03*
X7482200Y-10617200I-40000J0D01*
G01*
D10*
X7340600Y-9475000D02*
X7340600Y-9575000D01*
X7290600Y-9525000D02*
X7390600Y-9525000D01*
X7340600Y-9729000D02*
X7340600Y-9829000D01*
X7290600Y-9779000D02*
X7390600Y-9779000D01*
X7340600Y-9983000D02*
X7340600Y-10083000D01*
X7290600Y-10033000D02*
X7390600Y-10033000D01*
X11531600Y-5360200D02*
X11531600Y-5460200D01*
X11481600Y-5410200D02*
X11581600Y-5410200D01*
X11785600Y-5360200D02*
X11785600Y-5460200D01*
X11735600Y-5410200D02*
X11835600Y-5410200D01*
X12039600Y-5360200D02*
X12039600Y-5460200D01*
X11989600Y-5410200D02*
X12089600Y-5410200D01*
X12293600Y-5360200D02*
X12293600Y-5460200D01*
X12243600Y-5410200D02*
X12343600Y-5410200D01*
X12547600Y-5360200D02*
X12547600Y-5460200D01*
X12497600Y-5410200D02*
X12597600Y-5410200D01*
X13843000Y-6402100D02*
X13843000Y-6502100D01*
X13793000Y-6452100D02*
X13893000Y-6452100D01*
X13843000Y-6656100D02*
X13843000Y-6756100D01*
X13793000Y-6706100D02*
X13893000Y-6706100D01*
X13843000Y-6910100D02*
X13843000Y-7010100D01*
X13793000Y-6960100D02*
X13893000Y-6960100D01*
X13843000Y-7164100D02*
X13843000Y-7264100D01*
X13793000Y-7214100D02*
X13893000Y-7214100D01*
X13843000Y-7418100D02*
X13843000Y-7518100D01*
X13793000Y-7468100D02*
X13893000Y-7468100D01*
D14*
X5844233Y-9806634D02*
X5844233Y-9700567D01*
X5738166Y-9700567D01*
X5738166Y-9806634D01*
X5844233Y-9806634D01*
D15*
X5537200Y-9584600D02*
X5622200Y-9499600D01*
X5537200Y-9414600D01*
X5452200Y-9499600D01*
X5537200Y-9584600D01*
X5537200Y-10092600D02*
X5622200Y-10007600D01*
X5537200Y-9922600D01*
X5452200Y-10007600D01*
X5537200Y-10092600D01*
X6045200Y-9584600D02*
X6130200Y-9499600D01*
X6045200Y-9414600D01*
X5960200Y-9499600D01*
X6045200Y-9584600D01*
X6045200Y-10092600D02*
X6130200Y-10007600D01*
X6045200Y-9922600D01*
X5960200Y-10007600D01*
X6045200Y-10092600D01*
D16*
X5351000Y-5351000D02*
X5571000Y-5571000D01*
X5571000Y-5351000D02*
X5351000Y-5571000D01*
X5571000Y-5461000D02*
G75*
G03*
X5571000Y-5461000I-110000J0D01*
G01*
X5351000Y-10685000D02*
X5571000Y-10905000D01*
X5571000Y-10685000D02*
X5351000Y-10905000D01*
X5571000Y-10795000D02*
G75*
G03*
X5571000Y-10795000I-110000J0D01*
G01*
X13733000Y-5351000D02*
X13953000Y-5571000D01*
X13953000Y-5351000D02*
X13733000Y-5571000D01*
X13953000Y-5461000D02*
G75*
G03*
X13953000Y-5461000I-110000J0D01*
G01*
X13733000Y-10685000D02*
X13953000Y-10905000D01*
X13953000Y-10685000D02*
X13733000Y-10905000D01*
X13953000Y-10795000D02*
G75*
G03*
X13953000Y-10795000I-110000J0D01*
G01*
D11*
X5334424Y-11491476D02*
X5334424Y-11291476D01*
X5382043Y-11291476D01*
X5410615Y-11301000D01*
X5429662Y-11320048D01*
X5439186Y-11339095D01*
X5448710Y-11377190D01*
X5448710Y-11405762D01*
X5439186Y-11443857D01*
X5429662Y-11462905D01*
X5410615Y-11481952D01*
X5382043Y-11491476D01*
X5334424Y-11491476D01*
X5534424Y-11491476D02*
X5534424Y-11358143D01*
X5534424Y-11396238D02*
X5543948Y-11377190D01*
X5553472Y-11367667D01*
X5572519Y-11358143D01*
X5591567Y-11358143D01*
X5658234Y-11491476D02*
X5658234Y-11358143D01*
X5658234Y-11291476D02*
X5648710Y-11301000D01*
X5658234Y-11310524D01*
X5667757Y-11301000D01*
X5658234Y-11291476D01*
X5658234Y-11310524D01*
X5782043Y-11491476D02*
X5762995Y-11481952D01*
X5753472Y-11462905D01*
X5753472Y-11291476D01*
X5886805Y-11491476D02*
X5867757Y-11481952D01*
X5858234Y-11462905D01*
X5858234Y-11291476D01*
X6115376Y-11491476D02*
X6115376Y-11291476D01*
X6182043Y-11434333D01*
X6248710Y-11291476D01*
X6248710Y-11491476D01*
X6429662Y-11491476D02*
X6429662Y-11386714D01*
X6420138Y-11367667D01*
X6401091Y-11358143D01*
X6362995Y-11358143D01*
X6343948Y-11367667D01*
X6429662Y-11481952D02*
X6410615Y-11491476D01*
X6362995Y-11491476D01*
X6343948Y-11481952D01*
X6334424Y-11462905D01*
X6334424Y-11443857D01*
X6343948Y-11424809D01*
X6362995Y-11415286D01*
X6410615Y-11415286D01*
X6429662Y-11405762D01*
X6524900Y-11358143D02*
X6524900Y-11558143D01*
X6524900Y-11367667D02*
X6543948Y-11358143D01*
X6582043Y-11358143D01*
X6601091Y-11367667D01*
X6610615Y-11377190D01*
X6620138Y-11396238D01*
X6620138Y-11453381D01*
X6610615Y-11472428D01*
X6601091Y-11481952D01*
X6582043Y-11491476D01*
X6543948Y-11491476D01*
X6524900Y-11481952D01*
X6705853Y-11472428D02*
X6715376Y-11481952D01*
X6705853Y-11491476D01*
X6696329Y-11481952D01*
X6705853Y-11472428D01*
X6705853Y-11491476D01*
X6705853Y-11367667D02*
X6715376Y-11377190D01*
X6705853Y-11386714D01*
X6696329Y-11377190D01*
X6705853Y-11367667D01*
X6705853Y-11386714D01*
D12*
X5046805Y-11806000D02*
X5076805Y-11836000D01*
X5076805Y-11806000D02*
X5046805Y-11836000D01*
D11*
X5372519Y-11711476D02*
X5391567Y-11711476D01*
X5410615Y-11721000D01*
X5420138Y-11730524D01*
X5429662Y-11749571D01*
X5439186Y-11787667D01*
X5439186Y-11835286D01*
X5429662Y-11873381D01*
X5420138Y-11892428D01*
X5410615Y-11901952D01*
X5391567Y-11911476D01*
X5372519Y-11911476D01*
X5353472Y-11901952D01*
X5343948Y-11892428D01*
X5334424Y-11873381D01*
X5324900Y-11835286D01*
X5324900Y-11787667D01*
X5334424Y-11749571D01*
X5343948Y-11730524D01*
X5353472Y-11721000D01*
X5372519Y-11711476D01*
X5524900Y-11892428D02*
X5534424Y-11901952D01*
X5524900Y-11911476D01*
X5515377Y-11901952D01*
X5524900Y-11892428D01*
X5524900Y-11911476D01*
X5601091Y-11711476D02*
X5724900Y-11711476D01*
X5658234Y-11787667D01*
X5686805Y-11787667D01*
X5705853Y-11797190D01*
X5715376Y-11806714D01*
X5724900Y-11825762D01*
X5724900Y-11873381D01*
X5715376Y-11892428D01*
X5705853Y-11901952D01*
X5686805Y-11911476D01*
X5629662Y-11911476D01*
X5610615Y-11901952D01*
X5601091Y-11892428D01*
X5848710Y-11711476D02*
X5867757Y-11711476D01*
X5886805Y-11721000D01*
X5896329Y-11730524D01*
X5905853Y-11749571D01*
X5915376Y-11787667D01*
X5915376Y-11835286D01*
X5905853Y-11873381D01*
X5896329Y-11892428D01*
X5886805Y-11901952D01*
X5867757Y-11911476D01*
X5848710Y-11911476D01*
X5829662Y-11901952D01*
X5820138Y-11892428D01*
X5810615Y-11873381D01*
X5801091Y-11835286D01*
X5801091Y-11787667D01*
X5810615Y-11749571D01*
X5820138Y-11730524D01*
X5829662Y-11721000D01*
X5848710Y-11711476D01*
X6039186Y-11711476D02*
X6058234Y-11711476D01*
X6077281Y-11721000D01*
X6086805Y-11730524D01*
X6096329Y-11749571D01*
X6105853Y-11787667D01*
X6105853Y-11835286D01*
X6096329Y-11873381D01*
X6086805Y-11892428D01*
X6077281Y-11901952D01*
X6058234Y-11911476D01*
X6039186Y-11911476D01*
X6020138Y-11901952D01*
X6010615Y-11892428D01*
X6001091Y-11873381D01*
X5991567Y-11835286D01*
X5991567Y-11787667D01*
X6001091Y-11749571D01*
X6010615Y-11730524D01*
X6020138Y-11721000D01*
X6039186Y-11711476D01*
X6191567Y-11911476D02*
X6191567Y-11778143D01*
X6191567Y-11797190D02*
X6201091Y-11787667D01*
X6220138Y-11778143D01*
X6248710Y-11778143D01*
X6267757Y-11787667D01*
X6277281Y-11806714D01*
X6277281Y-11911476D01*
X6277281Y-11806714D02*
X6286805Y-11787667D01*
X6305853Y-11778143D01*
X6334424Y-11778143D01*
X6353472Y-11787667D01*
X6362995Y-11806714D01*
X6362995Y-11911476D01*
X6458234Y-11911476D02*
X6458234Y-11778143D01*
X6458234Y-11797190D02*
X6467757Y-11787667D01*
X6486805Y-11778143D01*
X6515376Y-11778143D01*
X6534424Y-11787667D01*
X6543948Y-11806714D01*
X6543948Y-11911476D01*
X6543948Y-11806714D02*
X6553472Y-11787667D01*
X6572519Y-11778143D01*
X6601091Y-11778143D01*
X6620138Y-11787667D01*
X6629662Y-11806714D01*
X6629662Y-11911476D01*
X7020138Y-11701952D02*
X6848710Y-11959095D01*
X7277281Y-11711476D02*
X7296329Y-11711476D01*
X7315376Y-11721000D01*
X7324900Y-11730524D01*
X7334424Y-11749571D01*
X7343948Y-11787667D01*
X7343948Y-11835286D01*
X7334424Y-11873381D01*
X7324900Y-11892428D01*
X7315376Y-11901952D01*
X7296329Y-11911476D01*
X7277281Y-11911476D01*
X7258234Y-11901952D01*
X7248710Y-11892428D01*
X7239186Y-11873381D01*
X7229662Y-11835286D01*
X7229662Y-11787667D01*
X7239186Y-11749571D01*
X7248710Y-11730524D01*
X7258234Y-11721000D01*
X7277281Y-11711476D01*
X7429662Y-11892428D02*
X7439186Y-11901952D01*
X7429662Y-11911476D01*
X7420138Y-11901952D01*
X7429662Y-11892428D01*
X7429662Y-11911476D01*
X7562995Y-11711476D02*
X7582043Y-11711476D01*
X7601091Y-11721000D01*
X7610615Y-11730524D01*
X7620138Y-11749571D01*
X7629662Y-11787667D01*
X7629662Y-11835286D01*
X7620138Y-11873381D01*
X7610615Y-11892428D01*
X7601091Y-11901952D01*
X7582043Y-11911476D01*
X7562995Y-11911476D01*
X7543948Y-11901952D01*
X7534424Y-11892428D01*
X7524900Y-11873381D01*
X7515376Y-11835286D01*
X7515376Y-11787667D01*
X7524900Y-11749571D01*
X7534424Y-11730524D01*
X7543948Y-11721000D01*
X7562995Y-11711476D01*
X7820138Y-11911476D02*
X7705853Y-11911476D01*
X7762995Y-11911476D02*
X7762995Y-11711476D01*
X7743948Y-11740048D01*
X7724900Y-11759095D01*
X7705853Y-11768619D01*
X8010615Y-11911476D02*
X7896329Y-11911476D01*
X7953472Y-11911476D02*
X7953472Y-11711476D01*
X7934424Y-11740048D01*
X7915376Y-11759095D01*
X7896329Y-11768619D01*
X8124900Y-11797190D02*
X8105853Y-11787667D01*
X8096329Y-11778143D01*
X8086805Y-11759095D01*
X8086805Y-11749571D01*
X8096329Y-11730524D01*
X8105853Y-11721000D01*
X8124900Y-11711476D01*
X8162995Y-11711476D01*
X8182043Y-11721000D01*
X8191567Y-11730524D01*
X8201091Y-11749571D01*
X8201091Y-11759095D01*
X8191567Y-11778143D01*
X8182043Y-11787667D01*
X8162995Y-11797190D01*
X8124900Y-11797190D01*
X8105853Y-11806714D01*
X8096329Y-11816238D01*
X8086805Y-11835286D01*
X8086805Y-11873381D01*
X8096329Y-11892428D01*
X8105853Y-11901952D01*
X8124900Y-11911476D01*
X8162995Y-11911476D01*
X8182043Y-11901952D01*
X8191567Y-11892428D01*
X8201091Y-11873381D01*
X8201091Y-11835286D01*
X8191567Y-11816238D01*
X8182043Y-11806714D01*
X8162995Y-11797190D01*
X8277281Y-11711476D02*
X8277281Y-11749571D01*
X8353472Y-11711476D02*
X8353472Y-11749571D01*
X8648710Y-11987667D02*
X8639186Y-11978143D01*
X8620138Y-11949571D01*
X8610615Y-11930524D01*
X8601091Y-11901952D01*
X8591567Y-11854333D01*
X8591567Y-11816238D01*
X8601091Y-11768619D01*
X8610615Y-11740048D01*
X8620138Y-11721000D01*
X8639186Y-11692428D01*
X8648710Y-11682905D01*
X8810615Y-11711476D02*
X8772519Y-11711476D01*
X8753472Y-11721000D01*
X8743948Y-11730524D01*
X8724900Y-11759095D01*
X8715377Y-11797190D01*
X8715377Y-11873381D01*
X8724900Y-11892428D01*
X8734424Y-11901952D01*
X8753472Y-11911476D01*
X8791567Y-11911476D01*
X8810615Y-11901952D01*
X8820138Y-11892428D01*
X8829662Y-11873381D01*
X8829662Y-11825762D01*
X8820138Y-11806714D01*
X8810615Y-11797190D01*
X8791567Y-11787667D01*
X8753472Y-11787667D01*
X8734424Y-11797190D01*
X8724900Y-11806714D01*
X8715377Y-11825762D01*
X9001091Y-11778143D02*
X9001091Y-11911476D01*
X8953472Y-11701952D02*
X8905853Y-11844809D01*
X9029662Y-11844809D01*
X9258234Y-11911476D02*
X9258234Y-11711476D01*
X9343948Y-11911476D02*
X9343948Y-11806714D01*
X9334424Y-11787667D01*
X9315377Y-11778143D01*
X9286805Y-11778143D01*
X9267757Y-11787667D01*
X9258234Y-11797190D01*
X9467757Y-11911476D02*
X9448710Y-11901952D01*
X9439186Y-11892428D01*
X9429662Y-11873381D01*
X9429662Y-11816238D01*
X9439186Y-11797190D01*
X9448710Y-11787667D01*
X9467757Y-11778143D01*
X9496329Y-11778143D01*
X9515377Y-11787667D01*
X9524900Y-11797190D01*
X9534424Y-11816238D01*
X9534424Y-11873381D01*
X9524900Y-11892428D01*
X9515377Y-11901952D01*
X9496329Y-11911476D01*
X9467757Y-11911476D01*
X9648710Y-11911476D02*
X9629662Y-11901952D01*
X9620138Y-11882905D01*
X9620138Y-11711476D01*
X9801091Y-11901952D02*
X9782043Y-11911476D01*
X9743948Y-11911476D01*
X9724900Y-11901952D01*
X9715377Y-11882905D01*
X9715377Y-11806714D01*
X9724900Y-11787667D01*
X9743948Y-11778143D01*
X9782043Y-11778143D01*
X9801091Y-11787667D01*
X9810615Y-11806714D01*
X9810615Y-11825762D01*
X9715377Y-11844809D01*
X9886805Y-11901952D02*
X9905853Y-11911476D01*
X9943948Y-11911476D01*
X9962996Y-11901952D01*
X9972519Y-11882905D01*
X9972519Y-11873381D01*
X9962996Y-11854333D01*
X9943948Y-11844809D01*
X9915377Y-11844809D01*
X9896329Y-11835286D01*
X9886805Y-11816238D01*
X9886805Y-11806714D01*
X9896329Y-11787667D01*
X9915377Y-11778143D01*
X9943948Y-11778143D01*
X9962996Y-11787667D01*
X10039186Y-11987667D02*
X10048710Y-11978143D01*
X10067757Y-11949571D01*
X10077281Y-11930524D01*
X10086805Y-11901952D01*
X10096329Y-11854333D01*
X10096329Y-11816238D01*
X10086805Y-11768619D01*
X10077281Y-11740048D01*
X10067757Y-11721000D01*
X10048710Y-11692428D01*
X10039186Y-11682905D01*
D13*
X5076805Y-12085000D02*
G75*
G03*
X5076805Y-12085000I-40000J0D01*
G01*
D11*
X5372519Y-11975476D02*
X5391567Y-11975476D01*
X5410615Y-11985000D01*
X5420138Y-11994524D01*
X5429662Y-12013571D01*
X5439186Y-12051667D01*
X5439186Y-12099286D01*
X5429662Y-12137381D01*
X5420138Y-12156428D01*
X5410615Y-12165952D01*
X5391567Y-12175476D01*
X5372519Y-12175476D01*
X5353472Y-12165952D01*
X5343948Y-12156428D01*
X5334424Y-12137381D01*
X5324900Y-12099286D01*
X5324900Y-12051667D01*
X5334424Y-12013571D01*
X5343948Y-11994524D01*
X5353472Y-11985000D01*
X5372519Y-11975476D01*
X5524900Y-12156428D02*
X5534424Y-12165952D01*
X5524900Y-12175476D01*
X5515377Y-12165952D01*
X5524900Y-12156428D01*
X5524900Y-12175476D01*
X5648710Y-12061190D02*
X5629662Y-12051667D01*
X5620138Y-12042143D01*
X5610615Y-12023095D01*
X5610615Y-12013571D01*
X5620138Y-11994524D01*
X5629662Y-11985000D01*
X5648710Y-11975476D01*
X5686805Y-11975476D01*
X5705853Y-11985000D01*
X5715376Y-11994524D01*
X5724900Y-12013571D01*
X5724900Y-12023095D01*
X5715376Y-12042143D01*
X5705853Y-12051667D01*
X5686805Y-12061190D01*
X5648710Y-12061190D01*
X5629662Y-12070714D01*
X5620138Y-12080238D01*
X5610615Y-12099286D01*
X5610615Y-12137381D01*
X5620138Y-12156428D01*
X5629662Y-12165952D01*
X5648710Y-12175476D01*
X5686805Y-12175476D01*
X5705853Y-12165952D01*
X5715376Y-12156428D01*
X5724900Y-12137381D01*
X5724900Y-12099286D01*
X5715376Y-12080238D01*
X5705853Y-12070714D01*
X5686805Y-12061190D01*
X5848710Y-11975476D02*
X5867757Y-11975476D01*
X5886805Y-11985000D01*
X5896329Y-11994524D01*
X5905853Y-12013571D01*
X5915376Y-12051667D01*
X5915376Y-12099286D01*
X5905853Y-12137381D01*
X5896329Y-12156428D01*
X5886805Y-12165952D01*
X5867757Y-12175476D01*
X5848710Y-12175476D01*
X5829662Y-12165952D01*
X5820138Y-12156428D01*
X5810615Y-12137381D01*
X5801091Y-12099286D01*
X5801091Y-12051667D01*
X5810615Y-12013571D01*
X5820138Y-11994524D01*
X5829662Y-11985000D01*
X5848710Y-11975476D01*
X6039186Y-11975476D02*
X6058234Y-11975476D01*
X6077281Y-11985000D01*
X6086805Y-11994524D01*
X6096329Y-12013571D01*
X6105853Y-12051667D01*
X6105853Y-12099286D01*
X6096329Y-12137381D01*
X6086805Y-12156428D01*
X6077281Y-12165952D01*
X6058234Y-12175476D01*
X6039186Y-12175476D01*
X6020138Y-12165952D01*
X6010615Y-12156428D01*
X6001091Y-12137381D01*
X5991567Y-12099286D01*
X5991567Y-12051667D01*
X6001091Y-12013571D01*
X6010615Y-11994524D01*
X6020138Y-11985000D01*
X6039186Y-11975476D01*
X6191567Y-12175476D02*
X6191567Y-12042143D01*
X6191567Y-12061190D02*
X6201091Y-12051667D01*
X6220138Y-12042143D01*
X6248710Y-12042143D01*
X6267757Y-12051667D01*
X6277281Y-12070714D01*
X6277281Y-12175476D01*
X6277281Y-12070714D02*
X6286805Y-12051667D01*
X6305853Y-12042143D01*
X6334424Y-12042143D01*
X6353472Y-12051667D01*
X6362995Y-12070714D01*
X6362995Y-12175476D01*
X6458234Y-12175476D02*
X6458234Y-12042143D01*
X6458234Y-12061190D02*
X6467757Y-12051667D01*
X6486805Y-12042143D01*
X6515376Y-12042143D01*
X6534424Y-12051667D01*
X6543948Y-12070714D01*
X6543948Y-12175476D01*
X6543948Y-12070714D02*
X6553472Y-12051667D01*
X6572519Y-12042143D01*
X6601091Y-12042143D01*
X6620138Y-12051667D01*
X6629662Y-12070714D01*
X6629662Y-12175476D01*
X7020138Y-11965952D02*
X6848710Y-12223095D01*
X7277281Y-11975476D02*
X7296329Y-11975476D01*
X7315376Y-11985000D01*
X7324900Y-11994524D01*
X7334424Y-12013571D01*
X7343948Y-12051667D01*
X7343948Y-12099286D01*
X7334424Y-12137381D01*
X7324900Y-12156428D01*
X7315376Y-12165952D01*
X7296329Y-12175476D01*
X7277281Y-12175476D01*
X7258234Y-12165952D01*
X7248710Y-12156428D01*
X7239186Y-12137381D01*
X7229662Y-12099286D01*
X7229662Y-12051667D01*
X7239186Y-12013571D01*
X7248710Y-11994524D01*
X7258234Y-11985000D01*
X7277281Y-11975476D01*
X7429662Y-12156428D02*
X7439186Y-12165952D01*
X7429662Y-12175476D01*
X7420138Y-12165952D01*
X7429662Y-12156428D01*
X7429662Y-12175476D01*
X7562995Y-11975476D02*
X7582043Y-11975476D01*
X7601091Y-11985000D01*
X7610615Y-11994524D01*
X7620138Y-12013571D01*
X7629662Y-12051667D01*
X7629662Y-12099286D01*
X7620138Y-12137381D01*
X7610615Y-12156428D01*
X7601091Y-12165952D01*
X7582043Y-12175476D01*
X7562995Y-12175476D01*
X7543948Y-12165952D01*
X7534424Y-12156428D01*
X7524900Y-12137381D01*
X7515376Y-12099286D01*
X7515376Y-12051667D01*
X7524900Y-12013571D01*
X7534424Y-11994524D01*
X7543948Y-11985000D01*
X7562995Y-11975476D01*
X7696329Y-11975476D02*
X7820138Y-11975476D01*
X7753472Y-12051667D01*
X7782043Y-12051667D01*
X7801091Y-12061190D01*
X7810615Y-12070714D01*
X7820138Y-12089762D01*
X7820138Y-12137381D01*
X7810615Y-12156428D01*
X7801091Y-12165952D01*
X7782043Y-12175476D01*
X7724900Y-12175476D01*
X7705853Y-12165952D01*
X7696329Y-12156428D01*
X8010615Y-12175476D02*
X7896329Y-12175476D01*
X7953472Y-12175476D02*
X7953472Y-11975476D01*
X7934424Y-12004048D01*
X7915376Y-12023095D01*
X7896329Y-12032619D01*
X8191567Y-11975476D02*
X8096329Y-11975476D01*
X8086805Y-12070714D01*
X8096329Y-12061190D01*
X8115376Y-12051667D01*
X8162995Y-12051667D01*
X8182043Y-12061190D01*
X8191567Y-12070714D01*
X8201091Y-12089762D01*
X8201091Y-12137381D01*
X8191567Y-12156428D01*
X8182043Y-12165952D01*
X8162995Y-12175476D01*
X8115376Y-12175476D01*
X8096329Y-12165952D01*
X8086805Y-12156428D01*
X8277281Y-11975476D02*
X8277281Y-12013571D01*
X8353472Y-11975476D02*
X8353472Y-12013571D01*
X8648710Y-12251667D02*
X8639186Y-12242143D01*
X8620138Y-12213571D01*
X8610615Y-12194524D01*
X8601091Y-12165952D01*
X8591567Y-12118333D01*
X8591567Y-12080238D01*
X8601091Y-12032619D01*
X8610615Y-12004048D01*
X8620138Y-11985000D01*
X8639186Y-11956428D01*
X8648710Y-11946905D01*
X8715377Y-11994524D02*
X8724900Y-11985000D01*
X8743948Y-11975476D01*
X8791567Y-11975476D01*
X8810615Y-11985000D01*
X8820138Y-11994524D01*
X8829662Y-12013571D01*
X8829662Y-12032619D01*
X8820138Y-12061190D01*
X8705853Y-12175476D01*
X8829662Y-12175476D01*
X9067757Y-12175476D02*
X9067757Y-11975476D01*
X9153472Y-12175476D02*
X9153472Y-12070714D01*
X9143948Y-12051667D01*
X9124900Y-12042143D01*
X9096329Y-12042143D01*
X9077281Y-12051667D01*
X9067757Y-12061190D01*
X9277281Y-12175476D02*
X9258234Y-12165952D01*
X9248710Y-12156428D01*
X9239186Y-12137381D01*
X9239186Y-12080238D01*
X9248710Y-12061190D01*
X9258234Y-12051667D01*
X9277281Y-12042143D01*
X9305853Y-12042143D01*
X9324900Y-12051667D01*
X9334424Y-12061190D01*
X9343948Y-12080238D01*
X9343948Y-12137381D01*
X9334424Y-12156428D01*
X9324900Y-12165952D01*
X9305853Y-12175476D01*
X9277281Y-12175476D01*
X9458234Y-12175476D02*
X9439186Y-12165952D01*
X9429662Y-12146905D01*
X9429662Y-11975476D01*
X9610615Y-12165952D02*
X9591567Y-12175476D01*
X9553472Y-12175476D01*
X9534424Y-12165952D01*
X9524900Y-12146905D01*
X9524900Y-12070714D01*
X9534424Y-12051667D01*
X9553472Y-12042143D01*
X9591567Y-12042143D01*
X9610615Y-12051667D01*
X9620138Y-12070714D01*
X9620138Y-12089762D01*
X9524900Y-12108809D01*
X9696329Y-12165952D02*
X9715377Y-12175476D01*
X9753472Y-12175476D01*
X9772519Y-12165952D01*
X9782043Y-12146905D01*
X9782043Y-12137381D01*
X9772519Y-12118333D01*
X9753472Y-12108809D01*
X9724900Y-12108809D01*
X9705853Y-12099286D01*
X9696329Y-12080238D01*
X9696329Y-12070714D01*
X9705853Y-12051667D01*
X9724900Y-12042143D01*
X9753472Y-12042143D01*
X9772519Y-12051667D01*
X9848710Y-12251667D02*
X9858234Y-12242143D01*
X9877281Y-12213571D01*
X9886805Y-12194524D01*
X9896329Y-12165952D01*
X9905853Y-12118333D01*
X9905853Y-12080238D01*
X9896329Y-12032619D01*
X9886805Y-12004048D01*
X9877281Y-11985000D01*
X9858234Y-11956428D01*
X9848710Y-11946905D01*
D10*
X5026805Y-12299000D02*
X5026805Y-12399000D01*
X4976805Y-12349000D02*
X5076805Y-12349000D01*
D11*
X5439186Y-12439476D02*
X5324900Y-12439476D01*
X5382043Y-12439476D02*
X5382043Y-12239476D01*
X5362996Y-12268048D01*
X5343948Y-12287095D01*
X5324900Y-12296619D01*
X5524900Y-12420428D02*
X5534424Y-12429952D01*
X5524900Y-12439476D01*
X5515377Y-12429952D01*
X5524900Y-12420428D01*
X5524900Y-12439476D01*
X5658234Y-12239476D02*
X5677281Y-12239476D01*
X5696329Y-12249000D01*
X5705853Y-12258524D01*
X5715376Y-12277571D01*
X5724900Y-12315667D01*
X5724900Y-12363286D01*
X5715376Y-12401381D01*
X5705853Y-12420428D01*
X5696329Y-12429952D01*
X5677281Y-12439476D01*
X5658234Y-12439476D01*
X5639186Y-12429952D01*
X5629662Y-12420428D01*
X5620138Y-12401381D01*
X5610615Y-12363286D01*
X5610615Y-12315667D01*
X5620138Y-12277571D01*
X5629662Y-12258524D01*
X5639186Y-12249000D01*
X5658234Y-12239476D01*
X5848710Y-12239476D02*
X5867757Y-12239476D01*
X5886805Y-12249000D01*
X5896329Y-12258524D01*
X5905853Y-12277571D01*
X5915376Y-12315667D01*
X5915376Y-12363286D01*
X5905853Y-12401381D01*
X5896329Y-12420428D01*
X5886805Y-12429952D01*
X5867757Y-12439476D01*
X5848710Y-12439476D01*
X5829662Y-12429952D01*
X5820138Y-12420428D01*
X5810615Y-12401381D01*
X5801091Y-12363286D01*
X5801091Y-12315667D01*
X5810615Y-12277571D01*
X5820138Y-12258524D01*
X5829662Y-12249000D01*
X5848710Y-12239476D01*
X6039186Y-12239476D02*
X6058234Y-12239476D01*
X6077281Y-12249000D01*
X6086805Y-12258524D01*
X6096329Y-12277571D01*
X6105853Y-12315667D01*
X6105853Y-12363286D01*
X6096329Y-12401381D01*
X6086805Y-12420428D01*
X6077281Y-12429952D01*
X6058234Y-12439476D01*
X6039186Y-12439476D01*
X6020138Y-12429952D01*
X6010615Y-12420428D01*
X6001091Y-12401381D01*
X5991567Y-12363286D01*
X5991567Y-12315667D01*
X6001091Y-12277571D01*
X6010615Y-12258524D01*
X6020138Y-12249000D01*
X6039186Y-12239476D01*
X6191567Y-12439476D02*
X6191567Y-12306143D01*
X6191567Y-12325190D02*
X6201091Y-12315667D01*
X6220138Y-12306143D01*
X6248710Y-12306143D01*
X6267757Y-12315667D01*
X6277281Y-12334714D01*
X6277281Y-12439476D01*
X6277281Y-12334714D02*
X6286805Y-12315667D01*
X6305853Y-12306143D01*
X6334424Y-12306143D01*
X6353472Y-12315667D01*
X6362995Y-12334714D01*
X6362995Y-12439476D01*
X6458234Y-12439476D02*
X6458234Y-12306143D01*
X6458234Y-12325190D02*
X6467757Y-12315667D01*
X6486805Y-12306143D01*
X6515376Y-12306143D01*
X6534424Y-12315667D01*
X6543948Y-12334714D01*
X6543948Y-12439476D01*
X6543948Y-12334714D02*
X6553472Y-12315667D01*
X6572519Y-12306143D01*
X6601091Y-12306143D01*
X6620138Y-12315667D01*
X6629662Y-12334714D01*
X6629662Y-12439476D01*
X7020138Y-12229952D02*
X6848710Y-12487095D01*
X7277281Y-12239476D02*
X7296329Y-12239476D01*
X7315376Y-12249000D01*
X7324900Y-12258524D01*
X7334424Y-12277571D01*
X7343948Y-12315667D01*
X7343948Y-12363286D01*
X7334424Y-12401381D01*
X7324900Y-12420428D01*
X7315376Y-12429952D01*
X7296329Y-12439476D01*
X7277281Y-12439476D01*
X7258234Y-12429952D01*
X7248710Y-12420428D01*
X7239186Y-12401381D01*
X7229662Y-12363286D01*
X7229662Y-12315667D01*
X7239186Y-12277571D01*
X7248710Y-12258524D01*
X7258234Y-12249000D01*
X7277281Y-12239476D01*
X7429662Y-12420428D02*
X7439186Y-12429952D01*
X7429662Y-12439476D01*
X7420138Y-12429952D01*
X7429662Y-12420428D01*
X7429662Y-12439476D01*
X7562995Y-12239476D02*
X7582043Y-12239476D01*
X7601091Y-12249000D01*
X7610615Y-12258524D01*
X7620138Y-12277571D01*
X7629662Y-12315667D01*
X7629662Y-12363286D01*
X7620138Y-12401381D01*
X7610615Y-12420428D01*
X7601091Y-12429952D01*
X7582043Y-12439476D01*
X7562995Y-12439476D01*
X7543948Y-12429952D01*
X7534424Y-12420428D01*
X7524900Y-12401381D01*
X7515376Y-12363286D01*
X7515376Y-12315667D01*
X7524900Y-12277571D01*
X7534424Y-12258524D01*
X7543948Y-12249000D01*
X7562995Y-12239476D01*
X7696329Y-12239476D02*
X7820138Y-12239476D01*
X7753472Y-12315667D01*
X7782043Y-12315667D01*
X7801091Y-12325190D01*
X7810615Y-12334714D01*
X7820138Y-12353762D01*
X7820138Y-12401381D01*
X7810615Y-12420428D01*
X7801091Y-12429952D01*
X7782043Y-12439476D01*
X7724900Y-12439476D01*
X7705853Y-12429952D01*
X7696329Y-12420428D01*
X7915376Y-12439476D02*
X7953472Y-12439476D01*
X7972519Y-12429952D01*
X7982043Y-12420428D01*
X8001091Y-12391857D01*
X8010615Y-12353762D01*
X8010615Y-12277571D01*
X8001091Y-12258524D01*
X7991567Y-12249000D01*
X7972519Y-12239476D01*
X7934424Y-12239476D01*
X7915376Y-12249000D01*
X7905853Y-12258524D01*
X7896329Y-12277571D01*
X7896329Y-12325190D01*
X7905853Y-12344238D01*
X7915376Y-12353762D01*
X7934424Y-12363286D01*
X7972519Y-12363286D01*
X7991567Y-12353762D01*
X8001091Y-12344238D01*
X8010615Y-12325190D01*
X8182043Y-12306143D02*
X8182043Y-12439476D01*
X8134424Y-12229952D02*
X8086805Y-12372809D01*
X8210615Y-12372809D01*
X8277281Y-12239476D02*
X8277281Y-12277571D01*
X8353472Y-12239476D02*
X8353472Y-12277571D01*
X8648710Y-12515667D02*
X8639186Y-12506143D01*
X8620138Y-12477571D01*
X8610615Y-12458524D01*
X8601091Y-12429952D01*
X8591567Y-12382333D01*
X8591567Y-12344238D01*
X8601091Y-12296619D01*
X8610615Y-12268048D01*
X8620138Y-12249000D01*
X8639186Y-12220428D01*
X8648710Y-12210905D01*
X8829662Y-12439476D02*
X8715377Y-12439476D01*
X8772519Y-12439476D02*
X8772519Y-12239476D01*
X8753472Y-12268048D01*
X8734424Y-12287095D01*
X8715377Y-12296619D01*
X8896329Y-12239476D02*
X9020138Y-12239476D01*
X8953472Y-12315667D01*
X8982043Y-12315667D01*
X9001091Y-12325190D01*
X9010615Y-12334714D01*
X9020138Y-12353762D01*
X9020138Y-12401381D01*
X9010615Y-12420428D01*
X9001091Y-12429952D01*
X8982043Y-12439476D01*
X8924900Y-12439476D01*
X8905853Y-12429952D01*
X8896329Y-12420428D01*
X9258234Y-12439476D02*
X9258234Y-12239476D01*
X9343948Y-12439476D02*
X9343948Y-12334714D01*
X9334424Y-12315667D01*
X9315377Y-12306143D01*
X9286805Y-12306143D01*
X9267757Y-12315667D01*
X9258234Y-12325190D01*
X9467757Y-12439476D02*
X9448710Y-12429952D01*
X9439186Y-12420428D01*
X9429662Y-12401381D01*
X9429662Y-12344238D01*
X9439186Y-12325190D01*
X9448710Y-12315667D01*
X9467757Y-12306143D01*
X9496329Y-12306143D01*
X9515377Y-12315667D01*
X9524900Y-12325190D01*
X9534424Y-12344238D01*
X9534424Y-12401381D01*
X9524900Y-12420428D01*
X9515377Y-12429952D01*
X9496329Y-12439476D01*
X9467757Y-12439476D01*
X9648710Y-12439476D02*
X9629662Y-12429952D01*
X9620138Y-12410905D01*
X9620138Y-12239476D01*
X9801091Y-12429952D02*
X9782043Y-12439476D01*
X9743948Y-12439476D01*
X9724900Y-12429952D01*
X9715377Y-12410905D01*
X9715377Y-12334714D01*
X9724900Y-12315667D01*
X9743948Y-12306143D01*
X9782043Y-12306143D01*
X9801091Y-12315667D01*
X9810615Y-12334714D01*
X9810615Y-12353762D01*
X9715377Y-12372809D01*
X9886805Y-12429952D02*
X9905853Y-12439476D01*
X9943948Y-12439476D01*
X9962996Y-12429952D01*
X9972519Y-12410905D01*
X9972519Y-12401381D01*
X9962996Y-12382333D01*
X9943948Y-12372809D01*
X9915377Y-12372809D01*
X9896329Y-12363286D01*
X9886805Y-12344238D01*
X9886805Y-12334714D01*
X9896329Y-12315667D01*
X9915377Y-12306143D01*
X9943948Y-12306143D01*
X9962996Y-12315667D01*
X10039186Y-12515667D02*
X10048710Y-12506143D01*
X10067757Y-12477571D01*
X10077281Y-12458524D01*
X10086805Y-12429952D01*
X10096329Y-12382333D01*
X10096329Y-12344238D01*
X10086805Y-12296619D01*
X10077281Y-12268048D01*
X10067757Y-12249000D01*
X10048710Y-12220428D01*
X10039186Y-12210905D01*
D14*
X5054839Y-12666033D02*
X5054839Y-12559966D01*
X4948772Y-12559966D01*
X4948772Y-12666033D01*
X5054839Y-12666033D01*
D11*
X5439186Y-12703476D02*
X5324900Y-12703476D01*
X5382043Y-12703476D02*
X5382043Y-12503476D01*
X5362996Y-12532048D01*
X5343948Y-12551095D01*
X5324900Y-12560619D01*
X5524900Y-12684428D02*
X5534424Y-12693952D01*
X5524900Y-12703476D01*
X5515377Y-12693952D01*
X5524900Y-12684428D01*
X5524900Y-12703476D01*
X5715376Y-12503476D02*
X5620138Y-12503476D01*
X5610615Y-12598714D01*
X5620138Y-12589190D01*
X5639186Y-12579667D01*
X5686805Y-12579667D01*
X5705853Y-12589190D01*
X5715376Y-12598714D01*
X5724900Y-12617762D01*
X5724900Y-12665381D01*
X5715376Y-12684428D01*
X5705853Y-12693952D01*
X5686805Y-12703476D01*
X5639186Y-12703476D01*
X5620138Y-12693952D01*
X5610615Y-12684428D01*
X5848710Y-12503476D02*
X5867757Y-12503476D01*
X5886805Y-12513000D01*
X5896329Y-12522524D01*
X5905853Y-12541571D01*
X5915376Y-12579667D01*
X5915376Y-12627286D01*
X5905853Y-12665381D01*
X5896329Y-12684428D01*
X5886805Y-12693952D01*
X5867757Y-12703476D01*
X5848710Y-12703476D01*
X5829662Y-12693952D01*
X5820138Y-12684428D01*
X5810615Y-12665381D01*
X5801091Y-12627286D01*
X5801091Y-12579667D01*
X5810615Y-12541571D01*
X5820138Y-12522524D01*
X5829662Y-12513000D01*
X5848710Y-12503476D01*
X6039186Y-12503476D02*
X6058234Y-12503476D01*
X6077281Y-12513000D01*
X6086805Y-12522524D01*
X6096329Y-12541571D01*
X6105853Y-12579667D01*
X6105853Y-12627286D01*
X6096329Y-12665381D01*
X6086805Y-12684428D01*
X6077281Y-12693952D01*
X6058234Y-12703476D01*
X6039186Y-12703476D01*
X6020138Y-12693952D01*
X6010615Y-12684428D01*
X6001091Y-12665381D01*
X5991567Y-12627286D01*
X5991567Y-12579667D01*
X6001091Y-12541571D01*
X6010615Y-12522524D01*
X6020138Y-12513000D01*
X6039186Y-12503476D01*
X6191567Y-12703476D02*
X6191567Y-12570143D01*
X6191567Y-12589190D02*
X6201091Y-12579667D01*
X6220138Y-12570143D01*
X6248710Y-12570143D01*
X6267757Y-12579667D01*
X6277281Y-12598714D01*
X6277281Y-12703476D01*
X6277281Y-12598714D02*
X6286805Y-12579667D01*
X6305853Y-12570143D01*
X6334424Y-12570143D01*
X6353472Y-12579667D01*
X6362995Y-12598714D01*
X6362995Y-12703476D01*
X6458234Y-12703476D02*
X6458234Y-12570143D01*
X6458234Y-12589190D02*
X6467757Y-12579667D01*
X6486805Y-12570143D01*
X6515376Y-12570143D01*
X6534424Y-12579667D01*
X6543948Y-12598714D01*
X6543948Y-12703476D01*
X6543948Y-12598714D02*
X6553472Y-12579667D01*
X6572519Y-12570143D01*
X6601091Y-12570143D01*
X6620138Y-12579667D01*
X6629662Y-12598714D01*
X6629662Y-12703476D01*
X7020138Y-12493952D02*
X6848710Y-12751095D01*
X7277281Y-12503476D02*
X7296329Y-12503476D01*
X7315376Y-12513000D01*
X7324900Y-12522524D01*
X7334424Y-12541571D01*
X7343948Y-12579667D01*
X7343948Y-12627286D01*
X7334424Y-12665381D01*
X7324900Y-12684428D01*
X7315376Y-12693952D01*
X7296329Y-12703476D01*
X7277281Y-12703476D01*
X7258234Y-12693952D01*
X7248710Y-12684428D01*
X7239186Y-12665381D01*
X7229662Y-12627286D01*
X7229662Y-12579667D01*
X7239186Y-12541571D01*
X7248710Y-12522524D01*
X7258234Y-12513000D01*
X7277281Y-12503476D01*
X7429662Y-12684428D02*
X7439186Y-12693952D01*
X7429662Y-12703476D01*
X7420138Y-12693952D01*
X7429662Y-12684428D01*
X7429662Y-12703476D01*
X7562995Y-12503476D02*
X7582043Y-12503476D01*
X7601091Y-12513000D01*
X7610615Y-12522524D01*
X7620138Y-12541571D01*
X7629662Y-12579667D01*
X7629662Y-12627286D01*
X7620138Y-12665381D01*
X7610615Y-12684428D01*
X7601091Y-12693952D01*
X7582043Y-12703476D01*
X7562995Y-12703476D01*
X7543948Y-12693952D01*
X7534424Y-12684428D01*
X7524900Y-12665381D01*
X7515376Y-12627286D01*
X7515376Y-12579667D01*
X7524900Y-12541571D01*
X7534424Y-12522524D01*
X7543948Y-12513000D01*
X7562995Y-12503476D01*
X7810615Y-12503476D02*
X7715376Y-12503476D01*
X7705853Y-12598714D01*
X7715376Y-12589190D01*
X7734424Y-12579667D01*
X7782043Y-12579667D01*
X7801091Y-12589190D01*
X7810615Y-12598714D01*
X7820138Y-12617762D01*
X7820138Y-12665381D01*
X7810615Y-12684428D01*
X7801091Y-12693952D01*
X7782043Y-12703476D01*
X7734424Y-12703476D01*
X7715376Y-12693952D01*
X7705853Y-12684428D01*
X7915376Y-12703476D02*
X7953472Y-12703476D01*
X7972519Y-12693952D01*
X7982043Y-12684428D01*
X8001091Y-12655857D01*
X8010615Y-12617762D01*
X8010615Y-12541571D01*
X8001091Y-12522524D01*
X7991567Y-12513000D01*
X7972519Y-12503476D01*
X7934424Y-12503476D01*
X7915376Y-12513000D01*
X7905853Y-12522524D01*
X7896329Y-12541571D01*
X7896329Y-12589190D01*
X7905853Y-12608238D01*
X7915376Y-12617762D01*
X7934424Y-12627286D01*
X7972519Y-12627286D01*
X7991567Y-12617762D01*
X8001091Y-12608238D01*
X8010615Y-12589190D01*
X8201091Y-12703476D02*
X8086805Y-12703476D01*
X8143948Y-12703476D02*
X8143948Y-12503476D01*
X8124900Y-12532048D01*
X8105853Y-12551095D01*
X8086805Y-12560619D01*
X8277281Y-12503476D02*
X8277281Y-12541571D01*
X8353472Y-12503476D02*
X8353472Y-12541571D01*
X8648710Y-12779667D02*
X8639186Y-12770143D01*
X8620138Y-12741571D01*
X8610615Y-12722524D01*
X8601091Y-12693952D01*
X8591567Y-12646333D01*
X8591567Y-12608238D01*
X8601091Y-12560619D01*
X8610615Y-12532048D01*
X8620138Y-12513000D01*
X8639186Y-12484428D01*
X8648710Y-12474905D01*
X8829662Y-12703476D02*
X8715377Y-12703476D01*
X8772519Y-12703476D02*
X8772519Y-12503476D01*
X8753472Y-12532048D01*
X8734424Y-12551095D01*
X8715377Y-12560619D01*
X9067757Y-12703476D02*
X9067757Y-12503476D01*
X9153472Y-12703476D02*
X9153472Y-12598714D01*
X9143948Y-12579667D01*
X9124900Y-12570143D01*
X9096329Y-12570143D01*
X9077281Y-12579667D01*
X9067757Y-12589190D01*
X9277281Y-12703476D02*
X9258234Y-12693952D01*
X9248710Y-12684428D01*
X9239186Y-12665381D01*
X9239186Y-12608238D01*
X9248710Y-12589190D01*
X9258234Y-12579667D01*
X9277281Y-12570143D01*
X9305853Y-12570143D01*
X9324900Y-12579667D01*
X9334424Y-12589190D01*
X9343948Y-12608238D01*
X9343948Y-12665381D01*
X9334424Y-12684428D01*
X9324900Y-12693952D01*
X9305853Y-12703476D01*
X9277281Y-12703476D01*
X9458234Y-12703476D02*
X9439186Y-12693952D01*
X9429662Y-12674905D01*
X9429662Y-12503476D01*
X9610615Y-12693952D02*
X9591567Y-12703476D01*
X9553472Y-12703476D01*
X9534424Y-12693952D01*
X9524900Y-12674905D01*
X9524900Y-12598714D01*
X9534424Y-12579667D01*
X9553472Y-12570143D01*
X9591567Y-12570143D01*
X9610615Y-12579667D01*
X9620138Y-12598714D01*
X9620138Y-12617762D01*
X9524900Y-12636809D01*
X9686805Y-12779667D02*
X9696329Y-12770143D01*
X9715377Y-12741571D01*
X9724900Y-12722524D01*
X9734424Y-12693952D01*
X9743948Y-12646333D01*
X9743948Y-12608238D01*
X9734424Y-12560619D01*
X9724900Y-12532048D01*
X9715377Y-12513000D01*
X9696329Y-12484428D01*
X9686805Y-12474905D01*
D15*
X4991805Y-12968000D02*
X5076805Y-12883000D01*
X4991805Y-12798000D01*
X4906805Y-12883000D01*
X4991805Y-12968000D01*
D11*
X5439186Y-12973476D02*
X5324900Y-12973476D01*
X5382043Y-12973476D02*
X5382043Y-12773476D01*
X5362996Y-12802048D01*
X5343948Y-12821095D01*
X5324900Y-12830619D01*
X5524900Y-12954428D02*
X5534424Y-12963952D01*
X5524900Y-12973476D01*
X5515377Y-12963952D01*
X5524900Y-12954428D01*
X5524900Y-12973476D01*
X5601091Y-12773476D02*
X5734424Y-12773476D01*
X5648710Y-12973476D01*
X5848710Y-12773476D02*
X5867757Y-12773476D01*
X5886805Y-12783000D01*
X5896329Y-12792524D01*
X5905853Y-12811571D01*
X5915376Y-12849667D01*
X5915376Y-12897286D01*
X5905853Y-12935381D01*
X5896329Y-12954428D01*
X5886805Y-12963952D01*
X5867757Y-12973476D01*
X5848710Y-12973476D01*
X5829662Y-12963952D01*
X5820138Y-12954428D01*
X5810615Y-12935381D01*
X5801091Y-12897286D01*
X5801091Y-12849667D01*
X5810615Y-12811571D01*
X5820138Y-12792524D01*
X5829662Y-12783000D01*
X5848710Y-12773476D01*
X6039186Y-12773476D02*
X6058234Y-12773476D01*
X6077281Y-12783000D01*
X6086805Y-12792524D01*
X6096329Y-12811571D01*
X6105853Y-12849667D01*
X6105853Y-12897286D01*
X6096329Y-12935381D01*
X6086805Y-12954428D01*
X6077281Y-12963952D01*
X6058234Y-12973476D01*
X6039186Y-12973476D01*
X6020138Y-12963952D01*
X6010615Y-12954428D01*
X6001091Y-12935381D01*
X5991567Y-12897286D01*
X5991567Y-12849667D01*
X6001091Y-12811571D01*
X6010615Y-12792524D01*
X6020138Y-12783000D01*
X6039186Y-12773476D01*
X6191567Y-12973476D02*
X6191567Y-12840143D01*
X6191567Y-12859190D02*
X6201091Y-12849667D01*
X6220138Y-12840143D01*
X6248710Y-12840143D01*
X6267757Y-12849667D01*
X6277281Y-12868714D01*
X6277281Y-12973476D01*
X6277281Y-12868714D02*
X6286805Y-12849667D01*
X6305853Y-12840143D01*
X6334424Y-12840143D01*
X6353472Y-12849667D01*
X6362995Y-12868714D01*
X6362995Y-12973476D01*
X6458234Y-12973476D02*
X6458234Y-12840143D01*
X6458234Y-12859190D02*
X6467757Y-12849667D01*
X6486805Y-12840143D01*
X6515376Y-12840143D01*
X6534424Y-12849667D01*
X6543948Y-12868714D01*
X6543948Y-12973476D01*
X6543948Y-12868714D02*
X6553472Y-12849667D01*
X6572519Y-12840143D01*
X6601091Y-12840143D01*
X6620138Y-12849667D01*
X6629662Y-12868714D01*
X6629662Y-12973476D01*
X7020138Y-12763952D02*
X6848710Y-13021095D01*
X7277281Y-12773476D02*
X7296329Y-12773476D01*
X7315376Y-12783000D01*
X7324900Y-12792524D01*
X7334424Y-12811571D01*
X7343948Y-12849667D01*
X7343948Y-12897286D01*
X7334424Y-12935381D01*
X7324900Y-12954428D01*
X7315376Y-12963952D01*
X7296329Y-12973476D01*
X7277281Y-12973476D01*
X7258234Y-12963952D01*
X7248710Y-12954428D01*
X7239186Y-12935381D01*
X7229662Y-12897286D01*
X7229662Y-12849667D01*
X7239186Y-12811571D01*
X7248710Y-12792524D01*
X7258234Y-12783000D01*
X7277281Y-12773476D01*
X7429662Y-12954428D02*
X7439186Y-12963952D01*
X7429662Y-12973476D01*
X7420138Y-12963952D01*
X7429662Y-12954428D01*
X7429662Y-12973476D01*
X7562995Y-12773476D02*
X7582043Y-12773476D01*
X7601091Y-12783000D01*
X7610615Y-12792524D01*
X7620138Y-12811571D01*
X7629662Y-12849667D01*
X7629662Y-12897286D01*
X7620138Y-12935381D01*
X7610615Y-12954428D01*
X7601091Y-12963952D01*
X7582043Y-12973476D01*
X7562995Y-12973476D01*
X7543948Y-12963952D01*
X7534424Y-12954428D01*
X7524900Y-12935381D01*
X7515376Y-12897286D01*
X7515376Y-12849667D01*
X7524900Y-12811571D01*
X7534424Y-12792524D01*
X7543948Y-12783000D01*
X7562995Y-12773476D01*
X7801091Y-12773476D02*
X7762995Y-12773476D01*
X7743948Y-12783000D01*
X7734424Y-12792524D01*
X7715376Y-12821095D01*
X7705853Y-12859190D01*
X7705853Y-12935381D01*
X7715376Y-12954428D01*
X7724900Y-12963952D01*
X7743948Y-12973476D01*
X7782043Y-12973476D01*
X7801091Y-12963952D01*
X7810615Y-12954428D01*
X7820138Y-12935381D01*
X7820138Y-12887762D01*
X7810615Y-12868714D01*
X7801091Y-12859190D01*
X7782043Y-12849667D01*
X7743948Y-12849667D01*
X7724900Y-12859190D01*
X7715376Y-12868714D01*
X7705853Y-12887762D01*
X7991567Y-12773476D02*
X7953472Y-12773476D01*
X7934424Y-12783000D01*
X7924900Y-12792524D01*
X7905853Y-12821095D01*
X7896329Y-12859190D01*
X7896329Y-12935381D01*
X7905853Y-12954428D01*
X7915376Y-12963952D01*
X7934424Y-12973476D01*
X7972519Y-12973476D01*
X7991567Y-12963952D01*
X8001091Y-12954428D01*
X8010615Y-12935381D01*
X8010615Y-12887762D01*
X8001091Y-12868714D01*
X7991567Y-12859190D01*
X7972519Y-12849667D01*
X7934424Y-12849667D01*
X7915376Y-12859190D01*
X7905853Y-12868714D01*
X7896329Y-12887762D01*
X8105853Y-12973476D02*
X8143948Y-12973476D01*
X8162995Y-12963952D01*
X8172519Y-12954428D01*
X8191567Y-12925857D01*
X8201091Y-12887762D01*
X8201091Y-12811571D01*
X8191567Y-12792524D01*
X8182043Y-12783000D01*
X8162995Y-12773476D01*
X8124900Y-12773476D01*
X8105853Y-12783000D01*
X8096329Y-12792524D01*
X8086805Y-12811571D01*
X8086805Y-12859190D01*
X8096329Y-12878238D01*
X8105853Y-12887762D01*
X8124900Y-12897286D01*
X8162995Y-12897286D01*
X8182043Y-12887762D01*
X8191567Y-12878238D01*
X8201091Y-12859190D01*
X8277281Y-12773476D02*
X8277281Y-12811571D01*
X8353472Y-12773476D02*
X8353472Y-12811571D01*
X8648710Y-13049667D02*
X8639186Y-13040143D01*
X8620138Y-13011571D01*
X8610615Y-12992524D01*
X8601091Y-12963952D01*
X8591567Y-12916333D01*
X8591567Y-12878238D01*
X8601091Y-12830619D01*
X8610615Y-12802048D01*
X8620138Y-12783000D01*
X8639186Y-12754428D01*
X8648710Y-12744905D01*
X8810615Y-12840143D02*
X8810615Y-12973476D01*
X8762996Y-12763952D02*
X8715377Y-12906809D01*
X8839186Y-12906809D01*
X9067757Y-12973476D02*
X9067757Y-12773476D01*
X9153472Y-12973476D02*
X9153472Y-12868714D01*
X9143948Y-12849667D01*
X9124900Y-12840143D01*
X9096329Y-12840143D01*
X9077281Y-12849667D01*
X9067757Y-12859190D01*
X9277281Y-12973476D02*
X9258234Y-12963952D01*
X9248710Y-12954428D01*
X9239186Y-12935381D01*
X9239186Y-12878238D01*
X9248710Y-12859190D01*
X9258234Y-12849667D01*
X9277281Y-12840143D01*
X9305853Y-12840143D01*
X9324900Y-12849667D01*
X9334424Y-12859190D01*
X9343948Y-12878238D01*
X9343948Y-12935381D01*
X9334424Y-12954428D01*
X9324900Y-12963952D01*
X9305853Y-12973476D01*
X9277281Y-12973476D01*
X9458234Y-12973476D02*
X9439186Y-12963952D01*
X9429662Y-12944905D01*
X9429662Y-12773476D01*
X9610615Y-12963952D02*
X9591567Y-12973476D01*
X9553472Y-12973476D01*
X9534424Y-12963952D01*
X9524900Y-12944905D01*
X9524900Y-12868714D01*
X9534424Y-12849667D01*
X9553472Y-12840143D01*
X9591567Y-12840143D01*
X9610615Y-12849667D01*
X9620138Y-12868714D01*
X9620138Y-12887762D01*
X9524900Y-12906809D01*
X9696329Y-12963952D02*
X9715377Y-12973476D01*
X9753472Y-12973476D01*
X9772519Y-12963952D01*
X9782043Y-12944905D01*
X9782043Y-12935381D01*
X9772519Y-12916333D01*
X9753472Y-12906809D01*
X9724900Y-12906809D01*
X9705853Y-12897286D01*
X9696329Y-12878238D01*
X9696329Y-12868714D01*
X9705853Y-12849667D01*
X9724900Y-12840143D01*
X9753472Y-12840143D01*
X9772519Y-12849667D01*
X9848710Y-13049667D02*
X9858234Y-13040143D01*
X9877281Y-13011571D01*
X9886805Y-12992524D01*
X9896329Y-12963952D01*
X9905853Y-12916333D01*
X9905853Y-12878238D01*
X9896329Y-12830619D01*
X9886805Y-12802048D01*
X9877281Y-12783000D01*
X9858234Y-12754428D01*
X9848710Y-12744905D01*
X4876805Y-13073000D02*
X5076805Y-13273000D01*
X5076805Y-13073000D02*
X4876805Y-13273000D01*
X5076805Y-13173000D02*
G75*
G03*
X5076805Y-13173000I-100000J0D01*
G01*
X5324900Y-13082524D02*
X5334424Y-13073000D01*
X5353472Y-13063476D01*
X5401091Y-13063476D01*
X5420138Y-13073000D01*
X5429662Y-13082524D01*
X5439186Y-13101571D01*
X5439186Y-13120619D01*
X5429662Y-13149190D01*
X5315377Y-13263476D01*
X5439186Y-13263476D01*
X5524900Y-13244428D02*
X5534424Y-13253952D01*
X5524900Y-13263476D01*
X5515377Y-13253952D01*
X5524900Y-13244428D01*
X5524900Y-13263476D01*
X5610615Y-13082524D02*
X5620138Y-13073000D01*
X5639186Y-13063476D01*
X5686805Y-13063476D01*
X5705853Y-13073000D01*
X5715376Y-13082524D01*
X5724900Y-13101571D01*
X5724900Y-13120619D01*
X5715376Y-13149190D01*
X5601091Y-13263476D01*
X5724900Y-13263476D01*
X5848710Y-13063476D02*
X5867757Y-13063476D01*
X5886805Y-13073000D01*
X5896329Y-13082524D01*
X5905853Y-13101571D01*
X5915376Y-13139667D01*
X5915376Y-13187286D01*
X5905853Y-13225381D01*
X5896329Y-13244428D01*
X5886805Y-13253952D01*
X5867757Y-13263476D01*
X5848710Y-13263476D01*
X5829662Y-13253952D01*
X5820138Y-13244428D01*
X5810615Y-13225381D01*
X5801091Y-13187286D01*
X5801091Y-13139667D01*
X5810615Y-13101571D01*
X5820138Y-13082524D01*
X5829662Y-13073000D01*
X5848710Y-13063476D01*
X6039186Y-13063476D02*
X6058234Y-13063476D01*
X6077281Y-13073000D01*
X6086805Y-13082524D01*
X6096329Y-13101571D01*
X6105853Y-13139667D01*
X6105853Y-13187286D01*
X6096329Y-13225381D01*
X6086805Y-13244428D01*
X6077281Y-13253952D01*
X6058234Y-13263476D01*
X6039186Y-13263476D01*
X6020138Y-13253952D01*
X6010615Y-13244428D01*
X6001091Y-13225381D01*
X5991567Y-13187286D01*
X5991567Y-13139667D01*
X6001091Y-13101571D01*
X6010615Y-13082524D01*
X6020138Y-13073000D01*
X6039186Y-13063476D01*
X6191567Y-13263476D02*
X6191567Y-13130143D01*
X6191567Y-13149190D02*
X6201091Y-13139667D01*
X6220138Y-13130143D01*
X6248710Y-13130143D01*
X6267757Y-13139667D01*
X6277281Y-13158714D01*
X6277281Y-13263476D01*
X6277281Y-13158714D02*
X6286805Y-13139667D01*
X6305853Y-13130143D01*
X6334424Y-13130143D01*
X6353472Y-13139667D01*
X6362995Y-13158714D01*
X6362995Y-13263476D01*
X6458234Y-13263476D02*
X6458234Y-13130143D01*
X6458234Y-13149190D02*
X6467757Y-13139667D01*
X6486805Y-13130143D01*
X6515376Y-13130143D01*
X6534424Y-13139667D01*
X6543948Y-13158714D01*
X6543948Y-13263476D01*
X6543948Y-13158714D02*
X6553472Y-13139667D01*
X6572519Y-13130143D01*
X6601091Y-13130143D01*
X6620138Y-13139667D01*
X6629662Y-13158714D01*
X6629662Y-13263476D01*
X7020138Y-13053952D02*
X6848710Y-13311095D01*
X7277281Y-13063476D02*
X7296329Y-13063476D01*
X7315376Y-13073000D01*
X7324900Y-13082524D01*
X7334424Y-13101571D01*
X7343948Y-13139667D01*
X7343948Y-13187286D01*
X7334424Y-13225381D01*
X7324900Y-13244428D01*
X7315376Y-13253952D01*
X7296329Y-13263476D01*
X7277281Y-13263476D01*
X7258234Y-13253952D01*
X7248710Y-13244428D01*
X7239186Y-13225381D01*
X7229662Y-13187286D01*
X7229662Y-13139667D01*
X7239186Y-13101571D01*
X7248710Y-13082524D01*
X7258234Y-13073000D01*
X7277281Y-13063476D01*
X7429662Y-13244428D02*
X7439186Y-13253952D01*
X7429662Y-13263476D01*
X7420138Y-13253952D01*
X7429662Y-13244428D01*
X7429662Y-13263476D01*
X7562995Y-13063476D02*
X7582043Y-13063476D01*
X7601091Y-13073000D01*
X7610615Y-13082524D01*
X7620138Y-13101571D01*
X7629662Y-13139667D01*
X7629662Y-13187286D01*
X7620138Y-13225381D01*
X7610615Y-13244428D01*
X7601091Y-13253952D01*
X7582043Y-13263476D01*
X7562995Y-13263476D01*
X7543948Y-13253952D01*
X7534424Y-13244428D01*
X7524900Y-13225381D01*
X7515376Y-13187286D01*
X7515376Y-13139667D01*
X7524900Y-13101571D01*
X7534424Y-13082524D01*
X7543948Y-13073000D01*
X7562995Y-13063476D01*
X7743948Y-13149190D02*
X7724900Y-13139667D01*
X7715376Y-13130143D01*
X7705853Y-13111095D01*
X7705853Y-13101571D01*
X7715376Y-13082524D01*
X7724900Y-13073000D01*
X7743948Y-13063476D01*
X7782043Y-13063476D01*
X7801091Y-13073000D01*
X7810615Y-13082524D01*
X7820138Y-13101571D01*
X7820138Y-13111095D01*
X7810615Y-13130143D01*
X7801091Y-13139667D01*
X7782043Y-13149190D01*
X7743948Y-13149190D01*
X7724900Y-13158714D01*
X7715376Y-13168238D01*
X7705853Y-13187286D01*
X7705853Y-13225381D01*
X7715376Y-13244428D01*
X7724900Y-13253952D01*
X7743948Y-13263476D01*
X7782043Y-13263476D01*
X7801091Y-13253952D01*
X7810615Y-13244428D01*
X7820138Y-13225381D01*
X7820138Y-13187286D01*
X7810615Y-13168238D01*
X7801091Y-13158714D01*
X7782043Y-13149190D01*
X7991567Y-13063476D02*
X7953472Y-13063476D01*
X7934424Y-13073000D01*
X7924900Y-13082524D01*
X7905853Y-13111095D01*
X7896329Y-13149190D01*
X7896329Y-13225381D01*
X7905853Y-13244428D01*
X7915376Y-13253952D01*
X7934424Y-13263476D01*
X7972519Y-13263476D01*
X7991567Y-13253952D01*
X8001091Y-13244428D01*
X8010615Y-13225381D01*
X8010615Y-13177762D01*
X8001091Y-13158714D01*
X7991567Y-13149190D01*
X7972519Y-13139667D01*
X7934424Y-13139667D01*
X7915376Y-13149190D01*
X7905853Y-13158714D01*
X7896329Y-13177762D01*
X8182043Y-13063476D02*
X8143948Y-13063476D01*
X8124900Y-13073000D01*
X8115376Y-13082524D01*
X8096329Y-13111095D01*
X8086805Y-13149190D01*
X8086805Y-13225381D01*
X8096329Y-13244428D01*
X8105853Y-13253952D01*
X8124900Y-13263476D01*
X8162995Y-13263476D01*
X8182043Y-13253952D01*
X8191567Y-13244428D01*
X8201091Y-13225381D01*
X8201091Y-13177762D01*
X8191567Y-13158714D01*
X8182043Y-13149190D01*
X8162995Y-13139667D01*
X8124900Y-13139667D01*
X8105853Y-13149190D01*
X8096329Y-13158714D01*
X8086805Y-13177762D01*
X8277281Y-13063476D02*
X8277281Y-13101571D01*
X8353472Y-13063476D02*
X8353472Y-13101571D01*
X8648710Y-13339667D02*
X8639186Y-13330143D01*
X8620138Y-13301571D01*
X8610615Y-13282524D01*
X8601091Y-13253952D01*
X8591567Y-13206333D01*
X8591567Y-13168238D01*
X8601091Y-13120619D01*
X8610615Y-13092048D01*
X8620138Y-13073000D01*
X8639186Y-13044428D01*
X8648710Y-13034905D01*
X8810615Y-13130143D02*
X8810615Y-13263476D01*
X8762996Y-13053952D02*
X8715377Y-13196809D01*
X8839186Y-13196809D01*
X9067757Y-13263476D02*
X9067757Y-13063476D01*
X9153472Y-13263476D02*
X9153472Y-13158714D01*
X9143948Y-13139667D01*
X9124900Y-13130143D01*
X9096329Y-13130143D01*
X9077281Y-13139667D01*
X9067757Y-13149190D01*
X9277281Y-13263476D02*
X9258234Y-13253952D01*
X9248710Y-13244428D01*
X9239186Y-13225381D01*
X9239186Y-13168238D01*
X9248710Y-13149190D01*
X9258234Y-13139667D01*
X9277281Y-13130143D01*
X9305853Y-13130143D01*
X9324900Y-13139667D01*
X9334424Y-13149190D01*
X9343948Y-13168238D01*
X9343948Y-13225381D01*
X9334424Y-13244428D01*
X9324900Y-13253952D01*
X9305853Y-13263476D01*
X9277281Y-13263476D01*
X9458234Y-13263476D02*
X9439186Y-13253952D01*
X9429662Y-13234905D01*
X9429662Y-13063476D01*
X9610615Y-13253952D02*
X9591567Y-13263476D01*
X9553472Y-13263476D01*
X9534424Y-13253952D01*
X9524900Y-13234905D01*
X9524900Y-13158714D01*
X9534424Y-13139667D01*
X9553472Y-13130143D01*
X9591567Y-13130143D01*
X9610615Y-13139667D01*
X9620138Y-13158714D01*
X9620138Y-13177762D01*
X9524900Y-13196809D01*
X9696329Y-13253952D02*
X9715377Y-13263476D01*
X9753472Y-13263476D01*
X9772519Y-13253952D01*
X9782043Y-13234905D01*
X9782043Y-13225381D01*
X9772519Y-13206333D01*
X9753472Y-13196809D01*
X9724900Y-13196809D01*
X9705853Y-13187286D01*
X9696329Y-13168238D01*
X9696329Y-13158714D01*
X9705853Y-13139667D01*
X9724900Y-13130143D01*
X9753472Y-13130143D01*
X9772519Y-13139667D01*
X9848710Y-13339667D02*
X9858234Y-13330143D01*
X9877281Y-13301571D01*
X9886805Y-13282524D01*
X9896329Y-13253952D01*
X9905853Y-13206333D01*
X9905853Y-13168238D01*
X9896329Y-13120619D01*
X9886805Y-13092048D01*
X9877281Y-13073000D01*
X9858234Y-13044428D01*
X9848710Y-13034905D01*
M02*
