G04 #@! TF.GenerationSoftware,KiCad,Pcbnew,(6.0.9)*
G04 #@! TF.CreationDate,2022-11-27T19:02:43-05:00*
G04 #@! TF.ProjectId,usbcounter,75736263-6f75-46e7-9465-722e6b696361,rev?*
G04 #@! TF.SameCoordinates,Original*
G04 #@! TF.FileFunction,Copper,L1,Top*
G04 #@! TF.FilePolarity,Positive*
%FSLAX46Y46*%
G04 Gerber Fmt 4.6, Leading zero omitted, Abs format (unit mm)*
G04 Created by KiCad (PCBNEW (6.0.9)) date 2022-11-27 19:02:43*
%MOMM*%
%LPD*%
G01*
G04 APERTURE LIST*
G04 Aperture macros list*
%AMRoundRect*
0 Rectangle with rounded corners*
0 $1 Rounding radius*
0 $2 $3 $4 $5 $6 $7 $8 $9 X,Y pos of 4 corners*
0 Add a 4 corners polygon primitive as box body*
4,1,4,$2,$3,$4,$5,$6,$7,$8,$9,$2,$3,0*
0 Add four circle primitives for the rounded corners*
1,1,$1+$1,$2,$3*
1,1,$1+$1,$4,$5*
1,1,$1+$1,$6,$7*
1,1,$1+$1,$8,$9*
0 Add four rect primitives between the rounded corners*
20,1,$1+$1,$2,$3,$4,$5,0*
20,1,$1+$1,$4,$5,$6,$7,0*
20,1,$1+$1,$6,$7,$8,$9,0*
20,1,$1+$1,$8,$9,$2,$3,0*%
G04 Aperture macros list end*
G04 #@! TA.AperFunction,SMDPad,CuDef*
%ADD10RoundRect,0.250000X0.337500X0.475000X-0.337500X0.475000X-0.337500X-0.475000X0.337500X-0.475000X0*%
G04 #@! TD*
G04 #@! TA.AperFunction,SMDPad,CuDef*
%ADD11RoundRect,0.250000X0.325000X0.450000X-0.325000X0.450000X-0.325000X-0.450000X0.325000X-0.450000X0*%
G04 #@! TD*
G04 #@! TA.AperFunction,SMDPad,CuDef*
%ADD12RoundRect,0.250000X-0.350000X-0.450000X0.350000X-0.450000X0.350000X0.450000X-0.350000X0.450000X0*%
G04 #@! TD*
G04 #@! TA.AperFunction,ComponentPad*
%ADD13R,1.700000X1.700000*%
G04 #@! TD*
G04 #@! TA.AperFunction,ComponentPad*
%ADD14O,1.700000X1.700000*%
G04 #@! TD*
G04 #@! TA.AperFunction,SMDPad,CuDef*
%ADD15RoundRect,0.250000X-0.450000X0.350000X-0.450000X-0.350000X0.450000X-0.350000X0.450000X0.350000X0*%
G04 #@! TD*
G04 #@! TA.AperFunction,ComponentPad*
%ADD16C,2.050000*%
G04 #@! TD*
G04 #@! TA.AperFunction,ComponentPad*
%ADD17C,2.250000*%
G04 #@! TD*
G04 #@! TA.AperFunction,SMDPad,CuDef*
%ADD18RoundRect,0.250000X0.450000X-0.350000X0.450000X0.350000X-0.450000X0.350000X-0.450000X-0.350000X0*%
G04 #@! TD*
G04 #@! TA.AperFunction,SMDPad,CuDef*
%ADD19RoundRect,0.150000X-0.512500X-0.150000X0.512500X-0.150000X0.512500X0.150000X-0.512500X0.150000X0*%
G04 #@! TD*
G04 #@! TA.AperFunction,SMDPad,CuDef*
%ADD20R,1.500000X2.000000*%
G04 #@! TD*
G04 #@! TA.AperFunction,SMDPad,CuDef*
%ADD21R,3.800000X2.000000*%
G04 #@! TD*
G04 #@! TA.AperFunction,SMDPad,CuDef*
%ADD22R,1.000000X1.000000*%
G04 #@! TD*
G04 #@! TA.AperFunction,SMDPad,CuDef*
%ADD23RoundRect,0.250000X-0.475000X0.337500X-0.475000X-0.337500X0.475000X-0.337500X0.475000X0.337500X0*%
G04 #@! TD*
G04 #@! TA.AperFunction,SMDPad,CuDef*
%ADD24R,1.800000X0.450000*%
G04 #@! TD*
G04 #@! TA.AperFunction,SMDPad,CuDef*
%ADD25RoundRect,0.250000X0.450000X-0.325000X0.450000X0.325000X-0.450000X0.325000X-0.450000X-0.325000X0*%
G04 #@! TD*
G04 #@! TA.AperFunction,SMDPad,CuDef*
%ADD26RoundRect,0.250000X0.350000X0.450000X-0.350000X0.450000X-0.350000X-0.450000X0.350000X-0.450000X0*%
G04 #@! TD*
G04 #@! TA.AperFunction,ComponentPad*
%ADD27C,1.600000*%
G04 #@! TD*
G04 #@! TA.AperFunction,ComponentPad*
%ADD28O,1.600000X1.600000*%
G04 #@! TD*
G04 #@! TA.AperFunction,SMDPad,CuDef*
%ADD29RoundRect,0.250000X0.475000X-0.337500X0.475000X0.337500X-0.475000X0.337500X-0.475000X-0.337500X0*%
G04 #@! TD*
G04 #@! TA.AperFunction,SMDPad,CuDef*
%ADD30RoundRect,0.150000X-0.875000X-0.150000X0.875000X-0.150000X0.875000X0.150000X-0.875000X0.150000X0*%
G04 #@! TD*
G04 #@! TA.AperFunction,SMDPad,CuDef*
%ADD31RoundRect,0.150000X-0.587500X-0.150000X0.587500X-0.150000X0.587500X0.150000X-0.587500X0.150000X0*%
G04 #@! TD*
G04 #@! TA.AperFunction,ComponentPad*
%ADD32C,3.800000*%
G04 #@! TD*
G04 #@! TA.AperFunction,SMDPad,CuDef*
%ADD33RoundRect,0.250000X-0.337500X-0.475000X0.337500X-0.475000X0.337500X0.475000X-0.337500X0.475000X0*%
G04 #@! TD*
G04 #@! TA.AperFunction,SMDPad,CuDef*
%ADD34R,1.350000X0.400000*%
G04 #@! TD*
G04 #@! TA.AperFunction,SMDPad,CuDef*
%ADD35R,1.900000X1.900000*%
G04 #@! TD*
G04 #@! TA.AperFunction,SMDPad,CuDef*
%ADD36R,1.200000X0.400000*%
G04 #@! TD*
G04 #@! TA.AperFunction,SMDPad,CuDef*
%ADD37RoundRect,0.250000X0.275000X-0.400000X0.275000X0.400000X-0.275000X0.400000X-0.275000X-0.400000X0*%
G04 #@! TD*
G04 #@! TA.AperFunction,SMDPad,CuDef*
%ADD38R,1.300000X1.100000*%
G04 #@! TD*
G04 #@! TA.AperFunction,SMDPad,CuDef*
%ADD39RoundRect,0.100000X-0.637500X-0.100000X0.637500X-0.100000X0.637500X0.100000X-0.637500X0.100000X0*%
G04 #@! TD*
G04 #@! TA.AperFunction,ViaPad*
%ADD40C,0.800000*%
G04 #@! TD*
G04 #@! TA.AperFunction,Conductor*
%ADD41C,0.300000*%
G04 #@! TD*
G04 #@! TA.AperFunction,Conductor*
%ADD42C,0.600000*%
G04 #@! TD*
G04 #@! TA.AperFunction,Conductor*
%ADD43C,0.250000*%
G04 #@! TD*
G04 APERTURE END LIST*
D10*
X82063500Y-98298000D03*
X79988500Y-98298000D03*
D11*
X102117000Y-54864000D03*
X100067000Y-54864000D03*
D12*
X61722000Y-70866000D03*
X63722000Y-70866000D03*
D13*
X73406000Y-95250000D03*
D14*
X73406000Y-97790000D03*
X73406000Y-100330000D03*
D10*
X63775500Y-75692000D03*
X61700500Y-75692000D03*
D15*
X77216000Y-94885000D03*
X77216000Y-96885000D03*
D13*
X125476000Y-54102000D03*
D14*
X122936000Y-54102000D03*
X120396000Y-54102000D03*
X117856000Y-54102000D03*
X115316000Y-54102000D03*
D13*
X138430000Y-64521000D03*
D14*
X138430000Y-67061000D03*
X138430000Y-69601000D03*
X138430000Y-72141000D03*
X138430000Y-74681000D03*
D10*
X63775500Y-68580000D03*
X61700500Y-68580000D03*
D16*
X57912000Y-97536000D03*
D17*
X55372000Y-100076000D03*
X55372000Y-94996000D03*
X60452000Y-100076000D03*
X60452000Y-94996000D03*
D18*
X85471000Y-95885000D03*
X85471000Y-93885000D03*
X102362000Y-96520000D03*
X102362000Y-94520000D03*
D19*
X91572500Y-95062000D03*
X91572500Y-96012000D03*
X91572500Y-96962000D03*
X93847500Y-96962000D03*
X93847500Y-95062000D03*
D15*
X106172000Y-77232000D03*
X106172000Y-79232000D03*
D20*
X76722000Y-55524000D03*
X74422000Y-55524000D03*
D21*
X74422000Y-61824000D03*
D20*
X72122000Y-55524000D03*
D22*
X79776000Y-95885000D03*
X82276000Y-95885000D03*
D23*
X69088000Y-55096500D03*
X69088000Y-57171500D03*
D24*
X97542000Y-67433000D03*
X97542000Y-68083000D03*
X97542000Y-68733000D03*
X97542000Y-69383000D03*
X97542000Y-70033000D03*
X97542000Y-70683000D03*
X97542000Y-71333000D03*
X97542000Y-71983000D03*
X97542000Y-72633000D03*
X97542000Y-73283000D03*
X104642000Y-73283000D03*
X104642000Y-72633000D03*
X104642000Y-71983000D03*
X104642000Y-71333000D03*
X104642000Y-70683000D03*
X104642000Y-70033000D03*
X104642000Y-69383000D03*
X104642000Y-68733000D03*
X104642000Y-68083000D03*
X104642000Y-67433000D03*
D10*
X97282000Y-65278000D03*
X95207000Y-65278000D03*
D25*
X57516499Y-65134136D03*
X57516499Y-63084136D03*
D26*
X63738000Y-73406000D03*
X61738000Y-73406000D03*
D10*
X112289500Y-60452000D03*
X110214500Y-60452000D03*
X94234000Y-76962000D03*
X92159000Y-76962000D03*
D15*
X101854000Y-77232000D03*
X101854000Y-79232000D03*
D27*
X64262000Y-106172000D03*
D28*
X74422000Y-106172000D03*
D12*
X104156000Y-54864000D03*
X106156000Y-54864000D03*
D11*
X90179000Y-54864000D03*
X88129000Y-54864000D03*
D29*
X118110000Y-92477500D03*
X118110000Y-90402500D03*
D10*
X100373000Y-99060000D03*
X98298000Y-99060000D03*
D29*
X90678000Y-101113500D03*
X90678000Y-99038500D03*
D30*
X121588000Y-90424000D03*
X121588000Y-91694000D03*
X121588000Y-92964000D03*
X121588000Y-94234000D03*
X121588000Y-95504000D03*
X121588000Y-96774000D03*
X121588000Y-98044000D03*
X121588000Y-99314000D03*
X121588000Y-100584000D03*
X130888000Y-100584000D03*
X130888000Y-99314000D03*
X130888000Y-98044000D03*
X130888000Y-96774000D03*
X130888000Y-95504000D03*
X130888000Y-94234000D03*
X130888000Y-92964000D03*
X130888000Y-91694000D03*
X130888000Y-90424000D03*
D31*
X85803500Y-98745000D03*
X85803500Y-100645000D03*
X87678500Y-99695000D03*
D32*
X138430000Y-107950000D03*
X138430000Y-54610000D03*
D26*
X86074000Y-54864000D03*
X84074000Y-54864000D03*
D32*
X54610000Y-54610000D03*
D30*
X105332000Y-90424000D03*
X105332000Y-91694000D03*
X105332000Y-92964000D03*
X105332000Y-94234000D03*
X105332000Y-95504000D03*
X105332000Y-96774000D03*
X105332000Y-98044000D03*
X105332000Y-99314000D03*
X105332000Y-100584000D03*
X114632000Y-100584000D03*
X114632000Y-99314000D03*
X114632000Y-98044000D03*
X114632000Y-96774000D03*
X114632000Y-95504000D03*
X114632000Y-94234000D03*
X114632000Y-92964000D03*
X114632000Y-91694000D03*
X114632000Y-90424000D03*
D18*
X118110000Y-97012000D03*
X118110000Y-95012000D03*
D32*
X54610000Y-107950000D03*
D12*
X80026000Y-93345000D03*
X82026000Y-93345000D03*
D15*
X88646000Y-94012000D03*
X88646000Y-96012000D03*
D33*
X129286000Y-87884000D03*
X131361000Y-87884000D03*
D34*
X57277999Y-71191136D03*
X57277999Y-73791136D03*
X57277999Y-71841136D03*
X57277999Y-72491136D03*
X57277999Y-73141136D03*
D35*
X54602999Y-68541136D03*
X54602999Y-71291136D03*
X54602999Y-73691136D03*
X54602999Y-76441136D03*
D26*
X112252000Y-62738000D03*
X110252000Y-62738000D03*
D36*
X73092000Y-73723500D03*
X73092000Y-74358500D03*
X73092000Y-74993500D03*
X73092000Y-75628500D03*
X73092000Y-76263500D03*
X73092000Y-76898500D03*
X73092000Y-77533500D03*
X73092000Y-78168500D03*
X78292000Y-78168500D03*
X78292000Y-77533500D03*
X78292000Y-76898500D03*
X78292000Y-76263500D03*
X78292000Y-75628500D03*
X78292000Y-74993500D03*
X78292000Y-74358500D03*
X78292000Y-73723500D03*
D37*
X79248000Y-62189000D03*
X79248000Y-60239000D03*
D38*
X92068000Y-74102000D03*
X94368000Y-74102000D03*
X94368000Y-72202000D03*
X92068000Y-72202000D03*
D22*
X82276000Y-100965000D03*
X79776000Y-100965000D03*
D39*
X93911500Y-101215000D03*
X93911500Y-101865000D03*
X93911500Y-102515000D03*
X93911500Y-103165000D03*
X93911500Y-103815000D03*
X93911500Y-104465000D03*
X93911500Y-105115000D03*
X93911500Y-105765000D03*
X93911500Y-106415000D03*
X93911500Y-107065000D03*
X99636500Y-107065000D03*
X99636500Y-106415000D03*
X99636500Y-105765000D03*
X99636500Y-105115000D03*
X99636500Y-104465000D03*
X99636500Y-103815000D03*
X99636500Y-103165000D03*
X99636500Y-102515000D03*
X99636500Y-101865000D03*
X99636500Y-101215000D03*
D40*
X58674000Y-73914000D03*
X63754000Y-67056000D03*
X74434500Y-76454000D03*
X79502000Y-75184000D03*
X95250000Y-107696000D03*
X89154000Y-102108000D03*
X103378000Y-100076000D03*
X92710000Y-98044000D03*
X127762000Y-86868000D03*
X104648000Y-66294000D03*
X123190000Y-96012000D03*
X108712000Y-60452000D03*
X116586000Y-93472000D03*
X69088000Y-58674000D03*
X85344000Y-101854000D03*
X96012000Y-75438000D03*
X78486000Y-55372000D03*
X107442000Y-92964000D03*
X107442000Y-94488000D03*
X58674000Y-75438000D03*
X76200000Y-106172000D03*
X80772000Y-60198000D03*
X101854000Y-99060000D03*
X78994000Y-100076000D03*
X123190000Y-94488000D03*
X91694000Y-54864000D03*
X93726000Y-65278000D03*
X57404000Y-77216000D03*
X123190000Y-92964000D03*
X119634000Y-100584000D03*
X58674000Y-77216000D03*
X63754000Y-77216000D03*
X80010000Y-78740000D03*
X115316000Y-88900000D03*
X111506000Y-64262000D03*
X94234000Y-79502000D03*
X82550000Y-54864000D03*
X100584000Y-78232000D03*
X76454000Y-58420000D03*
X107950000Y-78486000D03*
X98552000Y-55118000D03*
X132482500Y-86762500D03*
X97282000Y-60960000D03*
X70104000Y-75438000D03*
X93980000Y-93726000D03*
X99822000Y-95758000D03*
X78740000Y-91948000D03*
X102870000Y-75184000D03*
X98552000Y-74676000D03*
X109982000Y-100584000D03*
X88392000Y-103886000D03*
X110744000Y-99314000D03*
X88946424Y-104717636D03*
X111518500Y-98044000D03*
X89664733Y-105412644D03*
X112268000Y-96774000D03*
X90424000Y-106172000D03*
X71183500Y-73723500D03*
X100584000Y-67818000D03*
X102362000Y-68834000D03*
X71183500Y-76454000D03*
X102616000Y-70866000D03*
X101346000Y-73152000D03*
X100076000Y-70866000D03*
D41*
X79776000Y-100858000D02*
X79776000Y-100965000D01*
D42*
X74422000Y-106172000D02*
X76200000Y-106172000D01*
D43*
X94368000Y-74102000D02*
X94676000Y-74102000D01*
D42*
X95207000Y-65278000D02*
X93726000Y-65278000D01*
D41*
X95250000Y-107696000D02*
X94619000Y-107065000D01*
X89154000Y-102108000D02*
X90148500Y-101113500D01*
X104648000Y-67427000D02*
X104642000Y-67433000D01*
X63775500Y-67077500D02*
X63754000Y-67056000D01*
X122936000Y-94234000D02*
X123190000Y-94488000D01*
X128778000Y-87884000D02*
X127762000Y-86868000D01*
X78994000Y-100076000D02*
X79776000Y-100858000D01*
X79502000Y-75184000D02*
X79057500Y-75628500D01*
X105332000Y-94234000D02*
X107188000Y-94234000D01*
X63775500Y-77194500D02*
X63754000Y-77216000D01*
X105332000Y-100584000D02*
X103886000Y-100584000D01*
X74434500Y-76454000D02*
X74244000Y-76263500D01*
X121588000Y-94234000D02*
X122936000Y-94234000D01*
X117580500Y-92477500D02*
X116586000Y-93472000D01*
X79057500Y-75628500D02*
X78292000Y-75628500D01*
X76883000Y-55363000D02*
X76722000Y-55524000D01*
X103886000Y-100584000D02*
X103378000Y-100076000D01*
X94234000Y-74236000D02*
X94368000Y-74102000D01*
X80731000Y-60239000D02*
X80772000Y-60198000D01*
X121588000Y-100584000D02*
X119634000Y-100584000D01*
D43*
X94676000Y-74102000D02*
X96012000Y-75438000D01*
D41*
X121588000Y-95504000D02*
X122682000Y-95504000D01*
X94234000Y-76962000D02*
X94234000Y-74236000D01*
X122682000Y-95504000D02*
X123190000Y-96012000D01*
D42*
X76874000Y-55372000D02*
X76722000Y-55524000D01*
D41*
X121588000Y-92964000D02*
X123190000Y-92964000D01*
X94619000Y-107065000D02*
X93911500Y-107065000D01*
X90148500Y-101113500D02*
X90678000Y-101113500D01*
X110214500Y-60452000D02*
X108712000Y-60452000D01*
X74244000Y-76263500D02*
X73092000Y-76263500D01*
X58551136Y-73791136D02*
X57277999Y-73791136D01*
X85803500Y-101394500D02*
X85803500Y-100645000D01*
X85344000Y-101854000D02*
X85803500Y-101394500D01*
X91628000Y-96962000D02*
X92710000Y-98044000D01*
X101854000Y-99060000D02*
X100373000Y-99060000D01*
X63775500Y-75692000D02*
X63775500Y-77194500D01*
X69088000Y-58674000D02*
X69088000Y-57171500D01*
X58674000Y-73914000D02*
X58551136Y-73791136D01*
X104648000Y-66294000D02*
X104648000Y-67427000D01*
X63775500Y-68580000D02*
X63775500Y-67077500D01*
X129286000Y-87884000D02*
X128778000Y-87884000D01*
X91572500Y-96962000D02*
X91628000Y-96962000D01*
X79248000Y-60239000D02*
X80731000Y-60239000D01*
X107188000Y-94234000D02*
X107442000Y-94488000D01*
X90179000Y-54864000D02*
X91694000Y-54864000D01*
D42*
X78486000Y-55372000D02*
X76874000Y-55372000D01*
D41*
X105332000Y-92964000D02*
X107442000Y-92964000D01*
X88129000Y-54864000D02*
X86074000Y-54864000D01*
X119104500Y-90402500D02*
X118110000Y-90402500D01*
X119634000Y-94488000D02*
X119634000Y-90932000D01*
X70548500Y-74993500D02*
X73092000Y-74993500D01*
D42*
X74828000Y-62230000D02*
X79207000Y-62230000D01*
X93847500Y-93858500D02*
X93980000Y-93726000D01*
D41*
X98806000Y-54864000D02*
X98552000Y-55118000D01*
X79192000Y-76898500D02*
X80518000Y-75572500D01*
X105332000Y-95504000D02*
X103886000Y-95504000D01*
X99636500Y-101215000D02*
X99636500Y-100398500D01*
D42*
X92068000Y-74102000D02*
X92068000Y-76871000D01*
X92068000Y-76871000D02*
X92159000Y-76962000D01*
X99822000Y-95758000D02*
X101060000Y-94520000D01*
D41*
X100067000Y-54864000D02*
X98806000Y-54864000D01*
D42*
X135890000Y-65786000D02*
X135890000Y-83355000D01*
X101584000Y-79232000D02*
X100584000Y-78232000D01*
X101060000Y-94520000D02*
X102362000Y-94520000D01*
X135890000Y-83355000D02*
X131361000Y-87884000D01*
X97282000Y-67098000D02*
X97542000Y-67358000D01*
D41*
X130888000Y-88357000D02*
X131361000Y-87884000D01*
D42*
X80026000Y-93234000D02*
X78740000Y-91948000D01*
D41*
X114632000Y-90424000D02*
X114632000Y-89584000D01*
X110998000Y-90424000D02*
X114632000Y-90424000D01*
X99636500Y-100398500D02*
X98298000Y-99060000D01*
X79756000Y-93615000D02*
X79756000Y-95865000D01*
D42*
X79207000Y-62230000D02*
X79248000Y-62189000D01*
D41*
X80026000Y-93345000D02*
X79756000Y-93615000D01*
D42*
X137155000Y-64521000D02*
X135890000Y-65786000D01*
D41*
X97282000Y-102108000D02*
X98175000Y-101215000D01*
D42*
X107950000Y-78486000D02*
X107204000Y-79232000D01*
X92068000Y-70492000D02*
X92068000Y-72202000D01*
X97282000Y-67310000D02*
X95250000Y-67310000D01*
D41*
X105332000Y-95504000D02*
X108458000Y-95504000D01*
D42*
X92159000Y-76962000D02*
X92159000Y-77427000D01*
D41*
X103886000Y-95504000D02*
X102902000Y-94520000D01*
X99636500Y-107065000D02*
X98175000Y-107065000D01*
X111506000Y-63992000D02*
X110252000Y-62738000D01*
D42*
X93847500Y-95062000D02*
X93847500Y-93858500D01*
D41*
X80518000Y-71120000D02*
X74422000Y-65024000D01*
X132482500Y-86762500D02*
X131361000Y-87884000D01*
X114632000Y-89584000D02*
X115316000Y-88900000D01*
X74422000Y-65024000D02*
X74422000Y-61824000D01*
X80010000Y-78740000D02*
X80264000Y-78486000D01*
D42*
X101854000Y-79232000D02*
X101584000Y-79232000D01*
D41*
X102902000Y-94520000D02*
X102362000Y-94520000D01*
X119634000Y-90932000D02*
X119104500Y-90402500D01*
D42*
X95250000Y-67310000D02*
X92068000Y-70492000D01*
X80026000Y-93345000D02*
X80026000Y-93234000D01*
D41*
X84074000Y-54864000D02*
X82550000Y-54864000D01*
D42*
X138430000Y-64521000D02*
X137155000Y-64521000D01*
D41*
X80518000Y-75572500D02*
X80518000Y-71120000D01*
D42*
X97282000Y-60960000D02*
X97282000Y-67098000D01*
X98298000Y-97282000D02*
X98298000Y-99060000D01*
D41*
X97282000Y-106172000D02*
X97282000Y-102108000D01*
X78292000Y-76898500D02*
X79192000Y-76898500D01*
X98175000Y-101215000D02*
X99636500Y-101215000D01*
X118110000Y-95012000D02*
X119110000Y-95012000D01*
X108458000Y-95504000D02*
X109982000Y-93980000D01*
D42*
X99822000Y-95758000D02*
X98298000Y-97282000D01*
X92159000Y-77427000D02*
X94234000Y-79502000D01*
D41*
X118110000Y-90402500D02*
X114653500Y-90402500D01*
X130888000Y-90424000D02*
X130888000Y-88357000D01*
D42*
X74422000Y-61824000D02*
X74828000Y-62230000D01*
X92068000Y-72202000D02*
X92068000Y-74102000D01*
D41*
X98175000Y-107065000D02*
X97282000Y-106172000D01*
X70104000Y-75438000D02*
X70548500Y-74993500D01*
X111506000Y-64262000D02*
X111506000Y-63992000D01*
X109982000Y-93980000D02*
X109982000Y-91440000D01*
X80264000Y-76962000D02*
X79756000Y-76454000D01*
X80264000Y-78486000D02*
X80264000Y-76962000D01*
X109982000Y-91440000D02*
X110998000Y-90424000D01*
X79756000Y-95865000D02*
X79776000Y-95885000D01*
X119110000Y-95012000D02*
X119634000Y-94488000D01*
D42*
X107204000Y-79232000D02*
X106172000Y-79232000D01*
D41*
X114653500Y-90402500D02*
X114632000Y-90424000D01*
X121588000Y-96774000D02*
X118348000Y-96774000D01*
X118348000Y-96774000D02*
X118110000Y-97012000D01*
X105332000Y-96774000D02*
X102616000Y-96774000D01*
X102616000Y-96774000D02*
X102362000Y-96520000D01*
X87027000Y-96933000D02*
X87678500Y-97584500D01*
X87678500Y-97584500D02*
X87678500Y-99695000D01*
X82566000Y-93885000D02*
X82026000Y-93345000D01*
X85471000Y-93885000D02*
X87027000Y-93885000D01*
X87027000Y-93885000D02*
X88519000Y-93885000D01*
X87027000Y-93885000D02*
X87027000Y-96933000D01*
X85471000Y-93885000D02*
X82566000Y-93885000D01*
X88519000Y-93885000D02*
X88646000Y-94012000D01*
X90678000Y-99038500D02*
X88646000Y-97006500D01*
X88646000Y-97006500D02*
X88646000Y-96012000D01*
X90678000Y-99038500D02*
X87100500Y-102616000D01*
X88646000Y-96012000D02*
X91572500Y-96012000D01*
X75692000Y-102616000D02*
X73406000Y-100330000D01*
X87100500Y-102616000D02*
X75692000Y-102616000D01*
X120213000Y-90781107D02*
X121125893Y-91694000D01*
X103378000Y-75692000D02*
X103378000Y-77216000D01*
X103362000Y-77232000D02*
X103378000Y-77216000D01*
X97542000Y-73666000D02*
X97542000Y-73283000D01*
X118618000Y-87884000D02*
X120213000Y-89479000D01*
X102870000Y-75184000D02*
X103378000Y-75692000D01*
X121125893Y-91694000D02*
X121588000Y-91694000D01*
X109982000Y-87884000D02*
X118618000Y-87884000D01*
X120213000Y-89479000D02*
X120213000Y-90781107D01*
X103378000Y-90678000D02*
X104394000Y-91694000D01*
X98552000Y-74676000D02*
X97542000Y-73666000D01*
X106172000Y-91694000D02*
X109982000Y-87884000D01*
X105332000Y-91694000D02*
X106172000Y-91694000D01*
X101854000Y-77232000D02*
X103362000Y-77232000D01*
X103378000Y-77216000D02*
X103378000Y-90678000D01*
X82466000Y-98425000D02*
X82466000Y-96075000D01*
X85803500Y-96217500D02*
X85471000Y-95885000D01*
X82466000Y-96075000D02*
X82276000Y-95885000D01*
X85803500Y-98745000D02*
X85803500Y-96217500D01*
X82466000Y-100775000D02*
X82276000Y-100965000D01*
X82466000Y-98425000D02*
X82786000Y-98745000D01*
X82466000Y-98425000D02*
X82466000Y-100775000D01*
X82786000Y-98745000D02*
X85803500Y-98745000D01*
X106172000Y-77232000D02*
X104652000Y-77232000D01*
X104652000Y-77232000D02*
X104642000Y-77222000D01*
X104642000Y-89734000D02*
X104642000Y-77222000D01*
X119634000Y-86868000D02*
X121588000Y-88822000D01*
X108966000Y-86868000D02*
X119634000Y-86868000D01*
X104642000Y-77222000D02*
X104642000Y-73283000D01*
X121588000Y-88822000D02*
X121588000Y-90424000D01*
X105332000Y-90424000D02*
X104642000Y-89734000D01*
X105410000Y-90424000D02*
X108966000Y-86868000D01*
X105332000Y-90424000D02*
X105410000Y-90424000D01*
X75438000Y-73660000D02*
X74168000Y-72390000D01*
X73092000Y-78168500D02*
X74739500Y-78168500D01*
X74739500Y-78168500D02*
X75438000Y-77470000D01*
X64754000Y-72390000D02*
X63738000Y-73406000D01*
X74168000Y-72390000D02*
X64754000Y-72390000D01*
X75438000Y-77470000D02*
X75438000Y-73660000D01*
X61738000Y-73406000D02*
X61738000Y-75654500D01*
X61738000Y-75654500D02*
X61700500Y-75692000D01*
X61738000Y-73406000D02*
X60823136Y-72491136D01*
X60823136Y-72491136D02*
X57277999Y-72491136D01*
X61722000Y-70866000D02*
X61722000Y-68601500D01*
X60746864Y-71841136D02*
X57277999Y-71841136D01*
X61722000Y-70866000D02*
X60746864Y-71841136D01*
X61722000Y-68601500D02*
X61700500Y-68580000D01*
X78292000Y-78168500D02*
X77406500Y-78168500D01*
X64484000Y-71628000D02*
X63722000Y-70866000D01*
X76200000Y-73406000D02*
X74422000Y-71628000D01*
X77406500Y-78168500D02*
X76200000Y-76962000D01*
X74422000Y-71628000D02*
X64484000Y-71628000D01*
X76200000Y-76962000D02*
X76200000Y-73406000D01*
X102117000Y-54864000D02*
X104156000Y-54864000D01*
X104642000Y-68083000D02*
X106161000Y-68083000D01*
X106426000Y-67818000D02*
X106426000Y-55134000D01*
X106426000Y-55134000D02*
X106156000Y-54864000D01*
X106161000Y-68083000D02*
X106426000Y-67818000D01*
X113538000Y-62738000D02*
X113538000Y-66040000D01*
X114808000Y-52324000D02*
X113538000Y-53594000D01*
X122936000Y-54102000D02*
X121158000Y-52324000D01*
X109545000Y-70033000D02*
X104642000Y-70033000D01*
X113538000Y-60452000D02*
X113538000Y-62738000D01*
X113538000Y-62738000D02*
X112252000Y-62738000D01*
X113538000Y-53594000D02*
X113538000Y-60452000D01*
X121158000Y-52324000D02*
X114808000Y-52324000D01*
X113538000Y-60452000D02*
X112289500Y-60452000D01*
X113538000Y-66040000D02*
X109545000Y-70033000D01*
X76851000Y-95250000D02*
X77216000Y-94885000D01*
X73406000Y-95250000D02*
X76851000Y-95250000D01*
X77216000Y-96885000D02*
X77216000Y-97155000D01*
X77216000Y-97155000D02*
X78486000Y-98425000D01*
X78486000Y-98425000D02*
X80391000Y-98425000D01*
D42*
X61722000Y-106172000D02*
X64262000Y-106172000D01*
X57912000Y-102362000D02*
X61722000Y-106172000D01*
D41*
X57912000Y-97536000D02*
X58166000Y-97790000D01*
D42*
X57912000Y-97536000D02*
X57912000Y-102362000D01*
D41*
X58166000Y-97790000D02*
X73406000Y-97790000D01*
X93911500Y-97026000D02*
X93911500Y-101865000D01*
X93847500Y-96962000D02*
X93911500Y-97026000D01*
X93911500Y-101865000D02*
X93911500Y-101215000D01*
D42*
X69088000Y-55096500D02*
X71694500Y-55096500D01*
X62759500Y-55096500D02*
X69088000Y-55096500D01*
X57516499Y-63084136D02*
X57516499Y-60339501D01*
X71694500Y-55096500D02*
X72122000Y-55524000D01*
X57516499Y-60339501D02*
X62759500Y-55096500D01*
D41*
X109982000Y-100584000D02*
X114632000Y-100584000D01*
X88436661Y-103886000D02*
X89807661Y-102515000D01*
X89807661Y-102515000D02*
X93911500Y-102515000D01*
X88392000Y-103886000D02*
X88436661Y-103886000D01*
X90499060Y-103165000D02*
X93911500Y-103165000D01*
X110744000Y-99314000D02*
X114632000Y-99314000D01*
X88946424Y-104717636D02*
X90499060Y-103165000D01*
X91257000Y-103815000D02*
X93911500Y-103815000D01*
X89664733Y-105412644D02*
X89664733Y-105407267D01*
X111518500Y-98044000D02*
X113538000Y-98044000D01*
X89664733Y-105407267D02*
X91257000Y-103815000D01*
X90424000Y-106172000D02*
X92131000Y-104465000D01*
X92131000Y-104465000D02*
X93911500Y-104465000D01*
X114632000Y-96774000D02*
X112268000Y-96774000D01*
X94635396Y-105115000D02*
X96266000Y-103484396D01*
X96266000Y-103484396D02*
X96266000Y-96266000D01*
X99568000Y-92964000D02*
X99568000Y-71882000D01*
X99019000Y-71333000D02*
X97542000Y-71333000D01*
X99568000Y-71882000D02*
X99019000Y-71333000D01*
X96266000Y-96266000D02*
X99568000Y-92964000D01*
X93911500Y-105115000D02*
X94635396Y-105115000D01*
X93911500Y-105765000D02*
X93911500Y-106415000D01*
X99636500Y-106415000D02*
X131031743Y-106415000D01*
X131031743Y-106415000D02*
X135382000Y-102064743D01*
X135382000Y-94742000D02*
X132334000Y-91694000D01*
X135382000Y-102064743D02*
X135382000Y-94742000D01*
X132334000Y-91694000D02*
X130888000Y-91694000D01*
X134858000Y-95742000D02*
X132080000Y-92964000D01*
X132080000Y-92964000D02*
X130888000Y-92964000D01*
X130974637Y-105765000D02*
X134858000Y-101881637D01*
X99636500Y-105765000D02*
X130974637Y-105765000D01*
X134858000Y-101881637D02*
X134858000Y-95742000D01*
X134358000Y-101674531D02*
X134358000Y-96258000D01*
X132334000Y-94234000D02*
X130888000Y-94234000D01*
X99636500Y-105115000D02*
X130917531Y-105115000D01*
X130917531Y-105115000D02*
X134358000Y-101674531D01*
X134358000Y-96258000D02*
X132334000Y-94234000D01*
X99636500Y-104465000D02*
X130860425Y-104465000D01*
X133858000Y-97282000D02*
X132080000Y-95504000D01*
X133858000Y-101467425D02*
X133858000Y-97282000D01*
X130860425Y-104465000D02*
X133858000Y-101467425D01*
X132080000Y-95504000D02*
X130888000Y-95504000D01*
X99636500Y-103815000D02*
X130803319Y-103815000D01*
X133263000Y-101355319D02*
X133263000Y-97703000D01*
X130803319Y-103815000D02*
X133263000Y-101355319D01*
X132334000Y-96774000D02*
X130888000Y-96774000D01*
X133263000Y-97703000D02*
X132334000Y-96774000D01*
X132763000Y-101148213D02*
X132763000Y-98727000D01*
X132763000Y-98727000D02*
X132080000Y-98044000D01*
X132080000Y-98044000D02*
X130888000Y-98044000D01*
X99636500Y-103165000D02*
X130746213Y-103165000D01*
X130746213Y-103165000D02*
X132763000Y-101148213D01*
X132263000Y-100941107D02*
X132263000Y-99497000D01*
X130689107Y-102515000D02*
X132263000Y-100941107D01*
X99636500Y-102515000D02*
X130689107Y-102515000D01*
X132263000Y-99497000D02*
X132080000Y-99314000D01*
X132080000Y-99314000D02*
X130888000Y-99314000D01*
X99636500Y-101865000D02*
X130545000Y-101865000D01*
X130545000Y-101865000D02*
X130888000Y-101522000D01*
X130888000Y-101522000D02*
X130888000Y-100584000D01*
X71183500Y-73723500D02*
X73092000Y-73723500D01*
X100584000Y-67818000D02*
X102552000Y-67818000D01*
X102552000Y-67818000D02*
X103467000Y-68733000D01*
X103467000Y-68733000D02*
X104642000Y-68733000D01*
X102986000Y-69458000D02*
X104902000Y-69458000D01*
X102362000Y-68834000D02*
X102986000Y-69458000D01*
X72009000Y-75628500D02*
X73092000Y-75628500D01*
X71183500Y-76454000D02*
X72009000Y-75628500D01*
D42*
X57516499Y-65134136D02*
X57658000Y-65275637D01*
D41*
X78292000Y-76263500D02*
X77392000Y-76263500D01*
D42*
X57658000Y-65275637D02*
X57658000Y-70866000D01*
D41*
X76962000Y-75833500D02*
X76962000Y-73152000D01*
X74422000Y-70612000D02*
X69596000Y-70612000D01*
X64118136Y-65134136D02*
X57516499Y-65134136D01*
X77392000Y-76263500D02*
X76962000Y-75833500D01*
X76962000Y-73152000D02*
X74422000Y-70612000D01*
X69596000Y-70612000D02*
X64118136Y-65134136D01*
X100483000Y-68733000D02*
X97542000Y-68733000D01*
X102616000Y-70866000D02*
X100483000Y-68733000D01*
X100117000Y-69383000D02*
X97542000Y-69383000D01*
X101346000Y-70612000D02*
X100117000Y-69383000D01*
X101346000Y-73152000D02*
X101346000Y-70612000D01*
X99318000Y-70108000D02*
X97536000Y-70108000D01*
X100076000Y-70866000D02*
X99318000Y-70108000D01*
X94368000Y-72202000D02*
X94587000Y-71983000D01*
X94587000Y-71983000D02*
X97542000Y-71983000D01*
X120396000Y-66548000D02*
X120396000Y-54102000D01*
X114311000Y-72633000D02*
X120396000Y-66548000D01*
X104642000Y-72633000D02*
X114311000Y-72633000D01*
X117856000Y-67255106D02*
X113128106Y-71983000D01*
X117856000Y-54102000D02*
X117856000Y-67255106D01*
X113128106Y-71983000D02*
X104642000Y-71983000D01*
X115316000Y-68072000D02*
X112055000Y-71333000D01*
D43*
X112055000Y-71333000D02*
X104642000Y-71333000D01*
D41*
X115316000Y-54102000D02*
X115316000Y-68072000D01*
G04 #@! TA.AperFunction,Conductor*
G36*
X59378121Y-73680002D02*
G01*
X59424614Y-73733658D01*
X59436000Y-73786000D01*
X59436000Y-78106000D01*
X59415998Y-78174121D01*
X59362342Y-78220614D01*
X59310000Y-78232000D01*
X56768000Y-78232000D01*
X56699879Y-78211998D01*
X56653386Y-78158342D01*
X56642000Y-78106000D01*
X56642000Y-75400636D01*
X56662002Y-75332515D01*
X56715658Y-75286022D01*
X56768000Y-75274636D01*
X56797200Y-75274636D01*
X56927681Y-75260000D01*
X56934901Y-75257486D01*
X57001771Y-75234199D01*
X57093680Y-75202193D01*
X57242748Y-75109045D01*
X57249695Y-75102147D01*
X57362477Y-74990149D01*
X57367474Y-74985187D01*
X57372950Y-74976559D01*
X57457881Y-74842727D01*
X57461660Y-74836773D01*
X57520625Y-74671181D01*
X57541438Y-74496640D01*
X57523064Y-74321826D01*
X57520794Y-74315157D01*
X57468686Y-74162091D01*
X57468685Y-74162088D01*
X57466417Y-74155427D01*
X57396425Y-74041656D01*
X57377767Y-73973157D01*
X57399106Y-73905443D01*
X57453666Y-73860015D01*
X57503743Y-73849636D01*
X58001133Y-73849636D01*
X58063315Y-73842881D01*
X58199704Y-73791751D01*
X58316260Y-73704397D01*
X58321641Y-73697217D01*
X58321953Y-73696905D01*
X58384265Y-73662879D01*
X58411048Y-73660000D01*
X59310000Y-73660000D01*
X59378121Y-73680002D01*
G37*
G04 #@! TD.AperFunction*
G04 #@! TA.AperFunction,Conductor*
G36*
X75405621Y-54630002D02*
G01*
X75452114Y-54683658D01*
X75463500Y-54736000D01*
X75463500Y-56572134D01*
X75470255Y-56634316D01*
X75521385Y-56770705D01*
X75608739Y-56887261D01*
X75725295Y-56974615D01*
X75861684Y-57025745D01*
X75923866Y-57032500D01*
X77520134Y-57032500D01*
X77582316Y-57025745D01*
X77589717Y-57022971D01*
X77596541Y-57021348D01*
X77667442Y-57025049D01*
X77725086Y-57066493D01*
X77751496Y-57136941D01*
X77976995Y-61195911D01*
X77978000Y-61214000D01*
X78426535Y-61214000D01*
X78494656Y-61234002D01*
X78497218Y-61235831D01*
X78499697Y-61238305D01*
X78650262Y-61331115D01*
X78730005Y-61357564D01*
X78811611Y-61384632D01*
X78811613Y-61384632D01*
X78818139Y-61386797D01*
X78824975Y-61387497D01*
X78824978Y-61387498D01*
X78868031Y-61391909D01*
X78922600Y-61397500D01*
X79573400Y-61397500D01*
X79576646Y-61397163D01*
X79576650Y-61397163D01*
X79672308Y-61387238D01*
X79672312Y-61387237D01*
X79679166Y-61386526D01*
X79685708Y-61384343D01*
X79685710Y-61384343D01*
X79844123Y-61331492D01*
X79915073Y-61328907D01*
X79976157Y-61365090D01*
X80007982Y-61428554D01*
X80010000Y-61451015D01*
X80010000Y-62866000D01*
X79989998Y-62934121D01*
X79936342Y-62980614D01*
X79884000Y-62992000D01*
X70992000Y-62992000D01*
X70923879Y-62971998D01*
X70877386Y-62918342D01*
X70866000Y-62866000D01*
X70866000Y-57032175D01*
X70886002Y-56964054D01*
X70939658Y-56917561D01*
X71009932Y-56907457D01*
X71067565Y-56931349D01*
X71111204Y-56964054D01*
X71125295Y-56974615D01*
X71261684Y-57025745D01*
X71323866Y-57032500D01*
X72920134Y-57032500D01*
X72982316Y-57025745D01*
X73118705Y-56974615D01*
X73235261Y-56887261D01*
X73322615Y-56770705D01*
X73373745Y-56634316D01*
X73380500Y-56572134D01*
X73380500Y-54877436D01*
X73400502Y-54809315D01*
X73432390Y-54775535D01*
X73626864Y-54634099D01*
X73693721Y-54610209D01*
X73700974Y-54610000D01*
X75337500Y-54610000D01*
X75405621Y-54630002D01*
G37*
G04 #@! TD.AperFunction*
G04 #@! TA.AperFunction,Conductor*
G36*
X58108121Y-64790002D02*
G01*
X58154614Y-64843658D01*
X58166000Y-64896000D01*
X58166000Y-71010117D01*
X58145998Y-71078238D01*
X58092342Y-71124731D01*
X58026392Y-71135380D01*
X58004530Y-71133005D01*
X58001133Y-71132636D01*
X57503093Y-71132636D01*
X57434972Y-71112634D01*
X57388479Y-71058978D01*
X57378375Y-70988704D01*
X57396706Y-70939124D01*
X57461660Y-70836773D01*
X57520625Y-70671181D01*
X57541438Y-70496640D01*
X57523064Y-70321826D01*
X57520794Y-70315157D01*
X57468686Y-70162091D01*
X57468685Y-70162088D01*
X57466417Y-70155427D01*
X57460309Y-70145499D01*
X57378005Y-70011715D01*
X57378002Y-70011712D01*
X57374312Y-70005713D01*
X57251328Y-69880125D01*
X57103575Y-69784905D01*
X56978905Y-69739529D01*
X56921734Y-69697435D01*
X56896396Y-69631113D01*
X56896000Y-69621128D01*
X56896000Y-64896000D01*
X56916002Y-64827879D01*
X56969658Y-64781386D01*
X57022000Y-64770000D01*
X58040000Y-64770000D01*
X58108121Y-64790002D01*
G37*
G04 #@! TD.AperFunction*
M02*
