%TF.GenerationSoftware,KiCad,Pcbnew,(6.0.9)*%
%TF.CreationDate,2022-11-27T19:04:10-05:00*%
%TF.ProjectId,usbcounter,75736263-6f75-46e7-9465-722e6b696361,rev?*%
%TF.SameCoordinates,Original*%
%TF.FileFunction,Drillmap*%
%TF.FilePolarity,Positive*%
%FSLAX45Y45*%
G04 Gerber Fmt 4.5, Leading zero omitted, Abs format (unit mm)*
G04 Created by KiCad (PCBNEW (6.0.9)) date 2022-11-27 19:04:10*
%MOMM*%
%LPD*%
G01*
G04 APERTURE LIST*
%ADD10C,0.100000*%
%ADD11C,0.200000*%
%ADD12C,0.055000*%
G04 APERTURE END LIST*
D10*
X13970000Y-11176000D02*
G75*
G03*
X14224000Y-10922000I0J254000D01*
G01*
X14222195Y-5335805D02*
X14224000Y-10922000D01*
X5335805Y-5081805D02*
X13968195Y-5081805D01*
X5081805Y-10920195D02*
X5081805Y-5335805D01*
X13970000Y-11176000D02*
X5335805Y-11174195D01*
X14222195Y-5335805D02*
G75*
G03*
X13968195Y-5081805I-253995J5D01*
G01*
X5335805Y-5081805D02*
G75*
G03*
X5081805Y-5335805I0J-254000D01*
G01*
X5081805Y-10920195D02*
G75*
G03*
X5335805Y-11174195I254005J5D01*
G01*
D11*
D12*
X5647800Y-7021614D02*
X5702800Y-7076614D01*
X5702800Y-7021614D02*
X5647800Y-7076614D01*
X5647800Y-7421614D02*
X5702800Y-7476614D01*
X5702800Y-7421614D02*
X5647800Y-7476614D01*
D11*
X5334424Y-11491476D02*
X5334424Y-11291476D01*
X5382043Y-11291476D01*
X5410615Y-11301000D01*
X5429662Y-11320048D01*
X5439186Y-11339095D01*
X5448710Y-11377190D01*
X5448710Y-11405762D01*
X5439186Y-11443857D01*
X5429662Y-11462905D01*
X5410615Y-11481952D01*
X5382043Y-11491476D01*
X5334424Y-11491476D01*
X5534424Y-11491476D02*
X5534424Y-11358143D01*
X5534424Y-11396238D02*
X5543948Y-11377190D01*
X5553472Y-11367667D01*
X5572519Y-11358143D01*
X5591567Y-11358143D01*
X5658234Y-11491476D02*
X5658234Y-11358143D01*
X5658234Y-11291476D02*
X5648710Y-11301000D01*
X5658234Y-11310524D01*
X5667757Y-11301000D01*
X5658234Y-11291476D01*
X5658234Y-11310524D01*
X5782043Y-11491476D02*
X5762995Y-11481952D01*
X5753472Y-11462905D01*
X5753472Y-11291476D01*
X5886805Y-11491476D02*
X5867757Y-11481952D01*
X5858234Y-11462905D01*
X5858234Y-11291476D01*
X6115376Y-11491476D02*
X6115376Y-11291476D01*
X6182043Y-11434333D01*
X6248710Y-11291476D01*
X6248710Y-11491476D01*
X6429662Y-11491476D02*
X6429662Y-11386714D01*
X6420138Y-11367667D01*
X6401091Y-11358143D01*
X6362995Y-11358143D01*
X6343948Y-11367667D01*
X6429662Y-11481952D02*
X6410615Y-11491476D01*
X6362995Y-11491476D01*
X6343948Y-11481952D01*
X6334424Y-11462905D01*
X6334424Y-11443857D01*
X6343948Y-11424809D01*
X6362995Y-11415286D01*
X6410615Y-11415286D01*
X6429662Y-11405762D01*
X6524900Y-11358143D02*
X6524900Y-11558143D01*
X6524900Y-11367667D02*
X6543948Y-11358143D01*
X6582043Y-11358143D01*
X6601091Y-11367667D01*
X6610615Y-11377190D01*
X6620138Y-11396238D01*
X6620138Y-11453381D01*
X6610615Y-11472428D01*
X6601091Y-11481952D01*
X6582043Y-11491476D01*
X6543948Y-11491476D01*
X6524900Y-11481952D01*
X6705853Y-11472428D02*
X6715376Y-11481952D01*
X6705853Y-11491476D01*
X6696329Y-11481952D01*
X6705853Y-11472428D01*
X6705853Y-11491476D01*
X6705853Y-11367667D02*
X6715376Y-11377190D01*
X6705853Y-11386714D01*
X6696329Y-11377190D01*
X6705853Y-11367667D01*
X6705853Y-11386714D01*
D12*
X5021805Y-11793500D02*
X5076805Y-11848500D01*
X5076805Y-11793500D02*
X5021805Y-11848500D01*
D11*
X5372519Y-11711476D02*
X5391567Y-11711476D01*
X5410615Y-11721000D01*
X5420138Y-11730524D01*
X5429662Y-11749571D01*
X5439186Y-11787667D01*
X5439186Y-11835286D01*
X5429662Y-11873381D01*
X5420138Y-11892428D01*
X5410615Y-11901952D01*
X5391567Y-11911476D01*
X5372519Y-11911476D01*
X5353472Y-11901952D01*
X5343948Y-11892428D01*
X5334424Y-11873381D01*
X5324900Y-11835286D01*
X5324900Y-11787667D01*
X5334424Y-11749571D01*
X5343948Y-11730524D01*
X5353472Y-11721000D01*
X5372519Y-11711476D01*
X5524900Y-11892428D02*
X5534424Y-11901952D01*
X5524900Y-11911476D01*
X5515377Y-11901952D01*
X5524900Y-11892428D01*
X5524900Y-11911476D01*
X5715376Y-11711476D02*
X5620138Y-11711476D01*
X5610615Y-11806714D01*
X5620138Y-11797190D01*
X5639186Y-11787667D01*
X5686805Y-11787667D01*
X5705853Y-11797190D01*
X5715376Y-11806714D01*
X5724900Y-11825762D01*
X5724900Y-11873381D01*
X5715376Y-11892428D01*
X5705853Y-11901952D01*
X5686805Y-11911476D01*
X5639186Y-11911476D01*
X5620138Y-11901952D01*
X5610615Y-11892428D01*
X5905853Y-11711476D02*
X5810615Y-11711476D01*
X5801091Y-11806714D01*
X5810615Y-11797190D01*
X5829662Y-11787667D01*
X5877281Y-11787667D01*
X5896329Y-11797190D01*
X5905853Y-11806714D01*
X5915376Y-11825762D01*
X5915376Y-11873381D01*
X5905853Y-11892428D01*
X5896329Y-11901952D01*
X5877281Y-11911476D01*
X5829662Y-11911476D01*
X5810615Y-11901952D01*
X5801091Y-11892428D01*
X6039186Y-11711476D02*
X6058234Y-11711476D01*
X6077281Y-11721000D01*
X6086805Y-11730524D01*
X6096329Y-11749571D01*
X6105853Y-11787667D01*
X6105853Y-11835286D01*
X6096329Y-11873381D01*
X6086805Y-11892428D01*
X6077281Y-11901952D01*
X6058234Y-11911476D01*
X6039186Y-11911476D01*
X6020138Y-11901952D01*
X6010615Y-11892428D01*
X6001091Y-11873381D01*
X5991567Y-11835286D01*
X5991567Y-11787667D01*
X6001091Y-11749571D01*
X6010615Y-11730524D01*
X6020138Y-11721000D01*
X6039186Y-11711476D01*
X6191567Y-11911476D02*
X6191567Y-11778143D01*
X6191567Y-11797190D02*
X6201091Y-11787667D01*
X6220138Y-11778143D01*
X6248710Y-11778143D01*
X6267757Y-11787667D01*
X6277281Y-11806714D01*
X6277281Y-11911476D01*
X6277281Y-11806714D02*
X6286805Y-11787667D01*
X6305853Y-11778143D01*
X6334424Y-11778143D01*
X6353472Y-11787667D01*
X6362995Y-11806714D01*
X6362995Y-11911476D01*
X6458234Y-11911476D02*
X6458234Y-11778143D01*
X6458234Y-11797190D02*
X6467757Y-11787667D01*
X6486805Y-11778143D01*
X6515376Y-11778143D01*
X6534424Y-11787667D01*
X6543948Y-11806714D01*
X6543948Y-11911476D01*
X6543948Y-11806714D02*
X6553472Y-11787667D01*
X6572519Y-11778143D01*
X6601091Y-11778143D01*
X6620138Y-11787667D01*
X6629662Y-11806714D01*
X6629662Y-11911476D01*
X7020138Y-11701952D02*
X6848710Y-11959095D01*
X7277281Y-11711476D02*
X7296329Y-11711476D01*
X7315376Y-11721000D01*
X7324900Y-11730524D01*
X7334424Y-11749571D01*
X7343948Y-11787667D01*
X7343948Y-11835286D01*
X7334424Y-11873381D01*
X7324900Y-11892428D01*
X7315376Y-11901952D01*
X7296329Y-11911476D01*
X7277281Y-11911476D01*
X7258234Y-11901952D01*
X7248710Y-11892428D01*
X7239186Y-11873381D01*
X7229662Y-11835286D01*
X7229662Y-11787667D01*
X7239186Y-11749571D01*
X7248710Y-11730524D01*
X7258234Y-11721000D01*
X7277281Y-11711476D01*
X7429662Y-11892428D02*
X7439186Y-11901952D01*
X7429662Y-11911476D01*
X7420138Y-11901952D01*
X7429662Y-11892428D01*
X7429662Y-11911476D01*
X7562995Y-11711476D02*
X7582043Y-11711476D01*
X7601091Y-11721000D01*
X7610615Y-11730524D01*
X7620138Y-11749571D01*
X7629662Y-11787667D01*
X7629662Y-11835286D01*
X7620138Y-11873381D01*
X7610615Y-11892428D01*
X7601091Y-11901952D01*
X7582043Y-11911476D01*
X7562995Y-11911476D01*
X7543948Y-11901952D01*
X7534424Y-11892428D01*
X7524900Y-11873381D01*
X7515376Y-11835286D01*
X7515376Y-11787667D01*
X7524900Y-11749571D01*
X7534424Y-11730524D01*
X7543948Y-11721000D01*
X7562995Y-11711476D01*
X7705853Y-11730524D02*
X7715376Y-11721000D01*
X7734424Y-11711476D01*
X7782043Y-11711476D01*
X7801091Y-11721000D01*
X7810615Y-11730524D01*
X7820138Y-11749571D01*
X7820138Y-11768619D01*
X7810615Y-11797190D01*
X7696329Y-11911476D01*
X7820138Y-11911476D01*
X8010615Y-11911476D02*
X7896329Y-11911476D01*
X7953472Y-11911476D02*
X7953472Y-11711476D01*
X7934424Y-11740048D01*
X7915376Y-11759095D01*
X7896329Y-11768619D01*
X8077281Y-11711476D02*
X8210615Y-11711476D01*
X8124900Y-11911476D01*
X8277281Y-11711476D02*
X8277281Y-11749571D01*
X8353472Y-11711476D02*
X8353472Y-11749571D01*
X8648710Y-11987667D02*
X8639186Y-11978143D01*
X8620138Y-11949571D01*
X8610615Y-11930524D01*
X8601091Y-11901952D01*
X8591567Y-11854333D01*
X8591567Y-11816238D01*
X8601091Y-11768619D01*
X8610615Y-11740048D01*
X8620138Y-11721000D01*
X8639186Y-11692428D01*
X8648710Y-11682905D01*
X8715377Y-11730524D02*
X8724900Y-11721000D01*
X8743948Y-11711476D01*
X8791567Y-11711476D01*
X8810615Y-11721000D01*
X8820138Y-11730524D01*
X8829662Y-11749571D01*
X8829662Y-11768619D01*
X8820138Y-11797190D01*
X8705853Y-11911476D01*
X8829662Y-11911476D01*
X9067757Y-11911476D02*
X9067757Y-11711476D01*
X9153472Y-11911476D02*
X9153472Y-11806714D01*
X9143948Y-11787667D01*
X9124900Y-11778143D01*
X9096329Y-11778143D01*
X9077281Y-11787667D01*
X9067757Y-11797190D01*
X9277281Y-11911476D02*
X9258234Y-11901952D01*
X9248710Y-11892428D01*
X9239186Y-11873381D01*
X9239186Y-11816238D01*
X9248710Y-11797190D01*
X9258234Y-11787667D01*
X9277281Y-11778143D01*
X9305853Y-11778143D01*
X9324900Y-11787667D01*
X9334424Y-11797190D01*
X9343948Y-11816238D01*
X9343948Y-11873381D01*
X9334424Y-11892428D01*
X9324900Y-11901952D01*
X9305853Y-11911476D01*
X9277281Y-11911476D01*
X9458234Y-11911476D02*
X9439186Y-11901952D01*
X9429662Y-11882905D01*
X9429662Y-11711476D01*
X9610615Y-11901952D02*
X9591567Y-11911476D01*
X9553472Y-11911476D01*
X9534424Y-11901952D01*
X9524900Y-11882905D01*
X9524900Y-11806714D01*
X9534424Y-11787667D01*
X9553472Y-11778143D01*
X9591567Y-11778143D01*
X9610615Y-11787667D01*
X9620138Y-11806714D01*
X9620138Y-11825762D01*
X9524900Y-11844809D01*
X9696329Y-11901952D02*
X9715377Y-11911476D01*
X9753472Y-11911476D01*
X9772519Y-11901952D01*
X9782043Y-11882905D01*
X9782043Y-11873381D01*
X9772519Y-11854333D01*
X9753472Y-11844809D01*
X9724900Y-11844809D01*
X9705853Y-11835286D01*
X9696329Y-11816238D01*
X9696329Y-11806714D01*
X9705853Y-11787667D01*
X9724900Y-11778143D01*
X9753472Y-11778143D01*
X9772519Y-11787667D01*
X9848710Y-11987667D02*
X9858234Y-11978143D01*
X9877281Y-11949571D01*
X9886805Y-11930524D01*
X9896329Y-11901952D01*
X9905853Y-11854333D01*
X9905853Y-11816238D01*
X9896329Y-11768619D01*
X9886805Y-11740048D01*
X9877281Y-11721000D01*
X9858234Y-11692428D01*
X9848710Y-11682905D01*
X10210615Y-11987667D02*
X10201091Y-11978143D01*
X10182043Y-11949571D01*
X10172519Y-11930524D01*
X10162996Y-11901952D01*
X10153472Y-11854333D01*
X10153472Y-11816238D01*
X10162996Y-11768619D01*
X10172519Y-11740048D01*
X10182043Y-11721000D01*
X10201091Y-11692428D01*
X10210615Y-11682905D01*
X10286805Y-11778143D02*
X10286805Y-11911476D01*
X10286805Y-11797190D02*
X10296329Y-11787667D01*
X10315377Y-11778143D01*
X10343948Y-11778143D01*
X10362996Y-11787667D01*
X10372519Y-11806714D01*
X10372519Y-11911476D01*
X10496329Y-11911476D02*
X10477281Y-11901952D01*
X10467757Y-11892428D01*
X10458234Y-11873381D01*
X10458234Y-11816238D01*
X10467757Y-11797190D01*
X10477281Y-11787667D01*
X10496329Y-11778143D01*
X10524900Y-11778143D01*
X10543948Y-11787667D01*
X10553472Y-11797190D01*
X10562996Y-11816238D01*
X10562996Y-11873381D01*
X10553472Y-11892428D01*
X10543948Y-11901952D01*
X10524900Y-11911476D01*
X10496329Y-11911476D01*
X10620138Y-11778143D02*
X10696329Y-11778143D01*
X10648710Y-11711476D02*
X10648710Y-11882905D01*
X10658234Y-11901952D01*
X10677281Y-11911476D01*
X10696329Y-11911476D01*
X10915377Y-11778143D02*
X10915377Y-11978143D01*
X10915377Y-11787667D02*
X10934424Y-11778143D01*
X10972519Y-11778143D01*
X10991567Y-11787667D01*
X11001091Y-11797190D01*
X11010615Y-11816238D01*
X11010615Y-11873381D01*
X11001091Y-11892428D01*
X10991567Y-11901952D01*
X10972519Y-11911476D01*
X10934424Y-11911476D01*
X10915377Y-11901952D01*
X11124900Y-11911476D02*
X11105853Y-11901952D01*
X11096329Y-11882905D01*
X11096329Y-11711476D01*
X11286805Y-11911476D02*
X11286805Y-11806714D01*
X11277281Y-11787667D01*
X11258234Y-11778143D01*
X11220138Y-11778143D01*
X11201091Y-11787667D01*
X11286805Y-11901952D02*
X11267757Y-11911476D01*
X11220138Y-11911476D01*
X11201091Y-11901952D01*
X11191567Y-11882905D01*
X11191567Y-11863857D01*
X11201091Y-11844809D01*
X11220138Y-11835286D01*
X11267757Y-11835286D01*
X11286805Y-11825762D01*
X11353472Y-11778143D02*
X11429662Y-11778143D01*
X11382043Y-11711476D02*
X11382043Y-11882905D01*
X11391567Y-11901952D01*
X11410615Y-11911476D01*
X11429662Y-11911476D01*
X11572519Y-11901952D02*
X11553472Y-11911476D01*
X11515376Y-11911476D01*
X11496329Y-11901952D01*
X11486805Y-11882905D01*
X11486805Y-11806714D01*
X11496329Y-11787667D01*
X11515376Y-11778143D01*
X11553472Y-11778143D01*
X11572519Y-11787667D01*
X11582043Y-11806714D01*
X11582043Y-11825762D01*
X11486805Y-11844809D01*
X11753472Y-11911476D02*
X11753472Y-11711476D01*
X11753472Y-11901952D02*
X11734424Y-11911476D01*
X11696329Y-11911476D01*
X11677281Y-11901952D01*
X11667757Y-11892428D01*
X11658234Y-11873381D01*
X11658234Y-11816238D01*
X11667757Y-11797190D01*
X11677281Y-11787667D01*
X11696329Y-11778143D01*
X11734424Y-11778143D01*
X11753472Y-11787667D01*
X11829662Y-11987667D02*
X11839186Y-11978143D01*
X11858234Y-11949571D01*
X11867757Y-11930524D01*
X11877281Y-11901952D01*
X11886805Y-11854333D01*
X11886805Y-11816238D01*
X11877281Y-11768619D01*
X11867757Y-11740048D01*
X11858234Y-11721000D01*
X11839186Y-11692428D01*
X11829662Y-11682905D01*
M02*
