G04 #@! TF.GenerationSoftware,KiCad,Pcbnew,(6.0.9)*
G04 #@! TF.CreationDate,2022-12-14T01:21:17-05:00*
G04 #@! TF.ProjectId,usbcounter,75736263-6f75-46e7-9465-722e6b696361,rev?*
G04 #@! TF.SameCoordinates,Original*
G04 #@! TF.FileFunction,Legend,Top*
G04 #@! TF.FilePolarity,Positive*
%FSLAX46Y46*%
G04 Gerber Fmt 4.6, Leading zero omitted, Abs format (unit mm)*
G04 Created by KiCad (PCBNEW (6.0.9)) date 2022-12-14 01:21:17*
%MOMM*%
%LPD*%
G01*
G04 APERTURE LIST*
G04 Aperture macros list*
%AMRoundRect*
0 Rectangle with rounded corners*
0 $1 Rounding radius*
0 $2 $3 $4 $5 $6 $7 $8 $9 X,Y pos of 4 corners*
0 Add a 4 corners polygon primitive as box body*
4,1,4,$2,$3,$4,$5,$6,$7,$8,$9,$2,$3,0*
0 Add four circle primitives for the rounded corners*
1,1,$1+$1,$2,$3*
1,1,$1+$1,$4,$5*
1,1,$1+$1,$6,$7*
1,1,$1+$1,$8,$9*
0 Add four rect primitives between the rounded corners*
20,1,$1+$1,$2,$3,$4,$5,0*
20,1,$1+$1,$4,$5,$6,$7,0*
20,1,$1+$1,$6,$7,$8,$9,0*
20,1,$1+$1,$8,$9,$2,$3,0*%
%AMFreePoly0*
4,1,22,0.500000,-0.750000,0.000000,-0.750000,0.000000,-0.745033,-0.079941,-0.743568,-0.215256,-0.701293,-0.333266,-0.622738,-0.424486,-0.514219,-0.481581,-0.384460,-0.499164,-0.250000,-0.500000,-0.250000,-0.500000,0.250000,-0.499164,0.250000,-0.499963,0.256109,-0.478152,0.396186,-0.417904,0.524511,-0.324060,0.630769,-0.204165,0.706417,-0.067858,0.745374,0.000000,0.744959,0.000000,0.750000,
0.500000,0.750000,0.500000,-0.750000,0.500000,-0.750000,$1*%
%AMFreePoly1*
4,1,20,0.000000,0.744959,0.073905,0.744508,0.209726,0.703889,0.328688,0.626782,0.421226,0.519385,0.479903,0.390333,0.500000,0.250000,0.500000,-0.250000,0.499851,-0.262216,0.476331,-0.402017,0.414519,-0.529596,0.319384,-0.634700,0.198574,-0.708877,0.061801,-0.746166,0.000000,-0.745033,0.000000,-0.750000,-0.500000,-0.750000,-0.500000,0.750000,0.000000,0.750000,0.000000,0.744959,
0.000000,0.744959,$1*%
G04 Aperture macros list end*
%ADD10C,0.300000*%
%ADD11C,0.150000*%
%ADD12C,0.400000*%
%ADD13C,0.120000*%
%ADD14C,0.100000*%
%ADD15C,0.200000*%
%ADD16R,1.700000X1.000000*%
%ADD17C,1.600000*%
%ADD18O,1.600000X1.600000*%
%ADD19R,1.700000X1.700000*%
%ADD20O,1.700000X1.700000*%
%ADD21RoundRect,0.250000X0.450000X-0.350000X0.450000X0.350000X-0.450000X0.350000X-0.450000X-0.350000X0*%
%ADD22RoundRect,0.250000X-0.350000X-0.450000X0.350000X-0.450000X0.350000X0.450000X-0.350000X0.450000X0*%
%ADD23C,8.600000*%
%ADD24RoundRect,0.250000X0.475000X-0.337500X0.475000X0.337500X-0.475000X0.337500X-0.475000X-0.337500X0*%
%ADD25RoundRect,0.250000X-0.450000X0.325000X-0.450000X-0.325000X0.450000X-0.325000X0.450000X0.325000X0*%
%ADD26C,2.000000*%
%ADD27RoundRect,0.250000X-0.325000X-0.450000X0.325000X-0.450000X0.325000X0.450000X-0.325000X0.450000X0*%
%ADD28RoundRect,0.250000X0.325000X0.450000X-0.325000X0.450000X-0.325000X-0.450000X0.325000X-0.450000X0*%
%ADD29R,1.600000X0.550000*%
%ADD30R,0.550000X1.600000*%
%ADD31RoundRect,0.250000X-0.337500X-0.475000X0.337500X-0.475000X0.337500X0.475000X-0.337500X0.475000X0*%
%ADD32RoundRect,0.100000X-0.637500X-0.100000X0.637500X-0.100000X0.637500X0.100000X-0.637500X0.100000X0*%
%ADD33RoundRect,0.250000X-0.475000X0.337500X-0.475000X-0.337500X0.475000X-0.337500X0.475000X0.337500X0*%
%ADD34RoundRect,0.250000X0.337500X0.475000X-0.337500X0.475000X-0.337500X-0.475000X0.337500X-0.475000X0*%
%ADD35FreePoly0,0.000000*%
%ADD36FreePoly1,0.000000*%
%ADD37RoundRect,0.150000X-0.512500X-0.150000X0.512500X-0.150000X0.512500X0.150000X-0.512500X0.150000X0*%
%ADD38R,1.500000X2.000000*%
%ADD39R,3.800000X2.000000*%
%ADD40C,2.050000*%
%ADD41C,2.250000*%
%ADD42R,1.200000X0.400000*%
%ADD43R,1.200000X1.400000*%
%ADD44R,1.900000X1.900000*%
%ADD45R,1.350000X0.400000*%
%ADD46C,0.001000*%
G04 APERTURE END LIST*
D10*
X115411714Y-84427142D02*
X115626000Y-84498571D01*
X115983142Y-84498571D01*
X116126000Y-84427142D01*
X116197428Y-84355714D01*
X116268857Y-84212857D01*
X116268857Y-84070000D01*
X116197428Y-83927142D01*
X116126000Y-83855714D01*
X115983142Y-83784285D01*
X115697428Y-83712857D01*
X115554571Y-83641428D01*
X115483142Y-83570000D01*
X115411714Y-83427142D01*
X115411714Y-83284285D01*
X115483142Y-83141428D01*
X115554571Y-83070000D01*
X115697428Y-82998571D01*
X116054571Y-82998571D01*
X116268857Y-83070000D01*
X116697428Y-82998571D02*
X117554571Y-82998571D01*
X117126000Y-84498571D02*
X117126000Y-82998571D01*
X117983142Y-84070000D02*
X118697428Y-84070000D01*
X117840285Y-84498571D02*
X118340285Y-82998571D01*
X118840285Y-84498571D01*
X119126000Y-82998571D02*
X119983142Y-82998571D01*
X119554571Y-84498571D02*
X119554571Y-82998571D01*
X120483142Y-82998571D02*
X120483142Y-84212857D01*
X120554571Y-84355714D01*
X120626000Y-84427142D01*
X120768857Y-84498571D01*
X121054571Y-84498571D01*
X121197428Y-84427142D01*
X121268857Y-84355714D01*
X121340285Y-84212857D01*
X121340285Y-82998571D01*
X121983142Y-84427142D02*
X122197428Y-84498571D01*
X122554571Y-84498571D01*
X122697428Y-84427142D01*
X122768857Y-84355714D01*
X122840285Y-84212857D01*
X122840285Y-84070000D01*
X122768857Y-83927142D01*
X122697428Y-83855714D01*
X122554571Y-83784285D01*
X122268857Y-83712857D01*
X122126000Y-83641428D01*
X122054571Y-83570000D01*
X121983142Y-83427142D01*
X121983142Y-83284285D01*
X122054571Y-83141428D01*
X122126000Y-83070000D01*
X122268857Y-82998571D01*
X122626000Y-82998571D01*
X122840285Y-83070000D01*
D11*
X82645428Y-81827714D02*
X82883523Y-82494380D01*
X83121619Y-81827714D01*
X83454952Y-81589619D02*
X83502571Y-81542000D01*
X83597809Y-81494380D01*
X83835904Y-81494380D01*
X83931142Y-81542000D01*
X83978761Y-81589619D01*
X84026380Y-81684857D01*
X84026380Y-81780095D01*
X83978761Y-81922952D01*
X83407333Y-82494380D01*
X84026380Y-82494380D01*
X84454952Y-82399142D02*
X84502571Y-82446761D01*
X84454952Y-82494380D01*
X84407333Y-82446761D01*
X84454952Y-82399142D01*
X84454952Y-82494380D01*
X84883523Y-81589619D02*
X84931142Y-81542000D01*
X85026380Y-81494380D01*
X85264476Y-81494380D01*
X85359714Y-81542000D01*
X85407333Y-81589619D01*
X85454952Y-81684857D01*
X85454952Y-81780095D01*
X85407333Y-81922952D01*
X84835904Y-82494380D01*
X85454952Y-82494380D01*
X83820095Y-107640380D02*
X83820095Y-106640380D01*
X84058190Y-106640380D01*
X84201047Y-106688000D01*
X84296285Y-106783238D01*
X84343904Y-106878476D01*
X84391523Y-107068952D01*
X84391523Y-107211809D01*
X84343904Y-107402285D01*
X84296285Y-107497523D01*
X84201047Y-107592761D01*
X84058190Y-107640380D01*
X83820095Y-107640380D01*
X85391523Y-107545142D02*
X85343904Y-107592761D01*
X85201047Y-107640380D01*
X85105809Y-107640380D01*
X84962952Y-107592761D01*
X84867714Y-107497523D01*
X84820095Y-107402285D01*
X84772476Y-107211809D01*
X84772476Y-107068952D01*
X84820095Y-106878476D01*
X84867714Y-106783238D01*
X84962952Y-106688000D01*
X85105809Y-106640380D01*
X85201047Y-106640380D01*
X85343904Y-106688000D01*
X85391523Y-106735619D01*
X67183142Y-97226380D02*
X66706952Y-97226380D01*
X66706952Y-96226380D01*
X67706952Y-96226380D02*
X67897428Y-96226380D01*
X67992666Y-96274000D01*
X68087904Y-96369238D01*
X68135523Y-96559714D01*
X68135523Y-96893047D01*
X68087904Y-97083523D01*
X67992666Y-97178761D01*
X67897428Y-97226380D01*
X67706952Y-97226380D01*
X67611714Y-97178761D01*
X67516476Y-97083523D01*
X67468857Y-96893047D01*
X67468857Y-96559714D01*
X67516476Y-96369238D01*
X67611714Y-96274000D01*
X67706952Y-96226380D01*
X68516476Y-96940666D02*
X68992666Y-96940666D01*
X68421238Y-97226380D02*
X68754571Y-96226380D01*
X69087904Y-97226380D01*
X69421238Y-97226380D02*
X69421238Y-96226380D01*
X69659333Y-96226380D01*
X69802190Y-96274000D01*
X69897428Y-96369238D01*
X69945047Y-96464476D01*
X69992666Y-96654952D01*
X69992666Y-96797809D01*
X69945047Y-96988285D01*
X69897428Y-97083523D01*
X69802190Y-97178761D01*
X69659333Y-97226380D01*
X69421238Y-97226380D01*
D12*
X54500571Y-79383142D02*
X54500571Y-81811714D01*
X54643428Y-82097428D01*
X54786285Y-82240285D01*
X55072000Y-82383142D01*
X55643428Y-82383142D01*
X55929142Y-82240285D01*
X56072000Y-82097428D01*
X56214857Y-81811714D01*
X56214857Y-79383142D01*
X57500571Y-82240285D02*
X57929142Y-82383142D01*
X58643428Y-82383142D01*
X58929142Y-82240285D01*
X59072000Y-82097428D01*
X59214857Y-81811714D01*
X59214857Y-81526000D01*
X59072000Y-81240285D01*
X58929142Y-81097428D01*
X58643428Y-80954571D01*
X58072000Y-80811714D01*
X57786285Y-80668857D01*
X57643428Y-80526000D01*
X57500571Y-80240285D01*
X57500571Y-79954571D01*
X57643428Y-79668857D01*
X57786285Y-79526000D01*
X58072000Y-79383142D01*
X58786285Y-79383142D01*
X59214857Y-79526000D01*
X61500571Y-80811714D02*
X61929142Y-80954571D01*
X62072000Y-81097428D01*
X62214857Y-81383142D01*
X62214857Y-81811714D01*
X62072000Y-82097428D01*
X61929142Y-82240285D01*
X61643428Y-82383142D01*
X60500571Y-82383142D01*
X60500571Y-79383142D01*
X61500571Y-79383142D01*
X61786285Y-79526000D01*
X61929142Y-79668857D01*
X62072000Y-79954571D01*
X62072000Y-80240285D01*
X61929142Y-80526000D01*
X61786285Y-80668857D01*
X61500571Y-80811714D01*
X60500571Y-80811714D01*
X67500571Y-82097428D02*
X67357714Y-82240285D01*
X66929142Y-82383142D01*
X66643428Y-82383142D01*
X66214857Y-82240285D01*
X65929142Y-81954571D01*
X65786285Y-81668857D01*
X65643428Y-81097428D01*
X65643428Y-80668857D01*
X65786285Y-80097428D01*
X65929142Y-79811714D01*
X66214857Y-79526000D01*
X66643428Y-79383142D01*
X66929142Y-79383142D01*
X67357714Y-79526000D01*
X67500571Y-79668857D01*
X69214857Y-82383142D02*
X68929142Y-82240285D01*
X68786285Y-82097428D01*
X68643428Y-81811714D01*
X68643428Y-80954571D01*
X68786285Y-80668857D01*
X68929142Y-80526000D01*
X69214857Y-80383142D01*
X69643428Y-80383142D01*
X69929142Y-80526000D01*
X70072000Y-80668857D01*
X70214857Y-80954571D01*
X70214857Y-81811714D01*
X70072000Y-82097428D01*
X69929142Y-82240285D01*
X69643428Y-82383142D01*
X69214857Y-82383142D01*
X72786285Y-80383142D02*
X72786285Y-82383142D01*
X71500571Y-80383142D02*
X71500571Y-81954571D01*
X71643428Y-82240285D01*
X71929142Y-82383142D01*
X72357714Y-82383142D01*
X72643428Y-82240285D01*
X72786285Y-82097428D01*
X74214857Y-80383142D02*
X74214857Y-82383142D01*
X74214857Y-80668857D02*
X74357714Y-80526000D01*
X74643428Y-80383142D01*
X75072000Y-80383142D01*
X75357714Y-80526000D01*
X75500571Y-80811714D01*
X75500571Y-82383142D01*
X76500571Y-80383142D02*
X77643428Y-80383142D01*
X76929142Y-79383142D02*
X76929142Y-81954571D01*
X77072000Y-82240285D01*
X77357714Y-82383142D01*
X77643428Y-82383142D01*
X79786285Y-82240285D02*
X79500571Y-82383142D01*
X78929142Y-82383142D01*
X78643428Y-82240285D01*
X78500571Y-81954571D01*
X78500571Y-80811714D01*
X78643428Y-80526000D01*
X78929142Y-80383142D01*
X79500571Y-80383142D01*
X79786285Y-80526000D01*
X79929142Y-80811714D01*
X79929142Y-81097428D01*
X78500571Y-81383142D01*
X81214857Y-82383142D02*
X81214857Y-80383142D01*
X81214857Y-80954571D02*
X81357714Y-80668857D01*
X81500571Y-80526000D01*
X81786285Y-80383142D01*
X82072000Y-80383142D01*
D10*
X130512857Y-100246571D02*
X130512857Y-98746571D01*
X130870000Y-98746571D01*
X131084285Y-98818000D01*
X131227142Y-98960857D01*
X131298571Y-99103714D01*
X131370000Y-99389428D01*
X131370000Y-99603714D01*
X131298571Y-99889428D01*
X131227142Y-100032285D01*
X131084285Y-100175142D01*
X130870000Y-100246571D01*
X130512857Y-100246571D01*
X132012857Y-100246571D02*
X132012857Y-98746571D01*
X132655714Y-100175142D02*
X132870000Y-100246571D01*
X133227142Y-100246571D01*
X133370000Y-100175142D01*
X133441428Y-100103714D01*
X133512857Y-99960857D01*
X133512857Y-99818000D01*
X133441428Y-99675142D01*
X133370000Y-99603714D01*
X133227142Y-99532285D01*
X132941428Y-99460857D01*
X132798571Y-99389428D01*
X132727142Y-99318000D01*
X132655714Y-99175142D01*
X132655714Y-99032285D01*
X132727142Y-98889428D01*
X132798571Y-98818000D01*
X132941428Y-98746571D01*
X133298571Y-98746571D01*
X133512857Y-98818000D01*
X134155714Y-100246571D02*
X134155714Y-98746571D01*
X134727142Y-98746571D01*
X134870000Y-98818000D01*
X134941428Y-98889428D01*
X135012857Y-99032285D01*
X135012857Y-99246571D01*
X134941428Y-99389428D01*
X134870000Y-99460857D01*
X134727142Y-99532285D01*
X134155714Y-99532285D01*
X136370000Y-100246571D02*
X135655714Y-100246571D01*
X135655714Y-98746571D01*
X136798571Y-99818000D02*
X137512857Y-99818000D01*
X136655714Y-100246571D02*
X137155714Y-98746571D01*
X137655714Y-100246571D01*
X138441428Y-99532285D02*
X138441428Y-100246571D01*
X137941428Y-98746571D02*
X138441428Y-99532285D01*
X138941428Y-98746571D01*
X133211428Y-79926571D02*
X133211428Y-78426571D01*
X133782857Y-78426571D01*
X133925714Y-78498000D01*
X133997142Y-78569428D01*
X134068571Y-78712285D01*
X134068571Y-78926571D01*
X133997142Y-79069428D01*
X133925714Y-79140857D01*
X133782857Y-79212285D01*
X133211428Y-79212285D01*
X135568571Y-79926571D02*
X135068571Y-79212285D01*
X134711428Y-79926571D02*
X134711428Y-78426571D01*
X135282857Y-78426571D01*
X135425714Y-78498000D01*
X135497142Y-78569428D01*
X135568571Y-78712285D01*
X135568571Y-78926571D01*
X135497142Y-79069428D01*
X135425714Y-79140857D01*
X135282857Y-79212285D01*
X134711428Y-79212285D01*
X136497142Y-78426571D02*
X136782857Y-78426571D01*
X136925714Y-78498000D01*
X137068571Y-78640857D01*
X137140000Y-78926571D01*
X137140000Y-79426571D01*
X137068571Y-79712285D01*
X136925714Y-79855142D01*
X136782857Y-79926571D01*
X136497142Y-79926571D01*
X136354285Y-79855142D01*
X136211428Y-79712285D01*
X136140000Y-79426571D01*
X136140000Y-78926571D01*
X136211428Y-78640857D01*
X136354285Y-78498000D01*
X136497142Y-78426571D01*
X138568571Y-78498000D02*
X138425714Y-78426571D01*
X138211428Y-78426571D01*
X137997142Y-78498000D01*
X137854285Y-78640857D01*
X137782857Y-78783714D01*
X137711428Y-79069428D01*
X137711428Y-79283714D01*
X137782857Y-79569428D01*
X137854285Y-79712285D01*
X137997142Y-79855142D01*
X138211428Y-79926571D01*
X138354285Y-79926571D01*
X138568571Y-79855142D01*
X138640000Y-79783714D01*
X138640000Y-79283714D01*
X138354285Y-79283714D01*
D11*
X132754761Y-96877142D02*
X132707142Y-96924761D01*
X132564285Y-96972380D01*
X132469047Y-96972380D01*
X132326190Y-96924761D01*
X132230952Y-96829523D01*
X132183333Y-96734285D01*
X132135714Y-96543809D01*
X132135714Y-96400952D01*
X132183333Y-96210476D01*
X132230952Y-96115238D01*
X132326190Y-96020000D01*
X132469047Y-95972380D01*
X132564285Y-95972380D01*
X132707142Y-96020000D01*
X132754761Y-96067619D01*
X133659523Y-96972380D02*
X133183333Y-96972380D01*
X133183333Y-95972380D01*
X133992857Y-96972380D02*
X133992857Y-95972380D01*
X134564285Y-96972380D02*
X134135714Y-96400952D01*
X134564285Y-95972380D02*
X133992857Y-96543809D01*
X131850000Y-94432380D02*
X131850000Y-93432380D01*
X132088095Y-93432380D01*
X132230952Y-93480000D01*
X132326190Y-93575238D01*
X132373809Y-93670476D01*
X132421428Y-93860952D01*
X132421428Y-94003809D01*
X132373809Y-94194285D01*
X132326190Y-94289523D01*
X132230952Y-94384761D01*
X132088095Y-94432380D01*
X131850000Y-94432380D01*
X132802380Y-94146666D02*
X133278571Y-94146666D01*
X132707142Y-94432380D02*
X133040476Y-93432380D01*
X133373809Y-94432380D01*
X133564285Y-93432380D02*
X134135714Y-93432380D01*
X133850000Y-94432380D02*
X133850000Y-93432380D01*
X134421428Y-94146666D02*
X134897619Y-94146666D01*
X134326190Y-94432380D02*
X134659523Y-93432380D01*
X134992857Y-94432380D01*
X133183333Y-91797142D02*
X133135714Y-91844761D01*
X132992857Y-91892380D01*
X132897619Y-91892380D01*
X132754761Y-91844761D01*
X132659523Y-91749523D01*
X132611904Y-91654285D01*
X132564285Y-91463809D01*
X132564285Y-91320952D01*
X132611904Y-91130476D01*
X132659523Y-91035238D01*
X132754761Y-90940000D01*
X132897619Y-90892380D01*
X132992857Y-90892380D01*
X133135714Y-90940000D01*
X133183333Y-90987619D01*
X133564285Y-91844761D02*
X133707142Y-91892380D01*
X133945238Y-91892380D01*
X134040476Y-91844761D01*
X134088095Y-91797142D01*
X134135714Y-91701904D01*
X134135714Y-91606666D01*
X134088095Y-91511428D01*
X134040476Y-91463809D01*
X133945238Y-91416190D01*
X133754761Y-91368571D01*
X133659523Y-91320952D01*
X133611904Y-91273333D01*
X133564285Y-91178095D01*
X133564285Y-91082857D01*
X133611904Y-90987619D01*
X133659523Y-90940000D01*
X133754761Y-90892380D01*
X133992857Y-90892380D01*
X134135714Y-90940000D01*
X132016666Y-88352380D02*
X132350000Y-89352380D01*
X132683333Y-88352380D01*
X133588095Y-89257142D02*
X133540476Y-89304761D01*
X133397619Y-89352380D01*
X133302380Y-89352380D01*
X133159523Y-89304761D01*
X133064285Y-89209523D01*
X133016666Y-89114285D01*
X132969047Y-88923809D01*
X132969047Y-88780952D01*
X133016666Y-88590476D01*
X133064285Y-88495238D01*
X133159523Y-88400000D01*
X133302380Y-88352380D01*
X133397619Y-88352380D01*
X133540476Y-88400000D01*
X133588095Y-88447619D01*
X134588095Y-89257142D02*
X134540476Y-89304761D01*
X134397619Y-89352380D01*
X134302380Y-89352380D01*
X134159523Y-89304761D01*
X134064285Y-89209523D01*
X134016666Y-89114285D01*
X133969047Y-88923809D01*
X133969047Y-88780952D01*
X134016666Y-88590476D01*
X134064285Y-88495238D01*
X134159523Y-88400000D01*
X134302380Y-88352380D01*
X134397619Y-88352380D01*
X134540476Y-88400000D01*
X134588095Y-88447619D01*
X132588095Y-85860000D02*
X132492857Y-85812380D01*
X132350000Y-85812380D01*
X132207142Y-85860000D01*
X132111904Y-85955238D01*
X132064285Y-86050476D01*
X132016666Y-86240952D01*
X132016666Y-86383809D01*
X132064285Y-86574285D01*
X132111904Y-86669523D01*
X132207142Y-86764761D01*
X132350000Y-86812380D01*
X132445238Y-86812380D01*
X132588095Y-86764761D01*
X132635714Y-86717142D01*
X132635714Y-86383809D01*
X132445238Y-86383809D01*
X133064285Y-86812380D02*
X133064285Y-85812380D01*
X133635714Y-86812380D01*
X133635714Y-85812380D01*
X134111904Y-86812380D02*
X134111904Y-85812380D01*
X134350000Y-85812380D01*
X134492857Y-85860000D01*
X134588095Y-85955238D01*
X134635714Y-86050476D01*
X134683333Y-86240952D01*
X134683333Y-86383809D01*
X134635714Y-86574285D01*
X134588095Y-86669523D01*
X134492857Y-86764761D01*
X134350000Y-86812380D01*
X134111904Y-86812380D01*
X131826190Y-75652380D02*
X131826190Y-76461904D01*
X131873809Y-76557142D01*
X131921428Y-76604761D01*
X132016666Y-76652380D01*
X132207142Y-76652380D01*
X132302380Y-76604761D01*
X132350000Y-76557142D01*
X132397619Y-76461904D01*
X132397619Y-75652380D01*
X132873809Y-76652380D02*
X132873809Y-75652380D01*
X133254761Y-75652380D01*
X133350000Y-75700000D01*
X133397619Y-75747619D01*
X133445238Y-75842857D01*
X133445238Y-75985714D01*
X133397619Y-76080952D01*
X133350000Y-76128571D01*
X133254761Y-76176190D01*
X132873809Y-76176190D01*
X133873809Y-76652380D02*
X133873809Y-75652380D01*
X134111904Y-75652380D01*
X134254761Y-75700000D01*
X134350000Y-75795238D01*
X134397619Y-75890476D01*
X134445238Y-76080952D01*
X134445238Y-76223809D01*
X134397619Y-76414285D01*
X134350000Y-76509523D01*
X134254761Y-76604761D01*
X134111904Y-76652380D01*
X133873809Y-76652380D01*
X134873809Y-76652380D02*
X134873809Y-75652380D01*
X132016666Y-73112380D02*
X132350000Y-74112380D01*
X132683333Y-73112380D01*
X133588095Y-74017142D02*
X133540476Y-74064761D01*
X133397619Y-74112380D01*
X133302380Y-74112380D01*
X133159523Y-74064761D01*
X133064285Y-73969523D01*
X133016666Y-73874285D01*
X132969047Y-73683809D01*
X132969047Y-73540952D01*
X133016666Y-73350476D01*
X133064285Y-73255238D01*
X133159523Y-73160000D01*
X133302380Y-73112380D01*
X133397619Y-73112380D01*
X133540476Y-73160000D01*
X133588095Y-73207619D01*
X134588095Y-74017142D02*
X134540476Y-74064761D01*
X134397619Y-74112380D01*
X134302380Y-74112380D01*
X134159523Y-74064761D01*
X134064285Y-73969523D01*
X134016666Y-73874285D01*
X133969047Y-73683809D01*
X133969047Y-73540952D01*
X134016666Y-73350476D01*
X134064285Y-73255238D01*
X134159523Y-73160000D01*
X134302380Y-73112380D01*
X134397619Y-73112380D01*
X134540476Y-73160000D01*
X134588095Y-73207619D01*
X132588095Y-70620000D02*
X132492857Y-70572380D01*
X132350000Y-70572380D01*
X132207142Y-70620000D01*
X132111904Y-70715238D01*
X132064285Y-70810476D01*
X132016666Y-71000952D01*
X132016666Y-71143809D01*
X132064285Y-71334285D01*
X132111904Y-71429523D01*
X132207142Y-71524761D01*
X132350000Y-71572380D01*
X132445238Y-71572380D01*
X132588095Y-71524761D01*
X132635714Y-71477142D01*
X132635714Y-71143809D01*
X132445238Y-71143809D01*
X133064285Y-71572380D02*
X133064285Y-70572380D01*
X133635714Y-71572380D01*
X133635714Y-70572380D01*
X134111904Y-71572380D02*
X134111904Y-70572380D01*
X134350000Y-70572380D01*
X134492857Y-70620000D01*
X134588095Y-70715238D01*
X134635714Y-70810476D01*
X134683333Y-71000952D01*
X134683333Y-71143809D01*
X134635714Y-71334285D01*
X134588095Y-71429523D01*
X134492857Y-71524761D01*
X134350000Y-71572380D01*
X134111904Y-71572380D01*
D10*
X84586000Y-54272571D02*
X84086000Y-53558285D01*
X83728857Y-54272571D02*
X83728857Y-52772571D01*
X84300285Y-52772571D01*
X84443142Y-52844000D01*
X84514571Y-52915428D01*
X84586000Y-53058285D01*
X84586000Y-53272571D01*
X84514571Y-53415428D01*
X84443142Y-53486857D01*
X84300285Y-53558285D01*
X83728857Y-53558285D01*
X85086000Y-52772571D02*
X86086000Y-54272571D01*
X86086000Y-52772571D02*
X85086000Y-54272571D01*
X63714857Y-108231714D02*
X63643428Y-108303142D01*
X63429142Y-108374571D01*
X63286285Y-108374571D01*
X63072000Y-108303142D01*
X62929142Y-108160285D01*
X62857714Y-108017428D01*
X62786285Y-107731714D01*
X62786285Y-107517428D01*
X62857714Y-107231714D01*
X62929142Y-107088857D01*
X63072000Y-106946000D01*
X63286285Y-106874571D01*
X63429142Y-106874571D01*
X63643428Y-106946000D01*
X63714857Y-107017428D01*
X64643428Y-106874571D02*
X64929142Y-106874571D01*
X65072000Y-106946000D01*
X65214857Y-107088857D01*
X65286285Y-107374571D01*
X65286285Y-107874571D01*
X65214857Y-108160285D01*
X65072000Y-108303142D01*
X64929142Y-108374571D01*
X64643428Y-108374571D01*
X64500571Y-108303142D01*
X64357714Y-108160285D01*
X64286285Y-107874571D01*
X64286285Y-107374571D01*
X64357714Y-107088857D01*
X64500571Y-106946000D01*
X64643428Y-106874571D01*
X65929142Y-106874571D02*
X65929142Y-108088857D01*
X66000571Y-108231714D01*
X66072000Y-108303142D01*
X66214857Y-108374571D01*
X66500571Y-108374571D01*
X66643428Y-108303142D01*
X66714857Y-108231714D01*
X66786285Y-108088857D01*
X66786285Y-106874571D01*
X67500571Y-108374571D02*
X67500571Y-106874571D01*
X68357714Y-108374571D01*
X68357714Y-106874571D01*
X68857714Y-106874571D02*
X69714857Y-106874571D01*
X69286285Y-108374571D02*
X69286285Y-106874571D01*
X70214857Y-108374571D02*
X70214857Y-106874571D01*
X70929142Y-108374571D02*
X70929142Y-106874571D01*
X71786285Y-108374571D01*
X71786285Y-106874571D01*
X73286285Y-106946000D02*
X73143428Y-106874571D01*
X72929142Y-106874571D01*
X72714857Y-106946000D01*
X72572000Y-107088857D01*
X72500571Y-107231714D01*
X72429142Y-107517428D01*
X72429142Y-107731714D01*
X72500571Y-108017428D01*
X72572000Y-108160285D01*
X72714857Y-108303142D01*
X72929142Y-108374571D01*
X73072000Y-108374571D01*
X73286285Y-108303142D01*
X73357714Y-108231714D01*
X73357714Y-107731714D01*
X73072000Y-107731714D01*
X54257142Y-97706571D02*
X54257142Y-96206571D01*
X54971428Y-97706571D02*
X54971428Y-96206571D01*
X55828571Y-97706571D01*
X55828571Y-96206571D01*
X56542857Y-97706571D02*
X56542857Y-96206571D01*
X57114285Y-96206571D01*
X57257142Y-96278000D01*
X57328571Y-96349428D01*
X57400000Y-96492285D01*
X57400000Y-96706571D01*
X57328571Y-96849428D01*
X57257142Y-96920857D01*
X57114285Y-96992285D01*
X56542857Y-96992285D01*
X58042857Y-96206571D02*
X58042857Y-97420857D01*
X58114285Y-97563714D01*
X58185714Y-97635142D01*
X58328571Y-97706571D01*
X58614285Y-97706571D01*
X58757142Y-97635142D01*
X58828571Y-97563714D01*
X58900000Y-97420857D01*
X58900000Y-96206571D01*
X59400000Y-96206571D02*
X60257142Y-96206571D01*
X59828571Y-97706571D02*
X59828571Y-96206571D01*
X61813714Y-54272571D02*
X61813714Y-52772571D01*
X62385142Y-52772571D01*
X62528000Y-52844000D01*
X62599428Y-52915428D01*
X62670857Y-53058285D01*
X62670857Y-53272571D01*
X62599428Y-53415428D01*
X62528000Y-53486857D01*
X62385142Y-53558285D01*
X61813714Y-53558285D01*
X63599428Y-52772571D02*
X63885142Y-52772571D01*
X64028000Y-52844000D01*
X64170857Y-52986857D01*
X64242285Y-53272571D01*
X64242285Y-53772571D01*
X64170857Y-54058285D01*
X64028000Y-54201142D01*
X63885142Y-54272571D01*
X63599428Y-54272571D01*
X63456571Y-54201142D01*
X63313714Y-54058285D01*
X63242285Y-53772571D01*
X63242285Y-53272571D01*
X63313714Y-52986857D01*
X63456571Y-52844000D01*
X63599428Y-52772571D01*
X64742285Y-52772571D02*
X65099428Y-54272571D01*
X65385142Y-53201142D01*
X65670857Y-54272571D01*
X66028000Y-52772571D01*
X66599428Y-53486857D02*
X67099428Y-53486857D01*
X67313714Y-54272571D02*
X66599428Y-54272571D01*
X66599428Y-52772571D01*
X67313714Y-52772571D01*
X68813714Y-54272571D02*
X68313714Y-53558285D01*
X67956571Y-54272571D02*
X67956571Y-52772571D01*
X68528000Y-52772571D01*
X68670857Y-52844000D01*
X68742285Y-52915428D01*
X68813714Y-53058285D01*
X68813714Y-53272571D01*
X68742285Y-53415428D01*
X68670857Y-53486857D01*
X68528000Y-53558285D01*
X67956571Y-53558285D01*
X89281142Y-52772571D02*
X90138285Y-52772571D01*
X89709714Y-54272571D02*
X89709714Y-52772571D01*
X90495428Y-52772571D02*
X91495428Y-54272571D01*
X91495428Y-52772571D02*
X90495428Y-54272571D01*
X116947428Y-54272571D02*
X116447428Y-53558285D01*
X116090285Y-54272571D02*
X116090285Y-52772571D01*
X116661714Y-52772571D01*
X116804571Y-52844000D01*
X116876000Y-52915428D01*
X116947428Y-53058285D01*
X116947428Y-53272571D01*
X116876000Y-53415428D01*
X116804571Y-53486857D01*
X116661714Y-53558285D01*
X116090285Y-53558285D01*
X117590285Y-53486857D02*
X118090285Y-53486857D01*
X118304571Y-54272571D02*
X117590285Y-54272571D01*
X117590285Y-52772571D01*
X118304571Y-52772571D01*
X118876000Y-54201142D02*
X119090285Y-54272571D01*
X119447428Y-54272571D01*
X119590285Y-54201142D01*
X119661714Y-54129714D01*
X119733142Y-53986857D01*
X119733142Y-53844000D01*
X119661714Y-53701142D01*
X119590285Y-53629714D01*
X119447428Y-53558285D01*
X119161714Y-53486857D01*
X119018857Y-53415428D01*
X118947428Y-53344000D01*
X118876000Y-53201142D01*
X118876000Y-53058285D01*
X118947428Y-52915428D01*
X119018857Y-52844000D01*
X119161714Y-52772571D01*
X119518857Y-52772571D01*
X119733142Y-52844000D01*
X120376000Y-53486857D02*
X120876000Y-53486857D01*
X121090285Y-54272571D02*
X120376000Y-54272571D01*
X120376000Y-52772571D01*
X121090285Y-52772571D01*
X121518857Y-52772571D02*
X122376000Y-52772571D01*
X121947428Y-54272571D02*
X121947428Y-52772571D01*
D11*
X118046666Y-62320761D02*
X118189523Y-62368380D01*
X118427619Y-62368380D01*
X118522857Y-62320761D01*
X118570476Y-62273142D01*
X118618095Y-62177904D01*
X118618095Y-62082666D01*
X118570476Y-61987428D01*
X118522857Y-61939809D01*
X118427619Y-61892190D01*
X118237142Y-61844571D01*
X118141904Y-61796952D01*
X118094285Y-61749333D01*
X118046666Y-61654095D01*
X118046666Y-61558857D01*
X118094285Y-61463619D01*
X118141904Y-61416000D01*
X118237142Y-61368380D01*
X118475238Y-61368380D01*
X118618095Y-61416000D01*
X118951428Y-61368380D02*
X119189523Y-62368380D01*
X119380000Y-61654095D01*
X119570476Y-62368380D01*
X119808571Y-61368380D01*
X120713333Y-62368380D02*
X120141904Y-62368380D01*
X120427619Y-62368380D02*
X120427619Y-61368380D01*
X120332380Y-61511238D01*
X120237142Y-61606476D01*
X120141904Y-61654095D01*
X67397333Y-95702380D02*
X67064000Y-95226190D01*
X66825904Y-95702380D02*
X66825904Y-94702380D01*
X67206857Y-94702380D01*
X67302095Y-94750000D01*
X67349714Y-94797619D01*
X67397333Y-94892857D01*
X67397333Y-95035714D01*
X67349714Y-95130952D01*
X67302095Y-95178571D01*
X67206857Y-95226190D01*
X66825904Y-95226190D01*
X68349714Y-95702380D02*
X67778285Y-95702380D01*
X68064000Y-95702380D02*
X68064000Y-94702380D01*
X67968761Y-94845238D01*
X67873523Y-94940476D01*
X67778285Y-94988095D01*
X136826666Y-83482380D02*
X136826666Y-84196666D01*
X136779047Y-84339523D01*
X136683809Y-84434761D01*
X136540952Y-84482380D01*
X136445714Y-84482380D01*
X137731428Y-83815714D02*
X137731428Y-84482380D01*
X137493333Y-83434761D02*
X137255238Y-84149047D01*
X137874285Y-84149047D01*
X80351333Y-96734380D02*
X80018000Y-96258190D01*
X79779904Y-96734380D02*
X79779904Y-95734380D01*
X80160857Y-95734380D01*
X80256095Y-95782000D01*
X80303714Y-95829619D01*
X80351333Y-95924857D01*
X80351333Y-96067714D01*
X80303714Y-96162952D01*
X80256095Y-96210571D01*
X80160857Y-96258190D01*
X79779904Y-96258190D01*
X81208476Y-95734380D02*
X81018000Y-95734380D01*
X80922761Y-95782000D01*
X80875142Y-95829619D01*
X80779904Y-95972476D01*
X80732285Y-96162952D01*
X80732285Y-96543904D01*
X80779904Y-96639142D01*
X80827523Y-96686761D01*
X80922761Y-96734380D01*
X81113238Y-96734380D01*
X81208476Y-96686761D01*
X81256095Y-96639142D01*
X81303714Y-96543904D01*
X81303714Y-96305809D01*
X81256095Y-96210571D01*
X81208476Y-96162952D01*
X81113238Y-96115333D01*
X80922761Y-96115333D01*
X80827523Y-96162952D01*
X80779904Y-96210571D01*
X80732285Y-96305809D01*
X71207333Y-103830380D02*
X70874000Y-103354190D01*
X70635904Y-103830380D02*
X70635904Y-102830380D01*
X71016857Y-102830380D01*
X71112095Y-102878000D01*
X71159714Y-102925619D01*
X71207333Y-103020857D01*
X71207333Y-103163714D01*
X71159714Y-103258952D01*
X71112095Y-103306571D01*
X71016857Y-103354190D01*
X70635904Y-103354190D01*
X71778761Y-103258952D02*
X71683523Y-103211333D01*
X71635904Y-103163714D01*
X71588285Y-103068476D01*
X71588285Y-103020857D01*
X71635904Y-102925619D01*
X71683523Y-102878000D01*
X71778761Y-102830380D01*
X71969238Y-102830380D01*
X72064476Y-102878000D01*
X72112095Y-102925619D01*
X72159714Y-103020857D01*
X72159714Y-103068476D01*
X72112095Y-103163714D01*
X72064476Y-103211333D01*
X71969238Y-103258952D01*
X71778761Y-103258952D01*
X71683523Y-103306571D01*
X71635904Y-103354190D01*
X71588285Y-103449428D01*
X71588285Y-103639904D01*
X71635904Y-103735142D01*
X71683523Y-103782761D01*
X71778761Y-103830380D01*
X71969238Y-103830380D01*
X72064476Y-103782761D01*
X72112095Y-103735142D01*
X72159714Y-103639904D01*
X72159714Y-103449428D01*
X72112095Y-103354190D01*
X72064476Y-103306571D01*
X71969238Y-103258952D01*
X78827333Y-56237142D02*
X78779714Y-56284761D01*
X78636857Y-56332380D01*
X78541619Y-56332380D01*
X78398761Y-56284761D01*
X78303523Y-56189523D01*
X78255904Y-56094285D01*
X78208285Y-55903809D01*
X78208285Y-55760952D01*
X78255904Y-55570476D01*
X78303523Y-55475238D01*
X78398761Y-55380000D01*
X78541619Y-55332380D01*
X78636857Y-55332380D01*
X78779714Y-55380000D01*
X78827333Y-55427619D01*
X79684476Y-55332380D02*
X79494000Y-55332380D01*
X79398761Y-55380000D01*
X79351142Y-55427619D01*
X79255904Y-55570476D01*
X79208285Y-55760952D01*
X79208285Y-56141904D01*
X79255904Y-56237142D01*
X79303523Y-56284761D01*
X79398761Y-56332380D01*
X79589238Y-56332380D01*
X79684476Y-56284761D01*
X79732095Y-56237142D01*
X79779714Y-56141904D01*
X79779714Y-55903809D01*
X79732095Y-55808571D01*
X79684476Y-55760952D01*
X79589238Y-55713333D01*
X79398761Y-55713333D01*
X79303523Y-55760952D01*
X79255904Y-55808571D01*
X79208285Y-55903809D01*
X71651904Y-87066380D02*
X71651904Y-86066380D01*
X71890000Y-86066380D01*
X72032857Y-86114000D01*
X72128095Y-86209238D01*
X72175714Y-86304476D01*
X72223333Y-86494952D01*
X72223333Y-86637809D01*
X72175714Y-86828285D01*
X72128095Y-86923523D01*
X72032857Y-87018761D01*
X71890000Y-87066380D01*
X71651904Y-87066380D01*
X73175714Y-87066380D02*
X72604285Y-87066380D01*
X72890000Y-87066380D02*
X72890000Y-86066380D01*
X72794761Y-86209238D01*
X72699523Y-86304476D01*
X72604285Y-86352095D01*
X101354095Y-70225380D02*
X101925523Y-70225380D01*
X101639809Y-71225380D02*
X101639809Y-70225380D01*
X102258857Y-71225380D02*
X102258857Y-70225380D01*
X102639809Y-70225380D01*
X102735047Y-70273000D01*
X102782666Y-70320619D01*
X102830285Y-70415857D01*
X102830285Y-70558714D01*
X102782666Y-70653952D01*
X102735047Y-70701571D01*
X102639809Y-70749190D01*
X102258857Y-70749190D01*
X103687428Y-70558714D02*
X103687428Y-71225380D01*
X103449333Y-70177761D02*
X103211238Y-70892047D01*
X103830285Y-70892047D01*
X66889333Y-74112380D02*
X66556000Y-73636190D01*
X66317904Y-74112380D02*
X66317904Y-73112380D01*
X66698857Y-73112380D01*
X66794095Y-73160000D01*
X66841714Y-73207619D01*
X66889333Y-73302857D01*
X66889333Y-73445714D01*
X66841714Y-73540952D01*
X66794095Y-73588571D01*
X66698857Y-73636190D01*
X66317904Y-73636190D01*
X67746476Y-73445714D02*
X67746476Y-74112380D01*
X67508380Y-73064761D02*
X67270285Y-73779047D01*
X67889333Y-73779047D01*
X66825904Y-103830380D02*
X66825904Y-102830380D01*
X67064000Y-102830380D01*
X67206857Y-102878000D01*
X67302095Y-102973238D01*
X67349714Y-103068476D01*
X67397333Y-103258952D01*
X67397333Y-103401809D01*
X67349714Y-103592285D01*
X67302095Y-103687523D01*
X67206857Y-103782761D01*
X67064000Y-103830380D01*
X66825904Y-103830380D01*
X67730666Y-102830380D02*
X68349714Y-102830380D01*
X68016380Y-103211333D01*
X68159238Y-103211333D01*
X68254476Y-103258952D01*
X68302095Y-103306571D01*
X68349714Y-103401809D01*
X68349714Y-103639904D01*
X68302095Y-103735142D01*
X68254476Y-103782761D01*
X68159238Y-103830380D01*
X67873523Y-103830380D01*
X67778285Y-103782761D01*
X67730666Y-103735142D01*
X84097904Y-58490380D02*
X84097904Y-57490380D01*
X84336000Y-57490380D01*
X84478857Y-57538000D01*
X84574095Y-57633238D01*
X84621714Y-57728476D01*
X84669333Y-57918952D01*
X84669333Y-58061809D01*
X84621714Y-58252285D01*
X84574095Y-58347523D01*
X84478857Y-58442761D01*
X84336000Y-58490380D01*
X84097904Y-58490380D01*
X85574095Y-57490380D02*
X85097904Y-57490380D01*
X85050285Y-57966571D01*
X85097904Y-57918952D01*
X85193142Y-57871333D01*
X85431238Y-57871333D01*
X85526476Y-57918952D01*
X85574095Y-57966571D01*
X85621714Y-58061809D01*
X85621714Y-58299904D01*
X85574095Y-58395142D01*
X85526476Y-58442761D01*
X85431238Y-58490380D01*
X85193142Y-58490380D01*
X85097904Y-58442761D01*
X85050285Y-58395142D01*
X89676904Y-58490380D02*
X89676904Y-57490380D01*
X89915000Y-57490380D01*
X90057857Y-57538000D01*
X90153095Y-57633238D01*
X90200714Y-57728476D01*
X90248333Y-57918952D01*
X90248333Y-58061809D01*
X90200714Y-58252285D01*
X90153095Y-58347523D01*
X90057857Y-58442761D01*
X89915000Y-58490380D01*
X89676904Y-58490380D01*
X91105476Y-57490380D02*
X90915000Y-57490380D01*
X90819761Y-57538000D01*
X90772142Y-57585619D01*
X90676904Y-57728476D01*
X90629285Y-57918952D01*
X90629285Y-58299904D01*
X90676904Y-58395142D01*
X90724523Y-58442761D01*
X90819761Y-58490380D01*
X91010238Y-58490380D01*
X91105476Y-58442761D01*
X91153095Y-58395142D01*
X91200714Y-58299904D01*
X91200714Y-58061809D01*
X91153095Y-57966571D01*
X91105476Y-57918952D01*
X91010238Y-57871333D01*
X90819761Y-57871333D01*
X90724523Y-57918952D01*
X90676904Y-57966571D01*
X90629285Y-58061809D01*
X65365333Y-62428380D02*
X65032000Y-61952190D01*
X64793904Y-62428380D02*
X64793904Y-61428380D01*
X65174857Y-61428380D01*
X65270095Y-61476000D01*
X65317714Y-61523619D01*
X65365333Y-61618857D01*
X65365333Y-61761714D01*
X65317714Y-61856952D01*
X65270095Y-61904571D01*
X65174857Y-61952190D01*
X64793904Y-61952190D01*
X65698666Y-61428380D02*
X66365333Y-61428380D01*
X65936761Y-62428380D01*
X64793904Y-58618380D02*
X64793904Y-57618380D01*
X65032000Y-57618380D01*
X65174857Y-57666000D01*
X65270095Y-57761238D01*
X65317714Y-57856476D01*
X65365333Y-58046952D01*
X65365333Y-58189809D01*
X65317714Y-58380285D01*
X65270095Y-58475523D01*
X65174857Y-58570761D01*
X65032000Y-58618380D01*
X64793904Y-58618380D01*
X66222476Y-57951714D02*
X66222476Y-58618380D01*
X65984380Y-57570761D02*
X65746285Y-58285047D01*
X66365333Y-58285047D01*
X118378904Y-80082380D02*
X118378904Y-79082380D01*
X118617000Y-79082380D01*
X118759857Y-79130000D01*
X118855095Y-79225238D01*
X118902714Y-79320476D01*
X118950333Y-79510952D01*
X118950333Y-79653809D01*
X118902714Y-79844285D01*
X118855095Y-79939523D01*
X118759857Y-80034761D01*
X118617000Y-80082380D01*
X118378904Y-80082380D01*
X119283666Y-79082380D02*
X119950333Y-79082380D01*
X119521761Y-80082380D01*
X108966095Y-64476380D02*
X108966095Y-65285904D01*
X109013714Y-65381142D01*
X109061333Y-65428761D01*
X109156571Y-65476380D01*
X109347047Y-65476380D01*
X109442285Y-65428761D01*
X109489904Y-65381142D01*
X109537523Y-65285904D01*
X109537523Y-64476380D01*
X110489904Y-64476380D02*
X110013714Y-64476380D01*
X109966095Y-64952571D01*
X110013714Y-64904952D01*
X110108952Y-64857333D01*
X110347047Y-64857333D01*
X110442285Y-64904952D01*
X110489904Y-64952571D01*
X110537523Y-65047809D01*
X110537523Y-65285904D01*
X110489904Y-65381142D01*
X110442285Y-65428761D01*
X110347047Y-65476380D01*
X110108952Y-65476380D01*
X110013714Y-65428761D01*
X109966095Y-65381142D01*
X80351333Y-87066380D02*
X80018000Y-86590190D01*
X79779904Y-87066380D02*
X79779904Y-86066380D01*
X80160857Y-86066380D01*
X80256095Y-86114000D01*
X80303714Y-86161619D01*
X80351333Y-86256857D01*
X80351333Y-86399714D01*
X80303714Y-86494952D01*
X80256095Y-86542571D01*
X80160857Y-86590190D01*
X79779904Y-86590190D01*
X81256095Y-86066380D02*
X80779904Y-86066380D01*
X80732285Y-86542571D01*
X80779904Y-86494952D01*
X80875142Y-86447333D01*
X81113238Y-86447333D01*
X81208476Y-86494952D01*
X81256095Y-86542571D01*
X81303714Y-86637809D01*
X81303714Y-86875904D01*
X81256095Y-86971142D01*
X81208476Y-87018761D01*
X81113238Y-87066380D01*
X80875142Y-87066380D01*
X80779904Y-87018761D01*
X80732285Y-86971142D01*
X68667333Y-90368380D02*
X68334000Y-89892190D01*
X68095904Y-90368380D02*
X68095904Y-89368380D01*
X68476857Y-89368380D01*
X68572095Y-89416000D01*
X68619714Y-89463619D01*
X68667333Y-89558857D01*
X68667333Y-89701714D01*
X68619714Y-89796952D01*
X68572095Y-89844571D01*
X68476857Y-89892190D01*
X68095904Y-89892190D01*
X69048285Y-89463619D02*
X69095904Y-89416000D01*
X69191142Y-89368380D01*
X69429238Y-89368380D01*
X69524476Y-89416000D01*
X69572095Y-89463619D01*
X69619714Y-89558857D01*
X69619714Y-89654095D01*
X69572095Y-89796952D01*
X69000666Y-90368380D01*
X69619714Y-90368380D01*
X136826666Y-68242380D02*
X136826666Y-68956666D01*
X136779047Y-69099523D01*
X136683809Y-69194761D01*
X136540952Y-69242380D01*
X136445714Y-69242380D01*
X137207619Y-68242380D02*
X137826666Y-68242380D01*
X137493333Y-68623333D01*
X137636190Y-68623333D01*
X137731428Y-68670952D01*
X137779047Y-68718571D01*
X137826666Y-68813809D01*
X137826666Y-69051904D01*
X137779047Y-69147142D01*
X137731428Y-69194761D01*
X137636190Y-69242380D01*
X137350476Y-69242380D01*
X137255238Y-69194761D01*
X137207619Y-69147142D01*
X76308833Y-87577142D02*
X76261214Y-87624761D01*
X76118357Y-87672380D01*
X76023119Y-87672380D01*
X75880261Y-87624761D01*
X75785023Y-87529523D01*
X75737404Y-87434285D01*
X75689785Y-87243809D01*
X75689785Y-87100952D01*
X75737404Y-86910476D01*
X75785023Y-86815238D01*
X75880261Y-86720000D01*
X76023119Y-86672380D01*
X76118357Y-86672380D01*
X76261214Y-86720000D01*
X76308833Y-86767619D01*
X77165976Y-87005714D02*
X77165976Y-87672380D01*
X76927880Y-86624761D02*
X76689785Y-87339047D01*
X77308833Y-87339047D01*
X87884095Y-92280380D02*
X87884095Y-93089904D01*
X87931714Y-93185142D01*
X87979333Y-93232761D01*
X88074571Y-93280380D01*
X88265047Y-93280380D01*
X88360285Y-93232761D01*
X88407904Y-93185142D01*
X88455523Y-93089904D01*
X88455523Y-92280380D01*
X89360285Y-92613714D02*
X89360285Y-93280380D01*
X89122190Y-92232761D02*
X88884095Y-92947047D01*
X89503142Y-92947047D01*
X111625142Y-59126380D02*
X111291809Y-58650190D01*
X111053714Y-59126380D02*
X111053714Y-58126380D01*
X111434666Y-58126380D01*
X111529904Y-58174000D01*
X111577523Y-58221619D01*
X111625142Y-58316857D01*
X111625142Y-58459714D01*
X111577523Y-58554952D01*
X111529904Y-58602571D01*
X111434666Y-58650190D01*
X111053714Y-58650190D01*
X112577523Y-59126380D02*
X112006095Y-59126380D01*
X112291809Y-59126380D02*
X112291809Y-58126380D01*
X112196571Y-58269238D01*
X112101333Y-58364476D01*
X112006095Y-58412095D01*
X112958476Y-58221619D02*
X113006095Y-58174000D01*
X113101333Y-58126380D01*
X113339428Y-58126380D01*
X113434666Y-58174000D01*
X113482285Y-58221619D01*
X113529904Y-58316857D01*
X113529904Y-58412095D01*
X113482285Y-58554952D01*
X112910857Y-59126380D01*
X113529904Y-59126380D01*
X122547142Y-80082380D02*
X122213809Y-79606190D01*
X121975714Y-80082380D02*
X121975714Y-79082380D01*
X122356666Y-79082380D01*
X122451904Y-79130000D01*
X122499523Y-79177619D01*
X122547142Y-79272857D01*
X122547142Y-79415714D01*
X122499523Y-79510952D01*
X122451904Y-79558571D01*
X122356666Y-79606190D01*
X121975714Y-79606190D01*
X123499523Y-80082380D02*
X122928095Y-80082380D01*
X123213809Y-80082380D02*
X123213809Y-79082380D01*
X123118571Y-79225238D01*
X123023333Y-79320476D01*
X122928095Y-79368095D01*
X124451904Y-80082380D02*
X123880476Y-80082380D01*
X124166190Y-80082380D02*
X124166190Y-79082380D01*
X124070952Y-79225238D01*
X123975714Y-79320476D01*
X123880476Y-79368095D01*
X66810095Y-85812380D02*
X67381523Y-85812380D01*
X67095809Y-86812380D02*
X67095809Y-85812380D01*
X67714857Y-86812380D02*
X67714857Y-85812380D01*
X68095809Y-85812380D01*
X68191047Y-85860000D01*
X68238666Y-85907619D01*
X68286285Y-86002857D01*
X68286285Y-86145714D01*
X68238666Y-86240952D01*
X68191047Y-86288571D01*
X68095809Y-86336190D01*
X67714857Y-86336190D01*
X69238666Y-86812380D02*
X68667238Y-86812380D01*
X68952952Y-86812380D02*
X68952952Y-85812380D01*
X68857714Y-85955238D01*
X68762476Y-86050476D01*
X68667238Y-86098095D01*
X64349333Y-67921142D02*
X64301714Y-67968761D01*
X64158857Y-68016380D01*
X64063619Y-68016380D01*
X63920761Y-67968761D01*
X63825523Y-67873523D01*
X63777904Y-67778285D01*
X63730285Y-67587809D01*
X63730285Y-67444952D01*
X63777904Y-67254476D01*
X63825523Y-67159238D01*
X63920761Y-67064000D01*
X64063619Y-67016380D01*
X64158857Y-67016380D01*
X64301714Y-67064000D01*
X64349333Y-67111619D01*
X65301714Y-68016380D02*
X64730285Y-68016380D01*
X65016000Y-68016380D02*
X65016000Y-67016380D01*
X64920761Y-67159238D01*
X64825523Y-67254476D01*
X64730285Y-67302095D01*
X114641333Y-62587142D02*
X114593714Y-62634761D01*
X114450857Y-62682380D01*
X114355619Y-62682380D01*
X114212761Y-62634761D01*
X114117523Y-62539523D01*
X114069904Y-62444285D01*
X114022285Y-62253809D01*
X114022285Y-62110952D01*
X114069904Y-61920476D01*
X114117523Y-61825238D01*
X114212761Y-61730000D01*
X114355619Y-61682380D01*
X114450857Y-61682380D01*
X114593714Y-61730000D01*
X114641333Y-61777619D01*
X115117523Y-62682380D02*
X115308000Y-62682380D01*
X115403238Y-62634761D01*
X115450857Y-62587142D01*
X115546095Y-62444285D01*
X115593714Y-62253809D01*
X115593714Y-61872857D01*
X115546095Y-61777619D01*
X115498476Y-61730000D01*
X115403238Y-61682380D01*
X115212761Y-61682380D01*
X115117523Y-61730000D01*
X115069904Y-61777619D01*
X115022285Y-61872857D01*
X115022285Y-62110952D01*
X115069904Y-62206190D01*
X115117523Y-62253809D01*
X115212761Y-62301428D01*
X115403238Y-62301428D01*
X115498476Y-62253809D01*
X115546095Y-62206190D01*
X115593714Y-62110952D01*
X76308833Y-93575142D02*
X76261214Y-93622761D01*
X76118357Y-93670380D01*
X76023119Y-93670380D01*
X75880261Y-93622761D01*
X75785023Y-93527523D01*
X75737404Y-93432285D01*
X75689785Y-93241809D01*
X75689785Y-93098952D01*
X75737404Y-92908476D01*
X75785023Y-92813238D01*
X75880261Y-92718000D01*
X76023119Y-92670380D01*
X76118357Y-92670380D01*
X76261214Y-92718000D01*
X76308833Y-92765619D01*
X77213595Y-92670380D02*
X76737404Y-92670380D01*
X76689785Y-93146571D01*
X76737404Y-93098952D01*
X76832642Y-93051333D01*
X77070738Y-93051333D01*
X77165976Y-93098952D01*
X77213595Y-93146571D01*
X77261214Y-93241809D01*
X77261214Y-93479904D01*
X77213595Y-93575142D01*
X77165976Y-93622761D01*
X77070738Y-93670380D01*
X76832642Y-93670380D01*
X76737404Y-93622761D01*
X76689785Y-93575142D01*
X84669333Y-62428380D02*
X84336000Y-61952190D01*
X84097904Y-62428380D02*
X84097904Y-61428380D01*
X84478857Y-61428380D01*
X84574095Y-61476000D01*
X84621714Y-61523619D01*
X84669333Y-61618857D01*
X84669333Y-61761714D01*
X84621714Y-61856952D01*
X84574095Y-61904571D01*
X84478857Y-61952190D01*
X84097904Y-61952190D01*
X85145523Y-62428380D02*
X85336000Y-62428380D01*
X85431238Y-62380761D01*
X85478857Y-62333142D01*
X85574095Y-62190285D01*
X85621714Y-61999809D01*
X85621714Y-61618857D01*
X85574095Y-61523619D01*
X85526476Y-61476000D01*
X85431238Y-61428380D01*
X85240761Y-61428380D01*
X85145523Y-61476000D01*
X85097904Y-61523619D01*
X85050285Y-61618857D01*
X85050285Y-61856952D01*
X85097904Y-61952190D01*
X85145523Y-61999809D01*
X85240761Y-62047428D01*
X85431238Y-62047428D01*
X85526476Y-61999809D01*
X85574095Y-61952190D01*
X85621714Y-61856952D01*
X78827333Y-61317142D02*
X78779714Y-61364761D01*
X78636857Y-61412380D01*
X78541619Y-61412380D01*
X78398761Y-61364761D01*
X78303523Y-61269523D01*
X78255904Y-61174285D01*
X78208285Y-60983809D01*
X78208285Y-60840952D01*
X78255904Y-60650476D01*
X78303523Y-60555238D01*
X78398761Y-60460000D01*
X78541619Y-60412380D01*
X78636857Y-60412380D01*
X78779714Y-60460000D01*
X78827333Y-60507619D01*
X79208285Y-60507619D02*
X79255904Y-60460000D01*
X79351142Y-60412380D01*
X79589238Y-60412380D01*
X79684476Y-60460000D01*
X79732095Y-60507619D01*
X79779714Y-60602857D01*
X79779714Y-60698095D01*
X79732095Y-60840952D01*
X79160666Y-61412380D01*
X79779714Y-61412380D01*
X75642166Y-97242380D02*
X75642166Y-97956666D01*
X75594547Y-98099523D01*
X75499309Y-98194761D01*
X75356452Y-98242380D01*
X75261214Y-98242380D01*
X76118357Y-98242380D02*
X76118357Y-97242380D01*
X76499309Y-97242380D01*
X76594547Y-97290000D01*
X76642166Y-97337619D01*
X76689785Y-97432857D01*
X76689785Y-97575714D01*
X76642166Y-97670952D01*
X76594547Y-97718571D01*
X76499309Y-97766190D01*
X76118357Y-97766190D01*
X77642166Y-98242380D02*
X77070738Y-98242380D01*
X77356452Y-98242380D02*
X77356452Y-97242380D01*
X77261214Y-97385238D01*
X77165976Y-97480476D01*
X77070738Y-97528095D01*
X71651904Y-96972380D02*
X71651904Y-95972380D01*
X71890000Y-95972380D01*
X72032857Y-96020000D01*
X72128095Y-96115238D01*
X72175714Y-96210476D01*
X72223333Y-96400952D01*
X72223333Y-96543809D01*
X72175714Y-96734285D01*
X72128095Y-96829523D01*
X72032857Y-96924761D01*
X71890000Y-96972380D01*
X71651904Y-96972380D01*
X72604285Y-96067619D02*
X72651904Y-96020000D01*
X72747142Y-95972380D01*
X72985238Y-95972380D01*
X73080476Y-96020000D01*
X73128095Y-96067619D01*
X73175714Y-96162857D01*
X73175714Y-96258095D01*
X73128095Y-96400952D01*
X72556666Y-96972380D01*
X73175714Y-96972380D01*
X84836095Y-85952380D02*
X84836095Y-86761904D01*
X84883714Y-86857142D01*
X84931333Y-86904761D01*
X85026571Y-86952380D01*
X85217047Y-86952380D01*
X85312285Y-86904761D01*
X85359904Y-86857142D01*
X85407523Y-86761904D01*
X85407523Y-85952380D01*
X85836095Y-86047619D02*
X85883714Y-86000000D01*
X85978952Y-85952380D01*
X86217047Y-85952380D01*
X86312285Y-86000000D01*
X86359904Y-86047619D01*
X86407523Y-86142857D01*
X86407523Y-86238095D01*
X86359904Y-86380952D01*
X85788476Y-86952380D01*
X86407523Y-86952380D01*
X73914095Y-63206380D02*
X73914095Y-64015904D01*
X73961714Y-64111142D01*
X74009333Y-64158761D01*
X74104571Y-64206380D01*
X74295047Y-64206380D01*
X74390285Y-64158761D01*
X74437904Y-64111142D01*
X74485523Y-64015904D01*
X74485523Y-63206380D01*
X75485523Y-64206380D02*
X74914095Y-64206380D01*
X75199809Y-64206380D02*
X75199809Y-63206380D01*
X75104571Y-63349238D01*
X75009333Y-63444476D01*
X74914095Y-63492095D01*
X89772142Y-62428380D02*
X89438809Y-61952190D01*
X89200714Y-62428380D02*
X89200714Y-61428380D01*
X89581666Y-61428380D01*
X89676904Y-61476000D01*
X89724523Y-61523619D01*
X89772142Y-61618857D01*
X89772142Y-61761714D01*
X89724523Y-61856952D01*
X89676904Y-61904571D01*
X89581666Y-61952190D01*
X89200714Y-61952190D01*
X90724523Y-62428380D02*
X90153095Y-62428380D01*
X90438809Y-62428380D02*
X90438809Y-61428380D01*
X90343571Y-61571238D01*
X90248333Y-61666476D01*
X90153095Y-61714095D01*
X91343571Y-61428380D02*
X91438809Y-61428380D01*
X91534047Y-61476000D01*
X91581666Y-61523619D01*
X91629285Y-61618857D01*
X91676904Y-61809333D01*
X91676904Y-62047428D01*
X91629285Y-62237904D01*
X91581666Y-62333142D01*
X91534047Y-62380761D01*
X91438809Y-62428380D01*
X91343571Y-62428380D01*
X91248333Y-62380761D01*
X91200714Y-62333142D01*
X91153095Y-62237904D01*
X91105476Y-62047428D01*
X91105476Y-61809333D01*
X91153095Y-61618857D01*
X91200714Y-61523619D01*
X91248333Y-61476000D01*
X91343571Y-61428380D01*
X83748666Y-102576380D02*
X83748666Y-103290666D01*
X83701047Y-103433523D01*
X83605809Y-103528761D01*
X83462952Y-103576380D01*
X83367714Y-103576380D01*
X84224857Y-103576380D02*
X84224857Y-102576380D01*
X84605809Y-102576380D01*
X84701047Y-102624000D01*
X84748666Y-102671619D01*
X84796285Y-102766857D01*
X84796285Y-102909714D01*
X84748666Y-103004952D01*
X84701047Y-103052571D01*
X84605809Y-103100190D01*
X84224857Y-103100190D01*
X85177238Y-102671619D02*
X85224857Y-102624000D01*
X85320095Y-102576380D01*
X85558190Y-102576380D01*
X85653428Y-102624000D01*
X85701047Y-102671619D01*
X85748666Y-102766857D01*
X85748666Y-102862095D01*
X85701047Y-103004952D01*
X85129619Y-103576380D01*
X85748666Y-103576380D01*
X74430095Y-102322380D02*
X75001523Y-102322380D01*
X74715809Y-103322380D02*
X74715809Y-102322380D01*
X75334857Y-103322380D02*
X75334857Y-102322380D01*
X75715809Y-102322380D01*
X75811047Y-102370000D01*
X75858666Y-102417619D01*
X75906285Y-102512857D01*
X75906285Y-102655714D01*
X75858666Y-102750952D01*
X75811047Y-102798571D01*
X75715809Y-102846190D01*
X75334857Y-102846190D01*
X76287238Y-102417619D02*
X76334857Y-102370000D01*
X76430095Y-102322380D01*
X76668190Y-102322380D01*
X76763428Y-102370000D01*
X76811047Y-102417619D01*
X76858666Y-102512857D01*
X76858666Y-102608095D01*
X76811047Y-102750952D01*
X76239619Y-103322380D01*
X76858666Y-103322380D01*
X89241333Y-86717142D02*
X89193714Y-86764761D01*
X89050857Y-86812380D01*
X88955619Y-86812380D01*
X88812761Y-86764761D01*
X88717523Y-86669523D01*
X88669904Y-86574285D01*
X88622285Y-86383809D01*
X88622285Y-86240952D01*
X88669904Y-86050476D01*
X88717523Y-85955238D01*
X88812761Y-85860000D01*
X88955619Y-85812380D01*
X89050857Y-85812380D01*
X89193714Y-85860000D01*
X89241333Y-85907619D01*
X89574666Y-85812380D02*
X90241333Y-85812380D01*
X89812761Y-86812380D01*
X77986095Y-102322380D02*
X78557523Y-102322380D01*
X78271809Y-103322380D02*
X78271809Y-102322380D01*
X78890857Y-103322380D02*
X78890857Y-102322380D01*
X79271809Y-102322380D01*
X79367047Y-102370000D01*
X79414666Y-102417619D01*
X79462285Y-102512857D01*
X79462285Y-102655714D01*
X79414666Y-102750952D01*
X79367047Y-102798571D01*
X79271809Y-102846190D01*
X78890857Y-102846190D01*
X79795619Y-102322380D02*
X80414666Y-102322380D01*
X80081333Y-102703333D01*
X80224190Y-102703333D01*
X80319428Y-102750952D01*
X80367047Y-102798571D01*
X80414666Y-102893809D01*
X80414666Y-103131904D01*
X80367047Y-103227142D01*
X80319428Y-103274761D01*
X80224190Y-103322380D01*
X79938476Y-103322380D01*
X79843238Y-103274761D01*
X79795619Y-103227142D01*
X66889333Y-68524380D02*
X66556000Y-68048190D01*
X66317904Y-68524380D02*
X66317904Y-67524380D01*
X66698857Y-67524380D01*
X66794095Y-67572000D01*
X66841714Y-67619619D01*
X66889333Y-67714857D01*
X66889333Y-67857714D01*
X66841714Y-67952952D01*
X66794095Y-68000571D01*
X66698857Y-68048190D01*
X66317904Y-68048190D01*
X67222666Y-67524380D02*
X67841714Y-67524380D01*
X67508380Y-67905333D01*
X67651238Y-67905333D01*
X67746476Y-67952952D01*
X67794095Y-68000571D01*
X67841714Y-68095809D01*
X67841714Y-68333904D01*
X67794095Y-68429142D01*
X67746476Y-68476761D01*
X67651238Y-68524380D01*
X67365523Y-68524380D01*
X67270285Y-68476761D01*
X67222666Y-68429142D01*
X124674333Y-76811142D02*
X124626714Y-76858761D01*
X124483857Y-76906380D01*
X124388619Y-76906380D01*
X124245761Y-76858761D01*
X124150523Y-76763523D01*
X124102904Y-76668285D01*
X124055285Y-76477809D01*
X124055285Y-76334952D01*
X124102904Y-76144476D01*
X124150523Y-76049238D01*
X124245761Y-75954000D01*
X124388619Y-75906380D01*
X124483857Y-75906380D01*
X124626714Y-75954000D01*
X124674333Y-76001619D01*
X125245761Y-76334952D02*
X125150523Y-76287333D01*
X125102904Y-76239714D01*
X125055285Y-76144476D01*
X125055285Y-76096857D01*
X125102904Y-76001619D01*
X125150523Y-75954000D01*
X125245761Y-75906380D01*
X125436238Y-75906380D01*
X125531476Y-75954000D01*
X125579095Y-76001619D01*
X125626714Y-76096857D01*
X125626714Y-76144476D01*
X125579095Y-76239714D01*
X125531476Y-76287333D01*
X125436238Y-76334952D01*
X125245761Y-76334952D01*
X125150523Y-76382571D01*
X125102904Y-76430190D01*
X125055285Y-76525428D01*
X125055285Y-76715904D01*
X125102904Y-76811142D01*
X125150523Y-76858761D01*
X125245761Y-76906380D01*
X125436238Y-76906380D01*
X125531476Y-76858761D01*
X125579095Y-76811142D01*
X125626714Y-76715904D01*
X125626714Y-76525428D01*
X125579095Y-76430190D01*
X125531476Y-76382571D01*
X125436238Y-76334952D01*
X64698666Y-65714571D02*
X64365333Y-65714571D01*
X64365333Y-66238380D02*
X64365333Y-65238380D01*
X64841523Y-65238380D01*
X65555809Y-65714571D02*
X65698666Y-65762190D01*
X65746285Y-65809809D01*
X65793904Y-65905047D01*
X65793904Y-66047904D01*
X65746285Y-66143142D01*
X65698666Y-66190761D01*
X65603428Y-66238380D01*
X65222476Y-66238380D01*
X65222476Y-65238380D01*
X65555809Y-65238380D01*
X65651047Y-65286000D01*
X65698666Y-65333619D01*
X65746285Y-65428857D01*
X65746285Y-65524095D01*
X65698666Y-65619333D01*
X65651047Y-65666952D01*
X65555809Y-65714571D01*
X65222476Y-65714571D01*
X66746285Y-66238380D02*
X66174857Y-66238380D01*
X66460571Y-66238380D02*
X66460571Y-65238380D01*
X66365333Y-65381238D01*
X66270095Y-65476476D01*
X66174857Y-65524095D01*
X74930095Y-66188380D02*
X74930095Y-66997904D01*
X74977714Y-67093142D01*
X75025333Y-67140761D01*
X75120571Y-67188380D01*
X75311047Y-67188380D01*
X75406285Y-67140761D01*
X75453904Y-67093142D01*
X75501523Y-66997904D01*
X75501523Y-66188380D01*
X75882476Y-66188380D02*
X76501523Y-66188380D01*
X76168190Y-66569333D01*
X76311047Y-66569333D01*
X76406285Y-66616952D01*
X76453904Y-66664571D01*
X76501523Y-66759809D01*
X76501523Y-66997904D01*
X76453904Y-67093142D01*
X76406285Y-67140761D01*
X76311047Y-67188380D01*
X76025333Y-67188380D01*
X75930095Y-67140761D01*
X75882476Y-67093142D01*
X64349333Y-74525142D02*
X64301714Y-74572761D01*
X64158857Y-74620380D01*
X64063619Y-74620380D01*
X63920761Y-74572761D01*
X63825523Y-74477523D01*
X63777904Y-74382285D01*
X63730285Y-74191809D01*
X63730285Y-74048952D01*
X63777904Y-73858476D01*
X63825523Y-73763238D01*
X63920761Y-73668000D01*
X64063619Y-73620380D01*
X64158857Y-73620380D01*
X64301714Y-73668000D01*
X64349333Y-73715619D01*
X64682666Y-73620380D02*
X65301714Y-73620380D01*
X64968380Y-74001333D01*
X65111238Y-74001333D01*
X65206476Y-74048952D01*
X65254095Y-74096571D01*
X65301714Y-74191809D01*
X65301714Y-74429904D01*
X65254095Y-74525142D01*
X65206476Y-74572761D01*
X65111238Y-74620380D01*
X64825523Y-74620380D01*
X64730285Y-74572761D01*
X64682666Y-74525142D01*
X123752076Y-73366380D02*
X124418742Y-74366380D01*
X124418742Y-73366380D02*
X123752076Y-74366380D01*
X125323504Y-74366380D02*
X124752076Y-74366380D01*
X125037790Y-74366380D02*
X125037790Y-73366380D01*
X124942552Y-73509238D01*
X124847314Y-73604476D01*
X124752076Y-73652095D01*
D13*
X121080000Y-55866000D02*
X120630000Y-55416000D01*
X120630000Y-55416000D02*
X118130000Y-55416000D01*
X117680000Y-55866000D02*
X118130000Y-55416000D01*
X116630000Y-59166000D02*
X116630000Y-57166000D01*
X122130000Y-59166000D02*
X122130000Y-57166000D01*
X121080000Y-60466000D02*
X120630000Y-60916000D01*
X120630000Y-60916000D02*
X118130000Y-60916000D01*
X117680000Y-60466000D02*
X118130000Y-60916000D01*
X63400000Y-91980000D02*
X63730000Y-91980000D01*
X63730000Y-98520000D02*
X63400000Y-98520000D01*
X63400000Y-98520000D02*
X63400000Y-91980000D01*
X65810000Y-98520000D02*
X66140000Y-98520000D01*
X66140000Y-98520000D02*
X66140000Y-91980000D01*
X66140000Y-91980000D02*
X65810000Y-91980000D01*
X138490000Y-87630000D02*
X138490000Y-97850000D01*
X135830000Y-85030000D02*
X137160000Y-85030000D01*
X135830000Y-87630000D02*
X135830000Y-97850000D01*
X135830000Y-97850000D02*
X138490000Y-97850000D01*
X135830000Y-87630000D02*
X138490000Y-87630000D01*
X135830000Y-86360000D02*
X135830000Y-85030000D01*
X79783000Y-93953064D02*
X79783000Y-93498936D01*
X81253000Y-93953064D02*
X81253000Y-93498936D01*
X71400936Y-104421000D02*
X71855064Y-104421000D01*
X71400936Y-105891000D02*
X71855064Y-105891000D01*
X76227000Y-56141252D02*
X76227000Y-55618748D01*
X77697000Y-56141252D02*
X77697000Y-55618748D01*
X71430000Y-87294000D02*
X71430000Y-90154000D01*
X73350000Y-87294000D02*
X71430000Y-87294000D01*
X73350000Y-90154000D02*
X73350000Y-87294000D01*
X103816000Y-72771000D02*
G75*
G03*
X103816000Y-72771000I-1200000J0D01*
G01*
X65812936Y-72617000D02*
X66267064Y-72617000D01*
X65812936Y-71147000D02*
X66267064Y-71147000D01*
X65704000Y-104196000D02*
X65704000Y-106116000D01*
X65704000Y-106116000D02*
X68564000Y-106116000D01*
X68564000Y-104196000D02*
X65704000Y-104196000D01*
X83836000Y-57348000D02*
X86696000Y-57348000D01*
X86696000Y-57348000D02*
X86696000Y-55428000D01*
X86696000Y-55428000D02*
X83836000Y-55428000D01*
X92275000Y-57348000D02*
X92275000Y-55428000D01*
X89415000Y-57348000D02*
X92275000Y-57348000D01*
X92275000Y-55428000D02*
X89415000Y-55428000D01*
X65304936Y-60933000D02*
X65759064Y-60933000D01*
X65304936Y-59463000D02*
X65759064Y-59463000D01*
X67392000Y-57348000D02*
X67392000Y-55428000D01*
X67392000Y-55428000D02*
X64532000Y-55428000D01*
X64532000Y-57348000D02*
X67392000Y-57348000D01*
X117257000Y-82240000D02*
X120117000Y-82240000D01*
X120117000Y-80320000D02*
X117257000Y-80320000D01*
X117257000Y-80320000D02*
X117257000Y-82240000D01*
D11*
X110675000Y-67495000D02*
X111000000Y-67495000D01*
X110675000Y-74745000D02*
X110675000Y-74420000D01*
X117925000Y-74745000D02*
X117600000Y-74745000D01*
X117925000Y-67495000D02*
X117925000Y-67820000D01*
X117925000Y-67495000D02*
X117600000Y-67495000D01*
X110675000Y-74745000D02*
X111000000Y-74745000D01*
X110675000Y-67720000D02*
X109250000Y-67720000D01*
X117925000Y-74745000D02*
X117925000Y-74420000D01*
X110675000Y-67495000D02*
X110675000Y-67720000D01*
D13*
X79783000Y-89381064D02*
X79783000Y-88926936D01*
X81253000Y-89381064D02*
X81253000Y-88926936D01*
X68622936Y-90705000D02*
X69077064Y-90705000D01*
X68622936Y-92175000D02*
X69077064Y-92175000D01*
X135830000Y-71120000D02*
X135830000Y-69790000D01*
X135830000Y-77530000D02*
X138490000Y-77530000D01*
X138490000Y-72390000D02*
X138490000Y-77530000D01*
X135830000Y-72390000D02*
X135830000Y-77530000D01*
X135830000Y-72390000D02*
X138490000Y-72390000D01*
X135830000Y-69790000D02*
X137160000Y-69790000D01*
X76214248Y-88165000D02*
X76736752Y-88165000D01*
X76214248Y-89635000D02*
X76736752Y-89635000D01*
X88646000Y-93643000D02*
X85046000Y-93643000D01*
X88646000Y-93643000D02*
X90846000Y-93643000D01*
X88646000Y-100413000D02*
X90846000Y-100413000D01*
X88646000Y-100413000D02*
X86446000Y-100413000D01*
X112040936Y-61187000D02*
X112495064Y-61187000D01*
X112040936Y-59717000D02*
X112495064Y-59717000D01*
X122962936Y-80545000D02*
X123417064Y-80545000D01*
X122962936Y-82015000D02*
X123417064Y-82015000D01*
X65970000Y-86360000D02*
G75*
G03*
X65970000Y-86360000I-1200000J0D01*
G01*
X61749000Y-68572748D02*
X61749000Y-69095252D01*
X63219000Y-68572748D02*
X63219000Y-69095252D01*
X116085252Y-63273000D02*
X115562748Y-63273000D01*
X116085252Y-64743000D02*
X115562748Y-64743000D01*
X76214248Y-92175000D02*
X76736752Y-92175000D01*
X76214248Y-90705000D02*
X76736752Y-90705000D01*
X84608936Y-60933000D02*
X85063064Y-60933000D01*
X84608936Y-59463000D02*
X85063064Y-59463000D01*
X77697000Y-60698748D02*
X77697000Y-61221252D01*
X76227000Y-60698748D02*
X76227000Y-61221252D01*
X75775500Y-94504000D02*
X77175500Y-94504000D01*
X75075500Y-95804000D02*
X75075500Y-95204000D01*
X77875500Y-95204000D02*
X77875500Y-95804000D01*
X77175500Y-96504000D02*
X75775500Y-96504000D01*
X75775500Y-94504000D02*
G75*
G03*
X75075500Y-95204000I-1J-699999D01*
G01*
X75075500Y-95804000D02*
G75*
G03*
X75775500Y-96504000I699999J-1D01*
G01*
X77175500Y-96504000D02*
G75*
G03*
X77875500Y-95804000I0J700000D01*
G01*
X77875500Y-95204000D02*
G75*
G03*
X77175500Y-94504000I-700000J0D01*
G01*
X73350000Y-91866000D02*
X71430000Y-91866000D01*
X71430000Y-91866000D02*
X71430000Y-94726000D01*
X73350000Y-94726000D02*
X73350000Y-91866000D01*
X85598000Y-87340000D02*
X86398000Y-87340000D01*
X85598000Y-90460000D02*
X84798000Y-90460000D01*
X85598000Y-87340000D02*
X83798000Y-87340000D01*
X85598000Y-90460000D02*
X86398000Y-90460000D01*
X75292000Y-60270000D02*
X75292000Y-56510000D01*
X68472000Y-62520000D02*
X68472000Y-56510000D01*
X68472000Y-56510000D02*
X69732000Y-56510000D01*
X75292000Y-56510000D02*
X74032000Y-56510000D01*
X55700000Y-88085000D02*
X58600000Y-88085000D01*
X55700000Y-94795000D02*
X58600000Y-94795000D01*
X53795000Y-89990000D02*
X53795000Y-92890000D01*
X60505000Y-89990000D02*
X60505000Y-92890000D01*
X90187936Y-60933000D02*
X90642064Y-60933000D01*
X90187936Y-59463000D02*
X90642064Y-59463000D01*
X83182000Y-105456000D02*
X83182000Y-104856000D01*
X83882000Y-104156000D02*
X85282000Y-104156000D01*
X85282000Y-106156000D02*
X83882000Y-106156000D01*
X85982000Y-104856000D02*
X85982000Y-105456000D01*
X85282000Y-106156000D02*
G75*
G03*
X85982000Y-105456000I0J700000D01*
G01*
X83882000Y-104156000D02*
G75*
G03*
X83182000Y-104856000I-1J-699999D01*
G01*
X85982000Y-104856000D02*
G75*
G03*
X85282000Y-104156000I-700000J0D01*
G01*
X83182000Y-105456000D02*
G75*
G03*
X83882000Y-106156000I699999J-1D01*
G01*
X76892000Y-105156000D02*
G75*
G03*
X76892000Y-105156000I-1200000J0D01*
G01*
X88673000Y-89161252D02*
X88673000Y-88638748D01*
X90143000Y-89161252D02*
X90143000Y-88638748D01*
X80448000Y-105156000D02*
G75*
G03*
X80448000Y-105156000I-1200000J0D01*
G01*
X65812936Y-70585000D02*
X66267064Y-70585000D01*
X65812936Y-69115000D02*
X66267064Y-69115000D01*
X121658748Y-76681000D02*
X122181252Y-76681000D01*
X121658748Y-75211000D02*
X122181252Y-75211000D01*
X65270748Y-63298000D02*
X65793252Y-63298000D01*
X65270748Y-64718000D02*
X65793252Y-64718000D01*
D11*
X77767000Y-76611000D02*
X77767000Y-75501000D01*
X73617000Y-67661000D02*
X77767000Y-67661000D01*
X73617000Y-76611000D02*
X77767000Y-76611000D01*
X73617000Y-76611000D02*
X73617000Y-75501000D01*
X73617000Y-68771000D02*
X73617000Y-67661000D01*
X77767000Y-67661000D02*
X77767000Y-68771000D01*
X73617000Y-68771000D02*
X72492000Y-68771000D01*
D13*
X61749000Y-73159252D02*
X61749000Y-72636748D01*
X63219000Y-73159252D02*
X63219000Y-72636748D01*
X123416000Y-74490000D02*
X123416000Y-70290000D01*
X119916000Y-74490000D02*
X123416000Y-74490000D01*
D14*
X59780000Y-69820000D02*
G75*
G03*
X59880000Y-69820000I50000J0D01*
G01*
X59880000Y-69820000D02*
G75*
G03*
X59780000Y-69820000I-50000J0D01*
G01*
D15*
X58695000Y-73120000D02*
X58695000Y-75020000D01*
X57380000Y-67220000D02*
X58695000Y-67220000D01*
X58695000Y-67220000D02*
X58695000Y-69120000D01*
X53065000Y-75020000D02*
X54380000Y-75020000D01*
X54380000Y-67220000D02*
X53065000Y-67220000D01*
X58695000Y-75020000D02*
X57380000Y-75020000D01*
D14*
X59880000Y-69820000D02*
X59880000Y-69820000D01*
D15*
X53065000Y-67220000D02*
X53065000Y-75020000D01*
D14*
X59780000Y-69820000D02*
X59780000Y-69820000D01*
%LPC*%
D16*
X122530000Y-60066000D03*
X116230000Y-60066000D03*
X116230000Y-56266000D03*
X122530000Y-56266000D03*
D17*
X64770000Y-99060000D03*
D18*
X64770000Y-91440000D03*
D19*
X137160000Y-86360000D03*
D20*
X137160000Y-88900000D03*
X137160000Y-91440000D03*
X137160000Y-93980000D03*
X137160000Y-96520000D03*
D21*
X80518000Y-94726000D03*
X80518000Y-92726000D03*
D22*
X70628000Y-105156000D03*
X72628000Y-105156000D03*
D23*
X55880000Y-106680000D03*
D24*
X76962000Y-56917500D03*
X76962000Y-54842500D03*
D25*
X72390000Y-88129000D03*
X72390000Y-90179000D03*
D26*
X102616000Y-72771000D03*
D22*
X65040000Y-71882000D03*
X67040000Y-71882000D03*
D27*
X66539000Y-105156000D03*
X68589000Y-105156000D03*
D28*
X85861000Y-56388000D03*
X83811000Y-56388000D03*
X91440000Y-56388000D03*
X89390000Y-56388000D03*
D22*
X64532000Y-60198000D03*
X66532000Y-60198000D03*
D28*
X66557000Y-56388000D03*
X64507000Y-56388000D03*
D27*
X118092000Y-81280000D03*
X120142000Y-81280000D03*
D29*
X110050000Y-68320000D03*
X110050000Y-69120000D03*
X110050000Y-69920000D03*
X110050000Y-70720000D03*
X110050000Y-71520000D03*
X110050000Y-72320000D03*
X110050000Y-73120000D03*
X110050000Y-73920000D03*
D30*
X111500000Y-75370000D03*
X112300000Y-75370000D03*
X113100000Y-75370000D03*
X113900000Y-75370000D03*
X114700000Y-75370000D03*
X115500000Y-75370000D03*
X116300000Y-75370000D03*
X117100000Y-75370000D03*
D29*
X118550000Y-73920000D03*
X118550000Y-73120000D03*
X118550000Y-72320000D03*
X118550000Y-71520000D03*
X118550000Y-70720000D03*
X118550000Y-69920000D03*
X118550000Y-69120000D03*
X118550000Y-68320000D03*
D30*
X117100000Y-66870000D03*
X116300000Y-66870000D03*
X115500000Y-66870000D03*
X114700000Y-66870000D03*
X113900000Y-66870000D03*
X113100000Y-66870000D03*
X112300000Y-66870000D03*
X111500000Y-66870000D03*
D21*
X80518000Y-90154000D03*
X80518000Y-88154000D03*
D22*
X67850000Y-91440000D03*
X69850000Y-91440000D03*
D19*
X137160000Y-71120000D03*
D20*
X137160000Y-73660000D03*
X137160000Y-76200000D03*
D31*
X75438000Y-88900000D03*
X77513000Y-88900000D03*
D32*
X85783500Y-94103000D03*
X85783500Y-94753000D03*
X85783500Y-95403000D03*
X85783500Y-96053000D03*
X85783500Y-96703000D03*
X85783500Y-97353000D03*
X85783500Y-98003000D03*
X85783500Y-98653000D03*
X85783500Y-99303000D03*
X85783500Y-99953000D03*
X91508500Y-99953000D03*
X91508500Y-99303000D03*
X91508500Y-98653000D03*
X91508500Y-98003000D03*
X91508500Y-97353000D03*
X91508500Y-96703000D03*
X91508500Y-96053000D03*
X91508500Y-95403000D03*
X91508500Y-94753000D03*
X91508500Y-94103000D03*
D22*
X111268000Y-60452000D03*
X113268000Y-60452000D03*
X122190000Y-81280000D03*
X124190000Y-81280000D03*
D23*
X137160000Y-55880000D03*
D26*
X64770000Y-86360000D03*
D33*
X62484000Y-67796500D03*
X62484000Y-69871500D03*
D34*
X114786500Y-64008000D03*
X116861500Y-64008000D03*
D31*
X75438000Y-91440000D03*
X77513000Y-91440000D03*
D22*
X83836000Y-60198000D03*
X85836000Y-60198000D03*
D33*
X76962000Y-59922500D03*
X76962000Y-61997500D03*
D23*
X137160000Y-106680000D03*
D35*
X75825500Y-95504000D03*
D36*
X77125500Y-95504000D03*
D25*
X72390000Y-92701000D03*
X72390000Y-94751000D03*
D37*
X84460500Y-87950000D03*
X84460500Y-88900000D03*
X84460500Y-89850000D03*
X86735500Y-89850000D03*
X86735500Y-87950000D03*
D38*
X69582000Y-61570000D03*
X71882000Y-61570000D03*
D39*
X71882000Y-55270000D03*
D38*
X74182000Y-61570000D03*
D40*
X57150000Y-91440000D03*
D41*
X54610000Y-88900000D03*
X59690000Y-93980000D03*
X54610000Y-93980000D03*
X59690000Y-88900000D03*
D22*
X89415000Y-60198000D03*
X91415000Y-60198000D03*
D35*
X83932000Y-105156000D03*
D36*
X85232000Y-105156000D03*
D26*
X75692000Y-105156000D03*
D24*
X89408000Y-89937500D03*
X89408000Y-87862500D03*
D26*
X79248000Y-105156000D03*
D22*
X65040000Y-69850000D03*
X67040000Y-69850000D03*
D31*
X120882500Y-75946000D03*
X122957500Y-75946000D03*
D23*
X55880000Y-55880000D03*
D27*
X64507000Y-64008000D03*
X66557000Y-64008000D03*
D42*
X73092000Y-69278500D03*
X73092000Y-69913500D03*
X73092000Y-70548500D03*
X73092000Y-71183500D03*
X73092000Y-71818500D03*
X73092000Y-72453500D03*
X73092000Y-73088500D03*
X73092000Y-73723500D03*
X73092000Y-74358500D03*
X73092000Y-74993500D03*
X78292000Y-74993500D03*
X78292000Y-74358500D03*
X78292000Y-73723500D03*
X78292000Y-73088500D03*
X78292000Y-72453500D03*
X78292000Y-71818500D03*
X78292000Y-71183500D03*
X78292000Y-70548500D03*
X78292000Y-69913500D03*
X78292000Y-69278500D03*
D24*
X62484000Y-73935500D03*
X62484000Y-71860500D03*
D43*
X122616000Y-73590000D03*
X122616000Y-71190000D03*
X120716000Y-71190000D03*
X120716000Y-73590000D03*
D44*
X55845000Y-75070000D03*
X55845000Y-72320000D03*
X55845000Y-69920000D03*
X55845000Y-67170000D03*
D45*
X58520000Y-71770000D03*
X58520000Y-71120000D03*
X58520000Y-70470000D03*
X58520000Y-72420000D03*
X58520000Y-69820000D03*
D46*
X57995000Y-69120000D03*
X57995000Y-73120000D03*
M02*
