G04 #@! TF.GenerationSoftware,KiCad,Pcbnew,(6.0.9)*
G04 #@! TF.CreationDate,2022-12-14T01:21:17-05:00*
G04 #@! TF.ProjectId,usbcounter,75736263-6f75-46e7-9465-722e6b696361,rev?*
G04 #@! TF.SameCoordinates,Original*
G04 #@! TF.FileFunction,Copper,L1,Top*
G04 #@! TF.FilePolarity,Positive*
%FSLAX46Y46*%
G04 Gerber Fmt 4.6, Leading zero omitted, Abs format (unit mm)*
G04 Created by KiCad (PCBNEW (6.0.9)) date 2022-12-14 01:21:17*
%MOMM*%
%LPD*%
G01*
G04 APERTURE LIST*
G04 Aperture macros list*
%AMRoundRect*
0 Rectangle with rounded corners*
0 $1 Rounding radius*
0 $2 $3 $4 $5 $6 $7 $8 $9 X,Y pos of 4 corners*
0 Add a 4 corners polygon primitive as box body*
4,1,4,$2,$3,$4,$5,$6,$7,$8,$9,$2,$3,0*
0 Add four circle primitives for the rounded corners*
1,1,$1+$1,$2,$3*
1,1,$1+$1,$4,$5*
1,1,$1+$1,$6,$7*
1,1,$1+$1,$8,$9*
0 Add four rect primitives between the rounded corners*
20,1,$1+$1,$2,$3,$4,$5,0*
20,1,$1+$1,$4,$5,$6,$7,0*
20,1,$1+$1,$6,$7,$8,$9,0*
20,1,$1+$1,$8,$9,$2,$3,0*%
%AMFreePoly0*
4,1,22,0.500000,-0.750000,0.000000,-0.750000,0.000000,-0.745033,-0.079941,-0.743568,-0.215256,-0.701293,-0.333266,-0.622738,-0.424486,-0.514219,-0.481581,-0.384460,-0.499164,-0.250000,-0.500000,-0.250000,-0.500000,0.250000,-0.499164,0.250000,-0.499963,0.256109,-0.478152,0.396186,-0.417904,0.524511,-0.324060,0.630769,-0.204165,0.706417,-0.067858,0.745374,0.000000,0.744959,0.000000,0.750000,
0.500000,0.750000,0.500000,-0.750000,0.500000,-0.750000,$1*%
%AMFreePoly1*
4,1,20,0.000000,0.744959,0.073905,0.744508,0.209726,0.703889,0.328688,0.626782,0.421226,0.519385,0.479903,0.390333,0.500000,0.250000,0.500000,-0.250000,0.499851,-0.262216,0.476331,-0.402017,0.414519,-0.529596,0.319384,-0.634700,0.198574,-0.708877,0.061801,-0.746166,0.000000,-0.745033,0.000000,-0.750000,-0.500000,-0.750000,-0.500000,0.750000,0.000000,0.750000,0.000000,0.744959,
0.000000,0.744959,$1*%
G04 Aperture macros list end*
%ADD10C,0.300000*%
G04 #@! TA.AperFunction,NonConductor*
%ADD11C,0.300000*%
G04 #@! TD*
G04 #@! TA.AperFunction,SMDPad,CuDef*
%ADD12R,1.700000X1.000000*%
G04 #@! TD*
G04 #@! TA.AperFunction,ComponentPad*
%ADD13C,1.600000*%
G04 #@! TD*
G04 #@! TA.AperFunction,ComponentPad*
%ADD14O,1.600000X1.600000*%
G04 #@! TD*
G04 #@! TA.AperFunction,ComponentPad*
%ADD15R,1.700000X1.700000*%
G04 #@! TD*
G04 #@! TA.AperFunction,ComponentPad*
%ADD16O,1.700000X1.700000*%
G04 #@! TD*
G04 #@! TA.AperFunction,SMDPad,CuDef*
%ADD17RoundRect,0.250000X0.450000X-0.350000X0.450000X0.350000X-0.450000X0.350000X-0.450000X-0.350000X0*%
G04 #@! TD*
G04 #@! TA.AperFunction,SMDPad,CuDef*
%ADD18RoundRect,0.250000X-0.350000X-0.450000X0.350000X-0.450000X0.350000X0.450000X-0.350000X0.450000X0*%
G04 #@! TD*
G04 #@! TA.AperFunction,ComponentPad*
%ADD19C,8.600000*%
G04 #@! TD*
G04 #@! TA.AperFunction,SMDPad,CuDef*
%ADD20RoundRect,0.250000X0.475000X-0.337500X0.475000X0.337500X-0.475000X0.337500X-0.475000X-0.337500X0*%
G04 #@! TD*
G04 #@! TA.AperFunction,SMDPad,CuDef*
%ADD21RoundRect,0.250000X-0.450000X0.325000X-0.450000X-0.325000X0.450000X-0.325000X0.450000X0.325000X0*%
G04 #@! TD*
G04 #@! TA.AperFunction,SMDPad,CuDef*
%ADD22C,2.000000*%
G04 #@! TD*
G04 #@! TA.AperFunction,SMDPad,CuDef*
%ADD23RoundRect,0.250000X-0.325000X-0.450000X0.325000X-0.450000X0.325000X0.450000X-0.325000X0.450000X0*%
G04 #@! TD*
G04 #@! TA.AperFunction,SMDPad,CuDef*
%ADD24RoundRect,0.250000X0.325000X0.450000X-0.325000X0.450000X-0.325000X-0.450000X0.325000X-0.450000X0*%
G04 #@! TD*
G04 #@! TA.AperFunction,SMDPad,CuDef*
%ADD25R,1.600000X0.550000*%
G04 #@! TD*
G04 #@! TA.AperFunction,SMDPad,CuDef*
%ADD26R,0.550000X1.600000*%
G04 #@! TD*
G04 #@! TA.AperFunction,SMDPad,CuDef*
%ADD27RoundRect,0.250000X-0.337500X-0.475000X0.337500X-0.475000X0.337500X0.475000X-0.337500X0.475000X0*%
G04 #@! TD*
G04 #@! TA.AperFunction,SMDPad,CuDef*
%ADD28RoundRect,0.100000X-0.637500X-0.100000X0.637500X-0.100000X0.637500X0.100000X-0.637500X0.100000X0*%
G04 #@! TD*
G04 #@! TA.AperFunction,SMDPad,CuDef*
%ADD29RoundRect,0.250000X-0.475000X0.337500X-0.475000X-0.337500X0.475000X-0.337500X0.475000X0.337500X0*%
G04 #@! TD*
G04 #@! TA.AperFunction,SMDPad,CuDef*
%ADD30RoundRect,0.250000X0.337500X0.475000X-0.337500X0.475000X-0.337500X-0.475000X0.337500X-0.475000X0*%
G04 #@! TD*
G04 #@! TA.AperFunction,SMDPad,CuDef*
%ADD31FreePoly0,0.000000*%
G04 #@! TD*
G04 #@! TA.AperFunction,SMDPad,CuDef*
%ADD32FreePoly1,0.000000*%
G04 #@! TD*
G04 #@! TA.AperFunction,SMDPad,CuDef*
%ADD33RoundRect,0.150000X-0.512500X-0.150000X0.512500X-0.150000X0.512500X0.150000X-0.512500X0.150000X0*%
G04 #@! TD*
G04 #@! TA.AperFunction,SMDPad,CuDef*
%ADD34R,1.500000X2.000000*%
G04 #@! TD*
G04 #@! TA.AperFunction,SMDPad,CuDef*
%ADD35R,3.800000X2.000000*%
G04 #@! TD*
G04 #@! TA.AperFunction,ComponentPad*
%ADD36C,2.050000*%
G04 #@! TD*
G04 #@! TA.AperFunction,ComponentPad*
%ADD37C,2.250000*%
G04 #@! TD*
G04 #@! TA.AperFunction,SMDPad,CuDef*
%ADD38R,1.200000X0.400000*%
G04 #@! TD*
G04 #@! TA.AperFunction,SMDPad,CuDef*
%ADD39R,1.200000X1.400000*%
G04 #@! TD*
G04 #@! TA.AperFunction,SMDPad,CuDef*
%ADD40R,1.900000X1.900000*%
G04 #@! TD*
G04 #@! TA.AperFunction,SMDPad,CuDef*
%ADD41R,1.350000X0.400000*%
G04 #@! TD*
G04 #@! TA.AperFunction,ViaPad*
%ADD42C,0.800000*%
G04 #@! TD*
G04 #@! TA.AperFunction,Conductor*
%ADD43C,0.300000*%
G04 #@! TD*
G04 #@! TA.AperFunction,Conductor*
%ADD44C,0.600000*%
G04 #@! TD*
G04 #@! TA.AperFunction,Conductor*
%ADD45C,0.250000*%
G04 #@! TD*
G04 #@! TA.AperFunction,Conductor*
%ADD46C,0.500000*%
G04 #@! TD*
G04 APERTURE END LIST*
D10*
D11*
X114634190Y-107140380D02*
X114538952Y-107045142D01*
X114348476Y-106949904D01*
X114158000Y-106949904D01*
X113967523Y-107045142D01*
X113872285Y-107140380D01*
X113777047Y-107330857D01*
X113777047Y-107521333D01*
X113872285Y-107711809D01*
X113967523Y-107807047D01*
X114158000Y-107902285D01*
X114348476Y-107902285D01*
X114538952Y-107807047D01*
X114634190Y-107711809D01*
X114634190Y-106949904D02*
X114634190Y-107711809D01*
X114729428Y-107807047D01*
X114824666Y-107807047D01*
X115015142Y-107711809D01*
X115110380Y-107521333D01*
X115110380Y-107045142D01*
X114919904Y-106759428D01*
X114634190Y-106568952D01*
X114253238Y-106473714D01*
X113872285Y-106568952D01*
X113586571Y-106759428D01*
X113396095Y-107045142D01*
X113300857Y-107426095D01*
X113396095Y-107807047D01*
X113586571Y-108092761D01*
X113872285Y-108283238D01*
X114253238Y-108378476D01*
X114634190Y-108283238D01*
X114919904Y-108092761D01*
X115872285Y-107997523D02*
X116062761Y-108092761D01*
X116443714Y-108092761D01*
X116634190Y-107997523D01*
X116729428Y-107807047D01*
X116729428Y-107711809D01*
X116634190Y-107521333D01*
X116443714Y-107426095D01*
X116158000Y-107426095D01*
X115967523Y-107330857D01*
X115872285Y-107140380D01*
X115872285Y-107045142D01*
X115967523Y-106854666D01*
X116158000Y-106759428D01*
X116443714Y-106759428D01*
X116634190Y-106854666D01*
X117396095Y-106759428D02*
X117777047Y-108092761D01*
X118158000Y-107140380D01*
X118538952Y-108092761D01*
X118919904Y-106759428D01*
X119681809Y-108092761D02*
X119681809Y-106092761D01*
X120538952Y-108092761D02*
X120538952Y-107045142D01*
X120443714Y-106854666D01*
X120253238Y-106759428D01*
X119967523Y-106759428D01*
X119777047Y-106854666D01*
X119681809Y-106949904D01*
X122348476Y-108092761D02*
X122348476Y-107045142D01*
X122253238Y-106854666D01*
X122062761Y-106759428D01*
X121681809Y-106759428D01*
X121491333Y-106854666D01*
X122348476Y-107997523D02*
X122158000Y-108092761D01*
X121681809Y-108092761D01*
X121491333Y-107997523D01*
X121396095Y-107807047D01*
X121396095Y-107616571D01*
X121491333Y-107426095D01*
X121681809Y-107330857D01*
X122158000Y-107330857D01*
X122348476Y-107235619D01*
X123300857Y-108092761D02*
X123300857Y-106759428D01*
X123300857Y-107140380D02*
X123396095Y-106949904D01*
X123491333Y-106854666D01*
X123681809Y-106759428D01*
X123872285Y-106759428D01*
X125396095Y-108092761D02*
X125396095Y-106092761D01*
X125396095Y-107997523D02*
X125205619Y-108092761D01*
X124824666Y-108092761D01*
X124634190Y-107997523D01*
X124538952Y-107902285D01*
X124443714Y-107711809D01*
X124443714Y-107140380D01*
X124538952Y-106949904D01*
X124634190Y-106854666D01*
X124824666Y-106759428D01*
X125205619Y-106759428D01*
X125396095Y-106854666D01*
X127110380Y-107997523D02*
X126919904Y-108092761D01*
X126538952Y-108092761D01*
X126348476Y-107997523D01*
X126253238Y-107807047D01*
X126253238Y-107045142D01*
X126348476Y-106854666D01*
X126538952Y-106759428D01*
X126919904Y-106759428D01*
X127110380Y-106854666D01*
X127205619Y-107045142D01*
X127205619Y-107235619D01*
X126253238Y-107426095D01*
X128062761Y-106759428D02*
X128062761Y-108092761D01*
X128062761Y-106949904D02*
X128158000Y-106854666D01*
X128348476Y-106759428D01*
X128634190Y-106759428D01*
X128824666Y-106854666D01*
X128919904Y-107045142D01*
X128919904Y-108092761D01*
G36*
X84832000Y-105456000D02*
G01*
X84332000Y-105456000D01*
X84332000Y-104856000D01*
X84832000Y-104856000D01*
X84832000Y-105456000D01*
G37*
D12*
X122530000Y-60066000D03*
X116230000Y-60066000D03*
X116230000Y-56266000D03*
X122530000Y-56266000D03*
D13*
X64770000Y-99060000D03*
D14*
X64770000Y-91440000D03*
D15*
X137160000Y-86360000D03*
D16*
X137160000Y-88900000D03*
X137160000Y-91440000D03*
X137160000Y-93980000D03*
X137160000Y-96520000D03*
D17*
X80518000Y-94726000D03*
X80518000Y-92726000D03*
D18*
X70628000Y-105156000D03*
X72628000Y-105156000D03*
D19*
X55880000Y-106680000D03*
D20*
X76962000Y-56917500D03*
X76962000Y-54842500D03*
D21*
X72390000Y-88129000D03*
X72390000Y-90179000D03*
D22*
X102616000Y-72771000D03*
D18*
X65040000Y-71882000D03*
X67040000Y-71882000D03*
D23*
X66539000Y-105156000D03*
X68589000Y-105156000D03*
D24*
X85861000Y-56388000D03*
X83811000Y-56388000D03*
X91440000Y-56388000D03*
X89390000Y-56388000D03*
D18*
X64532000Y-60198000D03*
X66532000Y-60198000D03*
D24*
X66557000Y-56388000D03*
X64507000Y-56388000D03*
D23*
X118092000Y-81280000D03*
X120142000Y-81280000D03*
D25*
X110050000Y-68320000D03*
X110050000Y-69120000D03*
X110050000Y-69920000D03*
X110050000Y-70720000D03*
X110050000Y-71520000D03*
X110050000Y-72320000D03*
X110050000Y-73120000D03*
X110050000Y-73920000D03*
D26*
X111500000Y-75370000D03*
X112300000Y-75370000D03*
X113100000Y-75370000D03*
X113900000Y-75370000D03*
X114700000Y-75370000D03*
X115500000Y-75370000D03*
X116300000Y-75370000D03*
X117100000Y-75370000D03*
D25*
X118550000Y-73920000D03*
X118550000Y-73120000D03*
X118550000Y-72320000D03*
X118550000Y-71520000D03*
X118550000Y-70720000D03*
X118550000Y-69920000D03*
X118550000Y-69120000D03*
X118550000Y-68320000D03*
D26*
X117100000Y-66870000D03*
X116300000Y-66870000D03*
X115500000Y-66870000D03*
X114700000Y-66870000D03*
X113900000Y-66870000D03*
X113100000Y-66870000D03*
X112300000Y-66870000D03*
X111500000Y-66870000D03*
D17*
X80518000Y-90154000D03*
X80518000Y-88154000D03*
D18*
X67850000Y-91440000D03*
X69850000Y-91440000D03*
D15*
X137160000Y-71120000D03*
D16*
X137160000Y-73660000D03*
X137160000Y-76200000D03*
D27*
X75438000Y-88900000D03*
X77513000Y-88900000D03*
D28*
X85783500Y-94103000D03*
X85783500Y-94753000D03*
X85783500Y-95403000D03*
X85783500Y-96053000D03*
X85783500Y-96703000D03*
X85783500Y-97353000D03*
X85783500Y-98003000D03*
X85783500Y-98653000D03*
X85783500Y-99303000D03*
X85783500Y-99953000D03*
X91508500Y-99953000D03*
X91508500Y-99303000D03*
X91508500Y-98653000D03*
X91508500Y-98003000D03*
X91508500Y-97353000D03*
X91508500Y-96703000D03*
X91508500Y-96053000D03*
X91508500Y-95403000D03*
X91508500Y-94753000D03*
X91508500Y-94103000D03*
D18*
X111268000Y-60452000D03*
X113268000Y-60452000D03*
X122190000Y-81280000D03*
X124190000Y-81280000D03*
D19*
X137160000Y-55880000D03*
D22*
X64770000Y-86360000D03*
D29*
X62484000Y-67796500D03*
X62484000Y-69871500D03*
D30*
X114786500Y-64008000D03*
X116861500Y-64008000D03*
D27*
X75438000Y-91440000D03*
X77513000Y-91440000D03*
D18*
X83836000Y-60198000D03*
X85836000Y-60198000D03*
D29*
X76962000Y-59922500D03*
X76962000Y-61997500D03*
D19*
X137160000Y-106680000D03*
D31*
X75825500Y-95504000D03*
D32*
X77125500Y-95504000D03*
D21*
X72390000Y-92701000D03*
X72390000Y-94751000D03*
D33*
X84460500Y-87950000D03*
X84460500Y-88900000D03*
X84460500Y-89850000D03*
X86735500Y-89850000D03*
X86735500Y-87950000D03*
D34*
X69582000Y-61570000D03*
X71882000Y-61570000D03*
D35*
X71882000Y-55270000D03*
D34*
X74182000Y-61570000D03*
D36*
X57150000Y-91440000D03*
D37*
X54610000Y-88900000D03*
X59690000Y-93980000D03*
X54610000Y-93980000D03*
X59690000Y-88900000D03*
D18*
X89415000Y-60198000D03*
X91415000Y-60198000D03*
D31*
X83932000Y-105156000D03*
D32*
X85232000Y-105156000D03*
D22*
X75692000Y-105156000D03*
D20*
X89408000Y-89937500D03*
X89408000Y-87862500D03*
D22*
X79248000Y-105156000D03*
D18*
X65040000Y-69850000D03*
X67040000Y-69850000D03*
D27*
X120882500Y-75946000D03*
X122957500Y-75946000D03*
D19*
X55880000Y-55880000D03*
D23*
X64507000Y-64008000D03*
X66557000Y-64008000D03*
D38*
X73092000Y-69278500D03*
X73092000Y-69913500D03*
X73092000Y-70548500D03*
X73092000Y-71183500D03*
X73092000Y-71818500D03*
X73092000Y-72453500D03*
X73092000Y-73088500D03*
X73092000Y-73723500D03*
X73092000Y-74358500D03*
X73092000Y-74993500D03*
X78292000Y-74993500D03*
X78292000Y-74358500D03*
X78292000Y-73723500D03*
X78292000Y-73088500D03*
X78292000Y-72453500D03*
X78292000Y-71818500D03*
X78292000Y-71183500D03*
X78292000Y-70548500D03*
X78292000Y-69913500D03*
X78292000Y-69278500D03*
D20*
X62484000Y-73935500D03*
X62484000Y-71860500D03*
D39*
X122616000Y-73590000D03*
X122616000Y-71190000D03*
X120716000Y-71190000D03*
X120716000Y-73590000D03*
D40*
X55845000Y-75070000D03*
X55845000Y-72320000D03*
X55845000Y-69920000D03*
X55845000Y-67170000D03*
D41*
X58520000Y-71770000D03*
X58520000Y-71120000D03*
X58520000Y-70470000D03*
X58520000Y-72420000D03*
X58520000Y-69820000D03*
D42*
X114554000Y-56388000D03*
X122428000Y-69088000D03*
X118872000Y-66040000D03*
X89408000Y-91186000D03*
X113792000Y-68326000D03*
X77724000Y-58166000D03*
X124206000Y-72136000D03*
X59436000Y-74422000D03*
X76200000Y-58674000D03*
X84328000Y-90932000D03*
X69596000Y-59944000D03*
X62484000Y-75184000D03*
X65024000Y-105156000D03*
X60198000Y-73914000D03*
X78994000Y-94742000D03*
X80010000Y-72644000D03*
X59436000Y-73406000D03*
X85852000Y-101092000D03*
X62484000Y-66548000D03*
X71691500Y-72453500D03*
X124307600Y-75336400D03*
X116840000Y-71882000D03*
X70866000Y-94742000D03*
X60198000Y-72898000D03*
X68072000Y-55880000D03*
X116840000Y-62484000D03*
X71628000Y-67818000D03*
X71628000Y-63108500D03*
X119380000Y-67056000D03*
X115570000Y-68834000D03*
X120904000Y-67056000D03*
X116586000Y-69850000D03*
X116249500Y-77216000D03*
X112268000Y-71882000D03*
X68580000Y-69850000D03*
X76794748Y-74334892D03*
X68453000Y-71882000D03*
X76454000Y-75692000D03*
X74781023Y-71776977D03*
X99060000Y-64516000D03*
X98552000Y-66294000D03*
X78232000Y-68326000D03*
X106934000Y-82804000D03*
X105156000Y-70104000D03*
X106172000Y-69088000D03*
X106172000Y-79756000D03*
X107188000Y-78486000D03*
X107188000Y-68326000D03*
X108204000Y-67056000D03*
X108204000Y-77216000D03*
D43*
X114676000Y-56266000D02*
X116230000Y-56266000D01*
X114554000Y-56388000D02*
X114676000Y-56266000D01*
X116230000Y-56266000D02*
X122530000Y-56266000D01*
X116230000Y-60066000D02*
X122530000Y-60066000D01*
X113654000Y-60066000D02*
X113268000Y-60452000D01*
X116230000Y-60066000D02*
X113654000Y-60066000D01*
X113792000Y-62230000D02*
X113268000Y-61706000D01*
X115824000Y-62992000D02*
X115062000Y-62230000D01*
X115824000Y-65024000D02*
X115824000Y-62992000D01*
X115062000Y-62230000D02*
X113792000Y-62230000D01*
X116300000Y-65500000D02*
X115824000Y-65024000D01*
X113268000Y-61706000D02*
X113268000Y-60452000D01*
X116300000Y-66870000D02*
X116300000Y-65500000D01*
X123562000Y-72136000D02*
X122616000Y-71190000D01*
X124206000Y-72136000D02*
X123562000Y-72136000D01*
X117278000Y-72320000D02*
X118550000Y-72320000D01*
X116840000Y-71882000D02*
X117278000Y-72320000D01*
X135128000Y-93980000D02*
X137160000Y-93980000D01*
X128016000Y-73152000D02*
X128016000Y-86868000D01*
X123184000Y-68320000D02*
X128016000Y-73152000D01*
X128016000Y-86868000D02*
X135128000Y-93980000D01*
X118550000Y-68320000D02*
X123184000Y-68320000D01*
D44*
X86614000Y-85852000D02*
X86614000Y-84074000D01*
X95250000Y-54864000D02*
X111252000Y-54864000D01*
X86614000Y-84074000D02*
X95250000Y-75438000D01*
X95250000Y-75438000D02*
X95250000Y-54864000D01*
X89408000Y-54864000D02*
X95250000Y-54864000D01*
D43*
X118042000Y-66870000D02*
X117100000Y-66870000D01*
X118872000Y-66040000D02*
X118042000Y-66870000D01*
X127000000Y-87376000D02*
X136144000Y-96520000D01*
X122472661Y-69088000D02*
X127000000Y-73615339D01*
X136144000Y-96520000D02*
X137160000Y-96520000D01*
X122428000Y-69088000D02*
X122472661Y-69088000D01*
X127000000Y-73615339D02*
X127000000Y-87376000D01*
X129032000Y-86360000D02*
X134112000Y-91440000D01*
X129032000Y-72644000D02*
X129032000Y-86360000D01*
X134112000Y-91440000D02*
X137160000Y-91440000D01*
X123444000Y-67056000D02*
X129032000Y-72644000D01*
X120904000Y-67056000D02*
X123444000Y-67056000D01*
X123952000Y-66040000D02*
X134112000Y-76200000D01*
X120396000Y-66040000D02*
X123952000Y-66040000D01*
X134112000Y-76200000D02*
X137160000Y-76200000D01*
X119380000Y-67056000D02*
X120396000Y-66040000D01*
D45*
X136398000Y-96520000D02*
X137160000Y-96520000D01*
D43*
X71691500Y-72453500D02*
X73092000Y-72453500D01*
X79184500Y-71818500D02*
X78292000Y-71818500D01*
X124307600Y-75336400D02*
X123698000Y-75946000D01*
D44*
X76200000Y-59160500D02*
X76962000Y-59922500D01*
D43*
X113900000Y-68218000D02*
X113900000Y-66870000D01*
D44*
X69596000Y-61556000D02*
X69582000Y-61570000D01*
D43*
X67564000Y-56388000D02*
X68072000Y-55880000D01*
X60198000Y-72898000D02*
X59720000Y-72420000D01*
X80010000Y-72644000D02*
X79184500Y-71818500D01*
D44*
X77724000Y-58166000D02*
X77724000Y-57679500D01*
D43*
X113792000Y-68326000D02*
X113900000Y-68218000D01*
D44*
X76200000Y-58674000D02*
X76200000Y-59160500D01*
D43*
X78994000Y-94742000D02*
X80502000Y-94742000D01*
D44*
X77724000Y-57679500D02*
X76962000Y-56917500D01*
D43*
X59720000Y-72420000D02*
X58520000Y-72420000D01*
X62484000Y-66548000D02*
X62484000Y-67796500D01*
X123698000Y-75946000D02*
X122957500Y-75946000D01*
X89408000Y-91186000D02*
X89408000Y-89937500D01*
X116840000Y-62484000D02*
X116861500Y-62505500D01*
X70875000Y-94751000D02*
X70866000Y-94742000D01*
X84328000Y-89982500D02*
X84460500Y-89850000D01*
X80502000Y-94742000D02*
X80518000Y-94726000D01*
X72390000Y-94751000D02*
X70875000Y-94751000D01*
X85783500Y-101023500D02*
X85852000Y-101092000D01*
X62484000Y-75184000D02*
X62484000Y-73935500D01*
X84328000Y-90932000D02*
X84328000Y-89982500D01*
D44*
X69596000Y-59944000D02*
X69596000Y-61556000D01*
D43*
X116861500Y-62505500D02*
X116861500Y-64008000D01*
X66539000Y-105156000D02*
X65024000Y-105156000D01*
X66557000Y-56388000D02*
X67564000Y-56388000D01*
X85783500Y-99953000D02*
X85783500Y-101023500D01*
X62484000Y-69871500D02*
X65018500Y-69871500D01*
X65018500Y-69871500D02*
X65040000Y-69850000D01*
X58520000Y-70470000D02*
X60340000Y-70470000D01*
X60938500Y-69871500D02*
X62484000Y-69871500D01*
X60340000Y-70470000D02*
X60938500Y-69871500D01*
D44*
X73152000Y-64262000D02*
X74182000Y-63232000D01*
X74182000Y-63232000D02*
X74182000Y-61570000D01*
X66557000Y-64008000D02*
X66811000Y-64262000D01*
X74609500Y-61997500D02*
X74182000Y-61570000D01*
X76962000Y-61997500D02*
X74609500Y-61997500D01*
X66811000Y-64262000D02*
X73152000Y-64262000D01*
D43*
X58520000Y-71120000D02*
X60325000Y-71120000D01*
X61065500Y-71860500D02*
X62484000Y-71860500D01*
X60325000Y-71120000D02*
X61065500Y-71860500D01*
X65018500Y-71860500D02*
X65040000Y-71882000D01*
X62484000Y-71860500D02*
X65018500Y-71860500D01*
X75825500Y-95504000D02*
X75825500Y-91827500D01*
X72390000Y-91440000D02*
X72390000Y-92701000D01*
X72390000Y-91440000D02*
X72390000Y-90179000D01*
X69850000Y-91440000D02*
X72390000Y-91440000D01*
X75438000Y-88900000D02*
X75438000Y-91440000D01*
X72390000Y-91440000D02*
X75438000Y-91440000D01*
X82042000Y-91440000D02*
X82550000Y-90932000D01*
X83058000Y-88900000D02*
X84460500Y-88900000D01*
X77470000Y-91397000D02*
X77470000Y-88943000D01*
X80518000Y-91440000D02*
X82042000Y-91440000D01*
X77470000Y-88943000D02*
X77513000Y-88900000D01*
X82550000Y-89408000D02*
X83058000Y-88900000D01*
X80518000Y-91440000D02*
X77513000Y-91440000D01*
X80518000Y-91440000D02*
X80518000Y-92726000D01*
X80518000Y-91440000D02*
X80518000Y-90154000D01*
X82550000Y-90932000D02*
X82550000Y-89408000D01*
X77125500Y-95504000D02*
X77125500Y-91827500D01*
X120882500Y-75946000D02*
X120882500Y-73756500D01*
X73279000Y-85852000D02*
X80772000Y-85852000D01*
X118550000Y-73120000D02*
X120246000Y-73120000D01*
X120246000Y-73120000D02*
X120716000Y-73590000D01*
X80518000Y-85852000D02*
X80772000Y-85852000D01*
D44*
X139700000Y-69596000D02*
X139700000Y-73660000D01*
D43*
X89390000Y-56388000D02*
X89390000Y-54882000D01*
D46*
X112300000Y-73882000D02*
X112300000Y-75370000D01*
D44*
X138938000Y-88900000D02*
X137160000Y-88900000D01*
D43*
X73092000Y-70548500D02*
X74612500Y-70548500D01*
X90428000Y-94103000D02*
X91508500Y-94103000D01*
X71628000Y-67818000D02*
X71628000Y-69984500D01*
D44*
X76708000Y-54588500D02*
X72563500Y-54588500D01*
X111252000Y-54864000D02*
X124968000Y-54864000D01*
D43*
X69850000Y-57912000D02*
X71882000Y-57912000D01*
X91508500Y-88206500D02*
X91164500Y-87862500D01*
D44*
X111268000Y-60452000D02*
X111268000Y-54880000D01*
X111268000Y-62500000D02*
X111268000Y-60452000D01*
D46*
X114700000Y-66870000D02*
X114700000Y-73044000D01*
D44*
X76962000Y-54842500D02*
X76708000Y-54588500D01*
D43*
X72390000Y-86741000D02*
X73279000Y-85852000D01*
X83811000Y-56388000D02*
X83811000Y-54873000D01*
D44*
X71882000Y-61570000D02*
X71882000Y-57912000D01*
D43*
X120882500Y-73756500D02*
X120716000Y-73590000D01*
D44*
X76983500Y-54864000D02*
X83820000Y-54864000D01*
D43*
X83811000Y-54873000D02*
X83820000Y-54864000D01*
X77152500Y-73088500D02*
X78292000Y-73088500D01*
D44*
X72563500Y-54588500D02*
X71882000Y-55270000D01*
D43*
X74612500Y-70548500D02*
X77152500Y-73088500D01*
D44*
X139700000Y-73660000D02*
X139700000Y-88138000D01*
D43*
X90170000Y-99691000D02*
X90170000Y-94361000D01*
X111268000Y-54880000D02*
X111252000Y-54864000D01*
X91508500Y-99953000D02*
X90432000Y-99953000D01*
D46*
X114776000Y-73120000D02*
X113062000Y-73120000D01*
X118550000Y-73120000D02*
X114776000Y-73120000D01*
D43*
X120716000Y-73590000D02*
X122616000Y-73590000D01*
D44*
X86614000Y-87828500D02*
X86614000Y-85852000D01*
D43*
X71628000Y-63108500D02*
X71628000Y-61824000D01*
D44*
X112776000Y-64008000D02*
X111268000Y-62500000D01*
X71882000Y-57912000D02*
X71882000Y-55270000D01*
D43*
X91164500Y-87862500D02*
X89408000Y-87862500D01*
X72192000Y-70548500D02*
X73092000Y-70548500D01*
X89390000Y-54882000D02*
X89408000Y-54864000D01*
X71628000Y-61824000D02*
X71882000Y-61570000D01*
X90432000Y-99953000D02*
X90170000Y-99691000D01*
X120882500Y-77448500D02*
X120882500Y-75946000D01*
D44*
X85598000Y-54864000D02*
X88646000Y-54864000D01*
D43*
X90170000Y-94361000D02*
X90428000Y-94103000D01*
D44*
X114786500Y-64008000D02*
X112776000Y-64008000D01*
X88646000Y-54864000D02*
X89408000Y-54864000D01*
X139700000Y-88138000D02*
X138938000Y-88900000D01*
D43*
X124190000Y-81280000D02*
X124190000Y-80756000D01*
X72390000Y-88129000D02*
X72390000Y-86741000D01*
X86648000Y-87862500D02*
X89408000Y-87862500D01*
X80772000Y-85852000D02*
X86614000Y-85852000D01*
X86614000Y-87828500D02*
X86648000Y-87862500D01*
X124190000Y-80756000D02*
X120882500Y-77448500D01*
D44*
X124968000Y-54864000D02*
X139700000Y-69596000D01*
X83820000Y-54864000D02*
X85598000Y-54864000D01*
D43*
X91508500Y-94103000D02*
X91508500Y-88206500D01*
X86614000Y-87828500D02*
X86735500Y-87950000D01*
X80518000Y-88154000D02*
X80518000Y-85852000D01*
D46*
X114700000Y-66870000D02*
X114700000Y-64094500D01*
X113062000Y-73120000D02*
X112300000Y-73882000D01*
D43*
X67564000Y-60198000D02*
X69850000Y-57912000D01*
D44*
X76962000Y-54842500D02*
X76983500Y-54864000D01*
D43*
X139700000Y-73660000D02*
X137160000Y-73660000D01*
X71628000Y-69984500D02*
X72192000Y-70548500D01*
X66532000Y-60198000D02*
X67564000Y-60198000D01*
X68589000Y-105156000D02*
X70628000Y-105156000D01*
X64532000Y-56413000D02*
X64507000Y-56388000D01*
X64532000Y-60198000D02*
X64532000Y-56413000D01*
X85836000Y-56413000D02*
X85861000Y-56388000D01*
X85836000Y-60198000D02*
X85836000Y-56413000D01*
X91440000Y-56388000D02*
X91440000Y-60173000D01*
X91440000Y-60173000D02*
X91415000Y-60198000D01*
X118110000Y-75946000D02*
X117534000Y-75370000D01*
X118092000Y-81280000D02*
X118110000Y-81262000D01*
X117534000Y-75370000D02*
X117100000Y-75370000D01*
X118110000Y-81262000D02*
X118110000Y-75946000D01*
X122190000Y-81280000D02*
X120142000Y-81280000D01*
X77279500Y-72453500D02*
X78292000Y-72453500D01*
X76962000Y-72136000D02*
X77279500Y-72453500D01*
D44*
X64507000Y-64008000D02*
X61722000Y-64008000D01*
D43*
X76962000Y-69088000D02*
X76962000Y-72136000D01*
X64507000Y-65523000D02*
X65532000Y-66548000D01*
D44*
X61722000Y-64008000D02*
X58928000Y-66802000D01*
X58928000Y-66802000D02*
X58928000Y-69596000D01*
D43*
X64507000Y-64008000D02*
X64507000Y-65523000D01*
X65532000Y-66548000D02*
X74422000Y-66548000D01*
X74422000Y-66548000D02*
X76962000Y-69088000D01*
X67850000Y-91440000D02*
X64770000Y-91440000D01*
D44*
X57150000Y-91440000D02*
X64770000Y-91440000D01*
X64770000Y-91440000D02*
X64770000Y-86360000D01*
D43*
X115570000Y-68834000D02*
X115500000Y-68764000D01*
X115500000Y-68764000D02*
X115500000Y-66870000D01*
X117316000Y-69120000D02*
X118550000Y-69120000D01*
X116586000Y-69850000D02*
X117316000Y-69120000D01*
X83947000Y-98679000D02*
X84623000Y-98003000D01*
X83932000Y-105156000D02*
X79248000Y-105156000D01*
X83947000Y-105141000D02*
X83947000Y-98679000D01*
X83932000Y-105156000D02*
X83947000Y-105141000D01*
X84623000Y-98003000D02*
X85783500Y-98003000D01*
X116332000Y-86741000D02*
X97917000Y-105156000D01*
X97917000Y-105156000D02*
X85232000Y-105156000D01*
X111360000Y-70720000D02*
X110050000Y-70720000D01*
X116332000Y-77298500D02*
X116332000Y-86741000D01*
X112268000Y-71628000D02*
X111360000Y-70720000D01*
X112268000Y-71882000D02*
X112268000Y-71628000D01*
X116249500Y-77216000D02*
X116332000Y-77298500D01*
X76818356Y-74358500D02*
X78292000Y-74358500D01*
X68580000Y-69850000D02*
X67040000Y-69850000D01*
X76794748Y-74334892D02*
X76818356Y-74358500D01*
X77152500Y-74993500D02*
X78292000Y-74993500D01*
X76454000Y-75692000D02*
X77152500Y-74993500D01*
X68453000Y-71882000D02*
X67040000Y-71882000D01*
X77470000Y-103378000D02*
X77470000Y-101600000D01*
X85783500Y-94103000D02*
X85783500Y-90802000D01*
X77470000Y-101600000D02*
X84317000Y-94753000D01*
X75692000Y-105156000D02*
X77470000Y-103378000D01*
X85783500Y-94753000D02*
X85783500Y-94103000D01*
X84317000Y-94753000D02*
X85783500Y-94753000D01*
X72628000Y-105156000D02*
X75438000Y-105156000D01*
X85783500Y-90802000D02*
X86735500Y-89850000D01*
X80264000Y-61976000D02*
X80264000Y-70358000D01*
X82042000Y-60198000D02*
X80264000Y-61976000D01*
X79438500Y-71183500D02*
X78292000Y-71183500D01*
X83836000Y-60198000D02*
X82042000Y-60198000D01*
X80264000Y-70358000D02*
X79438500Y-71183500D01*
X81534000Y-62738000D02*
X82550000Y-61722000D01*
X88392000Y-60198000D02*
X89415000Y-60198000D01*
X86868000Y-61722000D02*
X88392000Y-60198000D01*
X81534000Y-74422000D02*
X81534000Y-62738000D01*
X82550000Y-61722000D02*
X86868000Y-61722000D01*
X73092000Y-75886000D02*
X73914000Y-76708000D01*
X73092000Y-74993500D02*
X73092000Y-75886000D01*
X73914000Y-76708000D02*
X79248000Y-76708000D01*
X79248000Y-76708000D02*
X81534000Y-74422000D01*
X110050000Y-71520000D02*
X104121000Y-71520000D01*
X102870000Y-72771000D02*
X102616000Y-72771000D01*
X104121000Y-71520000D02*
X102870000Y-72771000D01*
X99060000Y-64516000D02*
X112268000Y-64516000D01*
X74231500Y-71183500D02*
X73092000Y-71183500D01*
X74781023Y-71733023D02*
X74231500Y-71183500D01*
X74781023Y-71776977D02*
X74781023Y-71733023D01*
X113100000Y-65348000D02*
X113100000Y-66870000D01*
X112268000Y-64516000D02*
X113100000Y-65348000D01*
X98552000Y-66294000D02*
X99568000Y-65278000D01*
X78292000Y-68386000D02*
X78292000Y-69278500D01*
X112038000Y-65278000D02*
X112300000Y-65540000D01*
X78232000Y-68326000D02*
X78292000Y-68386000D01*
X99568000Y-65278000D02*
X112038000Y-65278000D01*
X112300000Y-65540000D02*
X112300000Y-66870000D01*
X89053000Y-95403000D02*
X89535000Y-95885000D01*
X89535000Y-99949000D02*
X90170000Y-100584000D01*
X97853500Y-100584000D02*
X113100000Y-85337500D01*
X90170000Y-100584000D02*
X97853500Y-100584000D01*
X85783500Y-95403000D02*
X89053000Y-95403000D01*
X113100000Y-85337500D02*
X113100000Y-75370000D01*
X89535000Y-95885000D02*
X89535000Y-99949000D01*
X89916000Y-101219000D02*
X88900000Y-100203000D01*
X87671000Y-96053000D02*
X85783500Y-96053000D01*
X113900000Y-85744000D02*
X98425000Y-101219000D01*
X98425000Y-101219000D02*
X89916000Y-101219000D01*
X88900000Y-100203000D02*
X88900000Y-97282000D01*
X113900000Y-75370000D02*
X113900000Y-85744000D01*
X88900000Y-97282000D02*
X87671000Y-96053000D01*
X85783500Y-96703000D02*
X87305000Y-96703000D01*
X89535000Y-101854000D02*
X98933000Y-101854000D01*
X88138000Y-100457000D02*
X89535000Y-101854000D01*
X87305000Y-96703000D02*
X88138000Y-97536000D01*
X98933000Y-101854000D02*
X114681000Y-86106000D01*
X114681000Y-86106000D02*
X114681000Y-75389000D01*
X114681000Y-75389000D02*
X114700000Y-75370000D01*
X88138000Y-97536000D02*
X88138000Y-100457000D01*
X87376000Y-97790000D02*
X87376000Y-100838000D01*
X89027000Y-102489000D02*
X99441000Y-102489000D01*
X85783500Y-97353000D02*
X86939000Y-97353000D01*
X99441000Y-102489000D02*
X115500000Y-86430000D01*
X86939000Y-97353000D02*
X87376000Y-97790000D01*
X115500000Y-86430000D02*
X115500000Y-75370000D01*
X87376000Y-100838000D02*
X89027000Y-102489000D01*
X85783500Y-98653000D02*
X85783500Y-99303000D01*
X105156000Y-70104000D02*
X105165000Y-70095000D01*
X98055000Y-99303000D02*
X91508500Y-99303000D01*
X105165000Y-70095000D02*
X110744000Y-70095000D01*
X106934000Y-90424000D02*
X98055000Y-99303000D01*
X106934000Y-82804000D02*
X106934000Y-90424000D01*
X106172000Y-79756000D02*
X106172000Y-90170000D01*
X97689000Y-98653000D02*
X91508500Y-98653000D01*
X110050000Y-69120000D02*
X106204000Y-69120000D01*
X106204000Y-69120000D02*
X106172000Y-69088000D01*
X106172000Y-90170000D02*
X97689000Y-98653000D01*
X105410000Y-89916000D02*
X97323000Y-98003000D01*
X107188000Y-78486000D02*
X106066623Y-78486000D01*
X110050000Y-68320000D02*
X107194000Y-68320000D01*
X107194000Y-68320000D02*
X107188000Y-68326000D01*
X106066623Y-78486000D02*
X105410000Y-79142623D01*
X105410000Y-79142623D02*
X105410000Y-89916000D01*
X97323000Y-98003000D02*
X91508500Y-98003000D01*
X108204000Y-67056000D02*
X108390000Y-66870000D01*
X104648000Y-89662000D02*
X96957000Y-97353000D01*
X106172000Y-77216000D02*
X104648000Y-78740000D01*
X96957000Y-97353000D02*
X91508500Y-97353000D01*
X104648000Y-78740000D02*
X104648000Y-89662000D01*
X108390000Y-66870000D02*
X111500000Y-66870000D01*
X108204000Y-77216000D02*
X106172000Y-77216000D01*
X96527500Y-96703000D02*
X91508500Y-96703000D01*
X103886000Y-89344500D02*
X96527500Y-96703000D01*
X106748000Y-75370000D02*
X103886000Y-78232000D01*
X111500000Y-75370000D02*
X106748000Y-75370000D01*
X103886000Y-78232000D02*
X103886000Y-89344500D01*
X110050000Y-73920000D02*
X106928000Y-73920000D01*
X103124000Y-77724000D02*
X103124000Y-89154000D01*
X106928000Y-73920000D02*
X103124000Y-77724000D01*
X96225000Y-96053000D02*
X91508500Y-96053000D01*
X103124000Y-89154000D02*
X96225000Y-96053000D01*
X106657106Y-73120000D02*
X102362000Y-77415106D01*
X110050000Y-73120000D02*
X106657106Y-73120000D01*
X102362000Y-77415106D02*
X102362000Y-88845106D01*
X95804106Y-95403000D02*
X91508500Y-95403000D01*
X102362000Y-88845106D02*
X95804106Y-95403000D01*
X110050000Y-72320000D02*
X106242000Y-72320000D01*
X95493000Y-94753000D02*
X91508500Y-94753000D01*
X101600000Y-76962000D02*
X101600000Y-88646000D01*
X106242000Y-72320000D02*
X101600000Y-76962000D01*
X101600000Y-88646000D02*
X95493000Y-94753000D01*
X120386000Y-71520000D02*
X120716000Y-71190000D01*
X118550000Y-71520000D02*
X120386000Y-71520000D01*
G04 #@! TA.AperFunction,Conductor*
G36*
X60425671Y-72156002D02*
G01*
X60446645Y-72172905D01*
X60541845Y-72268105D01*
X60549835Y-72276885D01*
X60554084Y-72283580D01*
X60559862Y-72289006D01*
X60559863Y-72289007D01*
X60605757Y-72332104D01*
X60608599Y-72334859D01*
X60629167Y-72355427D01*
X60632670Y-72358144D01*
X60641693Y-72365850D01*
X60666253Y-72388913D01*
X60702218Y-72450124D01*
X60706000Y-72480763D01*
X60706000Y-74804000D01*
X60685998Y-74872121D01*
X60632342Y-74918614D01*
X60580000Y-74930000D01*
X58800000Y-74930000D01*
X58731879Y-74909998D01*
X58685386Y-74856342D01*
X58674000Y-74804000D01*
X58674000Y-73548981D01*
X58693615Y-73481467D01*
X58699882Y-73471591D01*
X58703661Y-73465637D01*
X58762626Y-73300045D01*
X58783439Y-73125504D01*
X58765065Y-72950690D01*
X58762795Y-72944021D01*
X58710688Y-72790958D01*
X58710687Y-72790955D01*
X58708418Y-72784291D01*
X58692682Y-72758712D01*
X58674000Y-72692691D01*
X58674000Y-72604500D01*
X58694002Y-72536379D01*
X58747658Y-72489886D01*
X58800000Y-72478500D01*
X59243134Y-72478500D01*
X59305316Y-72471745D01*
X59441705Y-72420615D01*
X59558261Y-72333261D01*
X59645615Y-72216705D01*
X59648765Y-72208303D01*
X59652495Y-72201490D01*
X59702753Y-72151344D01*
X59763014Y-72136000D01*
X60357550Y-72136000D01*
X60425671Y-72156002D01*
G37*
G04 #@! TD.AperFunction*
M02*
