G04 #@! TF.GenerationSoftware,KiCad,Pcbnew,(6.0.9)*
G04 #@! TF.CreationDate,2022-12-14T01:21:17-05:00*
G04 #@! TF.ProjectId,usbcounter,75736263-6f75-46e7-9465-722e6b696361,rev?*
G04 #@! TF.SameCoordinates,Original*
G04 #@! TF.FileFunction,Soldermask,Top*
G04 #@! TF.FilePolarity,Negative*
%FSLAX46Y46*%
G04 Gerber Fmt 4.6, Leading zero omitted, Abs format (unit mm)*
G04 Created by KiCad (PCBNEW (6.0.9)) date 2022-12-14 01:21:17*
%MOMM*%
%LPD*%
G01*
G04 APERTURE LIST*
G04 Aperture macros list*
%AMRoundRect*
0 Rectangle with rounded corners*
0 $1 Rounding radius*
0 $2 $3 $4 $5 $6 $7 $8 $9 X,Y pos of 4 corners*
0 Add a 4 corners polygon primitive as box body*
4,1,4,$2,$3,$4,$5,$6,$7,$8,$9,$2,$3,0*
0 Add four circle primitives for the rounded corners*
1,1,$1+$1,$2,$3*
1,1,$1+$1,$4,$5*
1,1,$1+$1,$6,$7*
1,1,$1+$1,$8,$9*
0 Add four rect primitives between the rounded corners*
20,1,$1+$1,$2,$3,$4,$5,0*
20,1,$1+$1,$4,$5,$6,$7,0*
20,1,$1+$1,$6,$7,$8,$9,0*
20,1,$1+$1,$8,$9,$2,$3,0*%
%AMFreePoly0*
4,1,22,0.500000,-0.750000,0.000000,-0.750000,0.000000,-0.745033,-0.079941,-0.743568,-0.215256,-0.701293,-0.333266,-0.622738,-0.424486,-0.514219,-0.481581,-0.384460,-0.499164,-0.250000,-0.500000,-0.250000,-0.500000,0.250000,-0.499164,0.250000,-0.499963,0.256109,-0.478152,0.396186,-0.417904,0.524511,-0.324060,0.630769,-0.204165,0.706417,-0.067858,0.745374,0.000000,0.744959,0.000000,0.750000,
0.500000,0.750000,0.500000,-0.750000,0.500000,-0.750000,$1*%
%AMFreePoly1*
4,1,20,0.000000,0.744959,0.073905,0.744508,0.209726,0.703889,0.328688,0.626782,0.421226,0.519385,0.479903,0.390333,0.500000,0.250000,0.500000,-0.250000,0.499851,-0.262216,0.476331,-0.402017,0.414519,-0.529596,0.319384,-0.634700,0.198574,-0.708877,0.061801,-0.746166,0.000000,-0.745033,0.000000,-0.750000,-0.500000,-0.750000,-0.500000,0.750000,0.000000,0.750000,0.000000,0.744959,
0.000000,0.744959,$1*%
G04 Aperture macros list end*
%ADD10R,1.700000X1.000000*%
%ADD11C,1.600000*%
%ADD12O,1.600000X1.600000*%
%ADD13R,1.700000X1.700000*%
%ADD14O,1.700000X1.700000*%
%ADD15RoundRect,0.250000X0.450000X-0.350000X0.450000X0.350000X-0.450000X0.350000X-0.450000X-0.350000X0*%
%ADD16RoundRect,0.250000X-0.350000X-0.450000X0.350000X-0.450000X0.350000X0.450000X-0.350000X0.450000X0*%
%ADD17C,8.600000*%
%ADD18RoundRect,0.250000X0.475000X-0.337500X0.475000X0.337500X-0.475000X0.337500X-0.475000X-0.337500X0*%
%ADD19RoundRect,0.250000X-0.450000X0.325000X-0.450000X-0.325000X0.450000X-0.325000X0.450000X0.325000X0*%
%ADD20C,2.000000*%
%ADD21RoundRect,0.250000X-0.325000X-0.450000X0.325000X-0.450000X0.325000X0.450000X-0.325000X0.450000X0*%
%ADD22RoundRect,0.250000X0.325000X0.450000X-0.325000X0.450000X-0.325000X-0.450000X0.325000X-0.450000X0*%
%ADD23R,1.600000X0.550000*%
%ADD24R,0.550000X1.600000*%
%ADD25RoundRect,0.250000X-0.337500X-0.475000X0.337500X-0.475000X0.337500X0.475000X-0.337500X0.475000X0*%
%ADD26RoundRect,0.100000X-0.637500X-0.100000X0.637500X-0.100000X0.637500X0.100000X-0.637500X0.100000X0*%
%ADD27RoundRect,0.250000X-0.475000X0.337500X-0.475000X-0.337500X0.475000X-0.337500X0.475000X0.337500X0*%
%ADD28RoundRect,0.250000X0.337500X0.475000X-0.337500X0.475000X-0.337500X-0.475000X0.337500X-0.475000X0*%
%ADD29FreePoly0,0.000000*%
%ADD30FreePoly1,0.000000*%
%ADD31RoundRect,0.150000X-0.512500X-0.150000X0.512500X-0.150000X0.512500X0.150000X-0.512500X0.150000X0*%
%ADD32R,1.500000X2.000000*%
%ADD33R,3.800000X2.000000*%
%ADD34C,2.050000*%
%ADD35C,2.250000*%
%ADD36R,1.200000X0.400000*%
%ADD37R,1.200000X1.400000*%
%ADD38R,1.900000X1.900000*%
%ADD39R,1.350000X0.400000*%
%ADD40C,0.001000*%
G04 APERTURE END LIST*
D10*
X122530000Y-60066000D03*
X116230000Y-60066000D03*
X116230000Y-56266000D03*
X122530000Y-56266000D03*
D11*
X64770000Y-99060000D03*
D12*
X64770000Y-91440000D03*
D13*
X137160000Y-86360000D03*
D14*
X137160000Y-88900000D03*
X137160000Y-91440000D03*
X137160000Y-93980000D03*
X137160000Y-96520000D03*
D15*
X80518000Y-94726000D03*
X80518000Y-92726000D03*
D16*
X70628000Y-105156000D03*
X72628000Y-105156000D03*
D17*
X55880000Y-106680000D03*
D18*
X76962000Y-56917500D03*
X76962000Y-54842500D03*
D19*
X72390000Y-88129000D03*
X72390000Y-90179000D03*
D20*
X102616000Y-72771000D03*
D16*
X65040000Y-71882000D03*
X67040000Y-71882000D03*
D21*
X66539000Y-105156000D03*
X68589000Y-105156000D03*
D22*
X85861000Y-56388000D03*
X83811000Y-56388000D03*
X91440000Y-56388000D03*
X89390000Y-56388000D03*
D16*
X64532000Y-60198000D03*
X66532000Y-60198000D03*
D22*
X66557000Y-56388000D03*
X64507000Y-56388000D03*
D21*
X118092000Y-81280000D03*
X120142000Y-81280000D03*
D23*
X110050000Y-68320000D03*
X110050000Y-69120000D03*
X110050000Y-69920000D03*
X110050000Y-70720000D03*
X110050000Y-71520000D03*
X110050000Y-72320000D03*
X110050000Y-73120000D03*
X110050000Y-73920000D03*
D24*
X111500000Y-75370000D03*
X112300000Y-75370000D03*
X113100000Y-75370000D03*
X113900000Y-75370000D03*
X114700000Y-75370000D03*
X115500000Y-75370000D03*
X116300000Y-75370000D03*
X117100000Y-75370000D03*
D23*
X118550000Y-73920000D03*
X118550000Y-73120000D03*
X118550000Y-72320000D03*
X118550000Y-71520000D03*
X118550000Y-70720000D03*
X118550000Y-69920000D03*
X118550000Y-69120000D03*
X118550000Y-68320000D03*
D24*
X117100000Y-66870000D03*
X116300000Y-66870000D03*
X115500000Y-66870000D03*
X114700000Y-66870000D03*
X113900000Y-66870000D03*
X113100000Y-66870000D03*
X112300000Y-66870000D03*
X111500000Y-66870000D03*
D15*
X80518000Y-90154000D03*
X80518000Y-88154000D03*
D16*
X67850000Y-91440000D03*
X69850000Y-91440000D03*
D13*
X137160000Y-71120000D03*
D14*
X137160000Y-73660000D03*
X137160000Y-76200000D03*
D25*
X75438000Y-88900000D03*
X77513000Y-88900000D03*
D26*
X85783500Y-94103000D03*
X85783500Y-94753000D03*
X85783500Y-95403000D03*
X85783500Y-96053000D03*
X85783500Y-96703000D03*
X85783500Y-97353000D03*
X85783500Y-98003000D03*
X85783500Y-98653000D03*
X85783500Y-99303000D03*
X85783500Y-99953000D03*
X91508500Y-99953000D03*
X91508500Y-99303000D03*
X91508500Y-98653000D03*
X91508500Y-98003000D03*
X91508500Y-97353000D03*
X91508500Y-96703000D03*
X91508500Y-96053000D03*
X91508500Y-95403000D03*
X91508500Y-94753000D03*
X91508500Y-94103000D03*
D16*
X111268000Y-60452000D03*
X113268000Y-60452000D03*
X122190000Y-81280000D03*
X124190000Y-81280000D03*
D17*
X137160000Y-55880000D03*
D20*
X64770000Y-86360000D03*
D27*
X62484000Y-67796500D03*
X62484000Y-69871500D03*
D28*
X114786500Y-64008000D03*
X116861500Y-64008000D03*
D25*
X75438000Y-91440000D03*
X77513000Y-91440000D03*
D16*
X83836000Y-60198000D03*
X85836000Y-60198000D03*
D27*
X76962000Y-59922500D03*
X76962000Y-61997500D03*
D17*
X137160000Y-106680000D03*
D29*
X75825500Y-95504000D03*
D30*
X77125500Y-95504000D03*
D19*
X72390000Y-92701000D03*
X72390000Y-94751000D03*
D31*
X84460500Y-87950000D03*
X84460500Y-88900000D03*
X84460500Y-89850000D03*
X86735500Y-89850000D03*
X86735500Y-87950000D03*
D32*
X69582000Y-61570000D03*
X71882000Y-61570000D03*
D33*
X71882000Y-55270000D03*
D32*
X74182000Y-61570000D03*
D34*
X57150000Y-91440000D03*
D35*
X54610000Y-88900000D03*
X59690000Y-93980000D03*
X54610000Y-93980000D03*
X59690000Y-88900000D03*
D16*
X89415000Y-60198000D03*
X91415000Y-60198000D03*
D29*
X83932000Y-105156000D03*
D30*
X85232000Y-105156000D03*
D20*
X75692000Y-105156000D03*
D18*
X89408000Y-89937500D03*
X89408000Y-87862500D03*
D20*
X79248000Y-105156000D03*
D16*
X65040000Y-69850000D03*
X67040000Y-69850000D03*
D25*
X120882500Y-75946000D03*
X122957500Y-75946000D03*
D17*
X55880000Y-55880000D03*
D21*
X64507000Y-64008000D03*
X66557000Y-64008000D03*
D36*
X73092000Y-69278500D03*
X73092000Y-69913500D03*
X73092000Y-70548500D03*
X73092000Y-71183500D03*
X73092000Y-71818500D03*
X73092000Y-72453500D03*
X73092000Y-73088500D03*
X73092000Y-73723500D03*
X73092000Y-74358500D03*
X73092000Y-74993500D03*
X78292000Y-74993500D03*
X78292000Y-74358500D03*
X78292000Y-73723500D03*
X78292000Y-73088500D03*
X78292000Y-72453500D03*
X78292000Y-71818500D03*
X78292000Y-71183500D03*
X78292000Y-70548500D03*
X78292000Y-69913500D03*
X78292000Y-69278500D03*
D18*
X62484000Y-73935500D03*
X62484000Y-71860500D03*
D37*
X122616000Y-73590000D03*
X122616000Y-71190000D03*
X120716000Y-71190000D03*
X120716000Y-73590000D03*
D38*
X55845000Y-75070000D03*
X55845000Y-72320000D03*
X55845000Y-69920000D03*
X55845000Y-67170000D03*
D39*
X58520000Y-71770000D03*
X58520000Y-71120000D03*
X58520000Y-70470000D03*
X58520000Y-72420000D03*
X58520000Y-69820000D03*
D40*
X57995000Y-69120000D03*
X57995000Y-73120000D03*
M02*
