M48
; DRILL file {KiCad (6.0.9)} date Wed Dec 14 01:21:36 2022
; FORMAT={-:-/ absolute / metric / decimal}
; #@! TF.CreationDate,2022-12-14T01:21:36-05:00
; #@! TF.GenerationSoftware,Kicad,Pcbnew,(6.0.9)
; #@! TF.FileFunction,Plated,1,2,PTH
FMAT,2
METRIC
; #@! TA.AperFunction,Plated,PTH,ViaDrill
T1C0.300
; #@! TA.AperFunction,Plated,PTH,ViaDrill
T2C0.400
; #@! TA.AperFunction,Plated,PTH,ComponentDrill
T3C0.800
; #@! TA.AperFunction,Plated,PTH,ComponentDrill
T4C1.000
; #@! TA.AperFunction,Plated,PTH,ComponentDrill
T5C1.500
; #@! TA.AperFunction,Plated,PTH,ComponentDrill
T6C1.700
; #@! TA.AperFunction,Plated,PTH,ComponentDrill
T7C4.300
%
G90
G05
T1
X65.024Y-105.156
X68.072Y-55.88
X68.453Y-71.882
X68.58Y-69.85
X70.866Y-94.742
X71.628Y-63.108
X71.628Y-67.818
X71.691Y-72.453
X76.454Y-75.692
X76.795Y-74.335
X78.994Y-94.742
X80.01Y-72.644
T2
X59.436Y-73.406
X59.436Y-74.422
X60.198Y-72.898
X60.198Y-73.914
X62.484Y-66.548
X62.484Y-75.184
X69.596Y-59.944
X74.781Y-71.777
X76.2Y-58.674
X77.724Y-58.166
X78.232Y-68.326
X84.328Y-90.932
X85.852Y-101.092
X89.408Y-91.186
X98.552Y-66.294
X99.06Y-64.516
X105.156Y-70.104
X106.172Y-69.088
X106.172Y-79.756
X106.934Y-82.804
X107.188Y-68.326
X107.188Y-78.486
X108.204Y-67.056
X108.204Y-77.216
X112.268Y-71.882
X113.792Y-68.326
X114.554Y-56.388
X115.57Y-68.834
X116.249Y-77.216
X116.586Y-69.85
X116.84Y-62.484
X116.84Y-71.882
X118.872Y-66.04
X119.38Y-67.056
X120.904Y-67.056
X122.428Y-69.088
X124.206Y-72.136
X124.308Y-75.336
T3
X64.77Y-91.44
X64.77Y-99.06
T4
X137.16Y-71.12
X137.16Y-73.66
X137.16Y-76.2
X137.16Y-86.36
X137.16Y-88.9
X137.16Y-91.44
X137.16Y-93.98
X137.16Y-96.52
T5
X57.15Y-91.44
T6
X54.61Y-88.9
X54.61Y-93.98
X59.69Y-88.9
X59.69Y-93.98
T7
X55.88Y-55.88
X55.88Y-106.68
X137.16Y-55.88
X137.16Y-106.68
T0
M30
