G04 #@! TF.GenerationSoftware,KiCad,Pcbnew,(6.0.9)*
G04 #@! TF.CreationDate,2022-12-14T01:21:17-05:00*
G04 #@! TF.ProjectId,usbcounter,75736263-6f75-46e7-9465-722e6b696361,rev?*
G04 #@! TF.SameCoordinates,Original*
G04 #@! TF.FileFunction,Paste,Top*
G04 #@! TF.FilePolarity,Positive*
%FSLAX46Y46*%
G04 Gerber Fmt 4.6, Leading zero omitted, Abs format (unit mm)*
G04 Created by KiCad (PCBNEW (6.0.9)) date 2022-12-14 01:21:17*
%MOMM*%
%LPD*%
G01*
G04 APERTURE LIST*
G04 Aperture macros list*
%AMRoundRect*
0 Rectangle with rounded corners*
0 $1 Rounding radius*
0 $2 $3 $4 $5 $6 $7 $8 $9 X,Y pos of 4 corners*
0 Add a 4 corners polygon primitive as box body*
4,1,4,$2,$3,$4,$5,$6,$7,$8,$9,$2,$3,0*
0 Add four circle primitives for the rounded corners*
1,1,$1+$1,$2,$3*
1,1,$1+$1,$4,$5*
1,1,$1+$1,$6,$7*
1,1,$1+$1,$8,$9*
0 Add four rect primitives between the rounded corners*
20,1,$1+$1,$2,$3,$4,$5,0*
20,1,$1+$1,$4,$5,$6,$7,0*
20,1,$1+$1,$6,$7,$8,$9,0*
20,1,$1+$1,$8,$9,$2,$3,0*%
G04 Aperture macros list end*
%ADD10R,1.700000X1.000000*%
%ADD11RoundRect,0.250000X0.450000X-0.350000X0.450000X0.350000X-0.450000X0.350000X-0.450000X-0.350000X0*%
%ADD12RoundRect,0.250000X-0.350000X-0.450000X0.350000X-0.450000X0.350000X0.450000X-0.350000X0.450000X0*%
%ADD13RoundRect,0.250000X0.475000X-0.337500X0.475000X0.337500X-0.475000X0.337500X-0.475000X-0.337500X0*%
%ADD14RoundRect,0.250000X-0.450000X0.325000X-0.450000X-0.325000X0.450000X-0.325000X0.450000X0.325000X0*%
%ADD15RoundRect,0.250000X-0.325000X-0.450000X0.325000X-0.450000X0.325000X0.450000X-0.325000X0.450000X0*%
%ADD16RoundRect,0.250000X0.325000X0.450000X-0.325000X0.450000X-0.325000X-0.450000X0.325000X-0.450000X0*%
%ADD17R,1.600000X0.550000*%
%ADD18R,0.550000X1.600000*%
%ADD19RoundRect,0.250000X-0.337500X-0.475000X0.337500X-0.475000X0.337500X0.475000X-0.337500X0.475000X0*%
%ADD20RoundRect,0.100000X-0.637500X-0.100000X0.637500X-0.100000X0.637500X0.100000X-0.637500X0.100000X0*%
%ADD21RoundRect,0.250000X-0.475000X0.337500X-0.475000X-0.337500X0.475000X-0.337500X0.475000X0.337500X0*%
%ADD22RoundRect,0.250000X0.337500X0.475000X-0.337500X0.475000X-0.337500X-0.475000X0.337500X-0.475000X0*%
%ADD23RoundRect,0.150000X-0.512500X-0.150000X0.512500X-0.150000X0.512500X0.150000X-0.512500X0.150000X0*%
%ADD24R,1.500000X2.000000*%
%ADD25R,3.800000X2.000000*%
%ADD26R,1.200000X0.400000*%
%ADD27R,1.200000X1.400000*%
%ADD28R,1.900000X1.900000*%
%ADD29R,1.350000X0.400000*%
G04 APERTURE END LIST*
D10*
X122530000Y-60066000D03*
X116230000Y-60066000D03*
X116230000Y-56266000D03*
X122530000Y-56266000D03*
D11*
X80518000Y-94726000D03*
X80518000Y-92726000D03*
D12*
X70628000Y-105156000D03*
X72628000Y-105156000D03*
D13*
X76962000Y-56917500D03*
X76962000Y-54842500D03*
D14*
X72390000Y-88129000D03*
X72390000Y-90179000D03*
D12*
X65040000Y-71882000D03*
X67040000Y-71882000D03*
D15*
X66539000Y-105156000D03*
X68589000Y-105156000D03*
D16*
X85861000Y-56388000D03*
X83811000Y-56388000D03*
X91440000Y-56388000D03*
X89390000Y-56388000D03*
D12*
X64532000Y-60198000D03*
X66532000Y-60198000D03*
D16*
X66557000Y-56388000D03*
X64507000Y-56388000D03*
D15*
X118092000Y-81280000D03*
X120142000Y-81280000D03*
D17*
X110050000Y-68320000D03*
X110050000Y-69120000D03*
X110050000Y-69920000D03*
X110050000Y-70720000D03*
X110050000Y-71520000D03*
X110050000Y-72320000D03*
X110050000Y-73120000D03*
X110050000Y-73920000D03*
D18*
X111500000Y-75370000D03*
X112300000Y-75370000D03*
X113100000Y-75370000D03*
X113900000Y-75370000D03*
X114700000Y-75370000D03*
X115500000Y-75370000D03*
X116300000Y-75370000D03*
X117100000Y-75370000D03*
D17*
X118550000Y-73920000D03*
X118550000Y-73120000D03*
X118550000Y-72320000D03*
X118550000Y-71520000D03*
X118550000Y-70720000D03*
X118550000Y-69920000D03*
X118550000Y-69120000D03*
X118550000Y-68320000D03*
D18*
X117100000Y-66870000D03*
X116300000Y-66870000D03*
X115500000Y-66870000D03*
X114700000Y-66870000D03*
X113900000Y-66870000D03*
X113100000Y-66870000D03*
X112300000Y-66870000D03*
X111500000Y-66870000D03*
D11*
X80518000Y-90154000D03*
X80518000Y-88154000D03*
D12*
X67850000Y-91440000D03*
X69850000Y-91440000D03*
D19*
X75438000Y-88900000D03*
X77513000Y-88900000D03*
D20*
X85783500Y-94103000D03*
X85783500Y-94753000D03*
X85783500Y-95403000D03*
X85783500Y-96053000D03*
X85783500Y-96703000D03*
X85783500Y-97353000D03*
X85783500Y-98003000D03*
X85783500Y-98653000D03*
X85783500Y-99303000D03*
X85783500Y-99953000D03*
X91508500Y-99953000D03*
X91508500Y-99303000D03*
X91508500Y-98653000D03*
X91508500Y-98003000D03*
X91508500Y-97353000D03*
X91508500Y-96703000D03*
X91508500Y-96053000D03*
X91508500Y-95403000D03*
X91508500Y-94753000D03*
X91508500Y-94103000D03*
D12*
X111268000Y-60452000D03*
X113268000Y-60452000D03*
X122190000Y-81280000D03*
X124190000Y-81280000D03*
D21*
X62484000Y-67796500D03*
X62484000Y-69871500D03*
D22*
X114786500Y-64008000D03*
X116861500Y-64008000D03*
D19*
X75438000Y-91440000D03*
X77513000Y-91440000D03*
D12*
X83836000Y-60198000D03*
X85836000Y-60198000D03*
D21*
X76962000Y-59922500D03*
X76962000Y-61997500D03*
D14*
X72390000Y-92701000D03*
X72390000Y-94751000D03*
D23*
X84460500Y-87950000D03*
X84460500Y-88900000D03*
X84460500Y-89850000D03*
X86735500Y-89850000D03*
X86735500Y-87950000D03*
D24*
X69582000Y-61570000D03*
X71882000Y-61570000D03*
D25*
X71882000Y-55270000D03*
D24*
X74182000Y-61570000D03*
D12*
X89415000Y-60198000D03*
X91415000Y-60198000D03*
D13*
X89408000Y-89937500D03*
X89408000Y-87862500D03*
D12*
X65040000Y-69850000D03*
X67040000Y-69850000D03*
D19*
X120882500Y-75946000D03*
X122957500Y-75946000D03*
D15*
X64507000Y-64008000D03*
X66557000Y-64008000D03*
D26*
X73092000Y-69278500D03*
X73092000Y-69913500D03*
X73092000Y-70548500D03*
X73092000Y-71183500D03*
X73092000Y-71818500D03*
X73092000Y-72453500D03*
X73092000Y-73088500D03*
X73092000Y-73723500D03*
X73092000Y-74358500D03*
X73092000Y-74993500D03*
X78292000Y-74993500D03*
X78292000Y-74358500D03*
X78292000Y-73723500D03*
X78292000Y-73088500D03*
X78292000Y-72453500D03*
X78292000Y-71818500D03*
X78292000Y-71183500D03*
X78292000Y-70548500D03*
X78292000Y-69913500D03*
X78292000Y-69278500D03*
D13*
X62484000Y-73935500D03*
X62484000Y-71860500D03*
D27*
X122616000Y-73590000D03*
X122616000Y-71190000D03*
X120716000Y-71190000D03*
X120716000Y-73590000D03*
D28*
X55845000Y-75070000D03*
X55845000Y-72320000D03*
X55845000Y-69920000D03*
X55845000Y-67170000D03*
D29*
X58520000Y-71770000D03*
X58520000Y-71120000D03*
X58520000Y-70470000D03*
X58520000Y-72420000D03*
X58520000Y-69820000D03*
M02*
