%TF.GenerationSoftware,KiCad,Pcbnew,(6.0.9)*%
%TF.CreationDate,2022-12-14T01:21:41-05:00*%
%TF.ProjectId,usbcounter,75736263-6f75-46e7-9465-722e6b696361,rev?*%
%TF.SameCoordinates,Original*%
%TF.FileFunction,Drillmap*%
%TF.FilePolarity,Positive*%
%FSLAX45Y45*%
G04 Gerber Fmt 4.5, Leading zero omitted, Abs format (unit mm)*
G04 Created by KiCad (PCBNEW (6.0.9)) date 2022-12-14 01:21:41*
%MOMM*%
%LPD*%
G01*
G04 APERTURE LIST*
%ADD10C,0.100000*%
%ADD11C,0.200000*%
%ADD12C,0.030000*%
%ADD13C,0.040000*%
%ADD14C,0.080000*%
%ADD15C,0.150000*%
%ADD16C,0.170000*%
%ADD17C,0.430000*%
G04 APERTURE END LIST*
D10*
X13716000Y-11176000D02*
G75*
G03*
X14224000Y-10668000I0J508000D01*
G01*
X5080000Y-10668000D02*
X5080000Y-5588000D01*
X5588000Y-5080000D02*
X13716000Y-5080000D01*
X14224000Y-5588000D02*
G75*
G03*
X13716000Y-5080000I-508000J0D01*
G01*
X5080000Y-10668000D02*
G75*
G03*
X5588000Y-11176000I508000J0D01*
G01*
X13716000Y-11176000D02*
X5588000Y-11176000D01*
X14224000Y-5588000D02*
X14224000Y-10668000D01*
X5588000Y-5080000D02*
G75*
G03*
X5080000Y-5588000I0J-508000D01*
G01*
D11*
D12*
X6487400Y-10500600D02*
X6517400Y-10530600D01*
X6517400Y-10500600D02*
X6487400Y-10530600D01*
X6792200Y-5573000D02*
X6822200Y-5603000D01*
X6822200Y-5573000D02*
X6792200Y-5603000D01*
X6830300Y-7173200D02*
X6860300Y-7203200D01*
X6860300Y-7173200D02*
X6830300Y-7203200D01*
X6843000Y-6970000D02*
X6873000Y-7000000D01*
X6873000Y-6970000D02*
X6843000Y-7000000D01*
X7071600Y-9459200D02*
X7101600Y-9489200D01*
X7101600Y-9459200D02*
X7071600Y-9489200D01*
X7147800Y-6295850D02*
X7177800Y-6325850D01*
X7177800Y-6295850D02*
X7147800Y-6325850D01*
X7147800Y-6766800D02*
X7177800Y-6796800D01*
X7177800Y-6766800D02*
X7147800Y-6796800D01*
X7154150Y-7230350D02*
X7184150Y-7260350D01*
X7184150Y-7230350D02*
X7154150Y-7260350D01*
X7630400Y-7554200D02*
X7660400Y-7584200D01*
X7660400Y-7554200D02*
X7630400Y-7584200D01*
X7664475Y-7418489D02*
X7694475Y-7448489D01*
X7694475Y-7418489D02*
X7664475Y-7448489D01*
X7884400Y-9459200D02*
X7914400Y-9489200D01*
X7914400Y-9459200D02*
X7884400Y-9489200D01*
X7986000Y-7249400D02*
X8016000Y-7279400D01*
X8016000Y-7249400D02*
X7986000Y-7279400D01*
D13*
X5963600Y-7340600D02*
G75*
G03*
X5963600Y-7340600I-20000J0D01*
G01*
X5963600Y-7442200D02*
G75*
G03*
X5963600Y-7442200I-20000J0D01*
G01*
X6039800Y-7289800D02*
G75*
G03*
X6039800Y-7289800I-20000J0D01*
G01*
X6039800Y-7391400D02*
G75*
G03*
X6039800Y-7391400I-20000J0D01*
G01*
X6268400Y-6654800D02*
G75*
G03*
X6268400Y-6654800I-20000J0D01*
G01*
X6268400Y-7518400D02*
G75*
G03*
X6268400Y-7518400I-20000J0D01*
G01*
X6979600Y-5994400D02*
G75*
G03*
X6979600Y-5994400I-20000J0D01*
G01*
X7498102Y-7177698D02*
G75*
G03*
X7498102Y-7177698I-20000J0D01*
G01*
X7640000Y-5867400D02*
G75*
G03*
X7640000Y-5867400I-20000J0D01*
G01*
X7792400Y-5816600D02*
G75*
G03*
X7792400Y-5816600I-20000J0D01*
G01*
X7843200Y-6832600D02*
G75*
G03*
X7843200Y-6832600I-20000J0D01*
G01*
X8452800Y-9093200D02*
G75*
G03*
X8452800Y-9093200I-20000J0D01*
G01*
X8605200Y-10109200D02*
G75*
G03*
X8605200Y-10109200I-20000J0D01*
G01*
X8960800Y-9118600D02*
G75*
G03*
X8960800Y-9118600I-20000J0D01*
G01*
X9875200Y-6629400D02*
G75*
G03*
X9875200Y-6629400I-20000J0D01*
G01*
X9926000Y-6451600D02*
G75*
G03*
X9926000Y-6451600I-20000J0D01*
G01*
X10535600Y-7010400D02*
G75*
G03*
X10535600Y-7010400I-20000J0D01*
G01*
X10637200Y-6908800D02*
G75*
G03*
X10637200Y-6908800I-20000J0D01*
G01*
X10637200Y-7975600D02*
G75*
G03*
X10637200Y-7975600I-20000J0D01*
G01*
X10713400Y-8280400D02*
G75*
G03*
X10713400Y-8280400I-20000J0D01*
G01*
X10738800Y-6832600D02*
G75*
G03*
X10738800Y-6832600I-20000J0D01*
G01*
X10738800Y-7848600D02*
G75*
G03*
X10738800Y-7848600I-20000J0D01*
G01*
X10840400Y-6705600D02*
G75*
G03*
X10840400Y-6705600I-20000J0D01*
G01*
X10840400Y-7721600D02*
G75*
G03*
X10840400Y-7721600I-20000J0D01*
G01*
X11246800Y-7188200D02*
G75*
G03*
X11246800Y-7188200I-20000J0D01*
G01*
X11399200Y-6832600D02*
G75*
G03*
X11399200Y-6832600I-20000J0D01*
G01*
X11475400Y-5638800D02*
G75*
G03*
X11475400Y-5638800I-20000J0D01*
G01*
X11577000Y-6883400D02*
G75*
G03*
X11577000Y-6883400I-20000J0D01*
G01*
X11644950Y-7721600D02*
G75*
G03*
X11644950Y-7721600I-20000J0D01*
G01*
X11678600Y-6985000D02*
G75*
G03*
X11678600Y-6985000I-20000J0D01*
G01*
X11704000Y-6248400D02*
G75*
G03*
X11704000Y-6248400I-20000J0D01*
G01*
X11704000Y-7188200D02*
G75*
G03*
X11704000Y-7188200I-20000J0D01*
G01*
X11907200Y-6604000D02*
G75*
G03*
X11907200Y-6604000I-20000J0D01*
G01*
X11958000Y-6705600D02*
G75*
G03*
X11958000Y-6705600I-20000J0D01*
G01*
X12110400Y-6705600D02*
G75*
G03*
X12110400Y-6705600I-20000J0D01*
G01*
X12262800Y-6908800D02*
G75*
G03*
X12262800Y-6908800I-20000J0D01*
G01*
X12440600Y-7213600D02*
G75*
G03*
X12440600Y-7213600I-20000J0D01*
G01*
X12450760Y-7533640D02*
G75*
G03*
X12450760Y-7533640I-20000J0D01*
G01*
D14*
X6477000Y-9104000D02*
X6477000Y-9184000D01*
X6437000Y-9144000D02*
X6517000Y-9144000D01*
X6477000Y-9866000D02*
X6477000Y-9946000D01*
X6437000Y-9906000D02*
X6517000Y-9906000D01*
D10*
X13751356Y-7147356D02*
X13751356Y-7076644D01*
X13680644Y-7076644D01*
X13680644Y-7147356D01*
X13751356Y-7147356D01*
X13751356Y-7401356D02*
X13751356Y-7330644D01*
X13680644Y-7330644D01*
X13680644Y-7401356D01*
X13751356Y-7401356D01*
X13751356Y-7655356D02*
X13751356Y-7584644D01*
X13680644Y-7584644D01*
X13680644Y-7655356D01*
X13751356Y-7655356D01*
X13751356Y-8671356D02*
X13751356Y-8600644D01*
X13680644Y-8600644D01*
X13680644Y-8671356D01*
X13751356Y-8671356D01*
X13751356Y-8925356D02*
X13751356Y-8854644D01*
X13680644Y-8854644D01*
X13680644Y-8925356D01*
X13751356Y-8925356D01*
X13751356Y-9179356D02*
X13751356Y-9108644D01*
X13680644Y-9108644D01*
X13680644Y-9179356D01*
X13751356Y-9179356D01*
X13751356Y-9433356D02*
X13751356Y-9362644D01*
X13680644Y-9362644D01*
X13680644Y-9433356D01*
X13751356Y-9433356D01*
X13751356Y-9687356D02*
X13751356Y-9616644D01*
X13680644Y-9616644D01*
X13680644Y-9687356D01*
X13751356Y-9687356D01*
D15*
X5715000Y-9219000D02*
X5790000Y-9144000D01*
X5715000Y-9069000D01*
X5640000Y-9144000D01*
X5715000Y-9219000D01*
D16*
X5376000Y-8805000D02*
X5546000Y-8975000D01*
X5546000Y-8805000D02*
X5376000Y-8975000D01*
X5546000Y-8890000D02*
G75*
G03*
X5546000Y-8890000I-85000J0D01*
G01*
X5376000Y-9313000D02*
X5546000Y-9483000D01*
X5546000Y-9313000D02*
X5376000Y-9483000D01*
X5546000Y-9398000D02*
G75*
G03*
X5546000Y-9398000I-85000J0D01*
G01*
X5884000Y-8805000D02*
X6054000Y-8975000D01*
X6054000Y-8805000D02*
X5884000Y-8975000D01*
X6054000Y-8890000D02*
G75*
G03*
X6054000Y-8890000I-85000J0D01*
G01*
X5884000Y-9313000D02*
X6054000Y-9483000D01*
X6054000Y-9313000D02*
X5884000Y-9483000D01*
X6054000Y-9398000D02*
G75*
G03*
X6054000Y-9398000I-85000J0D01*
G01*
D17*
X5373000Y-5373000D02*
X5803000Y-5803000D01*
X5803000Y-5373000D02*
X5373000Y-5803000D01*
X5588000Y-5373000D02*
X5588000Y-5803000D01*
X5373000Y-5588000D02*
X5803000Y-5588000D01*
X5373000Y-10453000D02*
X5803000Y-10883000D01*
X5803000Y-10453000D02*
X5373000Y-10883000D01*
X5588000Y-10453000D02*
X5588000Y-10883000D01*
X5373000Y-10668000D02*
X5803000Y-10668000D01*
X13501000Y-5373000D02*
X13931000Y-5803000D01*
X13931000Y-5373000D02*
X13501000Y-5803000D01*
X13716000Y-5373000D02*
X13716000Y-5803000D01*
X13501000Y-5588000D02*
X13931000Y-5588000D01*
X13501000Y-10453000D02*
X13931000Y-10883000D01*
X13931000Y-10453000D02*
X13501000Y-10883000D01*
X13716000Y-10453000D02*
X13716000Y-10883000D01*
X13501000Y-10668000D02*
X13931000Y-10668000D01*
D11*
X5332619Y-11491476D02*
X5332619Y-11291476D01*
X5380238Y-11291476D01*
X5408809Y-11301000D01*
X5427857Y-11320048D01*
X5437381Y-11339095D01*
X5446905Y-11377191D01*
X5446905Y-11405762D01*
X5437381Y-11443857D01*
X5427857Y-11462905D01*
X5408809Y-11481952D01*
X5380238Y-11491476D01*
X5332619Y-11491476D01*
X5532619Y-11491476D02*
X5532619Y-11358143D01*
X5532619Y-11396238D02*
X5542143Y-11377191D01*
X5551666Y-11367667D01*
X5570714Y-11358143D01*
X5589762Y-11358143D01*
X5656428Y-11491476D02*
X5656428Y-11358143D01*
X5656428Y-11291476D02*
X5646904Y-11301000D01*
X5656428Y-11310524D01*
X5665952Y-11301000D01*
X5656428Y-11291476D01*
X5656428Y-11310524D01*
X5780238Y-11491476D02*
X5761190Y-11481952D01*
X5751666Y-11462905D01*
X5751666Y-11291476D01*
X5885000Y-11491476D02*
X5865952Y-11481952D01*
X5856428Y-11462905D01*
X5856428Y-11291476D01*
X6113571Y-11491476D02*
X6113571Y-11291476D01*
X6180238Y-11434333D01*
X6246904Y-11291476D01*
X6246904Y-11491476D01*
X6427857Y-11491476D02*
X6427857Y-11386714D01*
X6418333Y-11367667D01*
X6399285Y-11358143D01*
X6361190Y-11358143D01*
X6342143Y-11367667D01*
X6427857Y-11481952D02*
X6408809Y-11491476D01*
X6361190Y-11491476D01*
X6342143Y-11481952D01*
X6332619Y-11462905D01*
X6332619Y-11443857D01*
X6342143Y-11424810D01*
X6361190Y-11415286D01*
X6408809Y-11415286D01*
X6427857Y-11405762D01*
X6523095Y-11358143D02*
X6523095Y-11558143D01*
X6523095Y-11367667D02*
X6542143Y-11358143D01*
X6580238Y-11358143D01*
X6599285Y-11367667D01*
X6608809Y-11377191D01*
X6618333Y-11396238D01*
X6618333Y-11453381D01*
X6608809Y-11472429D01*
X6599285Y-11481952D01*
X6580238Y-11491476D01*
X6542143Y-11491476D01*
X6523095Y-11481952D01*
X6704047Y-11472429D02*
X6713571Y-11481952D01*
X6704047Y-11491476D01*
X6694524Y-11481952D01*
X6704047Y-11472429D01*
X6704047Y-11491476D01*
X6704047Y-11367667D02*
X6713571Y-11377191D01*
X6704047Y-11386714D01*
X6694524Y-11377191D01*
X6704047Y-11367667D01*
X6704047Y-11386714D01*
D12*
X5045000Y-11806000D02*
X5075000Y-11836000D01*
X5075000Y-11806000D02*
X5045000Y-11836000D01*
D11*
X5370714Y-11711476D02*
X5389762Y-11711476D01*
X5408809Y-11721000D01*
X5418333Y-11730524D01*
X5427857Y-11749572D01*
X5437381Y-11787667D01*
X5437381Y-11835286D01*
X5427857Y-11873381D01*
X5418333Y-11892429D01*
X5408809Y-11901952D01*
X5389762Y-11911476D01*
X5370714Y-11911476D01*
X5351666Y-11901952D01*
X5342143Y-11892429D01*
X5332619Y-11873381D01*
X5323095Y-11835286D01*
X5323095Y-11787667D01*
X5332619Y-11749572D01*
X5342143Y-11730524D01*
X5351666Y-11721000D01*
X5370714Y-11711476D01*
X5523095Y-11892429D02*
X5532619Y-11901952D01*
X5523095Y-11911476D01*
X5513571Y-11901952D01*
X5523095Y-11892429D01*
X5523095Y-11911476D01*
X5599285Y-11711476D02*
X5723095Y-11711476D01*
X5656428Y-11787667D01*
X5685000Y-11787667D01*
X5704047Y-11797191D01*
X5713571Y-11806714D01*
X5723095Y-11825762D01*
X5723095Y-11873381D01*
X5713571Y-11892429D01*
X5704047Y-11901952D01*
X5685000Y-11911476D01*
X5627857Y-11911476D01*
X5608809Y-11901952D01*
X5599285Y-11892429D01*
X5846904Y-11711476D02*
X5865952Y-11711476D01*
X5885000Y-11721000D01*
X5894524Y-11730524D01*
X5904047Y-11749572D01*
X5913571Y-11787667D01*
X5913571Y-11835286D01*
X5904047Y-11873381D01*
X5894524Y-11892429D01*
X5885000Y-11901952D01*
X5865952Y-11911476D01*
X5846904Y-11911476D01*
X5827857Y-11901952D01*
X5818333Y-11892429D01*
X5808809Y-11873381D01*
X5799285Y-11835286D01*
X5799285Y-11787667D01*
X5808809Y-11749572D01*
X5818333Y-11730524D01*
X5827857Y-11721000D01*
X5846904Y-11711476D01*
X6037381Y-11711476D02*
X6056428Y-11711476D01*
X6075476Y-11721000D01*
X6085000Y-11730524D01*
X6094524Y-11749572D01*
X6104047Y-11787667D01*
X6104047Y-11835286D01*
X6094524Y-11873381D01*
X6085000Y-11892429D01*
X6075476Y-11901952D01*
X6056428Y-11911476D01*
X6037381Y-11911476D01*
X6018333Y-11901952D01*
X6008809Y-11892429D01*
X5999285Y-11873381D01*
X5989762Y-11835286D01*
X5989762Y-11787667D01*
X5999285Y-11749572D01*
X6008809Y-11730524D01*
X6018333Y-11721000D01*
X6037381Y-11711476D01*
X6189762Y-11911476D02*
X6189762Y-11778143D01*
X6189762Y-11797191D02*
X6199285Y-11787667D01*
X6218333Y-11778143D01*
X6246904Y-11778143D01*
X6265952Y-11787667D01*
X6275476Y-11806714D01*
X6275476Y-11911476D01*
X6275476Y-11806714D02*
X6285000Y-11787667D01*
X6304047Y-11778143D01*
X6332619Y-11778143D01*
X6351666Y-11787667D01*
X6361190Y-11806714D01*
X6361190Y-11911476D01*
X6456428Y-11911476D02*
X6456428Y-11778143D01*
X6456428Y-11797191D02*
X6465952Y-11787667D01*
X6485000Y-11778143D01*
X6513571Y-11778143D01*
X6532619Y-11787667D01*
X6542143Y-11806714D01*
X6542143Y-11911476D01*
X6542143Y-11806714D02*
X6551666Y-11787667D01*
X6570714Y-11778143D01*
X6599285Y-11778143D01*
X6618333Y-11787667D01*
X6627857Y-11806714D01*
X6627857Y-11911476D01*
X7018333Y-11701952D02*
X6846904Y-11959095D01*
X7275476Y-11711476D02*
X7294524Y-11711476D01*
X7313571Y-11721000D01*
X7323095Y-11730524D01*
X7332619Y-11749572D01*
X7342143Y-11787667D01*
X7342143Y-11835286D01*
X7332619Y-11873381D01*
X7323095Y-11892429D01*
X7313571Y-11901952D01*
X7294524Y-11911476D01*
X7275476Y-11911476D01*
X7256428Y-11901952D01*
X7246904Y-11892429D01*
X7237381Y-11873381D01*
X7227857Y-11835286D01*
X7227857Y-11787667D01*
X7237381Y-11749572D01*
X7246904Y-11730524D01*
X7256428Y-11721000D01*
X7275476Y-11711476D01*
X7427857Y-11892429D02*
X7437381Y-11901952D01*
X7427857Y-11911476D01*
X7418333Y-11901952D01*
X7427857Y-11892429D01*
X7427857Y-11911476D01*
X7561190Y-11711476D02*
X7580238Y-11711476D01*
X7599285Y-11721000D01*
X7608809Y-11730524D01*
X7618333Y-11749572D01*
X7627857Y-11787667D01*
X7627857Y-11835286D01*
X7618333Y-11873381D01*
X7608809Y-11892429D01*
X7599285Y-11901952D01*
X7580238Y-11911476D01*
X7561190Y-11911476D01*
X7542143Y-11901952D01*
X7532619Y-11892429D01*
X7523095Y-11873381D01*
X7513571Y-11835286D01*
X7513571Y-11787667D01*
X7523095Y-11749572D01*
X7532619Y-11730524D01*
X7542143Y-11721000D01*
X7561190Y-11711476D01*
X7818333Y-11911476D02*
X7704047Y-11911476D01*
X7761190Y-11911476D02*
X7761190Y-11711476D01*
X7742143Y-11740048D01*
X7723095Y-11759095D01*
X7704047Y-11768619D01*
X8008809Y-11911476D02*
X7894524Y-11911476D01*
X7951666Y-11911476D02*
X7951666Y-11711476D01*
X7932619Y-11740048D01*
X7913571Y-11759095D01*
X7894524Y-11768619D01*
X8123095Y-11797191D02*
X8104047Y-11787667D01*
X8094524Y-11778143D01*
X8085000Y-11759095D01*
X8085000Y-11749572D01*
X8094524Y-11730524D01*
X8104047Y-11721000D01*
X8123095Y-11711476D01*
X8161190Y-11711476D01*
X8180238Y-11721000D01*
X8189762Y-11730524D01*
X8199285Y-11749572D01*
X8199285Y-11759095D01*
X8189762Y-11778143D01*
X8180238Y-11787667D01*
X8161190Y-11797191D01*
X8123095Y-11797191D01*
X8104047Y-11806714D01*
X8094524Y-11816238D01*
X8085000Y-11835286D01*
X8085000Y-11873381D01*
X8094524Y-11892429D01*
X8104047Y-11901952D01*
X8123095Y-11911476D01*
X8161190Y-11911476D01*
X8180238Y-11901952D01*
X8189762Y-11892429D01*
X8199285Y-11873381D01*
X8199285Y-11835286D01*
X8189762Y-11816238D01*
X8180238Y-11806714D01*
X8161190Y-11797191D01*
X8275476Y-11711476D02*
X8275476Y-11749572D01*
X8351666Y-11711476D02*
X8351666Y-11749572D01*
X8646905Y-11987667D02*
X8637381Y-11978143D01*
X8618333Y-11949572D01*
X8608809Y-11930524D01*
X8599286Y-11901952D01*
X8589762Y-11854333D01*
X8589762Y-11816238D01*
X8599286Y-11768619D01*
X8608809Y-11740048D01*
X8618333Y-11721000D01*
X8637381Y-11692429D01*
X8646905Y-11682905D01*
X8827857Y-11911476D02*
X8713571Y-11911476D01*
X8770714Y-11911476D02*
X8770714Y-11711476D01*
X8751666Y-11740048D01*
X8732619Y-11759095D01*
X8713571Y-11768619D01*
X8904047Y-11730524D02*
X8913571Y-11721000D01*
X8932619Y-11711476D01*
X8980238Y-11711476D01*
X8999286Y-11721000D01*
X9008809Y-11730524D01*
X9018333Y-11749572D01*
X9018333Y-11768619D01*
X9008809Y-11797191D01*
X8894524Y-11911476D01*
X9018333Y-11911476D01*
X9256428Y-11911476D02*
X9256428Y-11711476D01*
X9342143Y-11911476D02*
X9342143Y-11806714D01*
X9332619Y-11787667D01*
X9313571Y-11778143D01*
X9285000Y-11778143D01*
X9265952Y-11787667D01*
X9256428Y-11797191D01*
X9465952Y-11911476D02*
X9446905Y-11901952D01*
X9437381Y-11892429D01*
X9427857Y-11873381D01*
X9427857Y-11816238D01*
X9437381Y-11797191D01*
X9446905Y-11787667D01*
X9465952Y-11778143D01*
X9494524Y-11778143D01*
X9513571Y-11787667D01*
X9523095Y-11797191D01*
X9532619Y-11816238D01*
X9532619Y-11873381D01*
X9523095Y-11892429D01*
X9513571Y-11901952D01*
X9494524Y-11911476D01*
X9465952Y-11911476D01*
X9646905Y-11911476D02*
X9627857Y-11901952D01*
X9618333Y-11882905D01*
X9618333Y-11711476D01*
X9799286Y-11901952D02*
X9780238Y-11911476D01*
X9742143Y-11911476D01*
X9723095Y-11901952D01*
X9713571Y-11882905D01*
X9713571Y-11806714D01*
X9723095Y-11787667D01*
X9742143Y-11778143D01*
X9780238Y-11778143D01*
X9799286Y-11787667D01*
X9808809Y-11806714D01*
X9808809Y-11825762D01*
X9713571Y-11844810D01*
X9885000Y-11901952D02*
X9904047Y-11911476D01*
X9942143Y-11911476D01*
X9961190Y-11901952D01*
X9970714Y-11882905D01*
X9970714Y-11873381D01*
X9961190Y-11854333D01*
X9942143Y-11844810D01*
X9913571Y-11844810D01*
X9894524Y-11835286D01*
X9885000Y-11816238D01*
X9885000Y-11806714D01*
X9894524Y-11787667D01*
X9913571Y-11778143D01*
X9942143Y-11778143D01*
X9961190Y-11787667D01*
X10037381Y-11987667D02*
X10046905Y-11978143D01*
X10065952Y-11949572D01*
X10075476Y-11930524D01*
X10085000Y-11901952D01*
X10094524Y-11854333D01*
X10094524Y-11816238D01*
X10085000Y-11768619D01*
X10075476Y-11740048D01*
X10065952Y-11721000D01*
X10046905Y-11692429D01*
X10037381Y-11682905D01*
D13*
X5075000Y-12085000D02*
G75*
G03*
X5075000Y-12085000I-20000J0D01*
G01*
D11*
X5370714Y-11975476D02*
X5389762Y-11975476D01*
X5408809Y-11985000D01*
X5418333Y-11994524D01*
X5427857Y-12013572D01*
X5437381Y-12051667D01*
X5437381Y-12099286D01*
X5427857Y-12137381D01*
X5418333Y-12156429D01*
X5408809Y-12165952D01*
X5389762Y-12175476D01*
X5370714Y-12175476D01*
X5351666Y-12165952D01*
X5342143Y-12156429D01*
X5332619Y-12137381D01*
X5323095Y-12099286D01*
X5323095Y-12051667D01*
X5332619Y-12013572D01*
X5342143Y-11994524D01*
X5351666Y-11985000D01*
X5370714Y-11975476D01*
X5523095Y-12156429D02*
X5532619Y-12165952D01*
X5523095Y-12175476D01*
X5513571Y-12165952D01*
X5523095Y-12156429D01*
X5523095Y-12175476D01*
X5704047Y-12042143D02*
X5704047Y-12175476D01*
X5656428Y-11965952D02*
X5608809Y-12108810D01*
X5732619Y-12108810D01*
X5846904Y-11975476D02*
X5865952Y-11975476D01*
X5885000Y-11985000D01*
X5894524Y-11994524D01*
X5904047Y-12013572D01*
X5913571Y-12051667D01*
X5913571Y-12099286D01*
X5904047Y-12137381D01*
X5894524Y-12156429D01*
X5885000Y-12165952D01*
X5865952Y-12175476D01*
X5846904Y-12175476D01*
X5827857Y-12165952D01*
X5818333Y-12156429D01*
X5808809Y-12137381D01*
X5799285Y-12099286D01*
X5799285Y-12051667D01*
X5808809Y-12013572D01*
X5818333Y-11994524D01*
X5827857Y-11985000D01*
X5846904Y-11975476D01*
X6037381Y-11975476D02*
X6056428Y-11975476D01*
X6075476Y-11985000D01*
X6085000Y-11994524D01*
X6094524Y-12013572D01*
X6104047Y-12051667D01*
X6104047Y-12099286D01*
X6094524Y-12137381D01*
X6085000Y-12156429D01*
X6075476Y-12165952D01*
X6056428Y-12175476D01*
X6037381Y-12175476D01*
X6018333Y-12165952D01*
X6008809Y-12156429D01*
X5999285Y-12137381D01*
X5989762Y-12099286D01*
X5989762Y-12051667D01*
X5999285Y-12013572D01*
X6008809Y-11994524D01*
X6018333Y-11985000D01*
X6037381Y-11975476D01*
X6189762Y-12175476D02*
X6189762Y-12042143D01*
X6189762Y-12061191D02*
X6199285Y-12051667D01*
X6218333Y-12042143D01*
X6246904Y-12042143D01*
X6265952Y-12051667D01*
X6275476Y-12070714D01*
X6275476Y-12175476D01*
X6275476Y-12070714D02*
X6285000Y-12051667D01*
X6304047Y-12042143D01*
X6332619Y-12042143D01*
X6351666Y-12051667D01*
X6361190Y-12070714D01*
X6361190Y-12175476D01*
X6456428Y-12175476D02*
X6456428Y-12042143D01*
X6456428Y-12061191D02*
X6465952Y-12051667D01*
X6485000Y-12042143D01*
X6513571Y-12042143D01*
X6532619Y-12051667D01*
X6542143Y-12070714D01*
X6542143Y-12175476D01*
X6542143Y-12070714D02*
X6551666Y-12051667D01*
X6570714Y-12042143D01*
X6599285Y-12042143D01*
X6618333Y-12051667D01*
X6627857Y-12070714D01*
X6627857Y-12175476D01*
X7018333Y-11965952D02*
X6846904Y-12223095D01*
X7275476Y-11975476D02*
X7294524Y-11975476D01*
X7313571Y-11985000D01*
X7323095Y-11994524D01*
X7332619Y-12013572D01*
X7342143Y-12051667D01*
X7342143Y-12099286D01*
X7332619Y-12137381D01*
X7323095Y-12156429D01*
X7313571Y-12165952D01*
X7294524Y-12175476D01*
X7275476Y-12175476D01*
X7256428Y-12165952D01*
X7246904Y-12156429D01*
X7237381Y-12137381D01*
X7227857Y-12099286D01*
X7227857Y-12051667D01*
X7237381Y-12013572D01*
X7246904Y-11994524D01*
X7256428Y-11985000D01*
X7275476Y-11975476D01*
X7427857Y-12156429D02*
X7437381Y-12165952D01*
X7427857Y-12175476D01*
X7418333Y-12165952D01*
X7427857Y-12156429D01*
X7427857Y-12175476D01*
X7561190Y-11975476D02*
X7580238Y-11975476D01*
X7599285Y-11985000D01*
X7608809Y-11994524D01*
X7618333Y-12013572D01*
X7627857Y-12051667D01*
X7627857Y-12099286D01*
X7618333Y-12137381D01*
X7608809Y-12156429D01*
X7599285Y-12165952D01*
X7580238Y-12175476D01*
X7561190Y-12175476D01*
X7542143Y-12165952D01*
X7532619Y-12156429D01*
X7523095Y-12137381D01*
X7513571Y-12099286D01*
X7513571Y-12051667D01*
X7523095Y-12013572D01*
X7532619Y-11994524D01*
X7542143Y-11985000D01*
X7561190Y-11975476D01*
X7818333Y-12175476D02*
X7704047Y-12175476D01*
X7761190Y-12175476D02*
X7761190Y-11975476D01*
X7742143Y-12004048D01*
X7723095Y-12023095D01*
X7704047Y-12032619D01*
X7999285Y-11975476D02*
X7904047Y-11975476D01*
X7894524Y-12070714D01*
X7904047Y-12061191D01*
X7923095Y-12051667D01*
X7970714Y-12051667D01*
X7989762Y-12061191D01*
X7999285Y-12070714D01*
X8008809Y-12089762D01*
X8008809Y-12137381D01*
X7999285Y-12156429D01*
X7989762Y-12165952D01*
X7970714Y-12175476D01*
X7923095Y-12175476D01*
X7904047Y-12165952D01*
X7894524Y-12156429D01*
X8075476Y-11975476D02*
X8208809Y-11975476D01*
X8123095Y-12175476D01*
X8275476Y-11975476D02*
X8275476Y-12013572D01*
X8351666Y-11975476D02*
X8351666Y-12013572D01*
X8646905Y-12251667D02*
X8637381Y-12242143D01*
X8618333Y-12213572D01*
X8608809Y-12194524D01*
X8599286Y-12165952D01*
X8589762Y-12118333D01*
X8589762Y-12080238D01*
X8599286Y-12032619D01*
X8608809Y-12004048D01*
X8618333Y-11985000D01*
X8637381Y-11956429D01*
X8646905Y-11946905D01*
X8704047Y-11975476D02*
X8827857Y-11975476D01*
X8761190Y-12051667D01*
X8789762Y-12051667D01*
X8808809Y-12061191D01*
X8818333Y-12070714D01*
X8827857Y-12089762D01*
X8827857Y-12137381D01*
X8818333Y-12156429D01*
X8808809Y-12165952D01*
X8789762Y-12175476D01*
X8732619Y-12175476D01*
X8713571Y-12165952D01*
X8704047Y-12156429D01*
X8942143Y-12061191D02*
X8923095Y-12051667D01*
X8913571Y-12042143D01*
X8904047Y-12023095D01*
X8904047Y-12013572D01*
X8913571Y-11994524D01*
X8923095Y-11985000D01*
X8942143Y-11975476D01*
X8980238Y-11975476D01*
X8999286Y-11985000D01*
X9008809Y-11994524D01*
X9018333Y-12013572D01*
X9018333Y-12023095D01*
X9008809Y-12042143D01*
X8999286Y-12051667D01*
X8980238Y-12061191D01*
X8942143Y-12061191D01*
X8923095Y-12070714D01*
X8913571Y-12080238D01*
X8904047Y-12099286D01*
X8904047Y-12137381D01*
X8913571Y-12156429D01*
X8923095Y-12165952D01*
X8942143Y-12175476D01*
X8980238Y-12175476D01*
X8999286Y-12165952D01*
X9008809Y-12156429D01*
X9018333Y-12137381D01*
X9018333Y-12099286D01*
X9008809Y-12080238D01*
X8999286Y-12070714D01*
X8980238Y-12061191D01*
X9256428Y-12175476D02*
X9256428Y-11975476D01*
X9342143Y-12175476D02*
X9342143Y-12070714D01*
X9332619Y-12051667D01*
X9313571Y-12042143D01*
X9285000Y-12042143D01*
X9265952Y-12051667D01*
X9256428Y-12061191D01*
X9465952Y-12175476D02*
X9446905Y-12165952D01*
X9437381Y-12156429D01*
X9427857Y-12137381D01*
X9427857Y-12080238D01*
X9437381Y-12061191D01*
X9446905Y-12051667D01*
X9465952Y-12042143D01*
X9494524Y-12042143D01*
X9513571Y-12051667D01*
X9523095Y-12061191D01*
X9532619Y-12080238D01*
X9532619Y-12137381D01*
X9523095Y-12156429D01*
X9513571Y-12165952D01*
X9494524Y-12175476D01*
X9465952Y-12175476D01*
X9646905Y-12175476D02*
X9627857Y-12165952D01*
X9618333Y-12146905D01*
X9618333Y-11975476D01*
X9799286Y-12165952D02*
X9780238Y-12175476D01*
X9742143Y-12175476D01*
X9723095Y-12165952D01*
X9713571Y-12146905D01*
X9713571Y-12070714D01*
X9723095Y-12051667D01*
X9742143Y-12042143D01*
X9780238Y-12042143D01*
X9799286Y-12051667D01*
X9808809Y-12070714D01*
X9808809Y-12089762D01*
X9713571Y-12108810D01*
X9885000Y-12165952D02*
X9904047Y-12175476D01*
X9942143Y-12175476D01*
X9961190Y-12165952D01*
X9970714Y-12146905D01*
X9970714Y-12137381D01*
X9961190Y-12118333D01*
X9942143Y-12108810D01*
X9913571Y-12108810D01*
X9894524Y-12099286D01*
X9885000Y-12080238D01*
X9885000Y-12070714D01*
X9894524Y-12051667D01*
X9913571Y-12042143D01*
X9942143Y-12042143D01*
X9961190Y-12051667D01*
X10037381Y-12251667D02*
X10046905Y-12242143D01*
X10065952Y-12213572D01*
X10075476Y-12194524D01*
X10085000Y-12165952D01*
X10094524Y-12118333D01*
X10094524Y-12080238D01*
X10085000Y-12032619D01*
X10075476Y-12004048D01*
X10065952Y-11985000D01*
X10046905Y-11956429D01*
X10037381Y-11946905D01*
D14*
X5035000Y-12309000D02*
X5035000Y-12389000D01*
X4995000Y-12349000D02*
X5075000Y-12349000D01*
D11*
X5370714Y-12239476D02*
X5389762Y-12239476D01*
X5408809Y-12249000D01*
X5418333Y-12258524D01*
X5427857Y-12277572D01*
X5437381Y-12315667D01*
X5437381Y-12363286D01*
X5427857Y-12401381D01*
X5418333Y-12420429D01*
X5408809Y-12429952D01*
X5389762Y-12439476D01*
X5370714Y-12439476D01*
X5351666Y-12429952D01*
X5342143Y-12420429D01*
X5332619Y-12401381D01*
X5323095Y-12363286D01*
X5323095Y-12315667D01*
X5332619Y-12277572D01*
X5342143Y-12258524D01*
X5351666Y-12249000D01*
X5370714Y-12239476D01*
X5523095Y-12420429D02*
X5532619Y-12429952D01*
X5523095Y-12439476D01*
X5513571Y-12429952D01*
X5523095Y-12420429D01*
X5523095Y-12439476D01*
X5646904Y-12325191D02*
X5627857Y-12315667D01*
X5618333Y-12306143D01*
X5608809Y-12287095D01*
X5608809Y-12277572D01*
X5618333Y-12258524D01*
X5627857Y-12249000D01*
X5646904Y-12239476D01*
X5685000Y-12239476D01*
X5704047Y-12249000D01*
X5713571Y-12258524D01*
X5723095Y-12277572D01*
X5723095Y-12287095D01*
X5713571Y-12306143D01*
X5704047Y-12315667D01*
X5685000Y-12325191D01*
X5646904Y-12325191D01*
X5627857Y-12334714D01*
X5618333Y-12344238D01*
X5608809Y-12363286D01*
X5608809Y-12401381D01*
X5618333Y-12420429D01*
X5627857Y-12429952D01*
X5646904Y-12439476D01*
X5685000Y-12439476D01*
X5704047Y-12429952D01*
X5713571Y-12420429D01*
X5723095Y-12401381D01*
X5723095Y-12363286D01*
X5713571Y-12344238D01*
X5704047Y-12334714D01*
X5685000Y-12325191D01*
X5846904Y-12239476D02*
X5865952Y-12239476D01*
X5885000Y-12249000D01*
X5894524Y-12258524D01*
X5904047Y-12277572D01*
X5913571Y-12315667D01*
X5913571Y-12363286D01*
X5904047Y-12401381D01*
X5894524Y-12420429D01*
X5885000Y-12429952D01*
X5865952Y-12439476D01*
X5846904Y-12439476D01*
X5827857Y-12429952D01*
X5818333Y-12420429D01*
X5808809Y-12401381D01*
X5799285Y-12363286D01*
X5799285Y-12315667D01*
X5808809Y-12277572D01*
X5818333Y-12258524D01*
X5827857Y-12249000D01*
X5846904Y-12239476D01*
X6037381Y-12239476D02*
X6056428Y-12239476D01*
X6075476Y-12249000D01*
X6085000Y-12258524D01*
X6094524Y-12277572D01*
X6104047Y-12315667D01*
X6104047Y-12363286D01*
X6094524Y-12401381D01*
X6085000Y-12420429D01*
X6075476Y-12429952D01*
X6056428Y-12439476D01*
X6037381Y-12439476D01*
X6018333Y-12429952D01*
X6008809Y-12420429D01*
X5999285Y-12401381D01*
X5989762Y-12363286D01*
X5989762Y-12315667D01*
X5999285Y-12277572D01*
X6008809Y-12258524D01*
X6018333Y-12249000D01*
X6037381Y-12239476D01*
X6189762Y-12439476D02*
X6189762Y-12306143D01*
X6189762Y-12325191D02*
X6199285Y-12315667D01*
X6218333Y-12306143D01*
X6246904Y-12306143D01*
X6265952Y-12315667D01*
X6275476Y-12334714D01*
X6275476Y-12439476D01*
X6275476Y-12334714D02*
X6285000Y-12315667D01*
X6304047Y-12306143D01*
X6332619Y-12306143D01*
X6351666Y-12315667D01*
X6361190Y-12334714D01*
X6361190Y-12439476D01*
X6456428Y-12439476D02*
X6456428Y-12306143D01*
X6456428Y-12325191D02*
X6465952Y-12315667D01*
X6485000Y-12306143D01*
X6513571Y-12306143D01*
X6532619Y-12315667D01*
X6542143Y-12334714D01*
X6542143Y-12439476D01*
X6542143Y-12334714D02*
X6551666Y-12315667D01*
X6570714Y-12306143D01*
X6599285Y-12306143D01*
X6618333Y-12315667D01*
X6627857Y-12334714D01*
X6627857Y-12439476D01*
X7018333Y-12229952D02*
X6846904Y-12487095D01*
X7275476Y-12239476D02*
X7294524Y-12239476D01*
X7313571Y-12249000D01*
X7323095Y-12258524D01*
X7332619Y-12277572D01*
X7342143Y-12315667D01*
X7342143Y-12363286D01*
X7332619Y-12401381D01*
X7323095Y-12420429D01*
X7313571Y-12429952D01*
X7294524Y-12439476D01*
X7275476Y-12439476D01*
X7256428Y-12429952D01*
X7246904Y-12420429D01*
X7237381Y-12401381D01*
X7227857Y-12363286D01*
X7227857Y-12315667D01*
X7237381Y-12277572D01*
X7246904Y-12258524D01*
X7256428Y-12249000D01*
X7275476Y-12239476D01*
X7427857Y-12420429D02*
X7437381Y-12429952D01*
X7427857Y-12439476D01*
X7418333Y-12429952D01*
X7427857Y-12420429D01*
X7427857Y-12439476D01*
X7561190Y-12239476D02*
X7580238Y-12239476D01*
X7599285Y-12249000D01*
X7608809Y-12258524D01*
X7618333Y-12277572D01*
X7627857Y-12315667D01*
X7627857Y-12363286D01*
X7618333Y-12401381D01*
X7608809Y-12420429D01*
X7599285Y-12429952D01*
X7580238Y-12439476D01*
X7561190Y-12439476D01*
X7542143Y-12429952D01*
X7532619Y-12420429D01*
X7523095Y-12401381D01*
X7513571Y-12363286D01*
X7513571Y-12315667D01*
X7523095Y-12277572D01*
X7532619Y-12258524D01*
X7542143Y-12249000D01*
X7561190Y-12239476D01*
X7694524Y-12239476D02*
X7818333Y-12239476D01*
X7751666Y-12315667D01*
X7780238Y-12315667D01*
X7799285Y-12325191D01*
X7808809Y-12334714D01*
X7818333Y-12353762D01*
X7818333Y-12401381D01*
X7808809Y-12420429D01*
X7799285Y-12429952D01*
X7780238Y-12439476D01*
X7723095Y-12439476D01*
X7704047Y-12429952D01*
X7694524Y-12420429D01*
X8008809Y-12439476D02*
X7894524Y-12439476D01*
X7951666Y-12439476D02*
X7951666Y-12239476D01*
X7932619Y-12268048D01*
X7913571Y-12287095D01*
X7894524Y-12296619D01*
X8189762Y-12239476D02*
X8094524Y-12239476D01*
X8085000Y-12334714D01*
X8094524Y-12325191D01*
X8113571Y-12315667D01*
X8161190Y-12315667D01*
X8180238Y-12325191D01*
X8189762Y-12334714D01*
X8199285Y-12353762D01*
X8199285Y-12401381D01*
X8189762Y-12420429D01*
X8180238Y-12429952D01*
X8161190Y-12439476D01*
X8113571Y-12439476D01*
X8094524Y-12429952D01*
X8085000Y-12420429D01*
X8275476Y-12239476D02*
X8275476Y-12277572D01*
X8351666Y-12239476D02*
X8351666Y-12277572D01*
X8646905Y-12515667D02*
X8637381Y-12506143D01*
X8618333Y-12477572D01*
X8608809Y-12458524D01*
X8599286Y-12429952D01*
X8589762Y-12382333D01*
X8589762Y-12344238D01*
X8599286Y-12296619D01*
X8608809Y-12268048D01*
X8618333Y-12249000D01*
X8637381Y-12220429D01*
X8646905Y-12210905D01*
X8713571Y-12258524D02*
X8723095Y-12249000D01*
X8742143Y-12239476D01*
X8789762Y-12239476D01*
X8808809Y-12249000D01*
X8818333Y-12258524D01*
X8827857Y-12277572D01*
X8827857Y-12296619D01*
X8818333Y-12325191D01*
X8704047Y-12439476D01*
X8827857Y-12439476D01*
X9065952Y-12439476D02*
X9065952Y-12239476D01*
X9151666Y-12439476D02*
X9151666Y-12334714D01*
X9142143Y-12315667D01*
X9123095Y-12306143D01*
X9094524Y-12306143D01*
X9075476Y-12315667D01*
X9065952Y-12325191D01*
X9275476Y-12439476D02*
X9256428Y-12429952D01*
X9246905Y-12420429D01*
X9237381Y-12401381D01*
X9237381Y-12344238D01*
X9246905Y-12325191D01*
X9256428Y-12315667D01*
X9275476Y-12306143D01*
X9304047Y-12306143D01*
X9323095Y-12315667D01*
X9332619Y-12325191D01*
X9342143Y-12344238D01*
X9342143Y-12401381D01*
X9332619Y-12420429D01*
X9323095Y-12429952D01*
X9304047Y-12439476D01*
X9275476Y-12439476D01*
X9456428Y-12439476D02*
X9437381Y-12429952D01*
X9427857Y-12410905D01*
X9427857Y-12239476D01*
X9608809Y-12429952D02*
X9589762Y-12439476D01*
X9551666Y-12439476D01*
X9532619Y-12429952D01*
X9523095Y-12410905D01*
X9523095Y-12334714D01*
X9532619Y-12315667D01*
X9551666Y-12306143D01*
X9589762Y-12306143D01*
X9608809Y-12315667D01*
X9618333Y-12334714D01*
X9618333Y-12353762D01*
X9523095Y-12372810D01*
X9694524Y-12429952D02*
X9713571Y-12439476D01*
X9751666Y-12439476D01*
X9770714Y-12429952D01*
X9780238Y-12410905D01*
X9780238Y-12401381D01*
X9770714Y-12382333D01*
X9751666Y-12372810D01*
X9723095Y-12372810D01*
X9704047Y-12363286D01*
X9694524Y-12344238D01*
X9694524Y-12334714D01*
X9704047Y-12315667D01*
X9723095Y-12306143D01*
X9751666Y-12306143D01*
X9770714Y-12315667D01*
X9846905Y-12515667D02*
X9856428Y-12506143D01*
X9875476Y-12477572D01*
X9885000Y-12458524D01*
X9894524Y-12429952D01*
X9904047Y-12382333D01*
X9904047Y-12344238D01*
X9894524Y-12296619D01*
X9885000Y-12268048D01*
X9875476Y-12249000D01*
X9856428Y-12220429D01*
X9846905Y-12210905D01*
D10*
X5060356Y-12648356D02*
X5060356Y-12577644D01*
X4989644Y-12577644D01*
X4989644Y-12648356D01*
X5060356Y-12648356D01*
D11*
X5437381Y-12703476D02*
X5323095Y-12703476D01*
X5380238Y-12703476D02*
X5380238Y-12503476D01*
X5361190Y-12532048D01*
X5342143Y-12551095D01*
X5323095Y-12560619D01*
X5523095Y-12684429D02*
X5532619Y-12693952D01*
X5523095Y-12703476D01*
X5513571Y-12693952D01*
X5523095Y-12684429D01*
X5523095Y-12703476D01*
X5656428Y-12503476D02*
X5675476Y-12503476D01*
X5694524Y-12513000D01*
X5704047Y-12522524D01*
X5713571Y-12541572D01*
X5723095Y-12579667D01*
X5723095Y-12627286D01*
X5713571Y-12665381D01*
X5704047Y-12684429D01*
X5694524Y-12693952D01*
X5675476Y-12703476D01*
X5656428Y-12703476D01*
X5637381Y-12693952D01*
X5627857Y-12684429D01*
X5618333Y-12665381D01*
X5608809Y-12627286D01*
X5608809Y-12579667D01*
X5618333Y-12541572D01*
X5627857Y-12522524D01*
X5637381Y-12513000D01*
X5656428Y-12503476D01*
X5846904Y-12503476D02*
X5865952Y-12503476D01*
X5885000Y-12513000D01*
X5894524Y-12522524D01*
X5904047Y-12541572D01*
X5913571Y-12579667D01*
X5913571Y-12627286D01*
X5904047Y-12665381D01*
X5894524Y-12684429D01*
X5885000Y-12693952D01*
X5865952Y-12703476D01*
X5846904Y-12703476D01*
X5827857Y-12693952D01*
X5818333Y-12684429D01*
X5808809Y-12665381D01*
X5799285Y-12627286D01*
X5799285Y-12579667D01*
X5808809Y-12541572D01*
X5818333Y-12522524D01*
X5827857Y-12513000D01*
X5846904Y-12503476D01*
X6037381Y-12503476D02*
X6056428Y-12503476D01*
X6075476Y-12513000D01*
X6085000Y-12522524D01*
X6094524Y-12541572D01*
X6104047Y-12579667D01*
X6104047Y-12627286D01*
X6094524Y-12665381D01*
X6085000Y-12684429D01*
X6075476Y-12693952D01*
X6056428Y-12703476D01*
X6037381Y-12703476D01*
X6018333Y-12693952D01*
X6008809Y-12684429D01*
X5999285Y-12665381D01*
X5989762Y-12627286D01*
X5989762Y-12579667D01*
X5999285Y-12541572D01*
X6008809Y-12522524D01*
X6018333Y-12513000D01*
X6037381Y-12503476D01*
X6189762Y-12703476D02*
X6189762Y-12570143D01*
X6189762Y-12589191D02*
X6199285Y-12579667D01*
X6218333Y-12570143D01*
X6246904Y-12570143D01*
X6265952Y-12579667D01*
X6275476Y-12598714D01*
X6275476Y-12703476D01*
X6275476Y-12598714D02*
X6285000Y-12579667D01*
X6304047Y-12570143D01*
X6332619Y-12570143D01*
X6351666Y-12579667D01*
X6361190Y-12598714D01*
X6361190Y-12703476D01*
X6456428Y-12703476D02*
X6456428Y-12570143D01*
X6456428Y-12589191D02*
X6465952Y-12579667D01*
X6485000Y-12570143D01*
X6513571Y-12570143D01*
X6532619Y-12579667D01*
X6542143Y-12598714D01*
X6542143Y-12703476D01*
X6542143Y-12598714D02*
X6551666Y-12579667D01*
X6570714Y-12570143D01*
X6599285Y-12570143D01*
X6618333Y-12579667D01*
X6627857Y-12598714D01*
X6627857Y-12703476D01*
X7018333Y-12493952D02*
X6846904Y-12751095D01*
X7275476Y-12503476D02*
X7294524Y-12503476D01*
X7313571Y-12513000D01*
X7323095Y-12522524D01*
X7332619Y-12541572D01*
X7342143Y-12579667D01*
X7342143Y-12627286D01*
X7332619Y-12665381D01*
X7323095Y-12684429D01*
X7313571Y-12693952D01*
X7294524Y-12703476D01*
X7275476Y-12703476D01*
X7256428Y-12693952D01*
X7246904Y-12684429D01*
X7237381Y-12665381D01*
X7227857Y-12627286D01*
X7227857Y-12579667D01*
X7237381Y-12541572D01*
X7246904Y-12522524D01*
X7256428Y-12513000D01*
X7275476Y-12503476D01*
X7427857Y-12684429D02*
X7437381Y-12693952D01*
X7427857Y-12703476D01*
X7418333Y-12693952D01*
X7427857Y-12684429D01*
X7427857Y-12703476D01*
X7561190Y-12503476D02*
X7580238Y-12503476D01*
X7599285Y-12513000D01*
X7608809Y-12522524D01*
X7618333Y-12541572D01*
X7627857Y-12579667D01*
X7627857Y-12627286D01*
X7618333Y-12665381D01*
X7608809Y-12684429D01*
X7599285Y-12693952D01*
X7580238Y-12703476D01*
X7561190Y-12703476D01*
X7542143Y-12693952D01*
X7532619Y-12684429D01*
X7523095Y-12665381D01*
X7513571Y-12627286D01*
X7513571Y-12579667D01*
X7523095Y-12541572D01*
X7532619Y-12522524D01*
X7542143Y-12513000D01*
X7561190Y-12503476D01*
X7694524Y-12503476D02*
X7818333Y-12503476D01*
X7751666Y-12579667D01*
X7780238Y-12579667D01*
X7799285Y-12589191D01*
X7808809Y-12598714D01*
X7818333Y-12617762D01*
X7818333Y-12665381D01*
X7808809Y-12684429D01*
X7799285Y-12693952D01*
X7780238Y-12703476D01*
X7723095Y-12703476D01*
X7704047Y-12693952D01*
X7694524Y-12684429D01*
X7913571Y-12703476D02*
X7951666Y-12703476D01*
X7970714Y-12693952D01*
X7980238Y-12684429D01*
X7999285Y-12655857D01*
X8008809Y-12617762D01*
X8008809Y-12541572D01*
X7999285Y-12522524D01*
X7989762Y-12513000D01*
X7970714Y-12503476D01*
X7932619Y-12503476D01*
X7913571Y-12513000D01*
X7904047Y-12522524D01*
X7894524Y-12541572D01*
X7894524Y-12589191D01*
X7904047Y-12608238D01*
X7913571Y-12617762D01*
X7932619Y-12627286D01*
X7970714Y-12627286D01*
X7989762Y-12617762D01*
X7999285Y-12608238D01*
X8008809Y-12589191D01*
X8180238Y-12570143D02*
X8180238Y-12703476D01*
X8132619Y-12493952D02*
X8085000Y-12636810D01*
X8208809Y-12636810D01*
X8275476Y-12503476D02*
X8275476Y-12541572D01*
X8351666Y-12503476D02*
X8351666Y-12541572D01*
X8646905Y-12779667D02*
X8637381Y-12770143D01*
X8618333Y-12741572D01*
X8608809Y-12722524D01*
X8599286Y-12693952D01*
X8589762Y-12646333D01*
X8589762Y-12608238D01*
X8599286Y-12560619D01*
X8608809Y-12532048D01*
X8618333Y-12513000D01*
X8637381Y-12484429D01*
X8646905Y-12474905D01*
X8751666Y-12589191D02*
X8732619Y-12579667D01*
X8723095Y-12570143D01*
X8713571Y-12551095D01*
X8713571Y-12541572D01*
X8723095Y-12522524D01*
X8732619Y-12513000D01*
X8751666Y-12503476D01*
X8789762Y-12503476D01*
X8808809Y-12513000D01*
X8818333Y-12522524D01*
X8827857Y-12541572D01*
X8827857Y-12551095D01*
X8818333Y-12570143D01*
X8808809Y-12579667D01*
X8789762Y-12589191D01*
X8751666Y-12589191D01*
X8732619Y-12598714D01*
X8723095Y-12608238D01*
X8713571Y-12627286D01*
X8713571Y-12665381D01*
X8723095Y-12684429D01*
X8732619Y-12693952D01*
X8751666Y-12703476D01*
X8789762Y-12703476D01*
X8808809Y-12693952D01*
X8818333Y-12684429D01*
X8827857Y-12665381D01*
X8827857Y-12627286D01*
X8818333Y-12608238D01*
X8808809Y-12598714D01*
X8789762Y-12589191D01*
X9065952Y-12703476D02*
X9065952Y-12503476D01*
X9151666Y-12703476D02*
X9151666Y-12598714D01*
X9142143Y-12579667D01*
X9123095Y-12570143D01*
X9094524Y-12570143D01*
X9075476Y-12579667D01*
X9065952Y-12589191D01*
X9275476Y-12703476D02*
X9256428Y-12693952D01*
X9246905Y-12684429D01*
X9237381Y-12665381D01*
X9237381Y-12608238D01*
X9246905Y-12589191D01*
X9256428Y-12579667D01*
X9275476Y-12570143D01*
X9304047Y-12570143D01*
X9323095Y-12579667D01*
X9332619Y-12589191D01*
X9342143Y-12608238D01*
X9342143Y-12665381D01*
X9332619Y-12684429D01*
X9323095Y-12693952D01*
X9304047Y-12703476D01*
X9275476Y-12703476D01*
X9456428Y-12703476D02*
X9437381Y-12693952D01*
X9427857Y-12674905D01*
X9427857Y-12503476D01*
X9608809Y-12693952D02*
X9589762Y-12703476D01*
X9551666Y-12703476D01*
X9532619Y-12693952D01*
X9523095Y-12674905D01*
X9523095Y-12598714D01*
X9532619Y-12579667D01*
X9551666Y-12570143D01*
X9589762Y-12570143D01*
X9608809Y-12579667D01*
X9618333Y-12598714D01*
X9618333Y-12617762D01*
X9523095Y-12636810D01*
X9694524Y-12693952D02*
X9713571Y-12703476D01*
X9751666Y-12703476D01*
X9770714Y-12693952D01*
X9780238Y-12674905D01*
X9780238Y-12665381D01*
X9770714Y-12646333D01*
X9751666Y-12636810D01*
X9723095Y-12636810D01*
X9704047Y-12627286D01*
X9694524Y-12608238D01*
X9694524Y-12598714D01*
X9704047Y-12579667D01*
X9723095Y-12570143D01*
X9751666Y-12570143D01*
X9770714Y-12579667D01*
X9846905Y-12779667D02*
X9856428Y-12770143D01*
X9875476Y-12741572D01*
X9885000Y-12722524D01*
X9894524Y-12693952D01*
X9904047Y-12646333D01*
X9904047Y-12608238D01*
X9894524Y-12560619D01*
X9885000Y-12532048D01*
X9875476Y-12513000D01*
X9856428Y-12484429D01*
X9846905Y-12474905D01*
D15*
X5000000Y-12952000D02*
X5075000Y-12877000D01*
X5000000Y-12802000D01*
X4925000Y-12877000D01*
X5000000Y-12952000D01*
D11*
X5437381Y-12967476D02*
X5323095Y-12967476D01*
X5380238Y-12967476D02*
X5380238Y-12767476D01*
X5361190Y-12796048D01*
X5342143Y-12815095D01*
X5323095Y-12824619D01*
X5523095Y-12948429D02*
X5532619Y-12957952D01*
X5523095Y-12967476D01*
X5513571Y-12957952D01*
X5523095Y-12948429D01*
X5523095Y-12967476D01*
X5713571Y-12767476D02*
X5618333Y-12767476D01*
X5608809Y-12862714D01*
X5618333Y-12853191D01*
X5637381Y-12843667D01*
X5685000Y-12843667D01*
X5704047Y-12853191D01*
X5713571Y-12862714D01*
X5723095Y-12881762D01*
X5723095Y-12929381D01*
X5713571Y-12948429D01*
X5704047Y-12957952D01*
X5685000Y-12967476D01*
X5637381Y-12967476D01*
X5618333Y-12957952D01*
X5608809Y-12948429D01*
X5846904Y-12767476D02*
X5865952Y-12767476D01*
X5885000Y-12777000D01*
X5894524Y-12786524D01*
X5904047Y-12805572D01*
X5913571Y-12843667D01*
X5913571Y-12891286D01*
X5904047Y-12929381D01*
X5894524Y-12948429D01*
X5885000Y-12957952D01*
X5865952Y-12967476D01*
X5846904Y-12967476D01*
X5827857Y-12957952D01*
X5818333Y-12948429D01*
X5808809Y-12929381D01*
X5799285Y-12891286D01*
X5799285Y-12843667D01*
X5808809Y-12805572D01*
X5818333Y-12786524D01*
X5827857Y-12777000D01*
X5846904Y-12767476D01*
X6037381Y-12767476D02*
X6056428Y-12767476D01*
X6075476Y-12777000D01*
X6085000Y-12786524D01*
X6094524Y-12805572D01*
X6104047Y-12843667D01*
X6104047Y-12891286D01*
X6094524Y-12929381D01*
X6085000Y-12948429D01*
X6075476Y-12957952D01*
X6056428Y-12967476D01*
X6037381Y-12967476D01*
X6018333Y-12957952D01*
X6008809Y-12948429D01*
X5999285Y-12929381D01*
X5989762Y-12891286D01*
X5989762Y-12843667D01*
X5999285Y-12805572D01*
X6008809Y-12786524D01*
X6018333Y-12777000D01*
X6037381Y-12767476D01*
X6189762Y-12967476D02*
X6189762Y-12834143D01*
X6189762Y-12853191D02*
X6199285Y-12843667D01*
X6218333Y-12834143D01*
X6246904Y-12834143D01*
X6265952Y-12843667D01*
X6275476Y-12862714D01*
X6275476Y-12967476D01*
X6275476Y-12862714D02*
X6285000Y-12843667D01*
X6304047Y-12834143D01*
X6332619Y-12834143D01*
X6351666Y-12843667D01*
X6361190Y-12862714D01*
X6361190Y-12967476D01*
X6456428Y-12967476D02*
X6456428Y-12834143D01*
X6456428Y-12853191D02*
X6465952Y-12843667D01*
X6485000Y-12834143D01*
X6513571Y-12834143D01*
X6532619Y-12843667D01*
X6542143Y-12862714D01*
X6542143Y-12967476D01*
X6542143Y-12862714D02*
X6551666Y-12843667D01*
X6570714Y-12834143D01*
X6599285Y-12834143D01*
X6618333Y-12843667D01*
X6627857Y-12862714D01*
X6627857Y-12967476D01*
X7018333Y-12757952D02*
X6846904Y-13015095D01*
X7275476Y-12767476D02*
X7294524Y-12767476D01*
X7313571Y-12777000D01*
X7323095Y-12786524D01*
X7332619Y-12805572D01*
X7342143Y-12843667D01*
X7342143Y-12891286D01*
X7332619Y-12929381D01*
X7323095Y-12948429D01*
X7313571Y-12957952D01*
X7294524Y-12967476D01*
X7275476Y-12967476D01*
X7256428Y-12957952D01*
X7246904Y-12948429D01*
X7237381Y-12929381D01*
X7227857Y-12891286D01*
X7227857Y-12843667D01*
X7237381Y-12805572D01*
X7246904Y-12786524D01*
X7256428Y-12777000D01*
X7275476Y-12767476D01*
X7427857Y-12948429D02*
X7437381Y-12957952D01*
X7427857Y-12967476D01*
X7418333Y-12957952D01*
X7427857Y-12948429D01*
X7427857Y-12967476D01*
X7561190Y-12767476D02*
X7580238Y-12767476D01*
X7599285Y-12777000D01*
X7608809Y-12786524D01*
X7618333Y-12805572D01*
X7627857Y-12843667D01*
X7627857Y-12891286D01*
X7618333Y-12929381D01*
X7608809Y-12948429D01*
X7599285Y-12957952D01*
X7580238Y-12967476D01*
X7561190Y-12967476D01*
X7542143Y-12957952D01*
X7532619Y-12948429D01*
X7523095Y-12929381D01*
X7513571Y-12891286D01*
X7513571Y-12843667D01*
X7523095Y-12805572D01*
X7532619Y-12786524D01*
X7542143Y-12777000D01*
X7561190Y-12767476D01*
X7808809Y-12767476D02*
X7713571Y-12767476D01*
X7704047Y-12862714D01*
X7713571Y-12853191D01*
X7732619Y-12843667D01*
X7780238Y-12843667D01*
X7799285Y-12853191D01*
X7808809Y-12862714D01*
X7818333Y-12881762D01*
X7818333Y-12929381D01*
X7808809Y-12948429D01*
X7799285Y-12957952D01*
X7780238Y-12967476D01*
X7732619Y-12967476D01*
X7713571Y-12957952D01*
X7704047Y-12948429D01*
X7913571Y-12967476D02*
X7951666Y-12967476D01*
X7970714Y-12957952D01*
X7980238Y-12948429D01*
X7999285Y-12919857D01*
X8008809Y-12881762D01*
X8008809Y-12805572D01*
X7999285Y-12786524D01*
X7989762Y-12777000D01*
X7970714Y-12767476D01*
X7932619Y-12767476D01*
X7913571Y-12777000D01*
X7904047Y-12786524D01*
X7894524Y-12805572D01*
X7894524Y-12853191D01*
X7904047Y-12872238D01*
X7913571Y-12881762D01*
X7932619Y-12891286D01*
X7970714Y-12891286D01*
X7989762Y-12881762D01*
X7999285Y-12872238D01*
X8008809Y-12853191D01*
X8199285Y-12967476D02*
X8085000Y-12967476D01*
X8142143Y-12967476D02*
X8142143Y-12767476D01*
X8123095Y-12796048D01*
X8104047Y-12815095D01*
X8085000Y-12824619D01*
X8275476Y-12767476D02*
X8275476Y-12805572D01*
X8351666Y-12767476D02*
X8351666Y-12805572D01*
X8646905Y-13043667D02*
X8637381Y-13034143D01*
X8618333Y-13005572D01*
X8608809Y-12986524D01*
X8599286Y-12957952D01*
X8589762Y-12910333D01*
X8589762Y-12872238D01*
X8599286Y-12824619D01*
X8608809Y-12796048D01*
X8618333Y-12777000D01*
X8637381Y-12748429D01*
X8646905Y-12738905D01*
X8827857Y-12967476D02*
X8713571Y-12967476D01*
X8770714Y-12967476D02*
X8770714Y-12767476D01*
X8751666Y-12796048D01*
X8732619Y-12815095D01*
X8713571Y-12824619D01*
X9065952Y-12967476D02*
X9065952Y-12767476D01*
X9151666Y-12967476D02*
X9151666Y-12862714D01*
X9142143Y-12843667D01*
X9123095Y-12834143D01*
X9094524Y-12834143D01*
X9075476Y-12843667D01*
X9065952Y-12853191D01*
X9275476Y-12967476D02*
X9256428Y-12957952D01*
X9246905Y-12948429D01*
X9237381Y-12929381D01*
X9237381Y-12872238D01*
X9246905Y-12853191D01*
X9256428Y-12843667D01*
X9275476Y-12834143D01*
X9304047Y-12834143D01*
X9323095Y-12843667D01*
X9332619Y-12853191D01*
X9342143Y-12872238D01*
X9342143Y-12929381D01*
X9332619Y-12948429D01*
X9323095Y-12957952D01*
X9304047Y-12967476D01*
X9275476Y-12967476D01*
X9456428Y-12967476D02*
X9437381Y-12957952D01*
X9427857Y-12938905D01*
X9427857Y-12767476D01*
X9608809Y-12957952D02*
X9589762Y-12967476D01*
X9551666Y-12967476D01*
X9532619Y-12957952D01*
X9523095Y-12938905D01*
X9523095Y-12862714D01*
X9532619Y-12843667D01*
X9551666Y-12834143D01*
X9589762Y-12834143D01*
X9608809Y-12843667D01*
X9618333Y-12862714D01*
X9618333Y-12881762D01*
X9523095Y-12900810D01*
X9685000Y-13043667D02*
X9694524Y-13034143D01*
X9713571Y-13005572D01*
X9723095Y-12986524D01*
X9732619Y-12957952D01*
X9742143Y-12910333D01*
X9742143Y-12872238D01*
X9732619Y-12824619D01*
X9723095Y-12796048D01*
X9713571Y-12777000D01*
X9694524Y-12748429D01*
X9685000Y-12738905D01*
D16*
X4905000Y-13062000D02*
X5075000Y-13232000D01*
X5075000Y-13062000D02*
X4905000Y-13232000D01*
X5075000Y-13147000D02*
G75*
G03*
X5075000Y-13147000I-85000J0D01*
G01*
D11*
X5437381Y-13237476D02*
X5323095Y-13237476D01*
X5380238Y-13237476D02*
X5380238Y-13037476D01*
X5361190Y-13066048D01*
X5342143Y-13085095D01*
X5323095Y-13094619D01*
X5523095Y-13218429D02*
X5532619Y-13227952D01*
X5523095Y-13237476D01*
X5513571Y-13227952D01*
X5523095Y-13218429D01*
X5523095Y-13237476D01*
X5599285Y-13037476D02*
X5732619Y-13037476D01*
X5646904Y-13237476D01*
X5846904Y-13037476D02*
X5865952Y-13037476D01*
X5885000Y-13047000D01*
X5894524Y-13056524D01*
X5904047Y-13075572D01*
X5913571Y-13113667D01*
X5913571Y-13161286D01*
X5904047Y-13199381D01*
X5894524Y-13218429D01*
X5885000Y-13227952D01*
X5865952Y-13237476D01*
X5846904Y-13237476D01*
X5827857Y-13227952D01*
X5818333Y-13218429D01*
X5808809Y-13199381D01*
X5799285Y-13161286D01*
X5799285Y-13113667D01*
X5808809Y-13075572D01*
X5818333Y-13056524D01*
X5827857Y-13047000D01*
X5846904Y-13037476D01*
X6037381Y-13037476D02*
X6056428Y-13037476D01*
X6075476Y-13047000D01*
X6085000Y-13056524D01*
X6094524Y-13075572D01*
X6104047Y-13113667D01*
X6104047Y-13161286D01*
X6094524Y-13199381D01*
X6085000Y-13218429D01*
X6075476Y-13227952D01*
X6056428Y-13237476D01*
X6037381Y-13237476D01*
X6018333Y-13227952D01*
X6008809Y-13218429D01*
X5999285Y-13199381D01*
X5989762Y-13161286D01*
X5989762Y-13113667D01*
X5999285Y-13075572D01*
X6008809Y-13056524D01*
X6018333Y-13047000D01*
X6037381Y-13037476D01*
X6189762Y-13237476D02*
X6189762Y-13104143D01*
X6189762Y-13123191D02*
X6199285Y-13113667D01*
X6218333Y-13104143D01*
X6246904Y-13104143D01*
X6265952Y-13113667D01*
X6275476Y-13132714D01*
X6275476Y-13237476D01*
X6275476Y-13132714D02*
X6285000Y-13113667D01*
X6304047Y-13104143D01*
X6332619Y-13104143D01*
X6351666Y-13113667D01*
X6361190Y-13132714D01*
X6361190Y-13237476D01*
X6456428Y-13237476D02*
X6456428Y-13104143D01*
X6456428Y-13123191D02*
X6465952Y-13113667D01*
X6485000Y-13104143D01*
X6513571Y-13104143D01*
X6532619Y-13113667D01*
X6542143Y-13132714D01*
X6542143Y-13237476D01*
X6542143Y-13132714D02*
X6551666Y-13113667D01*
X6570714Y-13104143D01*
X6599285Y-13104143D01*
X6618333Y-13113667D01*
X6627857Y-13132714D01*
X6627857Y-13237476D01*
X7018333Y-13027952D02*
X6846904Y-13285095D01*
X7275476Y-13037476D02*
X7294524Y-13037476D01*
X7313571Y-13047000D01*
X7323095Y-13056524D01*
X7332619Y-13075572D01*
X7342143Y-13113667D01*
X7342143Y-13161286D01*
X7332619Y-13199381D01*
X7323095Y-13218429D01*
X7313571Y-13227952D01*
X7294524Y-13237476D01*
X7275476Y-13237476D01*
X7256428Y-13227952D01*
X7246904Y-13218429D01*
X7237381Y-13199381D01*
X7227857Y-13161286D01*
X7227857Y-13113667D01*
X7237381Y-13075572D01*
X7246904Y-13056524D01*
X7256428Y-13047000D01*
X7275476Y-13037476D01*
X7427857Y-13218429D02*
X7437381Y-13227952D01*
X7427857Y-13237476D01*
X7418333Y-13227952D01*
X7427857Y-13218429D01*
X7427857Y-13237476D01*
X7561190Y-13037476D02*
X7580238Y-13037476D01*
X7599285Y-13047000D01*
X7608809Y-13056524D01*
X7618333Y-13075572D01*
X7627857Y-13113667D01*
X7627857Y-13161286D01*
X7618333Y-13199381D01*
X7608809Y-13218429D01*
X7599285Y-13227952D01*
X7580238Y-13237476D01*
X7561190Y-13237476D01*
X7542143Y-13227952D01*
X7532619Y-13218429D01*
X7523095Y-13199381D01*
X7513571Y-13161286D01*
X7513571Y-13113667D01*
X7523095Y-13075572D01*
X7532619Y-13056524D01*
X7542143Y-13047000D01*
X7561190Y-13037476D01*
X7799285Y-13037476D02*
X7761190Y-13037476D01*
X7742143Y-13047000D01*
X7732619Y-13056524D01*
X7713571Y-13085095D01*
X7704047Y-13123191D01*
X7704047Y-13199381D01*
X7713571Y-13218429D01*
X7723095Y-13227952D01*
X7742143Y-13237476D01*
X7780238Y-13237476D01*
X7799285Y-13227952D01*
X7808809Y-13218429D01*
X7818333Y-13199381D01*
X7818333Y-13151762D01*
X7808809Y-13132714D01*
X7799285Y-13123191D01*
X7780238Y-13113667D01*
X7742143Y-13113667D01*
X7723095Y-13123191D01*
X7713571Y-13132714D01*
X7704047Y-13151762D01*
X7989762Y-13037476D02*
X7951666Y-13037476D01*
X7932619Y-13047000D01*
X7923095Y-13056524D01*
X7904047Y-13085095D01*
X7894524Y-13123191D01*
X7894524Y-13199381D01*
X7904047Y-13218429D01*
X7913571Y-13227952D01*
X7932619Y-13237476D01*
X7970714Y-13237476D01*
X7989762Y-13227952D01*
X7999285Y-13218429D01*
X8008809Y-13199381D01*
X8008809Y-13151762D01*
X7999285Y-13132714D01*
X7989762Y-13123191D01*
X7970714Y-13113667D01*
X7932619Y-13113667D01*
X7913571Y-13123191D01*
X7904047Y-13132714D01*
X7894524Y-13151762D01*
X8104047Y-13237476D02*
X8142143Y-13237476D01*
X8161190Y-13227952D01*
X8170714Y-13218429D01*
X8189762Y-13189857D01*
X8199285Y-13151762D01*
X8199285Y-13075572D01*
X8189762Y-13056524D01*
X8180238Y-13047000D01*
X8161190Y-13037476D01*
X8123095Y-13037476D01*
X8104047Y-13047000D01*
X8094524Y-13056524D01*
X8085000Y-13075572D01*
X8085000Y-13123191D01*
X8094524Y-13142238D01*
X8104047Y-13151762D01*
X8123095Y-13161286D01*
X8161190Y-13161286D01*
X8180238Y-13151762D01*
X8189762Y-13142238D01*
X8199285Y-13123191D01*
X8275476Y-13037476D02*
X8275476Y-13075572D01*
X8351666Y-13037476D02*
X8351666Y-13075572D01*
X8646905Y-13313667D02*
X8637381Y-13304143D01*
X8618333Y-13275572D01*
X8608809Y-13256524D01*
X8599286Y-13227952D01*
X8589762Y-13180333D01*
X8589762Y-13142238D01*
X8599286Y-13094619D01*
X8608809Y-13066048D01*
X8618333Y-13047000D01*
X8637381Y-13018429D01*
X8646905Y-13008905D01*
X8808809Y-13104143D02*
X8808809Y-13237476D01*
X8761190Y-13027952D02*
X8713571Y-13170810D01*
X8837381Y-13170810D01*
X9065952Y-13237476D02*
X9065952Y-13037476D01*
X9151666Y-13237476D02*
X9151666Y-13132714D01*
X9142143Y-13113667D01*
X9123095Y-13104143D01*
X9094524Y-13104143D01*
X9075476Y-13113667D01*
X9065952Y-13123191D01*
X9275476Y-13237476D02*
X9256428Y-13227952D01*
X9246905Y-13218429D01*
X9237381Y-13199381D01*
X9237381Y-13142238D01*
X9246905Y-13123191D01*
X9256428Y-13113667D01*
X9275476Y-13104143D01*
X9304047Y-13104143D01*
X9323095Y-13113667D01*
X9332619Y-13123191D01*
X9342143Y-13142238D01*
X9342143Y-13199381D01*
X9332619Y-13218429D01*
X9323095Y-13227952D01*
X9304047Y-13237476D01*
X9275476Y-13237476D01*
X9456428Y-13237476D02*
X9437381Y-13227952D01*
X9427857Y-13208905D01*
X9427857Y-13037476D01*
X9608809Y-13227952D02*
X9589762Y-13237476D01*
X9551666Y-13237476D01*
X9532619Y-13227952D01*
X9523095Y-13208905D01*
X9523095Y-13132714D01*
X9532619Y-13113667D01*
X9551666Y-13104143D01*
X9589762Y-13104143D01*
X9608809Y-13113667D01*
X9618333Y-13132714D01*
X9618333Y-13151762D01*
X9523095Y-13170810D01*
X9694524Y-13227952D02*
X9713571Y-13237476D01*
X9751666Y-13237476D01*
X9770714Y-13227952D01*
X9780238Y-13208905D01*
X9780238Y-13199381D01*
X9770714Y-13180333D01*
X9751666Y-13170810D01*
X9723095Y-13170810D01*
X9704047Y-13161286D01*
X9694524Y-13142238D01*
X9694524Y-13132714D01*
X9704047Y-13113667D01*
X9723095Y-13104143D01*
X9751666Y-13104143D01*
X9770714Y-13113667D01*
X9846905Y-13313667D02*
X9856428Y-13304143D01*
X9875476Y-13275572D01*
X9885000Y-13256524D01*
X9894524Y-13227952D01*
X9904047Y-13180333D01*
X9904047Y-13142238D01*
X9894524Y-13094619D01*
X9885000Y-13066048D01*
X9875476Y-13047000D01*
X9856428Y-13018429D01*
X9846905Y-13008905D01*
X4875000Y-13337000D02*
X5075000Y-13537000D01*
X5075000Y-13337000D02*
X4875000Y-13537000D01*
X4975000Y-13337000D02*
X4975000Y-13537000D01*
X4875000Y-13437000D02*
X5075000Y-13437000D01*
X5418333Y-13394143D02*
X5418333Y-13527476D01*
X5370714Y-13317952D02*
X5323095Y-13460810D01*
X5446905Y-13460810D01*
X5523095Y-13508429D02*
X5532619Y-13517952D01*
X5523095Y-13527476D01*
X5513571Y-13517952D01*
X5523095Y-13508429D01*
X5523095Y-13527476D01*
X5599285Y-13327476D02*
X5723095Y-13327476D01*
X5656428Y-13403667D01*
X5685000Y-13403667D01*
X5704047Y-13413191D01*
X5713571Y-13422714D01*
X5723095Y-13441762D01*
X5723095Y-13489381D01*
X5713571Y-13508429D01*
X5704047Y-13517952D01*
X5685000Y-13527476D01*
X5627857Y-13527476D01*
X5608809Y-13517952D01*
X5599285Y-13508429D01*
X5846904Y-13327476D02*
X5865952Y-13327476D01*
X5885000Y-13337000D01*
X5894524Y-13346524D01*
X5904047Y-13365572D01*
X5913571Y-13403667D01*
X5913571Y-13451286D01*
X5904047Y-13489381D01*
X5894524Y-13508429D01*
X5885000Y-13517952D01*
X5865952Y-13527476D01*
X5846904Y-13527476D01*
X5827857Y-13517952D01*
X5818333Y-13508429D01*
X5808809Y-13489381D01*
X5799285Y-13451286D01*
X5799285Y-13403667D01*
X5808809Y-13365572D01*
X5818333Y-13346524D01*
X5827857Y-13337000D01*
X5846904Y-13327476D01*
X6037381Y-13327476D02*
X6056428Y-13327476D01*
X6075476Y-13337000D01*
X6085000Y-13346524D01*
X6094524Y-13365572D01*
X6104047Y-13403667D01*
X6104047Y-13451286D01*
X6094524Y-13489381D01*
X6085000Y-13508429D01*
X6075476Y-13517952D01*
X6056428Y-13527476D01*
X6037381Y-13527476D01*
X6018333Y-13517952D01*
X6008809Y-13508429D01*
X5999285Y-13489381D01*
X5989762Y-13451286D01*
X5989762Y-13403667D01*
X5999285Y-13365572D01*
X6008809Y-13346524D01*
X6018333Y-13337000D01*
X6037381Y-13327476D01*
X6189762Y-13527476D02*
X6189762Y-13394143D01*
X6189762Y-13413191D02*
X6199285Y-13403667D01*
X6218333Y-13394143D01*
X6246904Y-13394143D01*
X6265952Y-13403667D01*
X6275476Y-13422714D01*
X6275476Y-13527476D01*
X6275476Y-13422714D02*
X6285000Y-13403667D01*
X6304047Y-13394143D01*
X6332619Y-13394143D01*
X6351666Y-13403667D01*
X6361190Y-13422714D01*
X6361190Y-13527476D01*
X6456428Y-13527476D02*
X6456428Y-13394143D01*
X6456428Y-13413191D02*
X6465952Y-13403667D01*
X6485000Y-13394143D01*
X6513571Y-13394143D01*
X6532619Y-13403667D01*
X6542143Y-13422714D01*
X6542143Y-13527476D01*
X6542143Y-13422714D02*
X6551666Y-13403667D01*
X6570714Y-13394143D01*
X6599285Y-13394143D01*
X6618333Y-13403667D01*
X6627857Y-13422714D01*
X6627857Y-13527476D01*
X7018333Y-13317952D02*
X6846904Y-13575095D01*
X7275476Y-13327476D02*
X7294524Y-13327476D01*
X7313571Y-13337000D01*
X7323095Y-13346524D01*
X7332619Y-13365572D01*
X7342143Y-13403667D01*
X7342143Y-13451286D01*
X7332619Y-13489381D01*
X7323095Y-13508429D01*
X7313571Y-13517952D01*
X7294524Y-13527476D01*
X7275476Y-13527476D01*
X7256428Y-13517952D01*
X7246904Y-13508429D01*
X7237381Y-13489381D01*
X7227857Y-13451286D01*
X7227857Y-13403667D01*
X7237381Y-13365572D01*
X7246904Y-13346524D01*
X7256428Y-13337000D01*
X7275476Y-13327476D01*
X7427857Y-13508429D02*
X7437381Y-13517952D01*
X7427857Y-13527476D01*
X7418333Y-13517952D01*
X7427857Y-13508429D01*
X7427857Y-13527476D01*
X7627857Y-13527476D02*
X7513571Y-13527476D01*
X7570714Y-13527476D02*
X7570714Y-13327476D01*
X7551666Y-13356048D01*
X7532619Y-13375095D01*
X7513571Y-13384619D01*
X7799285Y-13327476D02*
X7761190Y-13327476D01*
X7742143Y-13337000D01*
X7732619Y-13346524D01*
X7713571Y-13375095D01*
X7704047Y-13413191D01*
X7704047Y-13489381D01*
X7713571Y-13508429D01*
X7723095Y-13517952D01*
X7742143Y-13527476D01*
X7780238Y-13527476D01*
X7799285Y-13517952D01*
X7808809Y-13508429D01*
X7818333Y-13489381D01*
X7818333Y-13441762D01*
X7808809Y-13422714D01*
X7799285Y-13413191D01*
X7780238Y-13403667D01*
X7742143Y-13403667D01*
X7723095Y-13413191D01*
X7713571Y-13422714D01*
X7704047Y-13441762D01*
X7913571Y-13527476D02*
X7951666Y-13527476D01*
X7970714Y-13517952D01*
X7980238Y-13508429D01*
X7999285Y-13479857D01*
X8008809Y-13441762D01*
X8008809Y-13365572D01*
X7999285Y-13346524D01*
X7989762Y-13337000D01*
X7970714Y-13327476D01*
X7932619Y-13327476D01*
X7913571Y-13337000D01*
X7904047Y-13346524D01*
X7894524Y-13365572D01*
X7894524Y-13413191D01*
X7904047Y-13432238D01*
X7913571Y-13441762D01*
X7932619Y-13451286D01*
X7970714Y-13451286D01*
X7989762Y-13441762D01*
X7999285Y-13432238D01*
X8008809Y-13413191D01*
X8075476Y-13327476D02*
X8199285Y-13327476D01*
X8132619Y-13403667D01*
X8161190Y-13403667D01*
X8180238Y-13413191D01*
X8189762Y-13422714D01*
X8199285Y-13441762D01*
X8199285Y-13489381D01*
X8189762Y-13508429D01*
X8180238Y-13517952D01*
X8161190Y-13527476D01*
X8104047Y-13527476D01*
X8085000Y-13517952D01*
X8075476Y-13508429D01*
X8275476Y-13327476D02*
X8275476Y-13365572D01*
X8351666Y-13327476D02*
X8351666Y-13365572D01*
X8646905Y-13603667D02*
X8637381Y-13594143D01*
X8618333Y-13565572D01*
X8608809Y-13546524D01*
X8599286Y-13517952D01*
X8589762Y-13470333D01*
X8589762Y-13432238D01*
X8599286Y-13384619D01*
X8608809Y-13356048D01*
X8618333Y-13337000D01*
X8637381Y-13308429D01*
X8646905Y-13298905D01*
X8808809Y-13394143D02*
X8808809Y-13527476D01*
X8761190Y-13317952D02*
X8713571Y-13460810D01*
X8837381Y-13460810D01*
X9065952Y-13527476D02*
X9065952Y-13327476D01*
X9151666Y-13527476D02*
X9151666Y-13422714D01*
X9142143Y-13403667D01*
X9123095Y-13394143D01*
X9094524Y-13394143D01*
X9075476Y-13403667D01*
X9065952Y-13413191D01*
X9275476Y-13527476D02*
X9256428Y-13517952D01*
X9246905Y-13508429D01*
X9237381Y-13489381D01*
X9237381Y-13432238D01*
X9246905Y-13413191D01*
X9256428Y-13403667D01*
X9275476Y-13394143D01*
X9304047Y-13394143D01*
X9323095Y-13403667D01*
X9332619Y-13413191D01*
X9342143Y-13432238D01*
X9342143Y-13489381D01*
X9332619Y-13508429D01*
X9323095Y-13517952D01*
X9304047Y-13527476D01*
X9275476Y-13527476D01*
X9456428Y-13527476D02*
X9437381Y-13517952D01*
X9427857Y-13498905D01*
X9427857Y-13327476D01*
X9608809Y-13517952D02*
X9589762Y-13527476D01*
X9551666Y-13527476D01*
X9532619Y-13517952D01*
X9523095Y-13498905D01*
X9523095Y-13422714D01*
X9532619Y-13403667D01*
X9551666Y-13394143D01*
X9589762Y-13394143D01*
X9608809Y-13403667D01*
X9618333Y-13422714D01*
X9618333Y-13441762D01*
X9523095Y-13460810D01*
X9694524Y-13517952D02*
X9713571Y-13527476D01*
X9751666Y-13527476D01*
X9770714Y-13517952D01*
X9780238Y-13498905D01*
X9780238Y-13489381D01*
X9770714Y-13470333D01*
X9751666Y-13460810D01*
X9723095Y-13460810D01*
X9704047Y-13451286D01*
X9694524Y-13432238D01*
X9694524Y-13422714D01*
X9704047Y-13403667D01*
X9723095Y-13394143D01*
X9751666Y-13394143D01*
X9770714Y-13403667D01*
X9846905Y-13603667D02*
X9856428Y-13594143D01*
X9875476Y-13565572D01*
X9885000Y-13546524D01*
X9894524Y-13517952D01*
X9904047Y-13470333D01*
X9904047Y-13432238D01*
X9894524Y-13384619D01*
X9885000Y-13356048D01*
X9875476Y-13337000D01*
X9856428Y-13308429D01*
X9846905Y-13298905D01*
M02*
